<svg xmlns="http://www.w3.org/2000/svg" viewBox="0 0 412.64 447.64"><defs><style>.cls-1{fill:#f5f5f5;}.cls-2{fill:#e0e0e0;}.cls-3{fill:#27debf;}.cls-4{fill:#fff;opacity:0.4;}.cls-5{opacity:0.1;}.cls-6{fill:#ebebeb;}.cls-7{fill:#fafafa;}.cls-8{fill:#37474f;}.cls-9{fill:#455a64;}.cls-10{fill:#263238;}.cls-11{opacity:0.15;}.cls-12{fill:#b16668;}.cls-13{fill:#9a4a4d;}</style></defs><g id="Layer_2" data-name="Layer 2"><g id="Floor"><path id="Floor-2" data-name="Floor" class="cls-1" d="M60.43,415.8c80.57,42.46,211.21,42.46,291.78,0s80.57-111.32,0-153.78S141,219.55,60.43,262-20.14,373.33,60.43,415.8Z"/></g><g id="Shadow"><path id="Shadow-2" data-name="Shadow" class="cls-2" d="M25.89,362.67l3.74,2.14a4.82,4.82,0,0,0,4.33,0L206.77,265a1.32,1.32,0,0,0,0-2.5l-3.72-2.12a4.82,4.82,0,0,0-4.33,0L25.88,360.18A1.31,1.31,0,0,0,25.89,362.67Z"/><path id="Shadow-3" data-name="Shadow" class="cls-2" d="M312.67,390.15c-20.6,11.29-54,11.29-74.59,0s-20.59-29.6,0-40.89,54-11.29,74.59,0S333.26,378.86,312.67,390.15Z"/></g><g id="Tabs"><g id="Tab"><path class="cls-3" d="M30.55,360.15l-.76-.44a4.83,4.83,0,0,1-2.2-3.8V99.65a4.83,4.83,0,0,1,2.2-3.8L194.9.53a4.81,4.81,0,0,1,4.4,0l.76.43a4.88,4.88,0,0,1,2.2,3.81V261a4.86,4.86,0,0,1-2.2,3.8L34.94,360.15A4.85,4.85,0,0,1,30.55,360.15Z"/><path class="cls-4" d="M202.24,4.42c-.15-1.14-1.07-1.56-2.18-.92L34.94,98.83a4.54,4.54,0,0,0-1.56,1.63l-5.14-3a4.38,4.38,0,0,1,1.55-1.64L194.9.53a4.81,4.81,0,0,1,4.4,0l.76.43A4.93,4.93,0,0,1,202.24,4.42Z"/><path class="cls-5" d="M34.57,360.33a4.89,4.89,0,0,1-4-.18l-.77-.43a4.88,4.88,0,0,1-2.19-3.81V99.66a4.44,4.44,0,0,1,.65-2.17l5.14,3a4.63,4.63,0,0,0-.64,2.17V358.89C32.74,360.14,33.53,360.73,34.57,360.33Z"/></g><g id="Tabs-2" data-name="Tabs"><g id="Tab-2" data-name="Tab"><path class="cls-6" d="M52.21,267.48l-.76-.44a4.87,4.87,0,0,1-2.19-3.81V217.17a4.85,4.85,0,0,1,2.2-3.81l149.9-86.62a4.81,4.81,0,0,1,4.4,0l.76.43a4.88,4.88,0,0,1,2.2,3.81V177a4.88,4.88,0,0,1-2.2,3.81L56.61,267.48A4.87,4.87,0,0,1,52.21,267.48Z"/><path class="cls-7" d="M208.69,130.63c-.15-1.14-1.07-1.56-2.17-.92L56.61,216.34A4.65,4.65,0,0,0,55.05,218l-5.14-3a4.49,4.49,0,0,1,1.55-1.65l149.9-86.62a4.81,4.81,0,0,1,4.4,0l.76.43A4.92,4.92,0,0,1,208.69,130.63Z"/><path class="cls-2" d="M56.24,267.65a4.89,4.89,0,0,1-4-.17l-.77-.44a4.87,4.87,0,0,1-2.19-3.81V217.17a4.33,4.33,0,0,1,.65-2.16l5.14,3a4.59,4.59,0,0,0-.64,2.16v46.07C54.41,267.46,55.2,268.05,56.24,267.65Z"/><path class="cls-3" d="M77.81,213.25c8.55-4.93,15.48-1.09,15.48,8.58s-6.94,21.44-15.5,26.28-15.5,1-15.49-8.59S69.26,218.19,77.81,213.25Z"/></g><g id="Tab-3" data-name="Tab"><path class="cls-6" d="M52.21,329.89l-.76-.43a4.88,4.88,0,0,1-2.19-3.81V279.59a4.85,4.85,0,0,1,2.2-3.81l149.9-86.63a4.87,4.87,0,0,1,4.4,0l.76.44a4.88,4.88,0,0,1,2.2,3.81v46.06a4.86,4.86,0,0,1-2.2,3.8L56.61,329.89A4.87,4.87,0,0,1,52.21,329.89Z"/><path class="cls-7" d="M208.69,193.05c-.15-1.14-1.07-1.56-2.17-.93L56.61,278.76a4.65,4.65,0,0,0-1.56,1.64l-5.14-3a4.49,4.49,0,0,1,1.55-1.65l149.9-86.63a4.87,4.87,0,0,1,4.4,0l.76.44A4.92,4.92,0,0,1,208.69,193.05Z"/><path class="cls-2" d="M56.24,330.07a4.89,4.89,0,0,1-4-.18l-.77-.43a4.88,4.88,0,0,1-2.19-3.81V279.59a4.33,4.33,0,0,1,.65-2.16l5.14,3a4.59,4.59,0,0,0-.64,2.16v46.07C54.41,329.88,55.2,330.47,56.24,330.07Z"/><path class="cls-3" d="M77.81,275.67c8.55-4.94,15.48-1.1,15.48,8.58s-6.94,21.44-15.5,26.28-15.5,1-15.49-8.59S69.26,280.61,77.81,275.67Z"/></g><g id="Tab-4" data-name="Tab"><path class="cls-6" d="M52.21,163.09l-.76-.44a4.85,4.85,0,0,1-2.19-3.81v-46a4.84,4.84,0,0,1,2.2-3.81l149.9-86.63a4.87,4.87,0,0,1,4.4,0l.76.44a4.86,4.86,0,0,1,2.2,3.81V72.65a4.86,4.86,0,0,1-2.2,3.81L56.61,163.09A4.87,4.87,0,0,1,52.21,163.09Z"/><path class="cls-7" d="M208.69,26.24c-.15-1.14-1.07-1.55-2.17-.92L56.61,112a4.7,4.7,0,0,0-1.56,1.63l-5.14-3A4.46,4.46,0,0,1,51.46,109l149.9-86.63a4.87,4.87,0,0,1,4.4,0l.76.44A4.9,4.9,0,0,1,208.69,26.24Z"/><path class="cls-2" d="M56.24,163.26a4.89,4.89,0,0,1-4-.17l-.77-.44a4.85,4.85,0,0,1-2.19-3.81v-46a4.36,4.36,0,0,1,.65-2.17l5.14,3a4.63,4.63,0,0,0-.64,2.17v46.06C54.41,163.08,55.2,163.67,56.24,163.26Z"/><path class="cls-3" d="M77.81,108.87c8.55-4.94,15.48-1.1,15.48,8.58s-6.94,21.43-15.5,26.27-15.5,1-15.49-8.58S69.26,113.8,77.81,108.87Z"/></g><g id="Tab-5" data-name="Tab"><path class="cls-8" d="M62.75,221.57l-.76-.44a4.88,4.88,0,0,1-2.2-3.81V171.26a4.86,4.86,0,0,1,2.2-3.8L211.9,80.83a4.87,4.87,0,0,1,4.4,0l.75.44a4.83,4.83,0,0,1,2.2,3.8v46.06a4.85,4.85,0,0,1-2.2,3.81L67.15,221.57A4.87,4.87,0,0,1,62.75,221.57Z"/><path class="cls-9" d="M219.23,84.72c-.15-1.14-1.07-1.55-2.18-.92L67.14,170.44a4.43,4.43,0,0,0-1.55,1.63l-5.15-3A4.41,4.41,0,0,1,62,167.46L211.9,80.83a4.87,4.87,0,0,1,4.4,0l.75.44A4.91,4.91,0,0,1,219.23,84.72Z"/><path class="cls-10" d="M66.77,221.74a4.87,4.87,0,0,1-4-.17l-.77-.44a4.85,4.85,0,0,1-2.19-3.81v-46a4.42,4.42,0,0,1,.64-2.17l5.15,3a4.64,4.64,0,0,0-.65,2.17V220.3C64.94,221.56,65.74,222.14,66.77,221.74Z"/><path class="cls-1" d="M88.34,167.35c8.55-4.94,15.48-1.1,15.48,8.57s-6.94,21.44-15.49,26.28-15.5,1-15.5-8.58S79.79,172.28,88.34,167.35Z"/><path class="cls-3" d="M88.65,195.17a1.7,1.7,0,0,1-1.9.1L80,190.12c-.91-.68-.79-2.58.26-4.24s2.63-2.43,3.54-1.75l4.74,3.59,13.16-28.29c.82-1.77,2.39-3,3.51-2.65s1.36,2,.54,3.74l-15,32.3a5.42,5.42,0,0,1-1.92,2.29Z"/></g></g></g><g id="Cursor"><path class="cls-3" d="M219.22,153.12l-4.35-2.51h0c-1.89-1.08-4.2,0-5.42.74l-2.72-1.56h0c-3.29-2-7.86,2.17-8.89,3.17l-1.17-.68h0c-3.49-2.1-9.83,3.53-9.83,3.53V134.87l2.75-1.34L185.21,131h0l0,0h0a3.91,3.91,0,0,0-3.91.4h0a12.35,12.35,0,0,0-5.58,9.67v48.56c-4-3-8.27-4.79-12-4.13a12,12,0,0,0-7.26,5c-1.85,3.25,1.2,5.29,5.12,9.77s7.31,9.8,10.85,13.1a19.1,19.1,0,0,0,6.11,4.17v6.33l4.31,2.48,28.47-21.41v-6.33s4.07-16.22,5.37-23c1.25-6.53,2.4-16.93.25-22.34l2.32-.16Z"/><path class="cls-4" d="M219.22,153.12l-4.35-2.51h0c-1.89-1.08-4.2,0-5.42.74l-2.72-1.56h0c-3.29-2-7.86,2.17-8.89,3.17l-1.17-.68h0c-3.49-2.1-9.83,3.53-9.83,3.53V134.87l2.75-1.34L185.21,131h0l0,0h0a3.91,3.91,0,0,0-3.91.4h0a12.35,12.35,0,0,0-5.58,9.67v48.56c-4-3-8.27-4.79-12-4.13a12,12,0,0,0-7.26,5c-1.85,3.25,1.2,5.29,5.12,9.77s7.31,9.8,10.85,13.1a19.1,19.1,0,0,0,6.11,4.17v6.33l4.31,2.48,28.47-21.41v-6.33s4.07-16.22,5.37-23c1.25-6.53,2.4-16.93.25-22.34l2.32-.16Z"/><path class="cls-3" d="M187.1,209l-21.54-12.44-9.43-5.45c-1.2,2.94,1.71,5,5.4,9.21,3.88,4.45,7.31,9.8,10.85,13.1a19.1,19.1,0,0,0,6.11,4.17v6.33l4.31,2.48,6.29-4.73C188.27,216.24,187.1,209,187.1,209Z"/><polygon class="cls-3" points="179.99 143.53 175.68 141.05 175.68 191.99 179.99 192.1 179.99 143.53"/><path class="cls-3" d="M213.77,156.39l3.34-2.46c-.07-.22-.14-.44-.22-.65l1.21-.08-2.67-.12L211,150.61a10.45,10.45,0,0,0-1.5.75l1.39.82Z"/><path class="cls-3" d="M201.94,155.66l3.14-2.38-4.33-2.62a18.34,18.34,0,0,0-2.91,2.31l3,1.73Z"/><polygon class="cls-3" points="195.4 155.43 191.13 152.93 191.15 152.89 191.15 158.31 196.13 156.48 195.4 155.43"/><g class="cls-11"><path d="M187.1,209l-21.54-12.44-9.43-5.45c-1.2,2.94,1.71,5,5.4,9.21,3.88,4.45,7.31,9.8,10.85,13.1a19.1,19.1,0,0,0,6.11,4.17v6.33l4.31,2.48,6.29-4.73C188.27,216.24,187.1,209,187.1,209Z"/><polygon points="179.99 143.53 175.68 141.05 175.68 191.99 179.99 192.1 179.99 143.53"/><path d="M213.77,156.39l3.34-2.46c-.07-.22-.14-.44-.22-.65l1.21-.08-2.67-.12L211,150.61a10.45,10.45,0,0,0-1.5.75l1.39.82Z"/><path d="M201.94,155.66l3.14-2.38-4.33-2.62a18.34,18.34,0,0,0-2.91,2.31l3,1.73Z"/><polygon points="195.4 155.43 191.13 152.93 191.15 152.89 191.15 158.31 196.13 156.48 195.4 155.43"/></g><path class="cls-3" d="M182.8,226.35V220a19.15,19.15,0,0,1-6.11-4.16c-3.54-3.3-7-8.65-10.85-13.1s-7-6.53-5.12-9.78a12,12,0,0,1,7.26-5c3.74-.67,8,1.16,12,4.13V143.53a12.34,12.34,0,0,1,5.58-9.66h0c3.08-1.78,5.58-.34,5.58,3.22v21.22s7.68-6.83,10.79-2.64c0,0,7.55-7.92,11-1.23,0,0,5.54-4.48,8,.72s1.29,16.17,0,22.94-5.37,23-5.37,23v6.33Z"/><path class="cls-9" d="M191.15,167.41s.7-9.67,4.25-12l-.12,0a22.9,22.9,0,0,0-4.13,2.84v-.19a.25.25,0,0,0,0,.19Z"/><path class="cls-9" d="M201.94,155.66v8.86s1-9.11,3-11.31A18.74,18.74,0,0,0,201.94,155.66Z"/><path class="cls-9" d="M212.9,154.44h0v8.88s.54-8.95,2.47-10.27A10,10,0,0,0,212.9,154.44Z"/><path class="cls-6" d="M181.23,125.27h0c-.69.4-1.25.16-1.25-.53v-7a2.61,2.61,0,0,1,1.25-2h0c.69-.4,1.25-.16,1.25.53v7A2.61,2.61,0,0,1,181.23,125.27Z"/><path class="cls-6" d="M170.73,136.35h0c-.49.85-1.28,1.3-1.77,1L164.9,135c-.49-.28-.49-1.19,0-2h0c.48-.85,1.28-1.31,1.77-1l4.06,2.35C171.22,134.58,171.22,135.5,170.73,136.35Z"/><path class="cls-6" d="M166.38,150.88v.2A2.79,2.79,0,0,1,165,153.2l-5.56,3.22c-.75.42-1.35.17-1.35-.57v-.2a2.78,2.78,0,0,1,1.35-2.13l5.56-3.21C165.78,149.88,166.38,150.14,166.38,150.88Z"/><path class="cls-6" d="M196.08,133.94v-.2a2.8,2.8,0,0,1,1.34-2.13L203,128.4c.74-.43,1.34-.17,1.34.57v.2A2.8,2.8,0,0,1,203,131.3l-5.57,3.21C196.68,134.94,196.08,134.68,196.08,133.94Z"/><path class="cls-6" d="M191.73,124.23h0c-.49-.29-.49-1.2,0-2l4.06-7c.49-.85,1.29-1.31,1.78-1h0c.48.28.48,1.19,0,2l-4.07,7C193,124.05,192.22,124.51,191.73,124.23Z"/></g><g id="Character_1" data-name="Character 1"><path class="cls-12" d="M299.21,242.16c.77-28.56-1.52-35.41-9.13-40.64l-2.95,16.55s3.47,19.51,3.1,26c-.33,5.71-.89,12.85-2.23,17.46a3.5,3.5,0,0,1-1.52,2c-1.93,1.21-2.72,2.46-4.17,4-1.15,1.2-2.12,1.5-2,1.88a1.89,1.89,0,0,0,2.41.85,13.9,13.9,0,0,0,2.75-1.49,17.42,17.42,0,0,1-2.82,4.84c-2.71,3.32-2.83,5.37,2.65,5.42,3.44,0,6.18-2.09,8.76-9.66a61.94,61.94,0,0,0,2.42-8.5C297.82,253.32,299.08,246.76,299.21,242.16Z"/><path class="cls-3" d="M283.68,199.35a11,11,0,0,1,11.75,5.93c3.19,5.7,4,15.51,4.34,25.26,0,0-6.34,5.3-13.93,2.69Z"/><path class="cls-5" d="M283.68,199.35a11,11,0,0,1,11.75,5.93c3.19,5.7,4,15.51,4.34,25.26,0,0-6.34,5.3-13.93,2.69Z"/><path class="cls-10" d="M294.36,356.46c.58.22.72,1.32.81,3.5.07,1.65.42,4.54-1.51,5.11s-4.77.29-6-1.27c-1.55-1.94-2.6-3.66-4.81-6-1.91-2-4-4-4.76-6.86-.7-2.61-.12-3.74,1.66-4.49,2.45-1.05,6.29,2.36,8.21,2.9C289.6,349.78,293.78,356.25,294.36,356.46Z"/><path class="cls-12" d="M294.36,354.44v2.68a6.57,6.57,0,0,1-6.77.19c-.12-.26-.71-3.84-.71-3.84Z"/><path class="cls-10" d="M272.65,371.91s.77,2.33,1.19,4.37c.33,1.62.8,4.33.23,5.55s-2.78,2-6.21,2c-2.22,0-5.69,1.49-8.06,2.81s-7.54,1.91-10.13,1.61c-3.06-.36-6.22-2.13-6.71-3.39s.16-2.58,7.35-5.65c.07,0,10-3.26,13.49-7.1Z"/><path class="cls-12" d="M272.65,369s0,2,0,3.13-1.33,2.83-4.8,2.71c-2.44-.09-4.15-.75-4.05-2.76v-2.9Z"/><path class="cls-8" d="M296.1,318.87a72.42,72.42,0,0,0-3.16-14s1-12,1.42-23.46c.49-12.34,0-27.84.2-30.92,0,0-39.8-8.05-40.51,6.21s1.57,50.55,2,56.82,1.56,11.8,2.85,21.95,4.86,33.68,4.86,33.68a9.38,9.38,0,0,0,8.85-.18s2.81-28.51,2.51-35.74a61.8,61.8,0,0,0-2.74-15.77l1.42-22c.67-10.22,1.37-15.13,1.53-19.58l.86-.43s.87,17.65,1.34,23.91,1.47,12.27,3.28,23.9c1.57,10.1,6.25,31.45,6.25,31.45,4.55,2.46,7.26-.32,7.26-.32S297.33,327.63,296.1,318.87Z"/><path class="cls-10" d="M275.37,275.93s9.65-4.76,14.49-9.05c0,0-4.49,6.32-10.38,9.12,0,0-2.1,21.92-2.08,21.49l-1.21-21.6Z"/><polygon class="cls-12" points="266.77 194.83 269.13 207.79 280.84 206.94 278.38 192.25 266.77 194.83"/><path class="cls-3" d="M293.21,206c-1.16-3.52-5.64-7.36-10.11-6.53a131.87,131.87,0,0,0-19.6,4.9c-4.09,1.46-7.82,5-8.16,18.48,0,0-1.38,31.41-1.4,37.48,10.29,4.08,21,3.95,26.9,2.66,12.31-2.69,13.79-7.8,13.79-7.8s.16-22.59-.21-32.34C294.11,214.55,294,208.41,293.21,206Z"/><path class="cls-12" d="M257.74,179.07s-3,4.73-2.61,5.18,2.63.81,2.63.81Z"/><path class="cls-12" d="M266,166c-6.2,1.45-7.93,4.23-8.29,14.12-.38,10.34.74,13.56,2.13,14.92.94.92,6,1,8.58.21,3.2-1,10.4-3.69,13.68-9,3.87-6.21,4.73-14.51.37-17.81C276.33,163.8,268.51,165.38,266,166Z"/><path class="cls-13" d="M266.91,195.54c2.1-1.69,1.91-2.78,1.91-2.78-1.51,1.41-7.08,2.62-9,2.25C260.61,195.77,264.23,195.94,266.91,195.54Z"/><path class="cls-10" d="M257.76,168.54c1.82,3.11,5.77,4.6,5.77,4.6,1.18,1.35.53,6.63,2.62,7.47,0,0,.9-3.84,4.12-3.44s3.78,4.53,1.8,7.09-3.91,1.63-3.91,1.63.22,5.45,2.71,8.49c0,0,2.77.83,7.81-.36,3.09-.74,7.4-4.72,9.16-8.88,3.71-8.8,3.81-16.64-1.8-18.86-.69-4-3.89-5.73-7.51-6.48-7.8-1.6-12.82,3.26-18.82,2.84C256.28,162.4,255.64,164.9,257.76,168.54Z"/><path class="cls-10" d="M286.16,167.62l3.68-2.28a2.16,2.16,0,1,0-3.68,2.28Z"/><path class="cls-12" d="M263.82,204.3S258,205.38,255,210s-16.19,21.1-16.19,21.1-18.93-9.47-19.86-10.6-.4-3.39-.15-4.64.68-4,1-4.8c.49-1.36-1.53-1-2.71.28s-1.72,3.76-2.31,4.18-5.09-4.75-7.28-7.25-3.21-4.24-4.67-3.21c-1.06.74-.38,2.22,1.19,4.36a30.56,30.56,0,0,1,2,2.84c.19.38-.39.69-.62.9-.42.37-1.18,1-1.23,1.59a5.21,5.21,0,0,1-.06,1c-.2.71-1.09,1.05-1.33,1.74-.18.51,0,1.07-.09,1.6-.06.34-.25.65-.31,1a2.36,2.36,0,0,0,.7,1.84c1.53,1.82,3.63,2.52,5.65,3.63,1.67.93,3.4,1.33,5.32,2.19s24.61,17.62,28.15,15.67,21.68-23.15,21.68-23.15A14.66,14.66,0,0,0,263.82,204.3Z"/><path class="cls-3" d="M265.85,203.62c-2.5.29-6-.18-10.91,5.09a153.22,153.22,0,0,0-11,14.19,13.89,13.89,0,0,0,11,10.33s8.58-8.79,11-13.63S268.8,206.89,265.85,203.62Z"/><path class="cls-5" d="M265.85,203.62c-2.5.29-6-.18-10.91,5.09a153.22,153.22,0,0,0-11,14.19,13.89,13.89,0,0,0,11,10.33s8.58-8.79,11-13.63S268.8,206.89,265.85,203.62Z"/></g></g></svg>