<svg xmlns="http://www.w3.org/2000/svg" viewBox="0 0 608.31 430.14"><defs><style>.cls-1{isolation:isolate;}.cls-11,.cls-2{opacity:0.42;}.cls-11,.cls-3{fill:#e8c6cc;}.cls-4{opacity:0.8;}.cls-5{fill:#8ac9ff;}.cls-6{fill:#ff508a;}.cls-7{fill:#8f3dc4;}.cls-8{fill:#ffd942;}.cls-9{fill:#b3dcff;}.cls-10{fill:#723891;}.cls-12,.cls-23,.cls-25{opacity:0.4;}.cls-13,.cls-19{fill:#1c1c42;}.cls-14{mix-blend-mode:multiply;}.cls-14,.cls-19{opacity:0.2;}.cls-15,.cls-17,.cls-23{fill:#413e5e;}.cls-15,.cls-18{opacity:0.6;}.cls-16{fill:#2c2b4f;}.cls-18,.cls-20,.cls-21,.cls-24,.cls-25{fill:#575370;}.cls-21{opacity:0.5;}.cls-22,.cls-24{opacity:0.3;}.cls-26{fill:#ffb8bc;}.cls-27{fill:#4a245e;}.cls-28{fill:#ff808c;}.cls-29{fill:#ffba99;}.cls-30{fill:none;stroke:#312220;stroke-linecap:round;stroke-linejoin:round;stroke-width:0.56px;}.cls-31{fill:#e83479;}</style></defs><g class="cls-1"><g id="Layer_2" data-name="Layer 2"><g id="OBJECTS"><g class="cls-2"><path class="cls-3" d="M289.92,354A238.78,238.78,0,0,0,353,355.48c64.39-7.33,115.08-44.88,150-97.79,14.82-22.5,26.53-48.53,25.11-75.77-2.29-43.71-44.78-72-84.48-78.21-39-6-78,4.79-115.38,16.34-18.6,5.75-39.09,11.63-57.22,3.82-17.6-7.6-27.82-25.89-38-42.25C213.2,50,189.81,12.2,151.52,2.53c-25.69-6.48-54-.32-74.26,16.19C59.6,33.07,48.33,54.43,43.66,76.93s-3.06,46.09,2,68.71C62.55,221.85,121.87,282.71,188.83,319,220.38,336.07,254.79,348.58,289.92,354Z"/></g><g class="cls-4"><path class="cls-5" d="M447.22,195.42c5.91,25.91-5.45,53.14-1.16,79.38,1.26,7.72,3.86,15.18,5,22.92s.62,16.15-3.81,22.6c-4.1,6-11.06,9.45-18.16,10.82-4.26.82-8.82.94-12.8-.8-5.58-2.43-9.13-8.14-10.71-14-2.48-9.24-.86-19-.22-28.54s0-19.92-6-27.36c-3.88-4.78-9.66-7-13.89-11.44a35.26,35.26,0,0,1-9.17-18.15,23.82,23.82,0,0,1,.82-12.26,14.72,14.72,0,0,1,8.26-8.78c6.3-2.37,9.66,2.83,15.46,2.88,4.33,0,8-3.41,10-7.25s2.82-8.2,4.5-12.19c2-4.67,5.25-8.93,9.73-11.29s10.25-2.56,14.51.19S446.05,190.31,447.22,195.42Z"/><path class="cls-6" d="M151.58,342.22a5.75,5.75,0,0,1-1.25-2.65c-.43-2.53,1.21-5.09,3.44-6.36a8.48,8.48,0,0,1,5.15-1,11.31,11.31,0,0,1,6.15,3.07,8,8,0,0,1,2.42,3.49c.67,2.3-.7,4.29-2.54,5.54-3.41,2.32-7.56,1.81-11-.12A8.39,8.39,0,0,1,151.58,342.22Z"/><path class="cls-7" d="M432.5,241c3.7,8.56,9.47,16.3,10.81,25.7,1.75,12.34-4.46,25.66-2.42,37.94,1.77,10.7,13.66,26.92,24.74,30.2,14.23,4.22,30.37-7.74,34.42-21.11,2.43-8,2.68-16.24,2.37-24.29-1-26.22-8.39-52.36-25.92-70.86-5.23-5.53-11.57-10.43-19.38-12.09s-17.33.58-22.83,7C427.56,221.39,428.79,232.47,432.5,241Zm17.12-24.32a6.16,6.16,0,0,1,11.94,3c-.83,3.29-3.44,2.39-6.74,1.57S448.8,220,449.62,216.71Z"/><path class="cls-8" d="M236,335.58c-4.83,8.37-14.54,13.55-24.2,13.36a30.79,30.79,0,0,1-24.39-13.57,17.87,17.87,0,0,1-3.36-8.74,9.63,9.63,0,0,1,3.54-8.37c3.07-2.23,7.33-1.88,10.92-.68s7,3.13,10.68,3.86,8.14-.11,10.15-3.33a35.5,35.5,0,0,0,1.59-3.49c4-8.14,14.87-6.83,18.65.67C242.58,321.21,239.11,330.22,236,335.58Z"/><path class="cls-6" d="M517,301.49a16.22,16.22,0,0,0,.82-1.47c5.5-11.16-4-30.31,11.36-35.93,2.44-.88,5.18-1,7.36-2.42,3.4-2.21,4.28-6.87,3.86-10.91s-1.82-8-1.68-12a16.54,16.54,0,0,1,11-14.71c5-1.68,10.95-1,15.06-4.3,3.65-2.94,4.57-8.21,3.94-12.86s-2.53-9-3.5-13.61a35.35,35.35,0,0,1,2.54-22.18c2.64-5.62,7.17-10.75,13.18-12.26,4-1,8.22-.34,12.18.77,1,.26,1.92.57,2.87.91a20.16,20.16,0,0,1,8.69,5.49c3.65,4.25,4.47,10.52,2.77,15.86s-5.65,9.77-10.34,12.84c-2.37,1.54-5.09,2.93-6.32,5.48-2.29,4.75,1.81,9.87,4,14.65,3,6.57,2.43,14.48-.75,21s-8.72,11.64-15,15.21c-5.88,3.33-13.3,6.42-14.53,13.06-.76,4.11,1.29,8.22,3.74,11.6s5.42,6.5,6.94,10.4a16.44,16.44,0,0,1-5.36,18.66c-3.86,2.86-8.78,3.83-13.54,4.51-7.79,1.11-14.49,2.76-15.13,12.12-.16,2.44.3,5-.53,7.28-1.58,4.36-7.07,5.9-11.69,5.51a21.37,21.37,0,0,1-15.23-8c-3.56-4.71-4.6-11.39-2-16.71C513.07,306.54,515.37,304.2,517,301.49Z"/><path class="cls-9" d="M506.67,197.48a14.27,14.27,0,0,1,8.89-14.55,12.87,12.87,0,0,1,3.63-.78A14.32,14.32,0,0,1,531.84,188a11.5,11.5,0,0,1,2.06,5.29,19.79,19.79,0,0,1-.81,6.69c-1.14,4.74-6,15.54-3.14,19.72,2.09,3,5.74,4.64,8,7.5a11.36,11.36,0,0,1,.36,13.44c-3.31,4.56-10.14,6.83-11,12.4-.69,4.62,3.28,8.46,6.64,11.71,5.42,5.26,10.44,12.82,7.81,19.91-2.18,5.86-7.72,7.14-12,10.77-4,3.4-4.77,8.69-4.61,13.66.2,6.29.3,13.2-6.64,15.9-4,1.58-8.63,1-12.83-.14-6-1.62-11.79-4.45-15.81-9.13-5.42-6.31-7-19.35.25-25.27,2.4-2,5.53-3.41,6.69-6.29s-.06-6-1.68-8.62-3.69-5-4.54-7.87a10.51,10.51,0,0,1,3.41-10.8c3.13-2.52,7.83-3.35,9.62-6.94,3.06-6.18-5.6-13.31-3.18-19.76,1.69-4.48,7.71-5.7,10.33-9.71,2.2-3.38,1.45-7.89,0-11.64S507.13,201.49,506.67,197.48Z"/><path class="cls-8" d="M571.83,357.54c-5.89,1.3-12.21,2.2-16.85,6.11-3.78,3.19-6.27,8.25-11,9.79-4.5,1.48-9.66-1.22-11.85-5.44s-1.74-9.49.29-13.81,5.44-7.84,9.11-10.86a68.05,68.05,0,0,1,21.7-12,31.32,31.32,0,0,1,14.86-1.1c3.61.62,7.24,2.11,9.51,5C596,346,580.58,355.61,571.83,357.54Z"/><path class="cls-6" d="M516.47,191.52a4.23,4.23,0,0,1-2.77,3.78,1.11,1.11,0,0,1-1.37-.75,1.13,1.13,0,0,1,.75-1.37,1.91,1.91,0,0,0,1.19-1.61,1.12,1.12,0,0,1,1.07-1.13,1.11,1.11,0,0,1,1.13,1.08Z"/><path class="cls-6" d="M511.31,192.67l-.95-.24a1.1,1.1,0,0,1,.54-2.14l1,.24a1.1,1.1,0,0,1-.54,2.14Z"/><path class="cls-6" d="M508.74,187.65a2.74,2.74,0,0,1-.12-2.65,1.1,1.1,0,0,1,1.92,1.09q.06-.17,0,0c-.09.29,0-.18,0,.13a.39.39,0,0,0,.1.27,1.1,1.1,0,1,1-1.89,1.13Z"/><path class="cls-6" d="M512.86,185.32a4.49,4.49,0,0,0,.64-1.77,1.13,1.13,0,0,1,1.08-1.13,1.1,1.1,0,0,1,1.12,1.08,6.91,6.91,0,0,1-.92,2.9c-.73,1.22-2.66.14-1.92-1.08Z"/><path class="cls-6" d="M510.29,180.17l.53-2.14a1.1,1.1,0,0,1,2.14.53l-.54,2.14a1.1,1.1,0,0,1-2.13-.53Z"/><path class="cls-6" d="M505.5,182.64a8.78,8.78,0,0,0-3.86-.54c-1.42.12-1.46-2.08-.05-2.2a10.18,10.18,0,0,1,4.44.61c1.32.49.8,2.63-.53,2.13Z"/><path class="cls-6" d="M503.41,178a5.78,5.78,0,0,1-.07-3.37c.39-1.36,2.53-.83,2.14.54a3.58,3.58,0,0,0,0,2.22c.45,1.35-1.67,2-2.12.61Z"/><path class="cls-6" d="M505.18,191.21a4.51,4.51,0,0,0-2.57,1.26,1.11,1.11,0,0,1-1.51-.37,1.15,1.15,0,0,1,.38-1.52,6.06,6.06,0,0,1,3.65-1.57,1.1,1.1,0,0,1,.05,2.2Z"/><path class="cls-6" d="M501,187.33a4.59,4.59,0,0,0-2.4-.31,1.12,1.12,0,0,1-1.36-.75,1.09,1.09,0,0,1,.75-1.36,6.61,6.61,0,0,1,3.55.28,1.1,1.1,0,0,1-.54,2.14Z"/><path class="cls-6" d="M494.55,181.52l.48-3.16a1.11,1.11,0,0,1,1.34-.8,1.13,1.13,0,0,1,.8,1.34l-.48,3.15a1.11,1.11,0,0,1-1.34.81,1.13,1.13,0,0,1-.8-1.34Z"/><path class="cls-6" d="M498.5,177.33a1.1,1.1,0,0,1,.54-2.13,1.1,1.1,0,0,1-.54,2.13Z"/><path class="cls-6" d="M493.75,174.28l-2.86,1.3a1.12,1.12,0,0,1-1.51-.38,1.1,1.1,0,0,1,.38-1.51l2.86-1.3a1.13,1.13,0,0,1,1.51.38,1.1,1.1,0,0,1-.38,1.51Z"/><path class="cls-6" d="M492.37,183.24a7.6,7.6,0,0,1-1.77,3.14c-1,1-2.54-.5-1.57-1.54a5.19,5.19,0,0,0,1.2-2.13,1.1,1.1,0,0,1,2.14.53Z"/><path class="cls-6" d="M495.9,190.19l-.65,2.61a1.1,1.1,0,0,1-2.14-.53l.65-2.62a1.1,1.1,0,0,1,2.14.54Z"/><path class="cls-6" d="M503.4,194.24a29.15,29.15,0,0,0,4.41,1.34c1.38.31.84,2.45-.54,2.14a32.06,32.06,0,0,1-5-1.56c-1.31-.53-.21-2.44,1.09-1.92Z"/><path class="cls-6" d="M508.66,199.93c-.63,2.16-2.84,2.56-4.8,2.42a1.1,1.1,0,0,1-.05-2.2c.78.06,2.41.27,2.71-.75.4-1.36,2.54-.83,2.14.53Z"/><path class="cls-6" d="M501.41,200.07a1.24,1.24,0,0,0-.85.88,1.1,1.1,0,0,1-2.14-.53,3.53,3.53,0,0,1,2.37-2.47,1.11,1.11,0,0,1,.62,2.12Z"/><path class="cls-6" d="M497.29,194.2a1.1,1.1,0,0,1,.54-2.14,1.1,1.1,0,0,1-.54,2.14Z"/><path class="cls-6" d="M512,199.92a1.1,1.1,0,0,1,.54-2.14,1.1,1.1,0,0,1-.54,2.14Z"/><path class="cls-6" d="M496.22,200.43a17.88,17.88,0,0,1-5.56.17c-1.4-.17-.85-2.31.54-2.13a14.18,14.18,0,0,0,4.41-.16c1.39-.27,2,1.85.61,2.12Z"/><path class="cls-6" d="M489.49,195.82a4.06,4.06,0,0,1-1.69-4.13,1.1,1.1,0,0,1,1.33-.8,1.11,1.11,0,0,1,.8,1.33,1.82,1.82,0,0,0,.64,1.68,1.12,1.12,0,0,1,.42,1.5,1.11,1.11,0,0,1-1.5.42Z"/><path class="cls-6" d="M484.52,189.5a4.46,4.46,0,0,1-1.92-3.37,1.11,1.11,0,0,1,2.21,0,2,2,0,0,0,.24.83l.12.21c.19.28-.1-.1.12.15l.17.18s.28.23.14.13a1.12,1.12,0,0,1,.42,1.5,1.11,1.11,0,0,1-1.5.42Z"/><path class="cls-6" d="M488.19,180.43l-.24,2a1.1,1.1,0,0,1-1.34.8,1.12,1.12,0,0,1-.8-1.33l.24-2a1.1,1.1,0,0,1,1.34-.8,1.12,1.12,0,0,1,.8,1.33Z"/><path class="cls-6" d="M480.38,182.13a1.1,1.1,0,0,1,.53-2.14,1.1,1.1,0,0,1-.53,2.14Z"/><path class="cls-6" d="M484.22,197a1.1,1.1,0,0,1,.54-2.14,1.1,1.1,0,0,1-.54,2.14Z"/><path class="cls-6" d="M494.07,202.88c1.81.56,2.55,2.29,3,4,.36,1.38-1.76,2-2.12.62-.2-.81-.48-2.19-1.41-2.48-1.35-.42-.82-2.56.54-2.13Z"/><path class="cls-6" d="M499.78,205.43a1.1,1.1,0,0,1,.54-2.14,1.1,1.1,0,0,1-.54,2.14Z"/><path class="cls-6" d="M486,206a1.1,1.1,0,0,1,.53-2.14A1.1,1.1,0,0,1,486,206Z"/><path class="cls-6" d="M484.77,199.89a7.4,7.4,0,0,0-3.45-2.4c-1.35-.43-.82-2.57.54-2.13a9.53,9.53,0,0,1,4.45,2.95c.89,1.09-.64,2.68-1.54,1.58Z"/><path class="cls-6" d="M145.45,326.46c-6.26,4.69-7.52,12.83-12.07,18.91-8.17,10.92-26.26,13-39.41,7.26-6.3-2.75-11.78-7-18.37-9.1C61.12,338.82,45.35,345,30,345.92c-5.09.29-10.42-.07-14.88-2.29S7.26,337,7.89,332.4c.92-6.61,9.05-10.18,16.26-11.72s15.4-2.69,19.75-8.09A32.8,32.8,0,0,0,46.72,308c4-7.15,10.76-13.34,19.25-15.8s18.72-.62,24.45,5.52c2.81,3,4.44,6.8,7.44,9.65,6.3,6,17.06,6.16,25.66,3.33s15.91-8.07,24-12,17.84-6.4,26.31-3.27c6,6.24,4.64,17-2.71,21.87S152.58,321.12,145.45,326.46Z"/><path class="cls-8" d="M454.42,266.1a4.22,4.22,0,0,1,1.06,4.57,1.11,1.11,0,0,1-1.46.55,1.13,1.13,0,0,1-.55-1.46,1.9,1.9,0,0,0-.45-1.95,1.12,1.12,0,0,1-.15-1.55,1.1,1.1,0,0,1,1.55-.16Z"/><path class="cls-8" d="M451.93,270.76l-.8.57a1.1,1.1,0,0,1-1.27-1.8l.8-.57a1.1,1.1,0,0,1,1.27,1.8Z"/><path class="cls-8" d="M446.45,269.45a2.79,2.79,0,0,1-2.09-1.64,1.11,1.11,0,0,1,.67-1.41,1.13,1.13,0,0,1,1.41.66c-.06-.1-.05-.09,0,0,.17.26-.14-.1.09.1a.49.49,0,0,0,.27.1,1.1,1.1,0,0,1,.9,1.27,1.11,1.11,0,0,1-1.27.9Z"/><path class="cls-8" d="M447.36,264.8a4.37,4.37,0,0,0-.92-1.64,1.13,1.13,0,0,1-.15-1.55,1.1,1.1,0,0,1,1.55-.15,7.09,7.09,0,0,1,1.6,2.59c.44,1.35-1.63,2.1-2.08.75Z"/><path class="cls-8" d="M441.78,263.39l-1.27-1.8a1.1,1.1,0,0,1,1.8-1.27l1.27,1.8a1.1,1.1,0,0,1-1.8,1.27Z"/><path class="cls-8" d="M440.54,268.64a8.72,8.72,0,0,0-2.93,2.57c-.84,1.16-2.53-.25-1.7-1.39a10.12,10.12,0,0,1,3.36-3c1.23-.68,2.51,1.12,1.27,1.8Z"/><path class="cls-8" d="M435.66,267.2a5.79,5.79,0,0,1-2.6-2.14c-.79-1.19,1-2.46,1.8-1.28a3.58,3.58,0,0,0,1.71,1.41c1.32.54.4,2.54-.91,2Z"/><path class="cls-8" d="M446.83,274.46a4.46,4.46,0,0,0-.72,2.77,1.09,1.09,0,0,1-1.27.9,1.13,1.13,0,0,1-.9-1.27,6,6,0,0,1,1.19-3.79c.93-1.08,2.64.32,1.7,1.39Z"/><path class="cls-8" d="M441.18,275.07a4.58,4.58,0,0,0-1.79,1.62,1.12,1.12,0,0,1-1.46.55,1.1,1.1,0,0,1-.54-1.46,6.67,6.67,0,0,1,2.52-2.51,1.12,1.12,0,0,1,1.54.27,1.1,1.1,0,0,1-.27,1.53Z"/><path class="cls-8" d="M432.55,276.21l-2.08-2.42a1.11,1.11,0,0,1,.26-1.54,1.13,1.13,0,0,1,1.54.27l2.08,2.42a1.1,1.1,0,0,1-.26,1.53,1.13,1.13,0,0,1-1.54-.26Z"/><path class="cls-8" d="M432,270.49a1.1,1.1,0,0,1-1.27-1.8,1.1,1.1,0,0,1,1.27,1.8Z"/><path class="cls-8" d="M426.54,272.1l-.88,3a1.12,1.12,0,0,1-1.27.9,1.1,1.1,0,0,1-.9-1.27l.88-3a1.12,1.12,0,0,1,1.27-.9,1.1,1.1,0,0,1,.9,1.27Z"/><path class="cls-8" d="M432.43,279a7.36,7.36,0,0,1,1.23,3.38,1.1,1.1,0,0,1-2.19.19,5,5,0,0,0-.84-2.3c-.78-1.18,1-2.45,1.8-1.27Z"/><path class="cls-8" d="M440,280.84l1.55,2.2a1.1,1.1,0,0,1-1.8,1.27l-1.55-2.2a1.1,1.1,0,0,1,1.8-1.27Z"/><path class="cls-8" d="M448,277.79a28.1,28.1,0,0,0,3.89-2.47c1.14-.85,2.41.95,1.27,1.8a31.22,31.22,0,0,1-4.41,2.74c-1.25.66-2-1.42-.75-2.07Z"/><path class="cls-8" d="M455.71,277.51c1.22,1.88.09,3.82-1.29,5.22a1.13,1.13,0,0,1-1.55.15,1.1,1.1,0,0,1-.15-1.55c.55-.56,1.77-1.66,1.19-2.55-.77-1.19,1-2.46,1.8-1.27Z"/><path class="cls-8" d="M451.09,283.1a1.22,1.22,0,0,0,.12,1.22c.79,1.17-1,2.45-1.8,1.27a3.5,3.5,0,0,1-.33-3.41c.56-1.31,2.57-.39,2,.92Z"/><path class="cls-8" d="M444,282.39a1.11,1.11,0,0,1-1.28-1.8,1.11,1.11,0,0,1,1.28,1.8Z"/><path class="cls-8" d="M457.89,275a1.1,1.1,0,0,1-1.27-1.8,1.1,1.1,0,0,1,1.27,1.8Z"/><path class="cls-8" d="M448,287.26a17.39,17.39,0,0,1-3.49,4.33c-1.05,1-2.31-.85-1.27-1.8a14.07,14.07,0,0,0,2.75-3.44c.71-1.23,2.72-.32,2,.91Z"/><path class="cls-8" d="M440.09,289.37a4.07,4.07,0,0,1-4.23-1.41,1.11,1.11,0,0,1,.26-1.54,1.13,1.13,0,0,1,1.54.27,1.8,1.8,0,0,0,1.69.61,1.13,1.13,0,0,1,1.41.66,1.11,1.11,0,0,1-.67,1.41Z"/><path class="cls-8" d="M432.06,289a4.49,4.49,0,0,1-3.8-.74,1.11,1.11,0,0,1,1.4-1.71,2,2,0,0,0,.79.36l.23,0c.34,0-.14,0,.2,0h.24s.36-.07.19,0a1.13,1.13,0,0,1,1.41.67,1.09,1.09,0,0,1-.66,1.41Z"/><path class="cls-8" d="M427.58,280.33l1.33,1.46a1.1,1.1,0,0,1-.27,1.53,1.12,1.12,0,0,1-1.53-.26l-1.33-1.46a1.1,1.1,0,1,1,1.8-1.27Z"/><path class="cls-8" d="M423.77,287.35a1.1,1.1,0,0,1-1.27-1.8,1.1,1.1,0,0,1,1.27,1.8Z"/><path class="cls-8" d="M437.55,294.12a1.1,1.1,0,0,1-1.28-1.8,1.1,1.1,0,0,1,1.28,1.8Z"/><path class="cls-8" d="M448.43,290.49c1.61-1,3.41-.44,5,.34,1.27.63.36,2.63-.92,2-.75-.37-2-1.06-2.79-.55-1.2.75-2.48-1-1.28-1.8Z"/><path class="cls-8" d="M454.09,287.83a1.1,1.1,0,0,1-1.27-1.8,1.1,1.1,0,0,1,1.27,1.8Z"/><path class="cls-8" d="M445.55,298.66a1.1,1.1,0,0,1-1.27-1.8,1.1,1.1,0,0,1,1.27,1.8Z"/><path class="cls-8" d="M440.1,295.6a7.44,7.44,0,0,0-4.06,1.06c-1.2.73-2.48-1.06-1.27-1.8a9.38,9.38,0,0,1,5.15-1.45c1.4,0,1.61,2.22.18,2.19Z"/><path class="cls-7" d="M588.25,281.34a4.24,4.24,0,0,1,1.06,4.57,1.11,1.11,0,0,1-1.46.55,1.13,1.13,0,0,1-.55-1.46,1.9,1.9,0,0,0-.45-1.95,1.12,1.12,0,0,1-.15-1.55,1.1,1.1,0,0,1,1.55-.16Z"/><path class="cls-7" d="M585.76,286l-.8.57a1.1,1.1,0,0,1-1.27-1.8l.8-.57a1.1,1.1,0,0,1,1.27,1.8Z"/><path class="cls-7" d="M580.28,284.69a2.77,2.77,0,0,1-2.09-1.64,1.11,1.11,0,0,1,.66-1.41,1.13,1.13,0,0,1,1.42.66c-.06-.1-.06-.09,0,0s-.14-.1.09.1a.49.49,0,0,0,.27.1,1.1,1.1,0,0,1-.37,2.17Z"/><path class="cls-7" d="M581.19,280a4.51,4.51,0,0,0-.92-1.64,1.14,1.14,0,0,1-.16-1.55,1.11,1.11,0,0,1,1.56-.15,6.93,6.93,0,0,1,1.59,2.59,1.1,1.1,0,0,1-2.07.75Z"/><path class="cls-7" d="M575.61,278.63l-1.27-1.8a1.1,1.1,0,0,1,1.8-1.27l1.27,1.8a1.1,1.1,0,0,1-1.8,1.27Z"/><path class="cls-7" d="M574.36,283.88a8.69,8.69,0,0,0-2.92,2.57c-.84,1.16-2.54-.25-1.71-1.39a10.32,10.32,0,0,1,3.36-3c1.23-.68,2.52,1.12,1.27,1.8Z"/><path class="cls-7" d="M569.49,282.44a5.74,5.74,0,0,1-2.6-2.14c-.79-1.19,1-2.46,1.8-1.28a3.58,3.58,0,0,0,1.71,1.41c1.32.54.4,2.54-.91,2Z"/><path class="cls-7" d="M580.66,289.7a4.46,4.46,0,0,0-.72,2.77,1.09,1.09,0,0,1-1.27.9,1.13,1.13,0,0,1-.9-1.27,6,6,0,0,1,1.19-3.79c.93-1.08,2.63.32,1.7,1.39Z"/><path class="cls-7" d="M575,290.31a4.58,4.58,0,0,0-1.79,1.62,1.13,1.13,0,0,1-1.46.55,1.1,1.1,0,0,1-.55-1.46,6.7,6.7,0,0,1,2.53-2.51,1.11,1.11,0,0,1,1.53.27,1.09,1.09,0,0,1-.26,1.53Z"/><path class="cls-7" d="M566.38,291.45,564.29,289a1.1,1.1,0,1,1,1.8-1.27c.7.8,1.39,1.61,2.09,2.42a1.1,1.1,0,0,1-.27,1.53,1.12,1.12,0,0,1-1.53-.26Z"/><path class="cls-7" d="M565.78,285.73a1.11,1.11,0,0,1-1.28-1.8,1.11,1.11,0,0,1,1.28,1.8Z"/><path class="cls-7" d="M560.37,287.34c-.3,1-.59,2-.88,3a1.13,1.13,0,0,1-1.28.9,1.09,1.09,0,0,1-.89-1.27l.87-3a1.13,1.13,0,0,1,1.28-.9,1.11,1.11,0,0,1,.9,1.27Z"/><path class="cls-7" d="M566.26,294.23a7.48,7.48,0,0,1,1.23,3.38,1.1,1.1,0,0,1-2.19.19,5.13,5.13,0,0,0-.84-2.3c-.79-1.18,1-2.45,1.8-1.27Z"/><path class="cls-7" d="M573.84,296.08l1.55,2.2a1.1,1.1,0,0,1-1.8,1.27l-1.56-2.2a1.11,1.11,0,0,1,1.81-1.27Z"/><path class="cls-7" d="M581.79,293a28.1,28.1,0,0,0,3.89-2.47c1.14-.85,2.41.95,1.27,1.8a32.4,32.4,0,0,1-4.41,2.74c-1.26.66-2-1.42-.75-2.07Z"/><path class="cls-7" d="M589.54,292.75c1.22,1.88.09,3.82-1.29,5.22a1.13,1.13,0,0,1-1.55.15,1.11,1.11,0,0,1-.16-1.55c.56-.56,1.78-1.65,1.2-2.55-.77-1.19,1-2.46,1.8-1.27Z"/><path class="cls-7" d="M584.91,298.34a1.27,1.27,0,0,0,.12,1.22c.8,1.17-1,2.45-1.8,1.27a3.52,3.52,0,0,1-.32-3.41c.56-1.31,2.57-.39,2,.92Z"/><path class="cls-7" d="M577.78,297.63a1.1,1.1,0,0,1-1.27-1.8,1.1,1.1,0,0,1,1.27,1.8Z"/><path class="cls-7" d="M591.72,290.19a1.1,1.1,0,0,1-1.27-1.8,1.1,1.1,0,0,1,1.27,1.8Z"/><path class="cls-7" d="M581.81,302.5a17.62,17.62,0,0,1-3.49,4.34c-1.05,1-2.31-.86-1.27-1.81a14.07,14.07,0,0,0,2.75-3.44c.7-1.23,2.71-.32,2,.91Z"/><path class="cls-7" d="M573.92,304.61a4.07,4.07,0,0,1-4.23-1.41,1.11,1.11,0,0,1,.26-1.54,1.13,1.13,0,0,1,1.54.27,1.79,1.79,0,0,0,1.68.61,1.12,1.12,0,0,1,1.41.66,1.09,1.09,0,0,1-.66,1.41Z"/><path class="cls-7" d="M565.89,304.26a4.48,4.48,0,0,1-3.8-.74,1.11,1.11,0,0,1,1.4-1.71,2,2,0,0,0,.79.36l.23,0c.34.05-.14,0,.2,0H565s.36-.07.19,0a1.13,1.13,0,0,1,1.41.67,1.1,1.1,0,0,1-.66,1.41Z"/><path class="cls-7" d="M561.41,295.57l1.33,1.46a1.1,1.1,0,0,1-.27,1.53,1.12,1.12,0,0,1-1.53-.26l-1.33-1.46a1.11,1.11,0,0,1,.26-1.54,1.13,1.13,0,0,1,1.54.27Z"/><path class="cls-7" d="M557.6,302.59a1.1,1.1,0,0,1-1.27-1.8,1.1,1.1,0,0,1,1.27,1.8Z"/><path class="cls-7" d="M571.37,309.36a1.1,1.1,0,0,1-1.27-1.8,1.1,1.1,0,0,1,1.27,1.8Z"/><path class="cls-7" d="M582.26,305.73c1.61-1,3.41-.44,5,.34,1.28.63.37,2.63-.91,2-.75-.37-2-1.06-2.8-.55-1.2.75-2.48-1-1.27-1.8Z"/><path class="cls-7" d="M587.92,303.07a1.1,1.1,0,0,1-1.27-1.8,1.1,1.1,0,0,1,1.27,1.8Z"/><path class="cls-7" d="M579.38,313.9a1.1,1.1,0,0,1-1.27-1.8,1.1,1.1,0,0,1,1.27,1.8Z"/><path class="cls-7" d="M573.93,310.84a7.42,7.42,0,0,0-4.06,1.06c-1.21.73-2.49-1.06-1.27-1.8a9.35,9.35,0,0,1,5.14-1.45c1.41,0,1.62,2.22.19,2.19Z"/><path class="cls-10" d="M78.57,298.28a14.36,14.36,0,0,0,.58-1.79c3.46-13.45-14.94-31.42,3-41.59,2.84-1.61,6.32-2.48,8.65-4.58,3.66-3.29,3.28-8.52,1.44-12.74s-4.9-8.09-6-12.48c-1.81-7,2.08-14.84,9.32-18.73,5.87-3.15,13.73-4,17.93-8.66,3.74-4.14,3.23-10,.92-14.86s-6.15-9-8.88-13.66a33.35,33.35,0,0,1-3.87-24.47c1.57-6.73,5.73-13.45,13-16.7,4.8-2.16,10.43-2.57,15.88-2.46,1.31,0,2.64.1,4,.21,4.61.38,9.16,1.34,12.91,3.55A17.51,17.51,0,0,1,156,145.58c-.45,6.19-4.09,12-9.13,16.56-2.54,2.29-5.58,4.52-6.34,7.58-1.4,5.71,5.5,10.1,9.88,14.63a24,24,0,0,1,5.79,22.7c-2,7.82-7.44,14.83-14.36,20.35-6.46,5.15-15,10.47-14.42,17.92.34,4.61,4.29,8.47,8.52,11.44S145,262.27,148.2,266a15.85,15.85,0,0,1-.87,21.46c-4,4.11-10,6.47-15.91,8.48-9.64,3.29-17.71,6.87-15.5,17.08.57,2.66,2,5.26,1.65,7.95-.62,5.1-7.16,8.23-13.22,9.05-7.7,1.05-16-.36-22.1-4.45s-9.56-11-8-17.38C75.11,304.77,77.3,301.64,78.57,298.28Z"/><path class="cls-5" d="M23.13,195.88c-3.8-5.81-2.15-14,3.82-18.83A18.54,18.54,0,0,1,31,174.57c5.74-2.61,13-2.74,18.34,0a13.19,13.19,0,0,1,5.1,4.38,18.49,18.49,0,0,1,2.25,7.13c.9,5.31.18,18.48,5.74,21.36,4,2.09,9.28,2,13.5,3.81,5.54,2.37,8.54,8.14,7,13.4-1.84,6.14-9.1,11.61-7.41,17.62,1.4,5,8.12,7,13.81,8.72,9.2,2.78,19,8.07,19.24,16.45.18,6.92-6,10.8-9.51,16.48-3.3,5.32-1.62,11,1,15.93,3.3,6.25,6.78,13.18-.4,19.14-4.2,3.49-10.08,5-15.78,5.85-8.09,1.15-16.6,1-23.81-1.84-9.69-3.83-18-16.24-12-25.61,2-3.1,5.12-6,5.14-9.47s-3-6.07-6.24-7.91-6.92-3.27-9.37-5.83a10,10,0,0,1-1.08-12.48c2.6-4,8-7,8.4-11.49.75-7.66-13.32-10.82-13.48-18.46-.11-5.31,6.66-9.34,7.92-14.61,1.07-4.44-2-8.64-5.69-11.73S25.64,199.71,23.13,195.88Z"/><path class="cls-7" d="M58.2,318.19A4.23,4.23,0,0,1,55.42,322a1.09,1.09,0,0,1-1.36-.75,1.13,1.13,0,0,1,.75-1.37A1.91,1.91,0,0,0,56,318.24a1.13,1.13,0,0,1,1.08-1.13,1.12,1.12,0,0,1,1.13,1.08Z"/><path class="cls-7" d="M53,319.34l-.95-.24a1.1,1.1,0,0,1,.54-2.14l.95.24a1.1,1.1,0,0,1-.54,2.14Z"/><path class="cls-7" d="M50.46,314.32a2.75,2.75,0,0,1-.11-2.65,1.09,1.09,0,0,1,1.5-.41,1.13,1.13,0,0,1,.42,1.5c0-.11,0-.1,0,0-.09.29,0-.18,0,.13a.45.45,0,0,0,.1.27A1.1,1.1,0,0,1,52,314.7a1.12,1.12,0,0,1-1.51-.38Z"/><path class="cls-7" d="M54.58,312a4.36,4.36,0,0,0,.65-1.77,1.12,1.12,0,0,1,1.07-1.13,1.11,1.11,0,0,1,1.13,1.08,6.92,6.92,0,0,1-.93,2.9c-.73,1.22-2.65.14-1.92-1.08Z"/><path class="cls-7" d="M52,306.83l.54-2.13a1.1,1.1,0,0,1,2.14.53l-.54,2.14a1.1,1.1,0,0,1-2.14-.54Z"/><path class="cls-7" d="M47.22,309.31a8.74,8.74,0,0,0-3.86-.54c-1.42.12-1.46-2.09,0-2.2a10.21,10.21,0,0,1,4.45.6c1.32.5.79,2.64-.54,2.14Z"/><path class="cls-7" d="M45.14,304.67a5.69,5.69,0,0,1-.07-3.37c.38-1.36,2.52-.83,2.13.54a3.63,3.63,0,0,0,.06,2.21c.45,1.36-1.67,2-2.12.62Z"/><path class="cls-7" d="M46.91,317.88a4.45,4.45,0,0,0-2.57,1.26,1.1,1.1,0,0,1-1.51-.38,1.12,1.12,0,0,1,.38-1.51,6,6,0,0,1,3.65-1.57,1.1,1.1,0,0,1,0,2.2Z"/><path class="cls-7" d="M42.77,314a4.59,4.59,0,0,0-2.4-.3,1.13,1.13,0,0,1-1.37-.75,1.1,1.1,0,0,1,.75-1.36,6.6,6.6,0,0,1,3.55.28,1.12,1.12,0,0,1,.8,1.33,1.09,1.09,0,0,1-1.33.8Z"/><path class="cls-7" d="M36.28,308.19c.16-1.06.32-2.11.47-3.16a1.1,1.1,0,0,1,1.34-.8,1.12,1.12,0,0,1,.8,1.34c-.16,1.05-.32,2.1-.47,3.15a1.1,1.1,0,0,1-2.14-.53Z"/><path class="cls-7" d="M40.23,304a1.1,1.1,0,0,1,.53-2.14,1.1,1.1,0,0,1-.53,2.14Z"/><path class="cls-7" d="M35.47,301l-2.85,1.3a1.12,1.12,0,0,1-1.51-.38,1.09,1.09,0,0,1,.38-1.51l2.85-1.3a1.12,1.12,0,0,1,1.51.38,1.09,1.09,0,0,1-.38,1.51Z"/><path class="cls-7" d="M34.09,309.91a7.47,7.47,0,0,1-1.76,3.14c-1,1-2.55-.5-1.58-1.54a5,5,0,0,0,1.2-2.14c.39-1.36,2.53-.83,2.14.54Z"/><path class="cls-7" d="M37.63,316.86,37,319.47a1.1,1.1,0,0,1-2.13-.53l.65-2.62a1.1,1.1,0,0,1,2.14.54Z"/><path class="cls-7" d="M45.12,320.91a29.5,29.5,0,0,0,4.41,1.34,1.1,1.1,0,0,1-.53,2.14,32.82,32.82,0,0,1-5-1.56c-1.32-.53-.22-2.44,1.08-1.92Z"/><path class="cls-7" d="M50.39,326.6c-.63,2.16-2.84,2.56-4.8,2.42A1.12,1.12,0,0,1,44.46,328a1.11,1.11,0,0,1,1.08-1.13c.78.05,2.41.27,2.71-.76.4-1.36,2.54-.82,2.14.54Z"/><path class="cls-7" d="M43.14,326.74a1.25,1.25,0,0,0-.86.88,1.1,1.1,0,0,1-2.13-.53,3.51,3.51,0,0,1,2.37-2.47,1.11,1.11,0,0,1,.62,2.12Z"/><path class="cls-7" d="M39,320.87a1.1,1.1,0,0,1,.54-2.14,1.1,1.1,0,0,1-.54,2.14Z"/><path class="cls-7" d="M53.75,326.59a1.1,1.1,0,0,1,.53-2.14,1.1,1.1,0,0,1-.53,2.14Z"/><path class="cls-7" d="M38,327.09a17.58,17.58,0,0,1-5.56.18c-1.41-.17-.85-2.31.54-2.14a14.19,14.19,0,0,0,4.41-.15c1.38-.27,2,1.85.61,2.11Z"/><path class="cls-7" d="M31.21,322.49a4.09,4.09,0,0,1-1.69-4.13,1.1,1.1,0,1,1,2.14.53,1.8,1.8,0,0,0,.64,1.68,1.12,1.12,0,0,1,.41,1.5,1.1,1.1,0,0,1-1.5.42Z"/><path class="cls-7" d="M26.24,316.17a4.48,4.48,0,0,1-1.91-3.37,1.12,1.12,0,0,1,1.08-1.13,1.13,1.13,0,0,1,1.13,1.08,1.89,1.89,0,0,0,.24.83l.12.2c.18.29-.1-.09.12.16l.17.18s.28.23.14.13a1.12,1.12,0,0,1,.41,1.5,1.1,1.1,0,0,1-1.5.42Z"/><path class="cls-7" d="M29.92,307.1l-.25,2a1.09,1.09,0,0,1-1.33.8,1.11,1.11,0,0,1-.8-1.33l.24-2a1.1,1.1,0,0,1,1.34-.8,1.13,1.13,0,0,1,.8,1.33Z"/><path class="cls-7" d="M22.1,308.8a1.1,1.1,0,0,1,.54-2.14,1.1,1.1,0,0,1-.54,2.14Z"/><path class="cls-7" d="M26,323.65a1.1,1.1,0,0,1,.54-2.14,1.1,1.1,0,0,1-.54,2.14Z"/><path class="cls-7" d="M35.8,329.54c1.81.57,2.55,2.3,3,4,.35,1.38-1.76,2-2.12.62-.21-.81-.49-2.19-1.41-2.48-1.35-.42-.82-2.56.54-2.14Z"/><path class="cls-7" d="M41.5,332.1A1.1,1.1,0,0,1,42,330a1.1,1.1,0,0,1-.54,2.14Z"/><path class="cls-7" d="M27.72,332.68a1.1,1.1,0,0,1,.54-2.14,1.1,1.1,0,0,1-.54,2.14Z"/><path class="cls-7" d="M26.49,326.56a7.35,7.35,0,0,0-3.45-2.4c-1.34-.43-.81-2.57.54-2.14A9.45,9.45,0,0,1,28,325c.9,1.09-.63,2.67-1.54,1.58Z"/><path class="cls-8" d="M124.67,157.21A4.24,4.24,0,0,1,121.9,161a1.1,1.1,0,0,1-.62-2.12,1.94,1.94,0,0,0,1.19-1.61,1.12,1.12,0,0,1,1.07-1.13,1.1,1.1,0,0,1,1.13,1.07Z"/><path class="cls-8" d="M119.51,158.37l-1-.24a1.1,1.1,0,0,1,.54-2.14l1,.24a1.1,1.1,0,0,1-.54,2.14Z"/><path class="cls-8" d="M116.94,153.35a2.75,2.75,0,0,1-.12-2.65,1.11,1.11,0,0,1,1.5-.42,1.12,1.12,0,0,1,.42,1.5c0-.1,0-.1,0,0-.08.3,0-.17,0,.14a.47.47,0,0,0,.1.27,1.1,1.1,0,0,1-1.89,1.13Z"/><path class="cls-8" d="M121.06,151a4.44,4.44,0,0,0,.64-1.77,1.12,1.12,0,0,1,1.08-1.12c.54,0,1.19.48,1.12,1.07a7,7,0,0,1-.92,2.91c-.73,1.21-2.66.14-1.92-1.09Z"/><path class="cls-8" d="M118.49,145.86l.53-2.14a1.1,1.1,0,0,1,2.14.54l-.54,2.14a1.1,1.1,0,0,1-2.13-.54Z"/><path class="cls-8" d="M113.7,148.34a8.78,8.78,0,0,0-3.86-.54c-1.42.12-1.46-2.09,0-2.21a10.33,10.33,0,0,1,4.44.61c1.32.49.8,2.64-.53,2.14Z"/><path class="cls-8" d="M111.61,143.7a5.78,5.78,0,0,1-.07-3.37c.39-1.37,2.53-.83,2.14.54a3.55,3.55,0,0,0,0,2.21c.45,1.35-1.67,2-2.12.62Z"/><path class="cls-8" d="M113.38,156.91a4.45,4.45,0,0,0-2.57,1.26,1.1,1.1,0,0,1-1.51-.38,1.13,1.13,0,0,1,.38-1.51,6,6,0,0,1,3.65-1.58c1.42,0,1.48,2.22,0,2.21Z"/><path class="cls-8" d="M109.24,153a4.59,4.59,0,0,0-2.4-.3,1.13,1.13,0,0,1-1.36-.75,1.09,1.09,0,0,1,.75-1.37,6.82,6.82,0,0,1,3.55.28,1.14,1.14,0,0,1,.8,1.34,1.11,1.11,0,0,1-1.34.8Z"/><path class="cls-8" d="M102.75,147.21l.48-3.15a1.1,1.1,0,0,1,1.34-.8,1.12,1.12,0,0,1,.8,1.33l-.48,3.16a1.11,1.11,0,0,1-1.34.8,1.13,1.13,0,0,1-.8-1.34Z"/><path class="cls-8" d="M106.7,143a1.1,1.1,0,0,1,.54-2.14,1.1,1.1,0,0,1-.54,2.14Z"/><path class="cls-8" d="M102,140l-2.86,1.29a1.13,1.13,0,0,1-1.51-.38,1.1,1.1,0,0,1,.38-1.51l2.86-1.29a1.13,1.13,0,0,1,1.51.38A1.1,1.1,0,0,1,102,140Z"/><path class="cls-8" d="M100.57,148.94a7.66,7.66,0,0,1-1.77,3.14c-1,1-2.54-.51-1.57-1.55a5.13,5.13,0,0,0,1.2-2.13,1.1,1.1,0,0,1,2.14.54Z"/><path class="cls-8" d="M104.1,155.89l-.65,2.61a1.1,1.1,0,0,1-2.14-.54l.66-2.61a1.1,1.1,0,0,1,2.13.54Z"/><path class="cls-8" d="M111.6,159.93a27.33,27.33,0,0,0,4.41,1.34,1.1,1.1,0,0,1-.54,2.14,32.06,32.06,0,0,1-5-1.56c-1.31-.52-.21-2.44,1.09-1.92Z"/><path class="cls-8" d="M116.86,165.63c-.63,2.15-2.84,2.56-4.8,2.42a1.12,1.12,0,0,1-1.12-1.08,1.08,1.08,0,0,1,1.07-1.12c.78.05,2.41.26,2.71-.76.4-1.36,2.54-.83,2.14.54Z"/><path class="cls-8" d="M109.61,165.76a1.27,1.27,0,0,0-.85.89,1.1,1.1,0,0,1-2.14-.54,3.55,3.55,0,0,1,2.37-2.47,1.11,1.11,0,0,1,.62,2.12Z"/><path class="cls-8" d="M105.5,159.9a1.1,1.1,0,0,1,.53-2.14,1.1,1.1,0,0,1-.53,2.14Z"/><path class="cls-8" d="M120.22,165.61a1.1,1.1,0,0,1,.54-2.14,1.1,1.1,0,0,1-.54,2.14Z"/><path class="cls-8" d="M104.42,166.12a17.58,17.58,0,0,1-5.56.18c-1.4-.17-.85-2.31.54-2.14a14.18,14.18,0,0,0,4.41-.16c1.39-.26,2,1.85.61,2.12Z"/><path class="cls-8" d="M97.69,161.51A4.07,4.07,0,0,1,96,157.38a1.1,1.1,0,0,1,1.33-.8,1.12,1.12,0,0,1,.8,1.34,1.8,1.8,0,0,0,.64,1.67,1.14,1.14,0,0,1,.42,1.51,1.1,1.1,0,0,1-1.5.41Z"/><path class="cls-8" d="M92.72,155.19a4.4,4.4,0,0,1-1.91-3.36,1.1,1.1,0,0,1,1.07-1.13A1.13,1.13,0,0,1,93,151.78a2.08,2.08,0,0,0,.24.83l.13.2c.18.29-.11-.1.11.16.06.06.11.12.17.17s.28.23.14.13a1.13,1.13,0,0,1,.42,1.51,1.11,1.11,0,0,1-1.5.41Z"/><path class="cls-8" d="M96.39,146.13l-.24,2a1.11,1.11,0,0,1-1.34.8,1.13,1.13,0,0,1-.8-1.34l.24-2a1.11,1.11,0,0,1,1.34-.8,1.13,1.13,0,0,1,.8,1.34Z"/><path class="cls-8" d="M88.58,147.82a1.1,1.1,0,0,1,.53-2.14,1.1,1.1,0,0,1-.53,2.14Z"/><path class="cls-8" d="M92.42,162.68a1.1,1.1,0,0,1,.54-2.14,1.1,1.1,0,0,1-.54,2.14Z"/><path class="cls-8" d="M102.27,168.57c1.81.57,2.55,2.29,3,4,.36,1.38-1.76,2-2.11.61-.21-.8-.49-2.18-1.42-2.47-1.35-.42-.82-2.56.54-2.14Z"/><path class="cls-8" d="M108,171.12a1.1,1.1,0,0,1,.54-2.13,1.1,1.1,0,0,1-.54,2.13Z"/><path class="cls-8" d="M94.2,171.71a1.1,1.1,0,0,1,.53-2.14,1.1,1.1,0,0,1-.53,2.14Z"/><path class="cls-8" d="M93,165.58a7.45,7.45,0,0,0-3.45-2.39c-1.35-.44-.82-2.58.54-2.14a9.54,9.54,0,0,1,4.45,3c.9,1.08-.64,2.67-1.54,1.57Z"/></g><ellipse class="cls-11" cx="237.37" cy="390.28" rx="139.97" ry="22.01"/><ellipse class="cls-11" cx="452.08" cy="363.7" rx="61.93" ry="15.31"/><ellipse class="cls-11" cx="345.23" cy="66.56" rx="39.74" ry="33.81" transform="translate(0.33 134.78) rotate(-22.1)"/><g class="cls-12"><path class="cls-13" d="M179.13,242.34c-6.67-20.43-34.56-19.79-51-27-10.36-4.55-20.49-11.79-25.76-22.07-6.43-12.58-2.33-26.52,6.56-36.77A52.84,52.84,0,0,1,142,139c12.49-1.56,24.84,1.85,35.48,8.38,23.33,14.35,35.75,39.53,48.86,62.5,6.65,11.65,13.73,23.52,23.3,33.06,9.35,9.32,20.85,14.48,33.87,16.29,28.83,4,58.07-3.63,85.44-12,28.29-8.64,56.5-18.79,86.24-20.92,14.58-1,29.38-.07,43.44,4.13,6.6,2,13.29,4.63,18.48,9.3a26.55,26.55,0,0,1,8.51,17.2c1.32,13-5.38,25-15.7,32.64A57.83,57.83,0,0,1,493,298c-5.36,1.68-10.93,2.52-16.39,3.81-9.1,2.16-19.44,6.19-21.4,16.54-2.15,11.39,6.57,22.23,14.8,28.95a62.71,62.71,0,0,0,30.52,13.31,61.31,61.31,0,0,0,16.79.12c5.05-.68,10.86-1.72,15-4.85,8.06-6.05,2-15.38-5.79-17.68-10.7-3.16-18.53,6.89-23.7,14.75-6.22,9.45-12.8,18.2-21.36,25.69a114.14,114.14,0,0,1-27.6,17.76A124.75,124.75,0,0,1,388.32,407a115.71,115.71,0,0,1-33.65-9.08c-13-5.72-25.1-13.31-37.55-20.13-22.83-12.51-49.54-22.6-75.13-12.15-20.11,8.21-34.9,25.16-51.05,39-9.41,8.06-19.56,15.4-31.25,19.75-12.48,4.65-27.41,6.95-40.46,3.35-5.89-1.62-11.83-4.86-15-10.32-3.62-6.28-2.13-15.42-.48-22.1A36.91,36.91,0,0,1,107.68,385c1.93-3.16,7.58-7.86,11.16-4.1s-2.19,9.47-5,11.48c-3,2.19-6.16,4.42-9.74,5.56-6.14,2-12.85,1.58-19.16.82a122.74,122.74,0,0,1-22.44-5.18c-11.2-3.55-22.47-7.21-34.31-7.73C18,385.38,7.81,387.67.12,394.78c-.36.33.17.86.53.53,9.42-8.71,22.42-9.79,34.6-8.06,13.17,1.86,25.38,7.1,38.25,10.17,11.21,2.66,25.73,5.3,36.1-1.27,4.43-2.8,10.3-6.11,10.89-11.95.49-5-4.81-6.19-8.58-4.36-5.2,2.53-7.23,9.19-8.61,14.35-1.6,6-2.75,13.26-1.31,19.42,2.53,10.86,14.9,15.29,24.76,16.24,13.38,1.28,27.39-1.66,39.47-7.41,10.18-4.85,19.12-11.88,27.55-19.27,16.83-14.77,33-33,55.32-39.17,29.37-8.13,57.43,8.59,82,22.54,11.57,6.57,23.36,13,36.13,16.88a118.57,118.57,0,0,0,32.17,5.06,125.39,125.39,0,0,0,62.72-15.37,111.65,111.65,0,0,0,25.73-19.43,103,103,0,0,0,10.43-12.48c3.49-4.93,6.4-10.31,10.36-14.9,4.17-4.85,10-9.11,16.71-7.6,5,1.14,11.33,5.71,10,11.62-1.56,6.81-10.79,8.53-16.58,9.48a60.25,60.25,0,0,1-18.86,0,61.17,61.17,0,0,1-33-16.17c-8.92-8.62-17.21-24.58-5.4-34.54,8.9-7.51,22.23-7.18,32.82-10.72,10.94-3.65,21.48-10.33,27.42-20.48,5.44-9.31,6.68-21.63,1.6-31.36-5.79-11.08-18.78-15.58-30.19-18.29-28.48-6.76-58.23-1.28-85.91,6.5C378,243,349.31,254.38,318.93,258.22c-14.54,1.84-30.05,2.33-44.31-1.51s-24.92-13.34-33.54-25c-16.39-22.2-26-49-44.79-69.45-16.11-17.52-39.07-29.33-63.08-22.1-20.73,6.25-42.25,28.67-32.35,51.61,4.3,10,13.29,17.33,22.71,22.24,9.78,5.1,20.52,6.81,31,10,9.92,3.08,20.42,7.91,23.89,18.53.15.46.87.26.72-.2Z"/></g><path class="cls-13" d="M371.07,272.49,367,360.78a35.35,35.35,0,0,1-25.27,31.71h0a35.35,35.35,0,0,1-43.24-21.87l-24.63-68.1Z"/><g class="cls-14"><polygon class="cls-13" points="370.17 291.85 371.07 272.49 365.3 274.27 370.17 291.85"/><path class="cls-13" d="M312.48,363.59l-31.72-41.86,17.68,48.89a35.32,35.32,0,0,0,65.72,1.83C347.54,384,325.12,380.27,312.48,363.59Z"/></g><rect class="cls-13" x="166.28" y="208.51" width="145.52" height="107.38" transform="translate(71.2 -50.4) rotate(14.12)"/><rect class="cls-15" x="166.99" y="212.51" width="145.52" height="93.74" transform="translate(70.53 -50.66) rotate(14.12)"/><circle class="cls-16" cx="319.69" cy="278.62" r="51.74"/><rect class="cls-13" x="316.08" y="208.81" width="37.18" height="13.13" rx="5.36" transform="translate(62.66 -75.15) rotate(14.12)"/><circle class="cls-13" cx="259.96" cy="312.79" r="30.69"/><circle class="cls-16" cx="261.9" cy="305.06" r="30.69"/><path class="cls-16" d="M300.85,234.94l7.46-15.45a17.33,17.33,0,0,1,15.16-9.78h0a42.18,42.18,0,0,1,24.9,7.39l2,1.38a17.31,17.31,0,0,1,7.52,14.69l-.39,16Z"/><path class="cls-17" d="M322.38,215a39.74,39.74,0,0,1,23.46,7l1.9,1.3a16.32,16.32,0,0,1,4.85,5.22,14.82,14.82,0,0,0-6-8.62l-1.73-1.18a36.12,36.12,0,0,0-21.33-6.33,14.85,14.85,0,0,0-12.73,7.88A16.32,16.32,0,0,1,322.38,215Z"/><circle class="cls-16" cx="318.08" cy="275.93" r="46.87"/><circle class="cls-18" cx="318.08" cy="275.93" r="46.87"/><ellipse class="cls-18" cx="318.89" cy="278.15" rx="44.92" ry="45.54" transform="translate(-28.66 519.55) rotate(-75.88)"/><path class="cls-19" d="M356,254.54A44.19,44.19,0,0,1,273,282.89,44.19,44.19,0,1,0,356,254.54Z"/><circle class="cls-13" cx="261.9" cy="305.06" r="23.91"/><circle class="cls-17" cx="260.08" cy="302.01" r="18.9"/><circle class="cls-16" cx="323.25" cy="256.19" r="10.03"/><circle class="cls-17" cx="321.54" cy="253.33" r="10.03"/><path class="cls-20" d="M315.36,254.25a7.83,7.83,0,0,1,14.52-1.76,7.84,7.84,0,1,0-14.75,4.09A7.76,7.76,0,0,1,315.36,254.25Z"/><circle class="cls-16" cx="341.99" cy="282.29" r="10.03"/><circle class="cls-17" cx="340.28" cy="279.43" r="10.03"/><path class="cls-20" d="M334.1,280.35a7.84,7.84,0,0,1,14.53-1.76,7.85,7.85,0,1,0-14.76,4.09A7.76,7.76,0,0,1,334.1,280.35Z"/><circle class="cls-16" cx="296.3" cy="270.8" r="10.03"/><circle class="cls-17" cx="294.59" cy="267.93" r="10.03"/><path class="cls-20" d="M288.41,268.85a7.84,7.84,0,0,1,14.53-1.76,7.85,7.85,0,1,0-14.76,4.1A7.82,7.82,0,0,1,288.41,268.85Z"/><circle class="cls-16" cx="312.72" cy="298.05" r="10.03"/><circle class="cls-17" cx="311.01" cy="295.19" r="10.03"/><path class="cls-20" d="M304.82,296.11a7.84,7.84,0,0,1,14.53-1.76,7.84,7.84,0,1,0-14.75,4.1A8.12,8.12,0,0,1,304.82,296.11Z"/><ellipse class="cls-21" cx="322.43" cy="257.66" rx="2.51" ry="2.75" transform="translate(-6.11 507.48) rotate(-75.88)"/><ellipse class="cls-21" cx="339.04" cy="284.36" rx="2.51" ry="2.75" transform="translate(-19.45 543.77) rotate(-75.88)"/><ellipse class="cls-21" cx="308.66" cy="299.47" rx="2.51" ry="2.75" transform="translate(-57.06 525.74) rotate(-75.88)"/><ellipse class="cls-21" cx="291.01" cy="272.71" rx="1.76" ry="1.93" transform="translate(-44.46 488.39) rotate(-75.88)"/><path class="cls-20" d="M244.44,303.08a19,19,0,0,1,30.78-9.73,17.16,17.16,0,0,0-30.66,5.72,16.76,16.76,0,0,0-.44,5.61C244.2,304.15,244.31,303.61,244.44,303.08Z"/><path class="cls-20" d="M278,301.78l.34.56,0-.28Z"/><g class="cls-22"><path class="cls-20" d="M273.83,306.94a15.83,15.83,0,0,1-21.11,7.51,15.65,15.65,0,0,1-5.69-4.57,14.31,14.31,0,0,0,27.32-4.19A12.23,12.23,0,0,1,273.83,306.94Z"/><path class="cls-20" d="M246.12,302.52c-.06-.17-.14-.34-.19-.52,0,.08,0,.16,0,.24A2.92,2.92,0,0,0,246.12,302.52Z"/></g><path class="cls-20" d="M329.47,238.81A40.19,40.19,0,0,1,341.39,244a37.23,37.23,0,0,0-14.92-7.67c-21.1-5.3-42.79,8.64-48.45,31.15-.3,1.18-.54,2.37-.73,3.56C284.06,247.52,307.07,233.17,329.47,238.81Z"/><polygon class="cls-20" points="348.85 252.38 348.85 252.39 348.85 252.39 348.85 252.38"/><path class="cls-13" d="M107.6,206.2,69.46,285.93a35.32,35.32,0,0,0,7.25,39.9h0A35.34,35.34,0,0,0,125.15,327l53.92-48.34Z"/><g class="cls-14"><polygon class="cls-13" points="99.24 223.68 107.6 206.2 111.84 210.51 99.24 223.68"/><path class="cls-13" d="M116.1,314.18l47.76-21.86L125.15,327a35.33,35.33,0,0,1-58.77-29.48C75.55,315.59,97.08,322.9,116.1,314.18Z"/></g><circle class="cls-16" cx="149.96" cy="235.92" r="51.74"/><rect class="cls-13" x="148.1" y="166.55" width="37.18" height="13.13" rx="5.36" transform="translate(286.1 381.67) rotate(-165.88)"/><circle class="cls-13" cx="186.41" cy="294.29" r="30.69"/><circle class="cls-16" cx="188.36" cy="286.56" r="30.69"/><path class="cls-16" d="M187.23,206.36l.74-17.15a17.3,17.3,0,0,0-8.73-15.78h0a42.16,42.16,0,0,0-25.43-5.28l-2.43.26a17.34,17.34,0,0,0-13.57,9.39l-7.24,14.3Z"/><path class="cls-17" d="M177.71,178.6a39.76,39.76,0,0,0-24-5l-2.29.25a16.24,16.24,0,0,0-6.75,2.3,14.8,14.8,0,0,1,9.35-4.76l2.08-.23a36.1,36.1,0,0,1,21.79,4.53,14.82,14.82,0,0,1,7.48,13A16.28,16.28,0,0,0,177.71,178.6Z"/><circle class="cls-16" cx="148.36" cy="233.23" r="46.87"/><circle class="cls-18" cx="148.36" cy="233.23" r="46.87"/><ellipse class="cls-18" cx="149.17" cy="235.45" rx="44.92" ry="45.54" transform="translate(-115.56 322.66) rotate(-75.88)"/><path class="cls-19" d="M187,212a44.65,44.65,0,0,1-83.92,28.65A44.65,44.65,0,1,0,187,212Z"/><circle class="cls-13" cx="188.36" cy="286.56" r="23.91"/><circle class="cls-17" cx="186.53" cy="283.51" r="18.9"/><ellipse class="cls-21" cx="157.47" cy="216.16" rx="2.51" ry="2.75" transform="translate(-90.58 316.13) rotate(-75.88)"/><ellipse class="cls-21" cx="130.2" cy="231.82" rx="2.51" ry="2.75" transform="translate(-126.38 301.53) rotate(-75.88)"/><ellipse class="cls-21" cx="149.81" cy="259.5" rx="2.51" ry="2.75" transform="translate(-138.4 341.47) rotate(-75.88)"/><ellipse class="cls-21" cx="178.03" cy="244.28" rx="1.76" ry="1.93" transform="translate(-102.31 357.33) rotate(-75.88)"/><path class="cls-16" d="M163,223.79l-5.38,3a3.25,3.25,0,0,1-3.54-.88l-3.32-5.19a3.26,3.26,0,0,1-.72-3l3.12-12.41A3.24,3.24,0,0,1,157.1,203l8.7,2.19a3.25,3.25,0,0,1,2.36,3.94L165,221.53A3.24,3.24,0,0,1,163,223.79Z"/><path class="cls-17" d="M161.09,221.88l-5.38,3a3.25,3.25,0,0,1-3.53-.89l-3.32-5.19a3.23,3.23,0,0,1-.73-3l3.12-12.41a3.26,3.26,0,0,1,3.95-2.36l8.7,2.19a3.25,3.25,0,0,1,2.36,4l-3.13,12.41A3.22,3.22,0,0,1,161.09,221.88Z"/><path class="cls-20" d="M152.25,220.2a3.27,3.27,0,0,1-.73-3L154.1,207a3.25,3.25,0,0,1,4-2.36l6.28,1.58a2.8,2.8,0,0,1,.51.18,3.25,3.25,0,0,0-2.26-2l-6.29-1.59a3.26,3.26,0,0,0-3.95,2.36l-2.57,10.25a3.24,3.24,0,0,0,.72,3l3.33,5.19a3.1,3.1,0,0,0,1.06.78Z"/><path class="cls-16" d="M156.73,248.68l-3.32-5.19a3.27,3.27,0,0,0-3.54-.89l-5.38,3a3.24,3.24,0,0,0-2,2.26l-3.12,12.41a3.25,3.25,0,0,0,2.36,4l8.7,2.19a3.24,3.24,0,0,0,3.94-2.36l3.13-12.41A3.25,3.25,0,0,0,156.73,248.68Z"/><path class="cls-17" d="M154.83,246.79l-3.33-5.18a3.22,3.22,0,0,0-3.53-.89l-5.38,3a3.24,3.24,0,0,0-2,2.26l-3.13,12.42a3.26,3.26,0,0,0,2.36,3.95l8.7,2.18a3.24,3.24,0,0,0,4-2.36l3.12-12.41A3.26,3.26,0,0,0,154.83,246.79Z"/><path class="cls-20" d="M146.24,244.09a3.26,3.26,0,0,0-2,2.26l-2.58,10.25a3.25,3.25,0,0,0,2.36,3.94l6.29,1.58a2.43,2.43,0,0,0,.53.08,3.21,3.21,0,0,1-3,.73l-6.29-1.58a3.25,3.25,0,0,1-2.36-3.94l2.58-10.25a3.26,3.26,0,0,1,2-2.26l5.38-3a3.28,3.28,0,0,1,1.31-.18Z"/><path class="cls-16" d="M162.74,243.94l-3-5.38a3.25,3.25,0,0,1,.89-3.54l5.18-3.32a3.27,3.27,0,0,1,3-.73l12.42,3.13a3.25,3.25,0,0,1,2.36,3.94l-2.19,8.7a3.25,3.25,0,0,1-4,2.36L165,246A3.26,3.26,0,0,1,162.74,243.94Z"/><path class="cls-17" d="M164.65,242l-3-5.38a3.27,3.27,0,0,1,.89-3.54l5.19-3.32a3.25,3.25,0,0,1,3-.73l12.41,3.13a3.25,3.25,0,0,1,2.36,3.94l-2.19,8.71a3.25,3.25,0,0,1-3.94,2.36l-12.42-3.13A3.26,3.26,0,0,1,164.65,242Z"/><path class="cls-20" d="M166.34,233.2a3.24,3.24,0,0,1,2.95-.73l10.25,2.58A3.25,3.25,0,0,1,181.9,239l-1.59,6.29a2.8,2.8,0,0,1-.18.51,3.28,3.28,0,0,0,2.05-2.27l1.58-6.28a3.26,3.26,0,0,0-2.36-4l-10.24-2.58a3.25,3.25,0,0,0-3,.73L163,234.76a3.24,3.24,0,0,0-.78,1.07Z"/><path class="cls-16" d="M137.85,237.68l5.19-3.32a3.25,3.25,0,0,0,.89-3.54l-3-5.38a3.22,3.22,0,0,0-2.26-2l-12.41-3.13a3.26,3.26,0,0,0-4,2.36l-2.19,8.71a3.25,3.25,0,0,0,2.36,3.94l12.42,3.13A3.24,3.24,0,0,0,137.85,237.68Z"/><path class="cls-17" d="M139.74,235.77l5.19-3.32a3.25,3.25,0,0,0,.89-3.53l-3-5.38a3.27,3.27,0,0,0-2.26-2l-12.42-3.12a3.25,3.25,0,0,0-3.94,2.36l-2.19,8.7a3.26,3.26,0,0,0,2.36,3.95l12.41,3.12A3.25,3.25,0,0,0,139.74,235.77Z"/><path class="cls-20" d="M142.44,227.19a3.24,3.24,0,0,0-2.26-2l-10.24-2.58a3.25,3.25,0,0,0-4,2.36l-1.58,6.29a2.34,2.34,0,0,0-.08.53,3.25,3.25,0,0,1-.73-3l1.58-6.29a3.26,3.26,0,0,1,3.95-2.36l10.24,2.58a3.22,3.22,0,0,1,2.26,2l3,5.38a3.25,3.25,0,0,1,.18,1.3Z"/><path class="cls-20" d="M170.89,284.58a19,19,0,0,1,30.79-9.73,17.14,17.14,0,0,0-31.11,11.32C170.66,285.64,170.76,285.11,170.89,284.58Z"/><path class="cls-20" d="M204.47,283.27c.11.19.24.38.34.57l0-.29Z"/><g class="cls-22"><path class="cls-20" d="M200.28,288.44a15.83,15.83,0,0,1-26.8,2.93,14.32,14.32,0,0,0,27.33-4.18C200.65,287.61,200.48,288,200.28,288.44Z"/><path class="cls-20" d="M172.57,284c-.06-.17-.13-.34-.19-.52,0,.08,0,.16,0,.24Z"/></g><path class="cls-20" d="M159.75,196.11a40.24,40.24,0,0,1,11.91,5.16,37.16,37.16,0,0,0-14.92-7.67c-21.09-5.31-42.79,8.64-48.45,31.15-.3,1.18-.54,2.37-.73,3.55C114.33,204.82,137.34,190.47,159.75,196.11Z"/><polygon class="cls-20" points="179.12 209.68 179.13 209.69 179.12 209.68 179.12 209.68"/><rect class="cls-17" x="202.85" y="216.4" width="69.37" height="7.77" rx="3.88" transform="translate(60.92 -51.3) rotate(14.12)"/><circle class="cls-23" cx="94.54" cy="262.34" r="6.28"/><circle class="cls-20" cx="175.64" cy="211.77" r="2.87"/><circle class="cls-17" cx="213.44" cy="228.54" r="4.16"/><circle class="cls-24" cx="197.42" cy="279.41" r="3.88"/><rect class="cls-13" x="211" y="253.22" width="15.04" height="6" rx="0.91" transform="translate(69.12 -45.57) rotate(14.12)"/><rect class="cls-17" x="210.48" y="250.85" width="15.04" height="6" rx="0.91" transform="translate(68.52 -45.52) rotate(14.12)"/><path class="cls-20" d="M212.43,252.11a.92.92,0,0,1,1.11-.67l10.86,2.73a1,1,0,0,1,.28.14h0a.91.91,0,0,0-.66-1.11l-10.86-2.73a.92.92,0,0,0-1.11.66l-.65,2.59a.9.9,0,0,0,.39,1Z"/><rect class="cls-13" x="241.94" y="261.01" width="15.04" height="6" rx="0.91" transform="translate(71.95 -52.89) rotate(14.12)"/><rect class="cls-17" x="241.42" y="258.63" width="15.04" height="6" rx="0.91" transform="translate(71.36 -52.83) rotate(14.12)"/><path class="cls-20" d="M243.37,259.89a.92.92,0,0,1,1.11-.67L255.33,262a.92.92,0,0,1,.28.14h0A.91.91,0,0,0,255,261l-10.85-2.73a.92.92,0,0,0-1.11.66l-.65,2.59a.91.91,0,0,0,.38,1Z"/><rect class="cls-13" x="222.78" y="272.51" width="15.04" height="6" rx="0.91" transform="translate(74.18 -47.86) rotate(14.12)"/><rect class="cls-17" x="222.26" y="270.13" width="15.04" height="6" rx="0.91" transform="translate(73.58 -47.81) rotate(14.12)"/><path class="cls-20" d="M224.21,271.39a.91.91,0,0,1,1.11-.66l10.85,2.73a1,1,0,0,1,.28.13h0a.91.91,0,0,0-.66-1.11l-10.85-2.73a.91.91,0,0,0-1.11.66l-.65,2.59a.9.9,0,0,0,.38,1Z"/><circle class="cls-25" cx="153.69" cy="178.65" r="1.97"/><circle class="cls-25" cx="321.41" cy="220.47" r="1.61"/><circle class="cls-23" cx="85.78" cy="273.04" r="1.88"/><circle class="cls-23" cx="347.61" cy="362.27" r="7.84"/><circle class="cls-23" cx="350.27" cy="343.22" r="2.25"/><rect class="cls-26" x="444.25" y="347.66" width="10.62" height="14.76"/><polygon class="cls-26" points="423.15 347.66 412.52 347.66 410.02 362.41 420.64 362.41 423.15 347.66"/><path class="cls-26" d="M388.37,174.87l-18.62-18.62a.87.87,0,0,0-.88-.21l-3.73,1.21a.86.86,0,0,0-.49,1.22l14.2,26.74a6.79,6.79,0,0,0,10.48,1.93l6-5.27a.85.85,0,0,0,0-1.3l-6.89-5.64Z"/><path class="cls-26" d="M371.82,159.05s-.21-6.29-4.26-10c-2.68-2.46-7.42-3.53-10.3-1.33h0l11.93,17.79Z"/><path class="cls-26" d="M410.39,170.49l-22.39,4s-2.56,14.65-1.86,14.13,28.17-6,28.17-6Z"/><path class="cls-5" d="M432.35,177.85s-.42-12.12-11.43-11.18c-14.34,1.22-21.44,3.05-21.44,3.05l-1.12,20.57Z"/><path class="cls-9" d="M440.15,163.77l-18.57,2.74a3.87,3.87,0,0,0-3.3,3.79l-.44,61.7,47.56.12L462.07,176l-1.54-5.21a6.59,6.59,0,0,0-5.28-4.64Z"/><polygon class="cls-26" points="458.69 188.76 473.96 203.89 480.63 189.5 470.5 178.23 458.69 188.76"/><path class="cls-5" d="M452.38,177.81c-3.54-5.8,1.43-13.36,8.07-11.95a5.31,5.31,0,0,1,1.63.62c5.58,3.37,15.21,14.08,15.21,14.08l-15.53,12.61Z"/><path class="cls-26" d="M480,190l8.14-26.49L494,165.1,491.71,197s-1.95,15.21-17.75,6.9Z"/><path class="cls-26" d="M488.14,163.52s-2-6.54-.58-11.71a7.24,7.24,0,0,1,8.14-5.08h0l-1.87,21.17Z"/><path class="cls-27" d="M427.75,131s-7.36,6.92-.11,9.42Z"/><path class="cls-5" d="M432.61,142.89a6,6,0,0,1-5.68,6.22,5.9,5.9,0,0,1-6-5.85,6,6,0,0,1,5.68-6.21A5.9,5.9,0,0,1,432.61,142.89Z"/><path class="cls-26" d="M433.47,154.15l-.38,9.81c-.14,3.44,1.84,5.36,5.12,5.46h0c2.81.08,5.94-1.16,5.94-4.2L444,149.76Z"/><path class="cls-28" d="M433.2,164A17.37,17.37,0,0,0,444,152.76c.9-2.8-10.5.38-10.5.38Z"/><path class="cls-26" d="M438.29,157.15h0c-5.59.51-10.6-3.62-11.19-8.31L425.92,139a10.87,10.87,0,0,1,8.85-12.2h0c5.8-.94,12.29,3,13.24,9l.82,7.67A12.34,12.34,0,0,1,438.29,157.15Z"/><path class="cls-27" d="M420.72,127.8a12.67,12.67,0,0,1,5-4.3c3.9-1.9,8.21-1.3,12.4-1.35,4.93-.06,9.15,2.62,10.67,5.56a4.52,4.52,0,0,1,4.66,4.38c.73,6-6.5,15.94-6.5,15.94l-.81-7.85a10.32,10.32,0,0,1-2.54-.79,4,4,0,0,1-1.42-1.74,9.16,9.16,0,0,1-.4-4.32,20.89,20.89,0,0,0-3.24,1.18c-4.8,2.06-10,3.62-15.17,3.18a5.23,5.23,0,0,1-2.27-.58,4.52,4.52,0,0,1-1.89-3.43A8.74,8.74,0,0,1,420.72,127.8Z"/><path class="cls-29" d="M453.68,144.92a4,4,0,0,1-3.83,4.19,4,4,0,0,1-4.05-3.94,4,4,0,0,1,3.83-4.19A4,4,0,0,1,453.68,144.92Z"/><path class="cls-30" d="M448.42,146.07s-.08-2.95,2.67-2.57"/><path class="cls-5" d="M442.94,143.34c-.95,4.38,1.19,8.55,5.67,9.53,3.17.69,4.87-2.66,5.82-7s-.85-8.48-4-9.17S443.89,139,442.94,143.34Z"/><path class="cls-9" d="M444.59,143.7c-.95,4.37.85,8.48,4,9.17s6.52-2.3,7.47-6.68-.86-8.48-4-9.17S445.54,139.32,444.59,143.7Z"/><path class="cls-9" d="M451.89,138.47a25.86,25.86,0,0,0-.14-7.85,11.71,11.71,0,0,0-9.52-9.66c-.37-.07-.76-.13-1.16-.18a7,7,0,0,0-4.2.6,5.83,5.83,0,0,0-.91.62s6.35.17,9.34,3.79c3.37,4.09,4.18,9.65,3.9,13.36Z"/><path class="cls-26" d="M448,165l-7.8-1.25-10.38,1.53s-.63,6,8.14,6.31S448,165,448,165Z"/><rect class="cls-27" x="419.22" y="232.12" width="44.66" height="5.09"/><polygon class="cls-27" points="419.22 237.21 409.25 354.35 424.44 354.35 440.32 272.04 438.86 237.21 419.22 237.21"/><polygon class="cls-10" points="433.51 237.21 463.88 232.12 456.33 356.71 442.72 356.71 433.51 237.21"/><polygon class="cls-13" points="373.07 140.4 385.6 157.78 352.84 171.62 343.5 149.76 373.07 140.4"/><polygon class="cls-18" points="346.46 151.52 372.56 143.27 381.96 156.3 353.62 168.27 346.46 151.52"/><polygon class="cls-20" points="362.28 146.51 368.48 144.56 367.2 162.53 361.69 164.86 362.28 146.51"/><polygon class="cls-20" points="358.86 147.47 360.57 146.92 359.71 165.52 358.28 166.12 358.86 147.47"/><path class="cls-13" d="M431.49,366.54H456.3V362a1.34,1.34,0,0,0-1.4-1.17c-1.68-.08-4.44-.41-5.81-1.67a3.17,3.17,0,0,0-2.15-.82h-4.18l-12.95,4.38c-1.89.64-3,2.24-2.63,3.86h4.31Z"/><rect class="cls-10" x="427.12" y="366.54" width="29.18" height="1.47"/><path class="cls-13" d="M398.23,365.05H423v-4.57a1.34,1.34,0,0,0-1.4-1.18c-1.68-.08-4.44-.4-5.81-1.67a3.17,3.17,0,0,0-2.15-.82H409.5l-12.95,4.39c-1.89.64-3,2.23-2.63,3.85h4.31Z"/><rect class="cls-10" x="393.86" y="365.05" width="29.18" height="1.47"/><rect class="cls-26" x="210.88" y="263.62" width="10.62" height="14.76" transform="translate(366.73 583.28) rotate(-167.16)"/><polygon class="cls-26" points="257.01 258.93 267.63 258.93 270.13 273.68 259.51 273.68 257.01 258.93"/><path class="cls-26" d="M265.08,118.77l23.78-11.32a.87.87,0,0,1,.89.1l3.11,2.4a.84.84,0,0,1,.05,1.3l-22.32,20.46A6.8,6.8,0,0,1,260.07,130l-3.91-7a.85.85,0,0,1,.46-1.22l8.38-3Z"/><path class="cls-26" d="M286,109.41s2.29-5.87,7.36-8c3.35-1.42,8.17-.84,10.15,2.2h0l-17.19,12.77Z"/><path class="cls-26" d="M245.79,107.28l19.76,11.27s-2.49,14.67-3,13.94-24.55-15-24.55-15Z"/><path class="cls-27" d="M224.18,109.4s4.06-11.43,14.27-7.22c13.31,5.49,19.52,9.38,19.52,9.38l-5.14,19.95Z"/><path class="cls-10" d="M217.05,99.5l18.57,2.73a3.88,3.88,0,0,1,3.3,3.79l.44,66.91-47.57-5.09,3.34-56.08,1.54-5.2a6.59,6.59,0,0,1,5.28-4.65Z"/><polygon class="cls-26" points="197.32 125.66 183.24 139.62 176.57 125.23 186.7 113.95 197.32 125.66"/><path class="cls-27" d="M204.82,113.53c3.54-5.8-1.43-13.35-8.08-12a5.15,5.15,0,0,0-1.62.62c-5.59,3.38-15.21,14.08-15.21,14.08l15.53,12.61Z"/><path class="cls-27" d="M229.45,66.7s7.36,6.92.11,9.43Z"/><path class="cls-31" d="M224.58,78.62a6,6,0,0,0,5.69,6.22,6,6,0,1,0-5.69-6.22Z"/><path class="cls-26" d="M223.72,89.87l.39,9.81c.14,3.45-1.84,5.37-5.12,5.46h0c-2.81.08-5.94-1.15-5.94-4.2l.11-15.46Z"/><path class="cls-28" d="M224,99.68a17.4,17.4,0,0,1-10.8-11.2c-.89-2.8,10.5.39,10.5.39Z"/><path class="cls-26" d="M218.91,92.87h0c5.58.51,10.6-3.61,11.19-8.31l1.17-9.82a10.86,10.86,0,0,0-8.84-12.2h0c-5.81-.94-12.29,3-13.24,9l-.82,7.67A12.33,12.33,0,0,0,218.91,92.87Z"/><path class="cls-27" d="M236.91,63.31a3.47,3.47,0,0,0-3.48-1.94,3.68,3.68,0,0,0-2.23-3.65,3,3,0,0,0-3.31.51,3.5,3.5,0,0,0-2.1-1.32,2.51,2.51,0,0,0-2.31.75,1.37,1.37,0,0,0-1.24-.66,5,5,0,0,0-2.76.73,3.69,3.69,0,0,1-2,.25A11.52,11.52,0,0,0,211.59,60a10.56,10.56,0,0,0-2.47,2.25c-.24.31-.46.9-.85,1s-1.57-.55-2.14-.59a2.33,2.33,0,0,0-2,.85,1.43,1.43,0,0,0,.33,2c-.65-.36-1.9,1.7-2,2.11a3.22,3.22,0,0,0,.58,3.1c.34.41,1.24.64,1.41,1.06.28.68-.72,1.45-.15,2.23a1.63,1.63,0,0,0,.93.54c1.14.28,1.59-.07,1.61,1.25a7.13,7.13,0,0,0,.6,3.39,36.69,36.69,0,0,0,2.87,4.52L211,75.9s2.09-.59,2.28-.63c1-.24,1.88-.55,2.22-1.71a.48.48,0,0,1,.17-.31c.18-.13.42,0,.59.19a3.71,3.71,0,0,0,3.32.63,6.4,6.4,0,0,0,2.91-1.9,6.55,6.55,0,0,0,1.59,1.19,3.3,3.3,0,0,0,4.58-2.09c1.8-.24,3.76.44,5.39-.35a3.35,3.35,0,0,0,1.66-3.9A3,3,0,0,0,236.91,63.31Z"/><path class="cls-29" d="M203.52,80.65a3.94,3.94,0,1,0,4-4A4,4,0,0,0,203.52,80.65Z"/><path class="cls-30" d="M208.77,81.79s.08-3-2.66-2.57"/><path class="cls-31" d="M214.26,79.06c1,4.38-1.19,8.56-5.67,9.53-3.18.69-4.87-2.66-5.82-7s.85-8.48,4-9.17S213.31,74.69,214.26,79.06Z"/><path class="cls-6" d="M212.61,79.42c.95,4.38-.85,8.48-4,9.17s-6.52-2.3-7.47-6.68.85-8.48,4-9.17S211.66,75,212.61,79.42Z"/><path class="cls-6" d="M205.3,74.2a26.14,26.14,0,0,1,.15-7.86A11.7,11.7,0,0,1,215,56.68c.37-.06.75-.12,1.16-.17a6.82,6.82,0,0,1,4.19.6,4.86,4.86,0,0,1,.91.62s-6.34.16-9.34,3.79c-3.37,4.08-4.17,9.64-3.89,13.36Z"/><path class="cls-26" d="M209.25,100.74l7.8-1.24L227.42,101s.64,6.06-8.13,6.31S209.25,100.74,209.25,100.74Z"/><rect class="cls-27" x="193.32" y="167.84" width="44.66" height="5.09" transform="translate(431.3 340.78) rotate(180)"/><path class="cls-13" d="M231.26,286.23l-24.19-5.51,1-4.46a1.33,1.33,0,0,1,1.62-.84c1.66.3,4.42.6,6-.34a3.16,3.16,0,0,1,2.28-.31l4.07.93,11.65,7.15c1.7,1,2.41,2.84,1.7,4.34h0Z"/><rect class="cls-9" x="206.54" y="283.94" width="29.18" height="1.47" transform="translate(373.44 611.4) rotate(-167.16)"/><path class="cls-13" d="M281.92,276.32h-24.8v-4.57a1.33,1.33,0,0,1,1.39-1.18c1.68-.08,4.45-.4,5.82-1.67a3.13,3.13,0,0,1,2.15-.82h4.18l12.95,4.39c1.88.64,3,2.23,2.62,3.85h-4.31Z"/><rect class="cls-9" x="257.12" y="276.32" width="29.18" height="1.47" transform="translate(543.41 554.12) rotate(180)"/><path class="cls-5" d="M216.91,181.77l3.94-14,30,.52a12,12,0,0,1,11.53,9.7L276,263.42H254.69L242,198.78l-27.51,1Z"/><path class="cls-9" d="M188.81,177.26l2.67-12,36.21,3.13c8.77,2,11.88,5.57,11.88,18l-14,81.73L208.3,268l4.32-69.25-10.48-1.36a16,16,0,0,1-13.23-11.17h0A16,16,0,0,1,188.81,177.26Z"/><path class="cls-13" d="M165.29,85.72a6.26,6.26,0,0,1,.19-5.44c1.53-2.78,4-4.88,6.32-7,1.94-1.82,3.9-4.31,6.85-4a10.86,10.86,0,0,1,3.87,1.31c1.1.58,2.08,1.39,3.13,2.06a2.85,2.85,0,0,1,.72.66c.06.09.12.17.17.26l.06.12a1.63,1.63,0,0,1,.11.23l.06.14a1.83,1.83,0,0,1,.08.25l0,.11a2.2,2.2,0,0,1,.06.37v.11a1.41,1.41,0,0,1,0,.29v.12a2.66,2.66,0,0,1-.07.39,2.85,2.85,0,0,1-3.27,2.17l-3.32-.57a2.48,2.48,0,0,1-3.35,3.2l-1,1.05a2.46,2.46,0,0,1-.39,2.87,2.49,2.49,0,0,1-2.66.61l.71,3.29a2.87,2.87,0,0,1-2,3.37,2.66,2.66,0,0,1-.39.07l-.11,0h-.41l-.37,0-.11,0-.25-.07-.15,0-.23-.1-.12-.06a2.26,2.26,0,0,1-.26-.16,3.22,3.22,0,0,1-.7-.68l-.06-.09c-.88-1.26-1.92-2.51-2.67-3.85A6.18,6.18,0,0,1,165.29,85.72Z"/><path class="cls-26" d="M177.2,125.74l-8.15-26.5-5.88,1.59,2.31,31.88s2,15.21,17.76,6.91Z"/><path class="cls-26" d="M169.05,99.24s2-6.53.58-11.71a7.21,7.21,0,0,0-8.13-5.07h0l1.87,21.17Z"/></g></g></g></svg>