<svg xmlns="http://www.w3.org/2000/svg" xmlns:xlink="http://www.w3.org/1999/xlink" viewBox="0 0 2857.31 2912.26"><defs><style>.cls-1{fill:none;}.cls-2{isolation:isolate;}.cls-3{fill:#f4f7fa;}.cls-4{clip-path:url(#clip-path);}.cls-5{fill:url(#linear-gradient);}.cls-6{clip-path:url(#clip-path-2);}.cls-42,.cls-57,.cls-7{mix-blend-mode:soft-light;}.cls-7{opacity:0.8;}.cls-8{fill:#fcfdfe;}.cls-9{clip-path:url(#clip-path-3);}.cls-10{fill:url(#linear-gradient-2);}.cls-11{fill:url(#linear-gradient-3);}.cls-12{fill:#26264f;}.cls-13{fill:url(#linear-gradient-4);}.cls-14{fill:url(#linear-gradient-5);}.cls-15{fill:url(#linear-gradient-6);}.cls-16{fill:url(#linear-gradient-7);}.cls-17{fill:url(#linear-gradient-8);}.cls-18{fill:url(#linear-gradient-9);}.cls-19{fill:url(#linear-gradient-10);}.cls-20,.cls-30,.cls-43,.cls-52{mix-blend-mode:multiply;opacity:0.3;}.cls-20{fill:url(#linear-gradient-11);}.cls-21{fill:url(#linear-gradient-12);}.cls-22{fill:url(#linear-gradient-13);}.cls-23{fill:url(#linear-gradient-14);}.cls-24{fill:url(#linear-gradient-15);}.cls-25{fill:url(#linear-gradient-16);}.cls-26{fill:url(#linear-gradient-17);}.cls-27{fill:url(#linear-gradient-18);}.cls-28{fill:url(#linear-gradient-19);}.cls-29{fill:url(#linear-gradient-20);}.cls-30{fill:url(#linear-gradient-21);}.cls-31{fill:#d8dee8;}.cls-32{fill:url(#linear-gradient-22);}.cls-33{fill:url(#linear-gradient-23);}.cls-34{fill:url(#linear-gradient-24);}.cls-35{fill:url(#linear-gradient-25);}.cls-36{fill:url(#linear-gradient-26);}.cls-37{fill:url(#linear-gradient-27);}.cls-38{fill:url(#linear-gradient-28);}.cls-39{fill:url(#linear-gradient-29);}.cls-40{fill:url(#linear-gradient-30);}.cls-41{fill:url(#linear-gradient-31);}.cls-42,.cls-56,.cls-57{fill:#fff;}.cls-42{opacity:0.5;}.cls-43{fill:url(#linear-gradient-32);}.cls-44{fill:url(#linear-gradient-33);}.cls-45{fill:url(#linear-gradient-34);}.cls-46{fill:url(#linear-gradient-35);}.cls-47{fill:url(#linear-gradient-36);}.cls-48{fill:url(#linear-gradient-37);}.cls-49{fill:url(#linear-gradient-38);}.cls-50{fill:url(#linear-gradient-39);}.cls-51{fill:url(#linear-gradient-40);}.cls-52{fill:url(#linear-gradient-41);}.cls-53{fill:url(#linear-gradient-42);}.cls-54{fill:url(#linear-gradient-43);}.cls-55{fill:url(#linear-gradient-44);}.cls-57{opacity:0.6;}</style><clipPath id="clip-path"><rect id="SVGID" class="cls-1" x="1114.18" y="932.77" width="1695.29" height="1864.1"/></clipPath><linearGradient id="linear-gradient" x1="-4972.35" y1="-3627.23" x2="-4397.82" y2="45.65" gradientTransform="matrix(-0.58, -0.81, -0.81, 0.58, -2984.92, 83.19)" gradientUnits="userSpaceOnUse"><stop offset="0" stop-color="#e38ddd"/><stop offset="1" stop-color="#9571f6"/></linearGradient><clipPath id="clip-path-2"><path id="SVGID-2" data-name="SVGID" class="cls-1" d="M1145.21,2643c.16,144.55-5.63,291.65-6.26,437.22,76.17,31.65,166.54,67,215-23.55,67.32-125.92,316.13-102.35,426.6-69.55,136.73,40.61,440.42,100.9,440-108.83-.34-174.6-69.78-282,139.25-324.67s323.85-156.81,295-349.95c-30.35-203.26,218.09-385,85.13-551.53-231.68-290.22-617.84,147.23-688.56,432.26s-203.64,175.43-400.69,172.27c-269-4.33-133.7,289.09-259,368.91C1293.46,2688.14,1242.86,2654.54,1145.21,2643Z"/></clipPath><clipPath id="clip-path-3"><path id="SVGID-3" data-name="SVGID" class="cls-1" d="M1775.39,3315.41q-158.66-23.32-316.91-53.95c-1.71,1.56-36.38-228.36,72.83-348.93,216-233.58,70.49-443.22,29-567.44-66.41-175.17-32.37-388.07,160.55-348.19,188,34.34,216.47-352.61,184-650.71-27.69-145.09,109.21-321.13,245.82-361.36,139.46-44.57,278.63,46.66,321.28,335.86,64.57,334.85-179.8,536.78-270.29,704.66-89,164.8,118.09,298.15-48.63,444.17-140.22,129.75-317,223-252.31,386C1967.19,3016.65,1951.28,3148.39,1775.39,3315.41Z"/></clipPath><linearGradient id="linear-gradient-2" x1="-488.01" y1="-1175.24" x2="-1247.47" y2="983.23" gradientTransform="matrix(-0.87, -0.5, -0.5, 0.87, 1142.99, 1808.44)" gradientUnits="userSpaceOnUse"><stop offset="0" stop-color="#ffc444"/><stop offset="1" stop-color="#f36f56"/></linearGradient><linearGradient id="linear-gradient-3" x1="2335.3" y1="460.74" x2="1646.96" y2="426.89" gradientTransform="matrix(1, 0, 0, 1, 0, 0)" xlink:href="#linear-gradient-2"/><linearGradient id="linear-gradient-4" x1="292.32" y1="1427.19" x2="315.9" y2="1499.17" gradientTransform="translate(2806.52 -237.01) rotate(63.64)" xlink:href="#linear-gradient-2"/><linearGradient id="linear-gradient-5" x1="-0.82" y1="2210.28" x2="277.11" y2="1568.09" gradientTransform="translate(2806.52 -237.01) rotate(63.64)" gradientUnits="userSpaceOnUse"><stop offset="0" stop-color="#ff9085"/><stop offset="1" stop-color="#fb6fbb"/></linearGradient><linearGradient id="linear-gradient-6" x1="435.22" y1="1570.25" x2="490.76" y2="1570.25" gradientTransform="matrix(-1, 0.09, 0.09, 1, 1506.45, -117.74)" gradientUnits="userSpaceOnUse"><stop offset="0" stop-color="#444b8c"/><stop offset="1" stop-color="#26264f"/></linearGradient><linearGradient id="linear-gradient-7" x1="4.54" y1="1518.18" x2="28.9" y2="1467.75" gradientTransform="matrix(-1, 0.07, 0.07, 1, 1081.25, -27.33)" xlink:href="#linear-gradient-2"/><linearGradient id="linear-gradient-8" x1="21.31" y1="1627.25" x2="80.31" y2="1627.25" gradientTransform="matrix(-0.98, 0.21, 0.21, 0.98, 1078.97, -114.73)" xlink:href="#linear-gradient-6"/><linearGradient id="linear-gradient-9" x1="-90.29" y1="1577.89" x2="-65.41" y2="1526.4" gradientTransform="matrix(-0.99, 0.15, 0.15, 0.99, 1050.97, -61.21)" xlink:href="#linear-gradient-2"/><linearGradient id="linear-gradient-10" x1="1722.51" y1="1286.22" x2="1565.15" y2="931.48" gradientTransform="translate(-260.53 6.49) rotate(3.06)" gradientUnits="userSpaceOnUse"><stop offset="0" stop-color="#311944"/><stop offset="1" stop-color="#893976"/></linearGradient><linearGradient id="linear-gradient-11" x1="1698.11" y1="1297.04" x2="1540.75" y2="942.31" xlink:href="#linear-gradient-10"/><linearGradient id="linear-gradient-12" x1="1338.74" y1="1441.09" x2="1181.37" y2="1086.35" gradientTransform="translate(-133.1 57.65) rotate(-3.98)" xlink:href="#linear-gradient-10"/><linearGradient id="linear-gradient-13" x1="1090.98" y1="993.48" x2="1331.59" y2="437.53" gradientTransform="matrix(1, 0, 0, 1, 0, 0)" xlink:href="#linear-gradient-5"/><linearGradient id="linear-gradient-14" x1="1400.96" y1="26.27" x2="1407.16" y2="-138.72" gradientTransform="translate(-67.92 -5.88) rotate(26.56)" xlink:href="#linear-gradient-2"/><linearGradient id="linear-gradient-15" x1="-419.66" y1="351.77" x2="-461.66" y2="245.11" gradientTransform="matrix(-1, -0.05, -0.05, 1, 779.93, 227.44)" gradientUnits="userSpaceOnUse"><stop offset="0" stop-color="#311944"/><stop offset="1" stop-color="#6b3976"/></linearGradient><linearGradient id="linear-gradient-16" x1="932.56" y1="313.14" x2="930.63" y2="468.75" gradientTransform="matrix(1, -0.01, 0.01, 1, 286.15, 222.28)" xlink:href="#linear-gradient-2"/><linearGradient id="linear-gradient-17" x1="-432.49" y1="356.88" x2="-474.53" y2="250.11" xlink:href="#linear-gradient-15"/><linearGradient id="linear-gradient-18" x1="-473.64" y1="292.55" x2="-471.45" y2="312.04" gradientTransform="matrix(-1, -0.05, -0.05, 1, 779.93, 227.44)" gradientUnits="userSpaceOnUse"><stop offset="0" stop-color="#ffc444"/><stop offset="1" stop-color="#f36f56"/></linearGradient><linearGradient id="linear-gradient-19" x1="1063.19" y1="878.09" x2="1074.36" y2="912.18" gradientTransform="matrix(1, 0, 0, 1, 0, 0)" xlink:href="#linear-gradient-2"/><linearGradient id="linear-gradient-20" x1="906.61" y1="913.68" x2="1147.22" y2="357.73" gradientTransform="matrix(1, 0, 0, 1, 0, 0)" xlink:href="#linear-gradient-5"/><linearGradient id="linear-gradient-21" x1="1135.21" y1="1012.62" x2="1375.82" y2="456.66" gradientTransform="matrix(1, 0, 0, 1, 0, 0)" xlink:href="#linear-gradient-5"/><linearGradient id="linear-gradient-22" x1="2070.91" y1="1696.47" x2="2875.85" y2="1705.27" gradientTransform="translate(-1675.05)" gradientUnits="userSpaceOnUse"><stop offset="0" stop-color="#aa80f9"/><stop offset="1" stop-color="#6165d7"/></linearGradient><linearGradient id="linear-gradient-23" x1="-5212.65" y1="729.48" x2="-7381.17" y2="527.96" xlink:href="#linear-gradient-22"/><linearGradient id="linear-gradient-24" x1="-5182.04" y1="1074.3" x2="-7336.69" y2="874.06" xlink:href="#linear-gradient-22"/><linearGradient id="linear-gradient-25" x1="2564.9" y1="1766.07" x2="2336.66" y2="2534.86" gradientTransform="translate(-1675.05)" gradientUnits="userSpaceOnUse"><stop offset="0" stop-color="#40447e"/><stop offset="1" stop-color="#3c3b6b"/></linearGradient><linearGradient id="linear-gradient-26" x1="2685.83" y1="2019.38" x2="3930.68" y2="2019.38" xlink:href="#linear-gradient-25"/><linearGradient id="linear-gradient-27" x1="2591.24" y1="2305.05" x2="2319.68" y2="3219.77" xlink:href="#linear-gradient-25"/><linearGradient id="linear-gradient-28" x1="1027.98" y1="2641.24" x2="2254.62" y2="2641.24" gradientTransform="matrix(1, 0, 0, 1, 0, 0)" xlink:href="#linear-gradient-25"/><linearGradient id="linear-gradient-29" x1="2078.62" y1="2301.84" x2="2880.18" y2="2310.6" gradientTransform="translate(-1675.05)" xlink:href="#linear-gradient-2"/><linearGradient id="linear-gradient-30" x1="-5146.01" y1="1392.2" x2="-7298.36" y2="1192.18" gradientTransform="translate(-1675.05)" xlink:href="#linear-gradient-2"/><linearGradient id="linear-gradient-31" x1="-6843.25" y1="1633.36" x2="-8995.55" y2="1433.34" gradientTransform="matrix(1, 0, 0, 1, 0, 0)" xlink:href="#linear-gradient-2"/><linearGradient id="linear-gradient-32" x1="2340.99" y1="2503.05" x2="2284.82" y2="2419.89" gradientTransform="translate(-1675.05)" xlink:href="#linear-gradient-2"/><linearGradient id="linear-gradient-33" x1="653.38" y1="2550.47" x2="782.24" y2="2978.39" gradientTransform="matrix(1, 0, 0, 1, 0, 0)" xlink:href="#linear-gradient"/><linearGradient id="linear-gradient-34" x1="154.81" y1="2247.1" x2="631.59" y2="2247.1" gradientTransform="matrix(1, 0, 0, 1, 0, 0)" xlink:href="#linear-gradient-22"/><linearGradient id="linear-gradient-35" x1="553.87" y1="1785.81" x2="859.17" y2="1785.81" gradientTransform="matrix(1, 0, 0, 1, 0, 0)" xlink:href="#linear-gradient-22"/><linearGradient id="linear-gradient-36" x1="471.26" y1="2012.09" x2="776.56" y2="2012.09" gradientTransform="matrix(1, 0, 0, 1, 0, 0)" xlink:href="#linear-gradient-22"/><linearGradient id="linear-gradient-37" x1="388.65" y1="2241.96" x2="693.95" y2="2241.96" gradientTransform="matrix(1, 0, 0, 1, 0, 0)" xlink:href="#linear-gradient-22"/><linearGradient id="linear-gradient-38" x1="302.45" y1="2479.01" x2="607.75" y2="2479.01" gradientTransform="matrix(1, 0, 0, 1, 0, 0)" xlink:href="#linear-gradient-22"/><linearGradient id="linear-gradient-39" x1="219.84" y1="2705.29" x2="525.14" y2="2705.29" gradientTransform="matrix(1, 0, 0, 1, 0, 0)" xlink:href="#linear-gradient-22"/><linearGradient id="linear-gradient-40" x1="429.17" y1="2259.95" x2="921.59" y2="2259.95" gradientTransform="matrix(1, 0, 0, 1, 0, 0)" xlink:href="#linear-gradient-22"/><linearGradient id="linear-gradient-41" x1="1838.8" y1="2516.35" x2="2254.54" y2="2516.35" gradientTransform="matrix(1, 0, 0, 1, 0, 0)" xlink:href="#linear-gradient-25"/><linearGradient id="linear-gradient-42" x1="1874.74" y1="2561.51" x2="2529.08" y2="2561.51" gradientTransform="translate(2456.19 -806.73) rotate(45)" xlink:href="#linear-gradient-6"/><linearGradient id="linear-gradient-43" x1="2275.62" y1="2368.84" x2="2141.2" y2="2829.42" gradientTransform="matrix(1, 0, 0, 1, 0, 0)" xlink:href="#linear-gradient-22"/><linearGradient id="linear-gradient-44" x1="1921.98" y1="2536.83" x2="2531.19" y2="2536.83" gradientTransform="matrix(1, 0, 0, 1, 0, 0)" xlink:href="#linear-gradient-22"/></defs><g class="cls-2"><g id="Layer_2" data-name="Layer 2"><g id="Illustration"><path class="cls-3" d="M1472.87,43.58c-309.33,123-339,437.41-617.49,464.4C612.69,531.49,520.45,303.89,350.16,344.67,90.77,406.79-72.32,1025.22,31.86,1533.73,139.43,2058.79,591.41,2756.8,1340.19,2804.44,2180.86,2857.92,2817,2054.8,2855.79,1350c4.2-76.22,29-714.84-459.23-1092.09C2372.17,239.07,1891.05-122.69,1472.87,43.58Z"/><g class="cls-4"><path class="cls-5" d="M1306.69,3076.87c-19-9-52.45-45.3-57.27-58.36-32-86.9-102.61-245.71-67-336.94,6.07-15.58,81.83-7.36,96.49-18.72,49.57-6.48,67.17-5.66,111.27-35,130.2-86.54-10-373.49,260.32-370.94,198,1.87,329.85,112.94,400.82-172.45s456.89-722.42,688.64-432.34c133,166.48-115.52,348.28-85.13,551.53,28.88,193.13-86,307.29-295,350s-139.47,150-139.26,324.69c.25,209.89-302.79,149-440.3,109C1669.47,2955.05,1365.75,2947.66,1306.69,3076.87Z"/><g class="cls-6"><g class="cls-7"><path class="cls-8" d="M1215.73,2858.42l-.5-3.56a1687.65,1687.65,0,0,0,501.28-152.55c151.4-73.48,292.8-170.22,420.25-287.54,247.49-227.81,438.48-529.58,552.33-872.71l3.41,1.14c-114,343.7-305.37,646-553.3,874.21-127.72,117.56-269.41,214.5-421.13,288.13A1691.48,1691.48,0,0,1,1215.73,2858.42Z"/><path class="cls-8" d="M2230.88,2965.19c-152.29-111-436.77-204.75-634.16-208.93l.08-3.59c198,4.19,483.4,98.23,636.19,209.62Z"/><path class="cls-8" d="M1349.27,2838l-1.47-3.27c93.73-42,162.61-129.77,204.74-260.84,30.87-96.06,46.92-212.72,47.7-346.75l3.59,0c-.78,134.4-16.89,251.42-47.87,347.82C1513.51,2707.05,1444,2795.54,1349.27,2838Z"/><path class="cls-8" d="M2173.23,2383.57l-1.63-3.2c172.25-88.09,374-61.3,512.86-23.31l-.95,3.46C2545.24,2322.7,2344.47,2296,2173.23,2383.57Z"/><path class="cls-8" d="M2455.19,2042l-3.33-1.35c35.21-86.82,79.28-272.05-21.21-537.09l3.36-1.27c33.92,89.47,54.79,182.55,60.34,269.17C2500.75,1871.14,2487.57,1962.16,2455.19,2042Z"/></g></g><g class="cls-9"><path class="cls-10" d="M1775.39,3315.41q-158.66-23.32-316.91-53.95c-1.71,1.56-36.38-228.36,72.83-348.93,216-233.58,70.49-443.22,29-567.44-65.74-175-31.17-364.58,147-367.38,197.59-7,233.42-334,197.6-631.52-27.69-145.09,109.21-321.13,245.82-361.36,139.46-44.57,278.63,46.66,321.28,335.86,64.57,334.85-179.8,536.78-270.29,704.66-89,164.8,118.09,298.15-48.63,444.17-140.22,129.75-317,223-252.31,386C1967.19,3016.65,1951.28,3148.39,1775.39,3315.41Z"/><g class="cls-7"><path class="cls-8" d="M1633.59,3329,1630,3329c0-2,101-485.58,275.32-956.35,24.07-76.24,50.22-153.12,75.51-227.46,67.72-199.09,137.74-405,171-610,37.17-229.16,23.92-435.56-40.51-631l3.41-1.13c64.62,196,77.91,403,40.64,632.7-33.3,205.3-103.38,411.31-171.14,610.54-25.29,74.33-51.43,151.19-75.52,227.47C1735.05,2842.88,1633.82,3326.29,1633.59,3329Z"/><path class="cls-8" d="M2106.7,1760.09l-2.67-2.4c117.92-131,260.2-317.22,336.64-417.26,59.64-78,61.74-80.22,64-79.86l-.55,3.55.27-1.77.68,1.62c-3,2-28.86,35.81-61.6,78.65C2367.06,1442.69,2224.72,1629,2106.7,1760.09Z"/><path class="cls-8" d="M2142.94,1580.58c-24.44-150.45-86.44-249.36-134.15-305.84-53.15-62.91-101-89.41-105.84-89.85a1.33,1.33,0,0,0,.78-.25l-2-3c.94-.62,2.18-.44,4.87.73,13,5.67,61.76,36.15,112.9,99.71,64.42,80.07,108.34,183.09,127,297.91Z"/><path class="cls-8" d="M1805.21,2680.42l-3.57-.43c16.64-139.77-15.93-290.11-96.8-446.83-42.17-81.73-95.95-161.79-159.84-238-4.42-5.27-6.23-7.44-6.74-8.31l3.11-1.8c.37.64,3,3.8,6.38,7.8,64.06,76.38,118,156.67,160.28,238.63C1789.24,2388.88,1821.93,2539.92,1805.21,2680.42Z"/><path class="cls-8" d="M1852.92,2533.2l-3.06-1.89c126.72-204.73,393.82-219,396.1-218.27l1.34,1.68-1.23,1.77-.56-1.68-.18,1.75h0C2240.6,2316.56,1978.54,2330.23,1852.92,2533.2Zm392-220.12.57,1.7Z"/><path class="cls-8" d="M1678.12,3135.5l-3.45-1c13.39-46.2,66.11-136.74,268.73-224,2.82-1.22,4.63-2,5.27-2.32l1.64,3.19c-.67.35-2.55,1.16-5.49,2.43C1743.55,3000.48,1691.33,3089.9,1678.12,3135.5Z"/></g></g></g><path class="cls-11" d="M1643.12,232.68c116.26-49,227.13-35.81,282.48-15,65.44,24.63,87.15,43.11,145.08,52.41,51.49,8.27,105-45.45,145.08-7.49a63.71,63.71,0,0,1,9.77,11.23c28.75,42.26-5.22,93.31,4.18,182.49,4.81,45.63,16.44,58.29,27.2,146,4.09,33.35,3.24,38.26,2.1,42.11-17.59,59.17-157.1,48-255.29,22.46-135.37-35.2-179-94.24-267.83-67.38-41,12.39-72.17,37.17-92.07,56.15C1652.88,515.3,1634.05,373.05,1643.12,232.68Z"/><path class="cls-12" d="M1644.59,1549.94a5.46,5.46,0,0,1-5.47-5.47V190.94a5.47,5.47,0,1,1,10.94,0V1544.47A5.47,5.47,0,0,1,1644.59,1549.94Z"/><path class="cls-13" d="M1620.58,693l9.8-13.65s-1.88-7.16,1.3-12.41l3.19-5.25s4.15-3.89,12.09-1.17a5.94,5.94,0,0,0,5.34-.66c4.69-3.24,5.94,5.68,5.94,5.68s3.4,4,.35,7.42c0,0-.39,5.09-4.18,7.69s-14,6.91-14,6.91l-10.94,13.16Z"/><path class="cls-14" d="M1619,678.61c-70,27.89-115,17-135.89,9.11-26.3-9.87-51.51-28-51.51-28-35.61-25.59-49.54-51.05-84.64-56.57a81.59,81.59,0,0,0-19.09-.76c-50.62,4.49-107,71.47-99.73,116,12.57,77.24,227.61,156.79,345.7,70.81,38-27.68,57-66,66.75-92Z"/><path class="cls-15" d="M1161.89,1477.05c-2.88,2.64-3.06,8.83-3.18,12.88a10,10,0,0,0,.16,3.33c1.75,4.54,10.75,4.48,24.92,5.06,22.39.91,29.11,2.26,30.65-1.15,1.44-3.21-2.81-8.05-3.29-8.58-2.58-2.86-5.58-3.78-11.36-5.3-10.71-2.82-17.92-4.28-20.1-4.72C1166.06,1475.81,1163.79,1475.31,1161.89,1477.05Z"/><path class="cls-16" d="M1177.59,1454.72l.88,25.48c-.7,1.2-8.44,4.47-14.25,1l-4.4-25.24Z"/><path class="cls-17" d="M1350.46,1477.38c-3.85,3.82-5.08,11.17-2.11,15s7.73,1.31,21,2.41c14.16,1.18,17.69,4.73,27.48,2.59,4-.87,11-3.11,11-5.9,0-2-3.44-3.16-14.93-7.71-16.31-6.45-16.22-6.75-19.71-7.52C1364.35,1474.29,1355.54,1472.34,1350.46,1477.38Z"/><path class="cls-18" d="M1360.78,1454.72l5.86,24.06c-.61,1.24-8.07,5.09-14.14,2.08l-9.34-23.55Z"/><path class="cls-19" d="M1325.23,932.8a2220.71,2220.71,0,0,0,42,529.18l-27.64,5.88c-21.89-22.72-49.15-58.09-60.62-106.63-7.12-30.12-3.41-45.21-7-82-5.69-58.56-21.87-89.94-37.77-137.77-14.29-43-30.54-105.79-36.61-188.93Z"/><path class="cls-20" d="M1312.51,1304.92c-10.14-40.17-29.68-50.79-30.38-88.71-.49-26.82,9.15-29,8.51-54.68-1-38.94-23.78-59.36-35.24-83.85-12.11-25.87-16.75-67.42,15.87-136.53l-73.63,11.39c6.07,83.14,22.32,146,36.61,188.93,15.9,47.83,32.08,79.21,37.77,137.77,3.57,36.78-.14,51.87,7,82,11.47,48.54,38.73,83.91,60.62,106.63l7-1.5c-23.66-28.25-32-53.47-34.14-73.94C1309.05,1359.11,1322.74,1345.42,1312.51,1304.92Z"/><path class="cls-21" d="M1233.16,927.82q-16.44,151.35-30.1,308.47-10.21,117.87-18.23,232.84l-28,1.95a324.14,324.14,0,0,1-25-76.45c-7.78-40.25-4.23-63.71-6.38-105.11-2.41-46.43-9-56.86-18.38-115.78-19.14-119.55-28.71-179.33,1.64-214.58C1118.53,947.72,1149,919.32,1233.16,927.82Z"/><path class="cls-22" d="M991.34,614.05a611.73,611.73,0,0,1,221.52-32.17,605.25,605.25,0,0,1,138.55,22q7.53,42.12,15.07,84.26a1006.07,1006.07,0,0,1-1.64,111.38c-3.16,45.07-6.26,45.75-13.51,109.37-11.82,103.73-6.88,130.83-27.72,143.29-13.56,8.11-18.47-1.68-87.66-8.54-46.39-4.59-70.07-6.73-93.57,1.22-32,10.83-42.7,29-55.9,23.09-12.65-5.67-14.27-27.53-15.79-65.62-2.36-58.77-2.22-98.72-2.44-113-1-65.6-17.61-115.69-38.88-179.85A871.5,871.5,0,0,0,991.34,614.05Z"/><path class="cls-23" d="M1206.63,516.89a192.63,192.63,0,0,1-5.5,38.33c-2.54,10.15-4.12,12.73-6.06,14.78-2.94,3.09-7.26,5.58-31.2,10.18-13,2.5-14.68,2.33-15,3.59-1.72,6.15,32.21,29.23,68.7,26.05,22.33-1.94,43.18-13.51,42.29-20.22s-23.22-4.35-29.17-16.79c-4.14-8.66,1.64-20.32,8.25-29.89C1233.61,531.57,1211.93,528.24,1206.63,516.89Z"/><path class="cls-24" d="M1247.42,525.6c5.61-6.67,6.58-18.78,1-26.77-4.84-6.88-13-8.26-17.8-9.08-14.08-2.39-32.26,2.56-39.17,15.27-4.1,7.52,3,24,4.1,27,1.24,3.34,3.74,4.59,6,7.19,3.1,3.59,8,9.31,15.86,18.85a57.72,57.72,0,0,1,3.73-9.44,51.66,51.66,0,0,1,7.33-10.93C1236.27,529,1242.11,531.92,1247.42,525.6Z"/><path class="cls-25" d="M1205.79,549.72s8.49,15.77,27.09,15.56c16.65-.2,21.07-37.28,10.89-45.75-3.39-2.82-10.42-4.29-16.26-3-3.45.77-4.68,2.13-10.35,3.28-5.22,1.06-6.65.41-8.27,1.64-2,1.53-3.68,5.47-1,16.52-3-3.37-6.73-4.81-9.49-3.68a5.67,5.67,0,0,0-2.32,2C1193.52,540.46,1197.11,546.1,1205.79,549.72Z"/><path class="cls-26" d="M1208.26,519.19c.76.64-1.84,3.49-2.25,7.71-.79,8.19,7,18.48,15.41,19.76,5,.76,6.52-2.18,14.85-2.61a38,38,0,0,1,12,1.34c2.12,9.14-.81,18-7,21.82-6.71,4.13-14.84,1-18.23-.35-2.27-.88-9.56-3.7-13.07-10.71-3.66-7.3.53-11.35-3.84-16.39-2.21-2.54-5.22-3.75-8-8.59a23.79,23.79,0,0,1-1.51-3.24C1201.17,523.62,1207.14,518.26,1208.26,519.19Z"/><path class="cls-27" d="M1242.1,548.4s-3.68,1.68-9.86,1c-.3,0-.63,0-.68.2-.17.58,3.66,3.42,7.38,2.59,2.63-.59,4.79-3,4.47-3.59C1243.28,548.33,1242.69,548.33,1242.1,548.4Z"/><path class="cls-28" d="M1037.87,889.38l16.7-.94s18.3-15.31,26.62-14.35,20.79,6.73,22.31,7.95-4.56,8-10.64,7.34-19.63,2.61-22.06,8-12.94,8.58-14.73,5.44l-22.45,4.46Z"/><path class="cls-29" d="M1042.93,883.53c1.17,13.7-1.82,23-6.8,29.39-22.07,28.27-97.07,16.71-141.65-21.17-33-28-50.47-71.57-49.82-110.58,1.26-76.12,71.8-150.7,176.73-176.47Q1044.7,674.35,1068,744c-64.69,1-104,49.76-98.17,84.57C974.17,854.5,1004.41,877.83,1042.93,883.53Z"/><path class="cls-30" d="M1296.71,1018.14c-34-14.53-33.83-44.58-65.62-57.12-45.36-17.9-95.47,23.68-103.29,12.15-8.14-12,51.71-48.78,43.75-85.06-6.33-28.83-48.11-23.72-70.48-63.19-21.23-37.44-.65-72.06-19.45-85.07-6.74-4.66-18.63-6.5-41.17,3.42,15.72,49.09,27,92.39,27.8,146.05.22,14.3.08,54.25,2.44,113,1.52,38.09,3.14,59.95,15.79,65.62,13.2,5.91,23.91-12.26,55.9-23.09,23.5-7.95,47.18-5.81,93.57-1.22,69.19,6.86,74.1,16.65,87.66,8.54,8.83-5.28,13-13.21,15.84-28.46C1325.57,1025.23,1310.86,1024.17,1296.71,1018.14Z"/><path class="cls-31" d="M1117.26,1870q-289,10.26-577.74,23.4c-53,2.41-96.3-56.19-97.47-131l-.78-50.71C440.09,1637,481.69,1572,535,1566.6q290.18-29.4,580.87-55.91Z"/><path class="cls-32" d="M1036,1886.69q-244.59,10.9-489,23.87c-69.14,2.93-125.44-73.61-127-170.74,0-.35,0-.71,0-1.06-1.55-97.12,52.55-182,122.14-189.26Q787.8,1519.2,1034,1491c8.64-.83,108.88,7.82,108.92,18.48s-93.49,19-102.05,19.82q-249.36,26.52-498.27,55.15c-56.19,5.51-100.09,73.95-98.87,152.56,0,.36,0,.71,0,1.07,1.23,78.61,46.91,140.31,102.8,137.62q244.54-14.64,489.29-27.23c8.54-.38,108.24,10,108.26,20.67S1044.59,1886.35,1036,1886.69Z"/><path class="cls-3" d="M2228.52,1858.11q-590.34-1.36-1180.45,9.23L1046.3,1509q593.79,4.79,1187.24,21.62Q2231,1694.35,2228.52,1858.11Z"/><path class="cls-33" d="M2243.07,1549.43q-604.28-16.35-1208.9-20.21c-8.18,0-14.85-8.67-14.91-19.24s6.54-19.09,14.71-19q605,5.54,1209.64,23.56c6.8.2,12.17,8.18,12,17.81S2249.85,1549.62,2243.07,1549.43Z"/><path class="cls-34" d="M2238,1875.59q-601.14-.66-1202,11.1c-8.09.16-14.76-8.28-14.81-18.86s6.49-19.26,14.61-19.4q601.25-10.08,1202.74-7.75c6.77,0,12.11,7.86,12,17.49S2244.77,1875.6,2238,1875.59Z"/><path class="cls-35" d="M1124.81,1881h-.1l-18.25-.15-79.45,2.41-469.19,16.36a120.73,120.73,0,0,0-39.58,7.59c-54.05,20.36-90.83,78.5-86.77,145.56l.07.87C436,2127.84,489,2187.88,553.8,2197.07a120.59,120.59,0,0,0,20.44,1.18l392.82-15.34,62.21-2.44,24-.94,69.1-3.07,14.44-.95h.11l4.92.2,10-.21.29-2.85,1.15-12.6.14-1.52.94-10.26,22.12-241.61,1.4-15.3.65-7.28.61-5.79Z"/><path class="cls-3" d="M2230.43,2155.9l-1035.2,6.49c-86.12.54-157.41-49.62-159.62-112.24l-1.51-42.61c-2.23-63,66-115.25,152.76-116.5l1043.37-15Z"/><path class="cls-36" d="M2241.61,2170.63,1151.29,2177c-74.59.44-137.42-65.35-140.36-147l0-.9c-2.95-82,55.57-150,130.79-151.08l1099.81-16.26c7.81-.12,14.15,6.53,14.15,14.85s-6.33,15.14-14.14,15.25l-1098.88,15.29c-60.61.84-107.85,55.53-105.51,121.68l0,.9c2.33,65.9,53,119,113.23,118.59L2241.6,2141c7.75-.05,14,6.55,14,14.73S2249.36,2170.59,2241.61,2170.63Z"/><path class="cls-37" d="M1139.47,2423.16l-17.14.57-62.56,2.12L1026.4,2427l-286,9.66-12,.43-54.3,1.84-87,2.94-35.17,1.19a86.47,86.47,0,0,0-31.82,6.78,100,100,0,0,0-19.63,11.07c-43,30.45-72.32,96.47-72.32,172.26v1.15c0,103.4,54.87,190.07,124,193.23l570.34,15.91,36.28,1,2-20.22,1-9.81,33.68-336.11,2.37-19.36,2.54-21v0l.9-13.4.14-3.49Z"/><path class="cls-3" d="M2231.21,2444.85v348.79l-284.36,11.25-722.33,28.48a177.06,177.06,0,0,1-64-9.12c-62.85-21.38-107.41-77.33-107.41-144.79v-60.19c0-80,62.84-147,144.23-160.3a181.73,181.73,0,0,1,27.5-2.41l633.09-7.36Z"/><path class="cls-38" d="M2254.62,2792.78c0,10.24-5.49,18.79-12.24,19.07L1969.62,2823l-793.12,32.44c-19,.79-36.48-3.52-53.28-12-56-28.23-95.24-103-95.24-192.16v-1.25c0-115.51,66.47-210.3,148.43-211.81l.49,0,22.82-.25,666.31-7,376.35-4h.07c6.72,0,12.17,8.42,12.17,18.66s-5.49,18.74-12.24,18.81l-9.74.19L1852,2469.65l-656.53,8.66-18.48.26c-66.3.86-120.27,77.45-120.27,170.72v1.26c0,86.27,46.1,155.92,105.55,163.89a84,84,0,0,0,14.48.68l752.09-28.55L2232.7,2775l9.71-.36C2249.16,2774.43,2254.62,2782.51,2254.62,2792.78Z"/><path class="cls-31" d="M1122.35,2428.06l-577.64,13c-53.09,1.2-95.42-40.83-95.42-93.86v-36c0-53,42.33-98.66,95.42-102l577.64-36.06Z"/><path class="cls-39" d="M1041.07,2439.61,552,2453.29c-69.21,1.41-124.31-53.51-124.31-122.39v-.76c0-68.88,55.1-128.47,124.31-132.93L1041.07,2159c8.57-.54,108.07,5.89,108.07,13.43s-92.93,13.25-101.45,13.76L552,2222c-55.92,3.36-100.62,51.41-100.62,107.17v.76c0,55.75,44.7,100,100.62,98.63l489.12-16.05c8.51-.23,108.07,7.44,108.07,15S1049.64,2439.42,1041.07,2439.61Z"/><polygon class="cls-3" points="2231.21 2182.76 2231.21 2415.04 1871.1 2418.38 1200.49 2424.56 1145.82 2425.06 1122.24 2425.28 1059.67 2425.85 1053.12 2425.92 1053.12 2171.81 1116.8 2171.92 1116.88 2171.92 1149.06 2172.47 1152.11 2172.63 1434.17 2175.31 2231.21 2182.76"/><path class="cls-40" d="M2242.39,2196l-1201.32-9.91c-8.12-.06-14.71-6.2-14.71-13.7s6.59-13.51,14.71-13.43l1201.32,12.28a12.45,12.45,0,0,1,12.22,12.49A12.18,12.18,0,0,1,2242.39,2196Z"/><path class="cls-41" d="M2254.62,2414.63a12.24,12.24,0,0,1-12.17,12.3h-.07l-376.45,4-666.41,6.92-23,.27-.9.9-134.55,2.24h-.14c-6.54,0-12-4.76-13.9-10.22a17.72,17.72,0,0,1-.61-3.66,8,8,0,0,1,0-1c0-7.5,6.58-13.86,14.69-13.86h.47l11.71-.14,69.1-.59,756.13-6.23,354.18-2.95,9.74-.17A12.08,12.08,0,0,1,2254.62,2414.63Z"/><path class="cls-42" d="M996.12,2797.41l-129-7.36c-31.17-88.86-28.81-174.55,0-278.79l129,.39C970.27,2618.08,974.2,2712.2,996.12,2797.41Z"/><path class="cls-43" d="M728.76,2451.29l-4.1-160.88-148.06,163s-80,43.12-66.26,118.84l91.52-36.41L683.17,2564S685.2,2484.48,728.76,2451.29Z"/><path class="cls-44" d="M560,2300.47l164.7-10.06S647.2,2349.26,683.17,2564c0,0-70.42-22.37-101-60.66l-71.78,68.9S466.51,2381.32,560,2300.47Z"/><path class="cls-45" d="M623.05,1617.09c-6.46-2.35-13.38.35-15.45,6L155.4,2862.57c-2.07,5.68,1.48,12.2,7.94,14.55s13.39-.35,15.46-6L631,1631.64C633.07,1626,629.51,1619.44,623.05,1617.09Z"/><rect class="cls-46" x="553.87" y="1773.24" width="305.3" height="25.14" rx="11.9"/><rect class="cls-47" x="471.26" y="1999.51" width="305.3" height="25.14" rx="11.9"/><rect class="cls-48" x="388.65" y="2229.38" width="305.3" height="25.14" rx="11.9"/><rect class="cls-49" x="302.45" y="2466.44" width="305.3" height="25.14" rx="11.9"/><rect class="cls-50" x="219.84" y="2692.72" width="305.3" height="25.14" rx="11.9"/><path class="cls-51" d="M912.77,1608.51c-6.67-2.43-13.82.36-16,6.24l-467,1281.59c-2.14,5.88,1.54,12.61,8.21,15s13.82-.36,16-6.23l467-1281.6C923.12,1617.68,919.45,1610.94,912.77,1608.51Z"/><path class="cls-52" d="M2231.21,2464.64V2775l10.45-.36c6.75-.25,12.61,7.83,12.61,18.1s-5.32,18.79-12.07,19.07L1969.53,2823c-7.61-5.71-14.93-11.78-22-18.13-6.5-5.86-12.8-12-18.83-18.32a326.59,326.59,0,0,1-76.7-316.9q3-10.4,6.68-20.47c2.23-6.11,4.63-12.11,7.26-18,1.86-4.31,3.84-8.59,5.89-12.79s4.31-8.58,6.64-12.79a329.86,329.86,0,0,1,69-87.31c59.94-66.63,146.07-108.61,242.51-108.61,14.22,0,30.49.89,41.27,2.69v190.29l10.45-.07a12.48,12.48,0,0,1,12.61,12.25,12.33,12.33,0,0,1-12,12.49c6.72,0,12.27,8.23,12.27,18.47s-6.17,18.64-12.93,18.71Z"/><circle class="cls-53" cx="2201.91" cy="2561.51" r="327.17" transform="translate(-1166.34 2307.23) rotate(-45)"/><circle class="cls-54" cx="2226.59" cy="2536.83" r="327.17"/><path class="cls-55" d="M2531.19,2536.83c0,168.25-136.36,304.61-304.6,304.61a302.88,302.88,0,0,1-163.08-47.32c-85.07-54-141.53-149-141.53-257.29,0-168.24,136.37-304.6,304.61-304.6,2.82,0,5.6,0,8.39.12C2399.34,2236.79,2531.19,2371.41,2531.19,2536.83Z"/><polygon class="cls-56" points="2226.59 2396.86 1953.03 2480.24 2226.59 2563.63 2500.15 2480.24 2226.59 2396.86"/><path class="cls-56" d="M2226.59,2592.86l-172.17-52.48v119.89a41.67,41.67,0,0,0,33,40.77c92.46,19.61,181.36,20.22,266.49.65a41.6,41.6,0,0,0,32.16-40.58V2544.25Z"/><path class="cls-56" d="M2016.39,2642.59q-22.44,10-39.24.42a8.76,8.76,0,0,1-4.16-9.38l24.34-121.06,24.17,120.14A8.9,8.9,0,0,1,2016.39,2642.59Z"/><polygon class="cls-56" points="2226.59 2467.89 1993.79 2492.63 1993.79 2533.01 2000.69 2533.01 2001.4 2497.62 2226.59 2467.89"/><path class="cls-57" d="M2531.19,2536.83c0,168.25-136.36,304.61-304.6,304.61a302.88,302.88,0,0,1-163.08-47.32c28.64-77.93,111.45-161.57,197.18-214,158.69-97,38.1-272.32-25.71-347.78C2399.34,2236.79,2531.19,2371.41,2531.19,2536.83Z"/></g></g></g></svg>