<svg xmlns="http://www.w3.org/2000/svg" xmlns:xlink="http://www.w3.org/1999/xlink" viewBox="0 0 2198.84 1290.39"><defs><style>.cls-1{fill:url(#linear-gradient);}.cls-2{fill:#91b3fa;}.cls-3{fill:#7d97f4;}.cls-4{fill:#bdd0fb;}.cls-5{fill:url(#linear-gradient-2);}.cls-6{fill:#f0f0f0;}.cls-7{fill:url(#linear-gradient-3);}.cls-8{fill:url(#linear-gradient-4);}.cls-9{fill:url(#linear-gradient-5);}.cls-10{opacity:0.8;}.cls-11{fill:url(#linear-gradient-6);}.cls-12{fill:url(#linear-gradient-7);}.cls-13{fill:url(#linear-gradient-8);}.cls-14{fill:url(#linear-gradient-9);}.cls-15{fill:url(#linear-gradient-10);}.cls-16{fill:url(#linear-gradient-11);}.cls-17{fill:url(#linear-gradient-12);}.cls-18{fill:url(#linear-gradient-13);}.cls-19{fill:url(#linear-gradient-14);}.cls-20{fill:url(#linear-gradient-15);}.cls-21{fill:url(#linear-gradient-16);}.cls-22{fill:url(#linear-gradient-17);}.cls-23{fill:url(#linear-gradient-18);}.cls-24{fill:url(#linear-gradient-19);}.cls-25{fill:url(#linear-gradient-20);}.cls-26{fill:url(#linear-gradient-21);}.cls-27{fill:url(#linear-gradient-22);}.cls-28{fill:url(#linear-gradient-23);}.cls-29{fill:url(#linear-gradient-24);}.cls-30{fill:url(#linear-gradient-25);}.cls-31{fill:url(#linear-gradient-26);}.cls-32{fill:url(#linear-gradient-27);}.cls-33{fill:url(#linear-gradient-28);}.cls-34{fill:url(#linear-gradient-29);}.cls-35{fill:url(#linear-gradient-30);}.cls-36{fill:url(#linear-gradient-31);}.cls-37{fill:url(#linear-gradient-32);}.cls-38{fill:url(#linear-gradient-33);}.cls-39{fill:url(#linear-gradient-34);}.cls-40{fill:url(#linear-gradient-35);}.cls-41{fill:url(#linear-gradient-36);}.cls-42{fill:url(#linear-gradient-37);}.cls-43{fill:url(#linear-gradient-38);}.cls-44{fill:url(#linear-gradient-39);}.cls-45{fill:url(#linear-gradient-40);}.cls-46{fill:url(#linear-gradient-41);}.cls-47{fill:url(#linear-gradient-42);}.cls-48{fill:url(#linear-gradient-43);}.cls-49{fill:url(#linear-gradient-44);}.cls-50{fill:url(#linear-gradient-45);}.cls-51{fill:url(#linear-gradient-46);}.cls-52{fill:url(#linear-gradient-47);}.cls-53{fill:url(#linear-gradient-48);}.cls-54{fill:url(#linear-gradient-49);}.cls-55{fill:url(#linear-gradient-50);}.cls-56{fill:url(#linear-gradient-51);}.cls-57{fill:url(#linear-gradient-52);}.cls-58{fill:url(#linear-gradient-53);}.cls-59{fill:url(#linear-gradient-54);}.cls-60{fill:url(#linear-gradient-55);}.cls-61{fill:url(#linear-gradient-56);}.cls-62{fill:url(#linear-gradient-57);}.cls-63{fill:url(#linear-gradient-58);}.cls-64{fill:url(#linear-gradient-59);}.cls-65{fill:url(#linear-gradient-60);}.cls-66{fill:url(#linear-gradient-61);}.cls-67{fill:url(#linear-gradient-62);}.cls-68{fill:url(#linear-gradient-63);}.cls-69{fill:url(#linear-gradient-64);}.cls-70{fill:url(#linear-gradient-65);}.cls-71{fill:url(#linear-gradient-66);}.cls-72{fill:url(#linear-gradient-67);}.cls-73{fill:url(#linear-gradient-68);}.cls-74{fill:url(#linear-gradient-69);}.cls-75{fill:url(#linear-gradient-70);}.cls-123,.cls-124,.cls-76,.cls-87{fill:#fff;}.cls-76{opacity:0.79;}.cls-77{fill:url(#linear-gradient-71);}.cls-78{fill:url(#linear-gradient-72);}.cls-79{fill:url(#linear-gradient-73);}.cls-80{fill:url(#linear-gradient-74);}.cls-81{fill:url(#linear-gradient-75);}.cls-82{fill:url(#linear-gradient-76);}.cls-83{fill:url(#linear-gradient-77);}.cls-84{fill:url(#linear-gradient-78);}.cls-85{fill:url(#linear-gradient-79);}.cls-86{fill:url(#linear-gradient-80);}.cls-88{fill:url(#linear-gradient-81);}.cls-89{fill:url(#linear-gradient-82);}.cls-90{fill:url(#linear-gradient-83);}.cls-91{fill:url(#linear-gradient-84);}.cls-92{fill:url(#linear-gradient-85);}.cls-93{fill:url(#linear-gradient-86);}.cls-94{fill:url(#linear-gradient-87);}.cls-95{fill:url(#linear-gradient-88);}.cls-96{fill:url(#linear-gradient-89);}.cls-97{fill:url(#linear-gradient-90);}.cls-98{fill:url(#linear-gradient-91);}.cls-99{fill:url(#linear-gradient-92);}.cls-100{fill:url(#linear-gradient-93);}.cls-101{fill:url(#linear-gradient-94);}.cls-102{fill:url(#linear-gradient-95);}.cls-103{fill:url(#linear-gradient-96);}.cls-104{fill:url(#linear-gradient-97);}.cls-105{fill:url(#linear-gradient-98);}.cls-106{fill:url(#linear-gradient-99);}.cls-107{fill:url(#linear-gradient-100);}.cls-108{fill:url(#linear-gradient-101);}.cls-109{fill:url(#linear-gradient-102);}.cls-110{fill:url(#linear-gradient-103);}.cls-111{fill:url(#linear-gradient-104);}.cls-112{fill:url(#linear-gradient-105);}.cls-113{fill:url(#linear-gradient-106);}.cls-114{fill:url(#linear-gradient-107);}.cls-115{fill:url(#linear-gradient-108);}.cls-116{fill:url(#linear-gradient-109);}.cls-117{fill:url(#linear-gradient-110);}.cls-118{fill:url(#linear-gradient-111);}.cls-119{fill:url(#linear-gradient-112);}.cls-120{fill:url(#linear-gradient-113);}.cls-121{fill:url(#linear-gradient-114);}.cls-122{fill:url(#linear-gradient-115);}.cls-123{opacity:0.4;}.cls-124{opacity:0.2;}.cls-125{fill:url(#linear-gradient-116);}.cls-126{fill:url(#linear-gradient-117);}.cls-127{fill:url(#linear-gradient-118);}.cls-128{fill:url(#linear-gradient-119);}.cls-129{fill:url(#linear-gradient-120);}.cls-130{fill:url(#linear-gradient-121);}.cls-131{fill:url(#linear-gradient-122);}.cls-132{fill:url(#linear-gradient-123);}.cls-133{fill:url(#linear-gradient-124);}.cls-134{fill:url(#linear-gradient-125);}.cls-135{fill:url(#linear-gradient-126);}.cls-136{fill:url(#linear-gradient-127);}.cls-137{fill:url(#linear-gradient-128);}.cls-138{fill:url(#linear-gradient-129);}.cls-139{fill:url(#linear-gradient-130);}.cls-140{fill:url(#linear-gradient-131);}.cls-141{fill:url(#linear-gradient-132);}.cls-142{fill:url(#linear-gradient-133);}.cls-143{fill:url(#linear-gradient-134);}.cls-144{fill:url(#linear-gradient-135);}.cls-145{fill:url(#linear-gradient-136);}.cls-146{fill:url(#linear-gradient-137);}.cls-147{fill:url(#linear-gradient-138);}.cls-148{fill:url(#linear-gradient-139);}.cls-149{fill:url(#linear-gradient-140);}.cls-150{fill:url(#linear-gradient-141);}.cls-151{fill:url(#linear-gradient-142);}.cls-152{fill:url(#linear-gradient-143);}.cls-153{fill:url(#linear-gradient-144);}.cls-154{fill:url(#linear-gradient-145);}.cls-155{fill:url(#linear-gradient-146);}.cls-156{fill:url(#linear-gradient-147);}.cls-157{fill:url(#linear-gradient-148);}.cls-158{fill:url(#linear-gradient-149);}</style><linearGradient id="linear-gradient" x1="37.26" y1="631.91" x2="2198.84" y2="631.91" gradientUnits="userSpaceOnUse"><stop offset="0" stop-color="#dae3fe"/><stop offset="1" stop-color="#e9effd"/></linearGradient><linearGradient id="linear-gradient-2" x1="2107.7" y1="867" x2="2146.65" y2="867" xlink:href="#linear-gradient"/><linearGradient id="linear-gradient-3" x1="18.9" y1="800.31" x2="113.5" y2="800.31" xlink:href="#linear-gradient"/><linearGradient id="linear-gradient-4" x1="178.02" y1="1286.41" x2="1618.03" y2="54.41" gradientUnits="userSpaceOnUse"><stop offset="0" stop-color="#4042e2"/><stop offset="1" stop-color="#4f52ff"/></linearGradient><linearGradient id="linear-gradient-5" x1="375.83" y1="755.13" x2="1222.95" y2="755.13" xlink:href="#linear-gradient"/><linearGradient id="linear-gradient-6" x1="375.83" y1="396.4" x2="481.72" y2="396.4" xlink:href="#linear-gradient"/><linearGradient id="linear-gradient-7" x1="587.61" y1="396.4" x2="693.5" y2="396.4" xlink:href="#linear-gradient"/><linearGradient id="linear-gradient-8" x1="397.58" y1="150.66" x2="1149.58" y2="1498.66" gradientUnits="userSpaceOnUse"><stop offset="0" stop-color="#09005d"/><stop offset="1" stop-color="#1a0f91"/></linearGradient><linearGradient id="linear-gradient-9" x1="559.09" y1="60.56" x2="1311.09" y2="1408.56" xlink:href="#linear-gradient-8"/><linearGradient id="linear-gradient-10" x1="799.39" y1="396.4" x2="905.28" y2="396.4" xlink:href="#linear-gradient"/><linearGradient id="linear-gradient-11" x1="1011.17" y1="396.4" x2="1117.06" y2="396.4" xlink:href="#linear-gradient"/><linearGradient id="linear-gradient-12" x1="882.12" y1="-119.64" x2="1634.12" y2="1228.36" xlink:href="#linear-gradient-8"/><linearGradient id="linear-gradient-13" x1="720.61" y1="-29.54" x2="1472.61" y2="1318.46" xlink:href="#linear-gradient-8"/><linearGradient id="linear-gradient-14" x1="1117.06" y1="499.05" x2="1222.95" y2="499.05" xlink:href="#linear-gradient"/><linearGradient id="linear-gradient-15" x1="905.28" y1="499.05" x2="1011.17" y2="499.05" xlink:href="#linear-gradient"/><linearGradient id="linear-gradient-16" x1="-2485.24" y1="-375.5" x2="-1733.24" y2="972.49" gradientTransform="matrix(-1, 0, 0, 1, -933.24, 0)" xlink:href="#linear-gradient-8"/><linearGradient id="linear-gradient-17" x1="-2323.72" y1="-465.61" x2="-1571.72" y2="882.39" gradientTransform="matrix(-1, 0, 0, 1, -933.24, 0)" xlink:href="#linear-gradient-8"/><linearGradient id="linear-gradient-18" x1="693.5" y1="499.05" x2="799.39" y2="499.05" xlink:href="#linear-gradient"/><linearGradient id="linear-gradient-19" x1="481.72" y1="499.05" x2="587.61" y2="499.05" xlink:href="#linear-gradient"/><linearGradient id="linear-gradient-20" x1="-2000.69" y1="-645.81" x2="-1248.69" y2="702.18" gradientTransform="matrix(-1, 0, 0, 1, -933.24, 0)" xlink:href="#linear-gradient-8"/><linearGradient id="linear-gradient-21" x1="-2162.21" y1="-555.71" x2="-1410.21" y2="792.28" gradientTransform="matrix(-1, 0, 0, 1, -933.24, 0)" xlink:href="#linear-gradient-8"/><linearGradient id="linear-gradient-22" x1="375.83" y1="601.7" x2="481.72" y2="601.7" xlink:href="#linear-gradient"/><linearGradient id="linear-gradient-23" x1="587.61" y1="601.7" x2="693.5" y2="601.7" xlink:href="#linear-gradient"/><linearGradient id="linear-gradient-24" x1="310.23" y1="199.39" x2="1062.23" y2="1547.39" xlink:href="#linear-gradient-8"/><linearGradient id="linear-gradient-25" x1="471.75" y1="109.29" x2="1223.75" y2="1457.29" xlink:href="#linear-gradient-8"/><linearGradient id="linear-gradient-26" x1="799.39" y1="601.7" x2="905.28" y2="601.7" xlink:href="#linear-gradient"/><linearGradient id="linear-gradient-27" x1="1011.17" y1="601.7" x2="1117.06" y2="601.7" xlink:href="#linear-gradient"/><linearGradient id="linear-gradient-28" x1="794.78" y1="-70.92" x2="1546.78" y2="1277.08" xlink:href="#linear-gradient-8"/><linearGradient id="linear-gradient-29" x1="633.26" y1="19.18" x2="1385.26" y2="1367.19" xlink:href="#linear-gradient-8"/><linearGradient id="linear-gradient-30" x1="1117.06" y1="704.35" x2="1222.95" y2="704.35" xlink:href="#linear-gradient"/><linearGradient id="linear-gradient-31" x1="905.28" y1="704.35" x2="1011.17" y2="704.35" xlink:href="#linear-gradient"/><linearGradient id="linear-gradient-32" x1="-2572.58" y1="-326.78" x2="-1820.58" y2="1021.22" gradientTransform="matrix(-1, 0, 0, 1, -933.24, 0)" xlink:href="#linear-gradient-8"/><linearGradient id="linear-gradient-33" x1="-2411.07" y1="-416.88" x2="-1659.07" y2="931.11" gradientTransform="matrix(-1, 0, 0, 1, -933.24, 0)" xlink:href="#linear-gradient-8"/><linearGradient id="linear-gradient-34" x1="693.5" y1="704.35" x2="799.39" y2="704.35" xlink:href="#linear-gradient"/><linearGradient id="linear-gradient-35" x1="481.72" y1="704.35" x2="587.61" y2="704.35" xlink:href="#linear-gradient"/><linearGradient id="linear-gradient-36" x1="-2088.04" y1="-597.09" x2="-1336.04" y2="750.9" gradientTransform="matrix(-1, 0, 0, 1, -933.24, 0)" xlink:href="#linear-gradient-8"/><linearGradient id="linear-gradient-37" x1="-2249.55" y1="-506.98" x2="-1497.55" y2="841.01" gradientTransform="matrix(-1, 0, 0, 1, -933.24, 0)" xlink:href="#linear-gradient-8"/><linearGradient id="linear-gradient-38" x1="375.83" y1="805.92" x2="481.72" y2="805.92" xlink:href="#linear-gradient"/><linearGradient id="linear-gradient-39" x1="587.61" y1="805.92" x2="693.5" y2="805.92" xlink:href="#linear-gradient"/><linearGradient id="linear-gradient-40" x1="223.35" y1="247.86" x2="975.35" y2="1595.86" xlink:href="#linear-gradient-8"/><linearGradient id="linear-gradient-41" x1="384.86" y1="157.76" x2="1136.86" y2="1505.75" xlink:href="#linear-gradient-8"/><linearGradient id="linear-gradient-42" x1="799.39" y1="805.92" x2="905.28" y2="805.92" xlink:href="#linear-gradient"/><linearGradient id="linear-gradient-43" x1="1011.17" y1="805.92" x2="1117.06" y2="805.92" xlink:href="#linear-gradient"/><linearGradient id="linear-gradient-44" x1="707.89" y1="-22.45" x2="1459.89" y2="1325.55" xlink:href="#linear-gradient-8"/><linearGradient id="linear-gradient-45" x1="546.38" y1="67.66" x2="1298.38" y2="1415.65" xlink:href="#linear-gradient-8"/><linearGradient id="linear-gradient-46" x1="1117.06" y1="908.56" x2="1222.95" y2="908.56" xlink:href="#linear-gradient"/><linearGradient id="linear-gradient-47" x1="905.28" y1="908.56" x2="1011.17" y2="908.56" xlink:href="#linear-gradient"/><linearGradient id="linear-gradient-48" x1="-2659.47" y1="-278.31" x2="-1907.47" y2="1069.69" gradientTransform="matrix(-1, 0, 0, 1, -933.24, 0)" xlink:href="#linear-gradient-8"/><linearGradient id="linear-gradient-49" x1="-2497.95" y1="-368.41" x2="-1745.95" y2="979.59" gradientTransform="matrix(-1, 0, 0, 1, -933.24, 0)" xlink:href="#linear-gradient-8"/><linearGradient id="linear-gradient-50" x1="693.5" y1="908.56" x2="799.39" y2="908.56" xlink:href="#linear-gradient"/><linearGradient id="linear-gradient-51" x1="481.72" y1="908.56" x2="587.61" y2="908.56" xlink:href="#linear-gradient"/><linearGradient id="linear-gradient-52" x1="-2174.93" y1="-548.62" x2="-1422.92" y2="799.38" gradientTransform="matrix(-1, 0, 0, 1, -933.24, 0)" xlink:href="#linear-gradient-8"/><linearGradient id="linear-gradient-53" x1="-2336.44" y1="-458.52" x2="-1584.44" y2="889.48" gradientTransform="matrix(-1, 0, 0, 1, -933.24, 0)" xlink:href="#linear-gradient-8"/><linearGradient id="linear-gradient-54" x1="375.83" y1="1011.21" x2="481.72" y2="1011.21" xlink:href="#linear-gradient"/><linearGradient id="linear-gradient-55" x1="587.61" y1="1011.21" x2="693.5" y2="1011.21" xlink:href="#linear-gradient"/><linearGradient id="linear-gradient-56" x1="136" y1="296.59" x2="888" y2="1644.58" xlink:href="#linear-gradient-8"/><linearGradient id="linear-gradient-57" x1="297.52" y1="206.48" x2="1049.51" y2="1554.48" xlink:href="#linear-gradient-8"/><linearGradient id="linear-gradient-58" x1="799.39" y1="1011.21" x2="905.28" y2="1011.21" xlink:href="#linear-gradient"/><linearGradient id="linear-gradient-59" x1="1011.17" y1="1011.21" x2="1117.06" y2="1011.21" xlink:href="#linear-gradient"/><linearGradient id="linear-gradient-60" x1="620.55" y1="26.28" x2="1372.54" y2="1374.27" xlink:href="#linear-gradient-8"/><linearGradient id="linear-gradient-61" x1="459.03" y1="116.38" x2="1211.03" y2="1464.37" xlink:href="#linear-gradient-8"/><linearGradient id="linear-gradient-62" x1="1117.06" y1="1113.86" x2="1222.95" y2="1113.86" xlink:href="#linear-gradient"/><linearGradient id="linear-gradient-63" x1="905.28" y1="1113.86" x2="1011.17" y2="1113.86" xlink:href="#linear-gradient"/><linearGradient id="linear-gradient-64" x1="-2746.81" y1="-229.58" x2="-1994.81" y2="1118.42" gradientTransform="matrix(-1, 0, 0, 1, -933.24, 0)" xlink:href="#linear-gradient-8"/><linearGradient id="linear-gradient-65" x1="-2585.3" y1="-319.69" x2="-1833.3" y2="1028.31" gradientTransform="matrix(-1, 0, 0, 1, -933.24, 0)" xlink:href="#linear-gradient-8"/><linearGradient id="linear-gradient-66" x1="693.5" y1="1113.86" x2="799.39" y2="1113.86" xlink:href="#linear-gradient"/><linearGradient id="linear-gradient-67" x1="481.72" y1="1113.86" x2="587.61" y2="1113.86" xlink:href="#linear-gradient"/><linearGradient id="linear-gradient-68" x1="-2262.27" y1="-499.89" x2="-1510.27" y2="848.11" gradientTransform="matrix(-1, 0, 0, 1, -933.24, 0)" xlink:href="#linear-gradient-8"/><linearGradient id="linear-gradient-69" x1="-2423.78" y1="-409.79" x2="-1671.78" y2="938.21" gradientTransform="matrix(-1, 0, 0, 1, -933.24, 0)" xlink:href="#linear-gradient-8"/><linearGradient id="linear-gradient-70" x1="1923.47" y1="599.17" x2="1571.47" y2="1175.17" gradientUnits="userSpaceOnUse"><stop offset="0" stop-color="#fe7062"/><stop offset="1" stop-color="#ff928e"/></linearGradient><linearGradient id="linear-gradient-71" x1="1747.5" y1="307.14" x2="1938.39" y2="792.84" xlink:href="#linear-gradient-70"/><linearGradient id="linear-gradient-72" x1="1496.17" y1="405.91" x2="1687.06" y2="891.62" gradientUnits="userSpaceOnUse"><stop offset="0" stop-color="#fdf53f"/><stop offset="0.66" stop-color="#e57a58"/><stop offset="1" stop-color="#d93c65"/></linearGradient><linearGradient id="linear-gradient-73" x1="1607.03" y1="362.35" x2="1797.91" y2="848.05" xlink:href="#linear-gradient-72"/><linearGradient id="linear-gradient-74" x1="1625.65" y1="355.03" x2="1816.54" y2="840.73" xlink:href="#linear-gradient-72"/><linearGradient id="linear-gradient-75" x1="1947.71" y1="363.65" x2="1859.71" y2="595.64" xlink:href="#linear-gradient-70"/><linearGradient id="linear-gradient-76" x1="1345.09" y1="867.86" x2="1729.67" y2="867.86" xlink:href="#linear-gradient"/><linearGradient id="linear-gradient-77" x1="1583.87" y1="169.28" x2="1231.86" y2="1045.28" xlink:href="#linear-gradient-4"/><linearGradient id="linear-gradient-78" x1="1969.04" y1="324.05" x2="1617.04" y2="1200.06" xlink:href="#linear-gradient-8"/><linearGradient id="linear-gradient-79" x1="1538.24" y1="585.71" x2="1536.24" y2="706.71" xlink:href="#linear-gradient-8"/><linearGradient id="linear-gradient-80" x1="1834.4" y1="269.95" x2="1482.4" y2="1145.95" xlink:href="#linear-gradient-8"/><linearGradient id="linear-gradient-81" x1="1758.47" y1="980.53" x2="1800.47" y2="980.53" gradientTransform="translate(-62.14)" xlink:href="#linear-gradient-8"/><linearGradient id="linear-gradient-82" x1="1864.3" y1="929.39" x2="1709.83" y2="1050.68" gradientTransform="translate(-62.14)" gradientUnits="userSpaceOnUse"><stop offset="0" stop-color="#53d8ff"/><stop offset="1" stop-color="#3840f7"/></linearGradient><linearGradient id="linear-gradient-83" x1="1360.01" y1="931.25" x2="1351.63" y2="1004.42" gradientTransform="matrix(-1, 0, 0, 1, 3070.12, 0)" gradientUnits="userSpaceOnUse"><stop offset="0" stop-color="#ff928e"/><stop offset="1" stop-color="#feb3b1"/></linearGradient><linearGradient id="linear-gradient-84" x1="1502.36" y1="965.39" x2="1352.98" y2="1082.68" gradientTransform="matrix(-1, 0, 0, 1, 3070.12, 0)" xlink:href="#linear-gradient-82"/><linearGradient id="linear-gradient-85" x1="1435.55" y1="981.12" x2="1494.66" y2="981.12" gradientTransform="matrix(-1, 0, 0, 1, 3070.12, 0)" xlink:href="#linear-gradient-8"/><linearGradient id="linear-gradient-86" x1="1448.34" y1="940.61" x2="1440.5" y2="1009.06" xlink:href="#linear-gradient-83"/><linearGradient id="linear-gradient-87" x1="-411.92" y1="938.42" x2="-402.51" y2="643.61" gradientTransform="matrix(-1, 0, 0, 1, 1258.28, 0)" xlink:href="#linear-gradient-8"/><linearGradient id="linear-gradient-88" x1="1652.56" y1="948.73" x2="1626.62" y2="1363.65" xlink:href="#linear-gradient-4"/><linearGradient id="linear-gradient-89" x1="1684.98" y1="440.74" x2="1685.98" y2="585.74" gradientTransform="matrix(1, 0, 0, 1, 0, 0)" xlink:href="#linear-gradient-83"/><linearGradient id="linear-gradient-90" x1="-1195.93" y1="233.19" x2="-1158.93" y2="139.19" gradientTransform="matrix(-0.88, -0.48, -0.48, 0.88, 623.04, 569.3)" xlink:href="#linear-gradient-83"/><linearGradient id="linear-gradient-91" x1="-884.48" y1="-651.97" x2="-816.63" y2="-651.97" gradientTransform="matrix(-0.88, -0.48, -0.48, 0.88, 623.04, 569.3)" xlink:href="#linear-gradient-8"/><linearGradient id="linear-gradient-92" x1="-1217.89" y1="224.55" x2="-1180.89" y2="130.55" gradientTransform="matrix(-0.88, -0.48, -0.48, 0.88, 623.04, 569.3)" xlink:href="#linear-gradient-83"/><linearGradient id="linear-gradient-93" x1="1745.72" y1="954.56" x2="1719.79" y2="1369.47" xlink:href="#linear-gradient-4"/><linearGradient id="linear-gradient-94" x1="-525.65" y1="355.67" x2="-546.88" y2="425.44" gradientTransform="matrix(-1, 0, 0, 1, 1258.28, 0)" xlink:href="#linear-gradient-83"/><linearGradient id="linear-gradient-95" x1="1566.7" y1="943.37" x2="1540.77" y2="1358.28" xlink:href="#linear-gradient-4"/><linearGradient id="linear-gradient-96" x1="680.1" y1="361.74" x2="658.87" y2="431.5" gradientTransform="translate(902.49)" xlink:href="#linear-gradient-83"/><linearGradient id="linear-gradient-97" x1="1618.44" y1="308.7" x2="1154.44" y2="872.7" xlink:href="#linear-gradient-70"/><linearGradient id="linear-gradient-98" x1="-975.04" y1="1012.97" x2="-1715.04" y2="2272.97" gradientTransform="matrix(-1, 0, 0, 1, 490.77, 0)" gradientUnits="userSpaceOnUse"><stop offset="0" stop-color="#e1473d"/><stop offset="1" stop-color="#e9605a"/></linearGradient><linearGradient id="linear-gradient-99" x1="-1314.54" y1="928.07" x2="-2054.54" y2="2188.07" gradientTransform="matrix(-1, -0.09, -0.09, 1, 227.19, 23.52)" xlink:href="#linear-gradient-98"/><linearGradient id="linear-gradient-100" x1="-1208.95" y1="246.62" x2="-1948.95" y2="1506.62" gradientTransform="matrix(-1.13, -0.18, -0.18, 1.1, 23.68, 369.3)" xlink:href="#linear-gradient-98"/><linearGradient id="linear-gradient-101" x1="-1697.91" y1="-84.61" x2="-2437.91" y2="1175.38" gradientTransform="matrix(-1.08, -0.38, -0.37, 1.05, -563.55, 303.02)" xlink:href="#linear-gradient-98"/><linearGradient id="linear-gradient-102" x1="-1713.04" y1="-93.5" x2="-2453.03" y2="1166.5" gradientTransform="matrix(-1.08, -0.38, -0.37, 1.05, -563.55, 303.02)" xlink:href="#linear-gradient-98"/><linearGradient id="linear-gradient-103" x1="-2195.1" y1="-723.94" x2="-2935.1" y2="536.06" gradientTransform="matrix(-0.97, -0.61, -0.59, 0.94, -1270.73, 73.6)" xlink:href="#linear-gradient-98"/><linearGradient id="linear-gradient-104" x1="-1891.79" y1="-948.84" x2="-2631.79" y2="311.16" gradientTransform="matrix(-1.08, -0.68, -0.62, 0.99, -1311.04, 229.48)" xlink:href="#linear-gradient-98"/><linearGradient id="linear-gradient-105" x1="-2088.46" y1="-1441.87" x2="-2828.46" y2="-181.87" gradientTransform="matrix(-0.97, -0.82, -0.76, 0.89, -1745.89, -3.5)" xlink:href="#linear-gradient-98"/><linearGradient id="linear-gradient-106" x1="-2218.87" y1="-1994.35" x2="-2958.87" y2="-734.35" gradientTransform="matrix(-0.85, -0.95, -0.87, 0.78, -2135.54, -290.46)" xlink:href="#linear-gradient-98"/><linearGradient id="linear-gradient-107" x1="-2283.88" y1="-2882.59" x2="-3023.88" y2="-1622.59" gradientTransform="matrix(-0.64, -1.1, -1.01, 0.58, -2618.54, -792.48)" xlink:href="#linear-gradient-98"/><linearGradient id="linear-gradient-108" x1="-2256.41" y1="-3454.16" x2="-2996.41" y2="-2194.16" gradientTransform="matrix(-0.5, -1.17, -1.07, 0.46, -2855.29, -1135.46)" xlink:href="#linear-gradient-98"/><linearGradient id="linear-gradient-109" x1="-2269.69" y1="-3461.95" x2="-3009.68" y2="-2201.96" gradientTransform="matrix(-0.5, -1.17, -1.07, 0.46, -2855.29, -1135.46)" xlink:href="#linear-gradient-98"/><linearGradient id="linear-gradient-110" x1="-2205.28" y1="-3999.5" x2="-2945.28" y2="-2739.5" gradientTransform="matrix(-0.37, -1.22, -1.12, 0.34, -3032.03, -1467.81)" xlink:href="#linear-gradient-98"/><linearGradient id="linear-gradient-111" x1="1184.17" y1="535.54" x2="952.17" y2="1219.54" xlink:href="#linear-gradient-70"/><linearGradient id="linear-gradient-112" x1="-799.52" y1="1116.06" x2="-1539.52" y2="2376.06" xlink:href="#linear-gradient-98"/><linearGradient id="linear-gradient-113" x1="1079.4" y1="1118.04" x2="1067.4" y2="1382.05" xlink:href="#linear-gradient-70"/><linearGradient id="linear-gradient-114" x1="1034.45" y1="1539.89" x2="974.45" y2="1995.89" xlink:href="#linear-gradient-70"/><linearGradient id="linear-gradient-115" x1="1473.11" y1="1142.48" x2="1729.48" y2="1142.48" xlink:href="#linear-gradient-4"/><linearGradient id="linear-gradient-116" x1="2141.86" y1="255.79" x2="1493.86" y2="1075.79" gradientTransform="translate(2254.94 -383.39) rotate(76.72)" xlink:href="#linear-gradient-8"/><linearGradient id="linear-gradient-117" x1="2052.48" y1="185.16" x2="1404.48" y2="1005.16" gradientTransform="translate(2076.12 -524.91) rotate(76.72)" xlink:href="#linear-gradient-8"/><linearGradient id="linear-gradient-118" x1="2143.41" y1="257.02" x2="1495.41" y2="1077.02" gradientTransform="translate(418.67 -432.73) rotate(18.78)" xlink:href="#linear-gradient-8"/><linearGradient id="linear-gradient-119" x1="2136.68" y1="251.7" x2="1488.68" y2="1071.7" gradientTransform="translate(1224.25 -684.29) rotate(45)" xlink:href="#linear-gradient-8"/><linearGradient id="linear-gradient-120" x1="2222.81" y1="319.76" x2="1574.81" y2="1139.76" gradientTransform="translate(1311.5 -700.38) rotate(45)" xlink:href="#linear-gradient-8"/><linearGradient id="linear-gradient-121" x1="2264.8" y1="352.95" x2="1616.8" y2="1172.95" xlink:href="#linear-gradient-8"/><linearGradient id="linear-gradient-122" x1="2329.61" y1="404.17" x2="1681.61" y2="1224.17" xlink:href="#linear-gradient-8"/><linearGradient id="linear-gradient-123" x1="2200.59" y1="302.21" x2="1552.59" y2="1122.21" xlink:href="#linear-gradient-8"/><linearGradient id="linear-gradient-124" x1="1816.71" y1="1142.48" x2="2073.08" y2="1142.48" xlink:href="#linear-gradient-4"/><linearGradient id="linear-gradient-125" x1="2125.95" y1="609.64" x2="1741.95" y2="1189.64" gradientTransform="translate(2517.06 -718.85) rotate(76.64)" xlink:href="#linear-gradient-8"/><linearGradient id="linear-gradient-126" x1="2041.38" y1="553.64" x2="1657.38" y2="1133.64" gradientTransform="translate(2338.29 -860.13) rotate(76.64)" xlink:href="#linear-gradient-8"/><linearGradient id="linear-gradient-127" x1="2144.07" y1="621.64" x2="1760.07" y2="1201.64" gradientTransform="translate(537.76 -628.05) rotate(22.32)" xlink:href="#linear-gradient-8"/><linearGradient id="linear-gradient-128" x1="2079.18" y1="578.68" x2="1695.18" y2="1158.68" gradientTransform="translate(1304 -876.83) rotate(45)" xlink:href="#linear-gradient-8"/><linearGradient id="linear-gradient-129" x1="2172.33" y1="640.35" x2="1788.34" y2="1220.35" gradientTransform="translate(1343.25 -971.57) rotate(45)" xlink:href="#linear-gradient-8"/><linearGradient id="linear-gradient-130" x1="2217.37" y1="670.17" x2="1833.37" y2="1250.17" gradientTransform="translate(433.04 -478.89) rotate(16.73)" xlink:href="#linear-gradient-8"/><linearGradient id="linear-gradient-131" x1="2262.29" y1="699.91" x2="1878.29" y2="1279.91" xlink:href="#linear-gradient-8"/><linearGradient id="linear-gradient-132" x1="2337.1" y1="749.44" x2="1953.1" y2="1329.44" xlink:href="#linear-gradient-8"/><linearGradient id="linear-gradient-133" x1="2295.06" y1="721.6" x2="1911.06" y2="1301.6" xlink:href="#linear-gradient-8"/><linearGradient id="linear-gradient-134" x1="2209.04" y1="664.65" x2="1825.04" y2="1244.65" xlink:href="#linear-gradient-8"/><linearGradient id="linear-gradient-135" x1="-2813.15" y1="-10193.14" x2="-2801.62" y2="-10086.53" gradientTransform="matrix(-0.65, 0.61, -0.68, -0.73, 637.07, 3356.74)" xlink:href="#linear-gradient-8"/><linearGradient id="linear-gradient-136" x1="-1337.69" y1="1860.13" x2="-1318.89" y2="1860.13" gradientTransform="matrix(-0.73, 0.68, -0.68, -0.73, 666.71, 3329.41)" gradientUnits="userSpaceOnUse"><stop offset="0" stop-color="#a22b25"/><stop offset="1" stop-color="#c0423c"/></linearGradient><linearGradient id="linear-gradient-137" x1="2331.44" y1="626.68" x2="2309.07" y2="851.03" gradientTransform="translate(-1683.79)" xlink:href="#linear-gradient-136"/><linearGradient id="linear-gradient-138" x1="2327.76" y1="626.31" x2="2305.39" y2="850.66" gradientTransform="translate(-1683.79)" xlink:href="#linear-gradient-136"/><linearGradient id="linear-gradient-139" x1="2141.34" y1="876.96" x2="2145.67" y2="926.66" gradientTransform="translate(-1565.29)" xlink:href="#linear-gradient-8"/><linearGradient id="linear-gradient-140" x1="2140.01" y1="1244.41" x2="2158.81" y2="1244.41" gradientTransform="translate(-1565.29)" xlink:href="#linear-gradient-136"/><linearGradient id="linear-gradient-141" x1="-695.53" y1="1062.42" x2="-626.38" y2="1421.15" gradientTransform="matrix(-1, 0, 0, 1, -132.38, 0)" xlink:href="#linear-gradient-8"/><linearGradient id="linear-gradient-142" x1="-597.9" y1="1043.6" x2="-528.75" y2="1402.33" gradientTransform="matrix(-1, 0, 0, 1, -132.38, 0)" xlink:href="#linear-gradient-8"/><linearGradient id="linear-gradient-143" x1="-588.73" y1="631.84" x2="-611.1" y2="856.19" gradientTransform="matrix(-1, 0, 0, 1, -132.38, 0)" xlink:href="#linear-gradient-136"/><linearGradient id="linear-gradient-144" x1="-642.49" y1="887.76" x2="-456.2" y2="1126.6" gradientTransform="matrix(-1, 0, 0, 1, -132.38, 0)" xlink:href="#linear-gradient-70"/><linearGradient id="linear-gradient-145" x1="540.56" y1="751.79" x2="550.56" y2="871.79" gradientTransform="matrix(1, 0, 0, 1, 0, 0)" xlink:href="#linear-gradient-136"/><linearGradient id="linear-gradient-146" x1="1061.46" y1="1041.66" x2="1053.46" y2="1117.66" gradientTransform="translate(-2273.89 -1511.36) rotate(-38.57)" xlink:href="#linear-gradient-136"/><linearGradient id="linear-gradient-147" x1="535.46" y1="705.13" x2="539.46" y2="832.13" xlink:href="#linear-gradient-8"/><linearGradient id="linear-gradient-148" x1="1037.94" y1="1039.18" x2="1029.94" y2="1115.18" gradientTransform="translate(-2273.89 -1511.36) rotate(-38.57)" xlink:href="#linear-gradient-136"/><linearGradient id="linear-gradient-149" x1="-592.41" y1="631.47" x2="-614.78" y2="855.82" gradientTransform="matrix(-1, 0, 0, 1, -132.38, 0)" xlink:href="#linear-gradient-136"/></defs><g id="Layer_2" data-name="Layer 2"><g id="Illustration"><path class="cls-1" d="M2142.53,666.15C2082.42,633.43,2019,644.21,1992.86,569c-44.83-129.15-9-269.67-86.15-392-100.36-159-334.63-199.48-506.25-166.15C1221.84,45.51,1068.26,158.3,886.57,182.7c-74.57,10-154,3.61-222.4-29.47-91.31-44.16-164.55-110.93-271.81-107-173.11,6.37-308.3,63.16-346.82,245C18.79,417.44,60.27,496.27,121,603.11c42.73,75.15,46.18,139.62,24.08,221.68-24.4,90.62-48,206.34,10.43,288.77,51.47,72.63,132.36,124.12,219,143.08,110,24.07,202.15-14.88,290.37-79.55,121.1-88.76,330.46-161.16,479.67-121.89,130.35,34.31,226.68,148.64,364.06,170.79,94.74,15.27,236-9.06,266.47-116,8-28,7.68-58.6,20.62-84.72,30-60.45,105.84-54.69,162.66-60.15,61.45-5.91,125.83-35.22,173.41-74.11,31.63-25.84,57.18-60.91,64.88-101C2205.75,742.91,2185.78,689.71,2142.53,666.15Z"/><path class="cls-2" d="M1843.3,1240.5c68,12.59,154.84-56.07,182.82-131.07,28.78-77.18-24-109.52-23.59-216.62.46-121.67,68.8-140,114-304,10.2-37,69.22-251.12-3.93-291.26C2045,260.44,1855,366.94,1821.68,503.25c-23.74,97.2,49.66,138,21.62,251.21-24.59,99.33-89.24,100.77-114,196.6C1699.14,1067.73,1754,1224,1843.3,1240.5Z"/><path class="cls-2" d="M1848.24,1270c-18.33-131.08,17.43-333.32,50.66-479.89,36-158.69,76.8-288.13,77.21-289.42l5.66,1.54c-.41,1.29-41.18,130.55-77.11,289-33.13,146.15-68.79,347.71-50.57,478Z"/><path class="cls-2" d="M394.58,1145.52c-64.14,12.33-146.06-54.88-172.45-128.32C195,941.64,244.77,910,244.39,805.12,244,686,179.48,668.05,136.84,507.49c-9.62-36.23-65.3-245.86,3.71-285.16,63.8-36.33,243,67.94,274.43,201.39,22.4,95.16-46.84,135.12-20.4,245.95,23.21,97.25,84.19,98.66,107.55,192.48C530.58,976.37,478.81,1129.34,394.58,1145.52Z"/><path class="cls-3" d="M389.92,1174.38C407.22,1046,373.48,848,342.14,704.54c-33.93-155.36-72.45-282.09-72.83-283.35L264,422.7c.38,1.26,38.84,127.81,72.73,283,31.25,143.08,64.9,340.43,47.71,468Z"/><path class="cls-4" d="M1942.74,1264.92c-64.22-25.11-96.77-131.65-66-170.73,20.77-26.41,57-4.9,86.6-33.15,37.84-36.07,1.07-92.34,25.16-173.07,20.5-68.7,80-138,120-129.45,41.93,9,74,105.78,45.82,169.16-18.3,41.21-52.52,46.84-56.1,83.72-4.14,42.79,39.79,57.36,44.4,97.91C2150.92,1182.16,2027.7,1298.15,1942.74,1264.92Z"/><path class="cls-2" d="M1978.56,1289.24a2.49,2.49,0,0,1-2.61-3.32c62.67-174.79,65.5-370,65.52-372a2.49,2.49,0,0,1,5,.06c0,2-2.86,198-65.81,373.6A2.5,2.5,0,0,1,1978.56,1289.24Z"/><path class="cls-5" d="M2109.85,958a2.13,2.13,0,0,1-1.13-.32,2.16,2.16,0,0,1-.7-3c21.81-35.22,44.6-87.05,29.35-133.88-9-27.8-27.41-40.77-27.6-40.9a2.16,2.16,0,0,1,2.46-3.55c.81.56,19.76,13.94,29.25,43.11,15.76,48.41-7.5,101.49-29.79,137.5A2.14,2.14,0,0,1,2109.85,958Z"/><path class="cls-6" d="M1935.57,1252a2.18,2.18,0,0,1-1.65-.76c-45.49-53.11-63.65-96.07-54-127.68,8.67-28.32,36.5-36.27,37.68-36.59a2.16,2.16,0,0,1,1.15,4.17c-.27.07-26.77,7.7-34.71,33.74-9,29.68,9.32,72.4,53.14,123.55a2.17,2.17,0,0,1-1.64,3.57Z"/><path class="cls-4" d="M436.62,1210c66.92-56.06,63-197,10.3-231.51-35.58-23.3-70.33,17.12-117.29-4.81-60-28-38.56-110.36-100-197.49-52.34-74.15-151.7-133.32-196.3-106.85-46.69,27.71-46,156.78,13.32,221.46,38.59,42.06,81.92,35,101.1,77.8C170,1018.31,123.13,1053.52,134,1104,153.44,1194.79,348.11,1284.2,436.62,1210Z"/><path class="cls-2" d="M403.47,1253.67a3.15,3.15,0,0,0,1.79-5c-145.76-184.42-228-417.52-228.79-419.85a3.15,3.15,0,1,0-5.95,2.08c.81,2.34,83.38,236.44,229.79,421.68A3.15,3.15,0,0,0,403.47,1253.67Z"/><path class="cls-7" d="M111.33,908.83a2.15,2.15,0,0,1-1.37-.49c-41.19-34.13-90.42-88.29-91-152.51-.38-38.64,16.84-62.2,17.58-63.18A2.16,2.16,0,1,1,40,695.23c-.17.23-17.16,23.57-16.71,60.83.75,62.46,49.07,115.47,89.47,149a2.16,2.16,0,0,1-1.38,3.82Z"/><path class="cls-6" d="M439.14,1191.19a2.13,2.13,0,0,1-.81-.16,2.15,2.15,0,0,1-1.19-2.81c32.47-80.43,37.1-137.73,13.76-170.3-20.28-28.31-55.38-26.68-55.72-26.65a2.19,2.19,0,0,1-2.28-2,2.16,2.16,0,0,1,2-2.28c1.52-.09,37.82-1.77,59.47,28.45,24.26,33.86,19.79,92.54-13.27,174.44A2.15,2.15,0,0,1,439.14,1191.19Z"/><path class="cls-4" d="M1298.59,309.63c0-22.49-15.16-40.73-35.19-40.73h-928c-20,0-37.34,18.24-37.34,40.73v891c0,22.5,17.31,40.73,37.34,40.73h928c20,0,35.19-18.23,35.19-40.73Z"/><path class="cls-8" d="M1279.14,331.24c0-22.49-15-40.73-35-40.73H354.62c-20,0-37.14,18.24-37.14,40.73V1179c0,22.5,17.11,40.73,37.14,40.73h889.54c20,0,35-18.23,35-40.73Z"/><rect class="cls-9" x="375.83" y="346.7" width="847.12" height="816.86"/><g class="cls-10"><rect class="cls-11" x="375.83" y="344.54" width="105.89" height="103.73"/><rect class="cls-12" x="587.61" y="344.54" width="105.89" height="103.73"/><rect class="cls-13" x="481.72" y="344.54" width="105.89" height="103.73"/><rect class="cls-14" x="693.5" y="344.54" width="105.89" height="103.73"/><rect class="cls-15" x="799.39" y="344.54" width="105.89" height="103.73"/><rect class="cls-16" x="1011.17" y="344.54" width="105.89" height="103.73"/><rect class="cls-17" x="1117.06" y="344.54" width="105.89" height="103.73"/><rect class="cls-18" x="905.28" y="344.54" width="105.89" height="103.73"/><rect class="cls-19" x="1117.06" y="448.27" width="105.89" height="101.57"/><rect class="cls-20" x="905.28" y="448.27" width="105.89" height="101.57"/><rect class="cls-21" x="1011.17" y="448.27" width="105.89" height="101.57"/><rect class="cls-22" x="799.39" y="448.27" width="105.89" height="101.57"/><rect class="cls-23" x="693.5" y="448.27" width="105.89" height="101.57"/><rect class="cls-24" x="481.72" y="448.27" width="105.89" height="101.57"/><rect class="cls-25" x="375.83" y="448.27" width="105.89" height="101.57"/><rect class="cls-26" x="587.61" y="448.27" width="105.89" height="101.57"/><rect class="cls-27" x="375.83" y="549.84" width="105.89" height="103.73"/><rect class="cls-28" x="587.61" y="549.84" width="105.89" height="103.73"/><rect class="cls-29" x="481.72" y="549.84" width="105.89" height="103.73"/><rect class="cls-30" x="693.5" y="549.84" width="105.89" height="103.73"/><rect class="cls-31" x="799.39" y="549.84" width="105.89" height="103.73"/><rect class="cls-32" x="1011.17" y="549.84" width="105.89" height="103.73"/><rect class="cls-33" x="1117.06" y="549.84" width="105.89" height="103.73"/><rect class="cls-34" x="905.28" y="549.84" width="105.89" height="103.73"/><rect class="cls-35" x="1117.06" y="653.56" width="105.89" height="101.57"/><rect class="cls-36" x="905.28" y="653.56" width="105.89" height="101.57"/><rect class="cls-37" x="1011.17" y="653.56" width="105.89" height="101.57"/><rect class="cls-38" x="799.39" y="653.56" width="105.89" height="101.57"/><rect class="cls-39" x="693.5" y="653.56" width="105.89" height="101.57"/><rect class="cls-40" x="481.72" y="653.56" width="105.89" height="101.57"/><rect class="cls-41" x="375.83" y="653.56" width="105.89" height="101.57"/><rect class="cls-42" x="587.61" y="653.56" width="105.89" height="101.57"/><rect class="cls-43" x="375.83" y="755.13" width="105.89" height="101.57"/><rect class="cls-44" x="587.61" y="755.13" width="105.89" height="101.57"/><rect class="cls-45" x="481.72" y="755.13" width="105.89" height="101.57"/><rect class="cls-46" x="693.5" y="755.13" width="105.89" height="101.57"/><rect class="cls-47" x="799.39" y="755.13" width="105.89" height="101.57"/><rect class="cls-48" x="1011.17" y="755.13" width="105.89" height="101.57"/><rect class="cls-49" x="1117.06" y="755.13" width="105.89" height="101.57"/><rect class="cls-50" x="905.28" y="755.13" width="105.89" height="101.57"/><rect class="cls-51" x="1117.06" y="856.7" width="105.89" height="103.73"/><rect class="cls-52" x="905.28" y="856.7" width="105.89" height="103.73"/><rect class="cls-53" x="1011.17" y="856.7" width="105.89" height="103.73"/><rect class="cls-54" x="799.39" y="856.7" width="105.89" height="103.73"/><rect class="cls-55" x="693.5" y="856.7" width="105.89" height="103.73"/><rect class="cls-56" x="481.72" y="856.7" width="105.89" height="103.73"/><rect class="cls-57" x="375.83" y="856.7" width="105.89" height="103.73"/><rect class="cls-58" x="587.61" y="856.7" width="105.89" height="103.73"/><rect class="cls-59" x="375.83" y="960.43" width="105.89" height="101.57"/><rect class="cls-60" x="587.61" y="960.43" width="105.89" height="101.57"/><rect class="cls-61" x="481.72" y="960.43" width="105.89" height="101.57"/><rect class="cls-62" x="693.5" y="960.43" width="105.89" height="101.57"/><rect class="cls-63" x="799.39" y="960.43" width="105.89" height="101.57"/><rect class="cls-64" x="1011.17" y="960.43" width="105.89" height="101.57"/><rect class="cls-65" x="1117.06" y="960.43" width="105.89" height="101.57"/><rect class="cls-66" x="905.28" y="960.43" width="105.89" height="101.57"/><rect class="cls-67" x="1117.06" y="1062" width="105.89" height="103.73"/><rect class="cls-68" x="905.28" y="1062" width="105.89" height="103.73"/><rect class="cls-69" x="1011.17" y="1062" width="105.89" height="103.73"/><rect class="cls-70" x="799.39" y="1062" width="105.89" height="103.73"/><rect class="cls-71" x="693.5" y="1062" width="105.89" height="103.73"/><rect class="cls-72" x="481.72" y="1062" width="105.89" height="103.73"/><rect class="cls-73" x="375.83" y="1062" width="105.89" height="103.73"/><rect class="cls-74" x="587.61" y="1062" width="105.89" height="103.73"/></g><path class="cls-2" d="M343.42,493.65a2.16,2.16,0,0,1-2.16-2.16v-162c0-9.49,8.81-15.17,17.33-15.17H509.82a2.17,2.17,0,0,1,0,4.33H358.59c-6.26,0-13,4.14-13,10.84v162A2.16,2.16,0,0,1,343.42,493.65Z"/><path class="cls-75" d="M1619.27,510.57l-30.19,573.59a42.67,42.67,0,0,0,36.29,44.45L1907.85,1171a42.68,42.68,0,0,0,48.22-34l110.3-564.34a42.67,42.67,0,0,0-35.87-50.44l-362.59-51.62A42.68,42.68,0,0,0,1619.27,510.57Z"/><path class="cls-76" d="M1643.84,535.87l-30.94,535.89c-1.18,20.5,12.6,38.36,31.85,41.24l250.09,37.52c20,3,39-11.16,43-32.12l101.89-527.84c4.33-22.43-10-43.8-31.43-46.84l-321-45.57C1665.27,495,1645.19,512.49,1643.84,535.87Z"/><path class="cls-77" d="M1913.31,1046.41a5.62,5.62,0,0,1-1-.08,6.39,6.39,0,0,1-5.32-7.3l68.87-437.24a19.3,19.3,0,0,0-15.92-22l-232.08-37.94a6.39,6.39,0,0,1,2.06-12.61l232.08,38a32.1,32.1,0,0,1,26.48,36.59L1919.61,1041A6.38,6.38,0,0,1,1913.31,1046.41Z"/><path class="cls-78" d="M1861.29,1098.43a5.46,5.46,0,0,1-.9-.07l-187-26.51a34.51,34.51,0,0,1-29.72-35.65c8-197.87,17.67-434.6,18.29-438.73a6.38,6.38,0,0,1,12.65,1.71c-.66,7.5-9.82,230.78-18.18,437.53a21.77,21.77,0,0,0,18.76,22.49l187,26.52a6.39,6.39,0,0,1-.89,12.71Z"/><path class="cls-79" d="M1715.46,578.64l-13.45-.15-4.14-16.55-19.46-.22-4.51,16.45-13.46-.15,19.2-65.64,17.78.2Zm-26.72-54.81h-.34l-7.25,27.52,14.22.16Z"/><path class="cls-80" d="M1879,1050.72l13.41,1.08,3,16.8,19.41,1.57,5.63-16.11,13.41,1.08-23.69,64.16-17.71-1.43Zm22.87,56.53.34,0,9.13-27-14.17-1.15Z"/><path class="cls-81" d="M1779,936.1c2.89,5.85,13,6.91,17.07,1.8,30.55-38.31,120.78-153.5,125.54-183.36,5.73-36-46.51-94.33-119.52-30.16,0,0-17.53-40-62.88-37.82-27.93,1.32-43.06,21.54-50.57,36.89a34.18,34.18,0,0,0,.3,30.77Z"/><path class="cls-2" d="M1326.12,601.38l51.42,532.29a39.75,39.75,0,0,0,39.56,35.92H1683a39.74,39.74,0,0,0,39.7-38l23.61-534.86a39.73,39.73,0,0,0-40-41.48l-341,2.55A39.74,39.74,0,0,0,1326.12,601.38Z"/><path class="cls-82" d="M1345.26,623l47,499.37c1.8,19.11,17.46,33.69,36.18,33.69h243.24c19.45,0,35.45-15.7,36.31-35.63l21.6-501.77c.92-21.32-15.77-39.08-36.58-38.92l-311.88,2.4C1359.82,582.26,1343.21,601.17,1345.26,623Z"/><path class="cls-3" d="M1670,1054.64h0a6.37,6.37,0,0,1-6.33-6.43l3-412.09a17.53,17.53,0,0,0-17.25-17.62l-218.93-2.88a6.39,6.39,0,1,1,.17-12.77l218.92,2.88a30.33,30.33,0,0,1,29.87,30.48l-3,412.1A6.38,6.38,0,0,1,1670,1054.64Z"/><path class="cls-3" d="M1453.25,1111.13a32.57,32.57,0,0,1-32.47-29.12c-20-183.29-43.76-402.62-43.76-406.52a6.39,6.39,0,0,1,12.77-.19c.45,7.23,22.85,214,43.69,405.33a19.83,19.83,0,0,0,19.77,17.73h.16l175.8-1.41h0a6.39,6.39,0,0,1,0,12.77l-175.79,1.41Zm-63.46-435.64h0Z"/><path class="cls-83" d="M1417.31,651.71l-1.68.23a5.16,5.16,0,0,1-5.48-3.13l-3-7.31a5.17,5.17,0,0,0-5.48-3.14l-10.06,1.4a5.17,5.17,0,0,0-4.42,4.5l-.93,7.86a5.16,5.16,0,0,1-4.42,4.5l-1.72.24a5.15,5.15,0,0,1-5.82-5.81l7.16-52.47a5.14,5.14,0,0,1,4.4-4.41l8.66-1.2a5.16,5.16,0,0,1,5.43,3l21.41,48.51A5.17,5.17,0,0,1,1417.31,651.71ZM1391.91,604l-.31,0-2.16,19.76a5.16,5.16,0,0,0,5.84,5.67h0a5.16,5.16,0,0,0,4.08-7.05Z"/><path class="cls-84" d="M1646.68,1062.37l1.7-.11a5.17,5.17,0,0,1,5.25,3.5l2.52,7.51a5.16,5.16,0,0,0,5.24,3.5l10.14-.69a5.15,5.15,0,0,0,4.71-4.19l1.48-7.78a5.17,5.17,0,0,1,4.72-4.18l1.73-.12a5.16,5.16,0,0,1,5.41,6.2l-10.77,51.84a5.15,5.15,0,0,1-4.7,4.1l-8.72.6a5.16,5.16,0,0,1-5.21-3.4l-18-49.87A5.17,5.17,0,0,1,1646.68,1062.37Zm22,49.37.32,0,3.52-19.56a5.17,5.17,0,0,0-5.44-6.06h0a5.16,5.16,0,0,0-4.55,6.75Z"/><path class="cls-85" d="M1537.38,695.7a7.14,7.14,0,0,0-12.81-.09c-19.86,39.73-78.37,159.06-79.7,188.21-1.6,35.13,41.51,86.21,91,17.56,0,0,16,36.72,49.49,30.34,20.64-3.94,30.39-24.82,34.84-40.29a41.52,41.52,0,0,0-2.5-29.54Z"/><path class="cls-86" d="M1533.17,919.52c-4,30.09-16.32,80.16-34.2,103.64-3.12,4.08-.82,10.73,3.75,10.73h61.85c4.3,0,6.71-6,4.13-10.2-8.92-14.5-22-53.58-29.85-104.27C1538.25,915.54,1533.69,915.62,1533.17,919.52Z"/><path class="cls-4" d="M202.2,385.1a2.07,2.07,0,0,1-.77-.15L151,365.61a2.15,2.15,0,0,1-.46-3.78l42.82-30a2.16,2.16,0,0,1,3.37,1.45l7.6,49.29a2.16,2.16,0,0,1-.78,2A2.19,2.19,0,0,1,202.2,385.1ZM156.36,363l43.14,16.54L193,337.41Z"/><path class="cls-4" d="M2065.29,447.16h-.22a2.16,2.16,0,0,1-1.78-1.33L2037,381.58a2.16,2.16,0,0,1,2.15-3l66.09,4.55a2.16,2.16,0,0,1,1.65,3.35l-39.78,59.69A2.18,2.18,0,0,1,2065.29,447.16Zm-23-64,23.45,57.26,35.46-53.2Z"/><path class="cls-2" d="M567,256.19a2.14,2.14,0,0,1-1.57-.68L528.08,216a2.16,2.16,0,0,1-.59-1.64l3.6-52.46a2.15,2.15,0,0,1,1.6-1.94l63.25-16.53a2.16,2.16,0,0,1,2.29.8l32.34,43.84a2.17,2.17,0,0,1,.38,1.71l-10.06,51a2.16,2.16,0,0,1-1.57,1.67l-51.75,13.66A2.08,2.08,0,0,1,567,256.19Zm-35.15-42.48,35.84,37.9,49.2-13,9.61-48.77L595.62,148l-60.33,15.76Z"/><path class="cls-2" d="M529.65,216.66a2.14,2.14,0,0,1-2.07-1.54,2.16,2.16,0,0,1,1.45-2.69L577.52,198l16.91-53.17a2.16,2.16,0,0,1,4.12,1.31L581.3,200.42a2.15,2.15,0,0,1-1.45,1.42l-49.59,14.73A2.15,2.15,0,0,1,529.65,216.66Z"/><path class="cls-2" d="M618.77,242.54a2.13,2.13,0,0,1-1.55-.66l-39.53-40.6a2.16,2.16,0,1,1,3.1-3l39.52,40.61a2.17,2.17,0,0,1-1.54,3.67Z"/><path class="cls-2" d="M1821.53,171.91a2.21,2.21,0,0,1-1.57-.67L1792.27,142a2.18,2.18,0,0,1-.58-1.63l2.66-38.88A2.15,2.15,0,0,1,1796,99.5l46.86-12.25a2.16,2.16,0,0,1,2.28.81l24,32.48a2.2,2.2,0,0,1,.38,1.7L1862,160.05a2.16,2.16,0,0,1-1.57,1.67l-38.34,10.12A2,2,0,0,1,1821.53,171.91Zm-25.47-32.24,26.16,27.66,35.79-9.44,7-35.55L1842.5,91.8l-43.94,11.49Z"/><path class="cls-2" d="M1793.84,142.62a2.16,2.16,0,0,1-.61-4.23l35.64-10.59,12.43-39.11a2.18,2.18,0,0,1,2.72-1.41,2.16,2.16,0,0,1,1.4,2.72l-12.78,40.2a2.16,2.16,0,0,1-1.44,1.42l-36.74,10.91A1.9,1.9,0,0,1,1793.84,142.62Z"/><path class="cls-2" d="M1859.87,161.79a2.15,2.15,0,0,1-1.55-.65L1829,131.05a2.16,2.16,0,1,1,3.09-3l29.29,30.09a2.15,2.15,0,0,1-1.55,3.66Z"/><path class="cls-2" d="M885.39,192.66a13.27,13.27,0,1,1,13.27-13.27A13.29,13.29,0,0,1,885.39,192.66Zm0-22.22a8.95,8.95,0,1,0,9,8.95A9,9,0,0,0,885.39,170.44Z"/><path class="cls-2" d="M1573.85,116.24a26.7,26.7,0,1,1,26.69-26.7A26.73,26.73,0,0,1,1573.85,116.24Zm0-49.07a22.38,22.38,0,1,0,22.37,22.37A22.4,22.4,0,0,0,1573.85,67.17Z"/><path class="cls-87" d="M283.85,1219.72l-3.82-5.3a2.16,2.16,0,0,1,3.51-2.53h0l0,0,3.77,5.22,0,0a2.17,2.17,0,0,1-3.51,2.54Z"/><path class="cls-87" d="M271.54,1201.78l-3.46-5.54a2.17,2.17,0,1,1,3.68-2.29h0l0,0,3.4,5.47,0,0a2.17,2.17,0,1,1-3.68,2.29Z"/><path class="cls-87" d="M260.46,1183.06l-3.08-5.76a2.18,2.18,0,0,1,3.84-2h0l0,0,3,5.68,0,0a2.17,2.17,0,1,1-3.83,2Z"/><path class="cls-87" d="M250.64,1163.65l-2.69-5.94a2.18,2.18,0,1,1,4-1.81h0l0,0,2.66,5.87,0,0a2.18,2.18,0,0,1-4,1.8Z"/><path class="cls-87" d="M242.1,1143.65l-2.32-6.1a2.19,2.19,0,0,1,4.1-1.55h0l0,0,2.28,6v0a2.19,2.19,0,1,1-4.09,1.55Z"/><path class="cls-87" d="M234.83,1123.16l-1.93-6.23a2.2,2.2,0,1,1,4.2-1.3h0v0l1.9,6.15,0,0a2.2,2.2,0,0,1-4.2,1.3Z"/><path class="cls-87" d="M228.83,1102.26l-1.55-6.33a2.21,2.21,0,0,1,4.29-1h0v0l1.52,6.25v0a2.2,2.2,0,1,1-4.28,1Z"/><path class="cls-87" d="M224.1,1081.05l-1.17-6.41a2.21,2.21,0,1,1,4.35-.8h0v0l1.15,6.34v0a2.21,2.21,0,1,1-4.35.79Z"/><path class="cls-87" d="M220.62,1059.59l-.8-6.47a2.22,2.22,0,0,1,4.41-.55h0v0l.78,6.4v0a2.22,2.22,0,0,1-4.41.54Z"/><path class="cls-87" d="M218.4,1038l-.43-6.51a2.22,2.22,0,1,1,4.44-.29h0v0l.41,6.43v0a2.22,2.22,0,0,1-4.44.29Z"/><path class="cls-87" d="M217.41,1016.25l-.06-6.52a2.24,2.24,0,0,1,4.47,0h0v0l.05,6.45v0a2.23,2.23,0,1,1-4.46,0Z"/><path class="cls-87" d="M217.65,994.52,218,988a2.24,2.24,0,0,1,4.48.21h0v0l-.32,6.44v0a2.24,2.24,0,0,1-4.47-.22Z"/><path class="cls-87" d="M219.12,972.83l.68-6.48a2.25,2.25,0,1,1,4.47.47h0v0l-.67,6.41v0a2.24,2.24,0,1,1-4.46-.47Z"/><path class="cls-87" d="M221.81,951.27l1-6.44a2.26,2.26,0,0,1,4.46.72h0v0l-1,6.36v0a2.25,2.25,0,0,1-4.45-.72Z"/><path class="cls-87" d="M225.72,929.88l1.42-6.36a2.26,2.26,0,1,1,4.41,1h0v0l-1.4,6.29v0a2.26,2.26,0,0,1-4.42-1Z"/><path class="cls-87" d="M230.86,908.76l1.78-6.28a2.27,2.27,0,1,1,4.37,1.23h0v0L235.23,910v0a2.27,2.27,0,0,1-4.36-1.24Z"/><path class="cls-87" d="M237.22,888l2.15-6.16a2.28,2.28,0,1,1,4.3,1.49h0l0,0-2.12,6.09v0a2.28,2.28,0,1,1-4.3-1.5Z"/><path class="cls-87" d="M244.8,867.58l2.51-6a2.29,2.29,0,1,1,4.22,1.76h0l0,0L249,869.3l0,0a2.28,2.28,0,0,1-4.21-1.76Z"/><path class="cls-87" d="M253.6,847.69l2.88-5.84a2.29,2.29,0,1,1,4.11,2h0l0,0-2.84,5.77,0,0a2.29,2.29,0,1,1-4.11-2Z"/><path class="cls-87" d="M263.62,828.4l3.24-5.67a2.3,2.3,0,0,1,4,2.28h0l0,0-3.21,5.59,0,0a2.29,2.29,0,0,1-4-2.28Z"/><path class="cls-87" d="M274.85,809.76l3.6-5.44a2.3,2.3,0,1,1,3.84,2.54h0l0,0-3.56,5.36,0,0a2.32,2.32,0,0,1-3.2.65A2.29,2.29,0,0,1,274.85,809.76Z"/><path class="cls-87" d="M287.26,791.89l4-5.19a2.31,2.31,0,0,1,3.68,2.8h0l0,0-3.9,5.11,0,0a2.31,2.31,0,1,1-3.68-2.8Z"/><path class="cls-87" d="M300.85,774.89l4.29-4.92a2.32,2.32,0,0,1,3.5,3.06h0l0,0-4.23,4.84,0,0a2.32,2.32,0,0,1-3.49-3.05Z"/><path class="cls-87" d="M315.54,758.85l4.6-4.63a2.33,2.33,0,0,1,3.3,3.28h0l0,0-4.54,4.56,0,0a2.32,2.32,0,0,1-3.3-3.27Z"/><path class="cls-87" d="M331.19,743.74l4.86-4.34a2.33,2.33,0,1,1,3.11,3.48h0l0,0-4.81,4.29,0,0a2.33,2.33,0,1,1-3.1-3.48Z"/><path class="cls-87" d="M347.68,729.58l5.11-4.06a2.34,2.34,0,0,1,2.91,3.67h0l0,0-5,4,0,0a2.34,2.34,0,0,1-2.92-3.67Z"/><path class="cls-87" d="M365,716.38l5.31-3.77a2.34,2.34,0,1,1,2.72,3.82h0l0,0-5.26,3.72,0,0a2.35,2.35,0,1,1-2.71-3.83Z"/><path class="cls-87" d="M382.89,704.13l5.5-3.49a2.35,2.35,0,1,1,2.53,4h0l0,0-5.44,3.45,0,0a2.35,2.35,0,1,1-2.52-4Z"/><path class="cls-87" d="M401.43,692.81l5.67-3.21a2.36,2.36,0,1,1,2.33,4.11h0l-5.61,3.18,0,0a2.36,2.36,0,0,1-2.33-4.11Z"/><path class="cls-87" d="M420.49,682.41l5.81-2.95a2.37,2.37,0,1,1,2.15,4.22h0l-5.76,2.92h0a2.37,2.37,0,0,1-2.14-4.22Z"/><path class="cls-87" d="M440,672.88l5.93-2.69a2.38,2.38,0,0,1,2,4.33h0L442,677.2h0a2.38,2.38,0,0,1-2-4.33Z"/><path class="cls-87" d="M459.9,664.2l6-2.44a2.38,2.38,0,1,1,1.79,4.42h0l-6,2.42h0a2.38,2.38,0,0,1-1.79-4.42Z"/><path class="cls-87" d="M480.12,656.33l6.12-2.21a2.39,2.39,0,0,1,1.63,4.5h0l-6.07,2.18h0a2.39,2.39,0,0,1-1.62-4.49Z"/><path class="cls-87" d="M500.62,649.22l6.19-2a2.39,2.39,0,1,1,1.46,4.56h0l-6.14,2h0a2.4,2.4,0,0,1-1.46-4.57Z"/><path class="cls-87" d="M521.34,642.85l6.27-1.78a2.4,2.4,0,1,1,1.31,4.62h0l-6.22,1.76h0a2.4,2.4,0,0,1-1.31-4.62Z"/><path class="cls-87" d="M542.27,637.15l6.31-1.58a2.41,2.41,0,1,1,1.17,4.68h0l-6.27,1.56h0a2.41,2.41,0,0,1-1.17-4.68Z"/><path class="cls-87" d="M563.36,632.11l6.35-1.39a2.42,2.42,0,0,1,1,4.73h0l-6.32,1.38h0a2.42,2.42,0,0,1-1-4.72Z"/><path class="cls-87" d="M584.58,627.69l6.39-1.22a2.43,2.43,0,1,1,.91,4.77h0l-6.35,1.2h0a2.42,2.42,0,0,1-.9-4.76Z"/><path class="cls-87" d="M605.91,623.84l6.42-1a2.43,2.43,0,1,1,.78,4.8h0l-6.38,1h0a2.43,2.43,0,1,1-.78-4.8Z"/><path class="cls-87" d="M627.33,620.55l6.45-.89a2.44,2.44,0,0,1,.67,4.84h0l-6.42.88h0a2.44,2.44,0,0,1-.66-4.83Z"/><path class="cls-87" d="M648.83,617.78l6.45-.74a2.45,2.45,0,1,1,.56,4.86h0l-6.42.73h0a2.44,2.44,0,0,1-.55-4.85Z"/><path class="cls-87" d="M670.36,615.47l6.47-.61a2.45,2.45,0,1,1,.46,4.88h0l-6.44.61h0a2.45,2.45,0,1,1-.46-4.88Z"/><path class="cls-87" d="M691.94,613.57l6.47-.49a2.46,2.46,0,0,1,.37,4.91h0l-6.45.49h0a2.46,2.46,0,0,1-.36-4.91Z"/><path class="cls-87" d="M713.54,612.08l6.48-.37a2.47,2.47,0,1,1,.29,4.93h0l-6.46.36h0a2.46,2.46,0,0,1-.28-4.92Z"/><path class="cls-87" d="M735.16,611l6.49-.26a2.46,2.46,0,0,1,.2,4.92h0l-6.47.26h0a2.46,2.46,0,1,1-.2-4.92Z"/><path class="cls-87" d="M756.8,610.24l6.49-.15a2.46,2.46,0,1,1,.12,4.92h0l-6.47.15h0a2.46,2.46,0,0,1-.12-4.92Z"/><path class="cls-87" d="M778.44,609.85l6.5-.06a2.46,2.46,0,0,1,0,4.92h0l-6.48,0h0a2.46,2.46,0,1,1,0-4.91Z"/><path class="cls-87" d="M800.09,609.78l6.49,0a2.46,2.46,0,1,1,0,4.91l-6.47,0a2.46,2.46,0,0,1,0-4.91Z"/><path class="cls-87" d="M821.73,610l6.49.13a2.44,2.44,0,0,1,2.4,2.49,2.47,2.47,0,0,1-2.51,2.41l-6.47-.13a2.45,2.45,0,0,1,.08-4.9Z"/><path class="cls-87" d="M843.36,610.56l6.49.21a2.45,2.45,0,1,1-.17,4.89l-6.47-.21a2.45,2.45,0,0,1,.14-4.89Z"/><path class="cls-87" d="M865,611.36l6.48.29a2.44,2.44,0,1,1-.22,4.88l-6.47-.29a2.44,2.44,0,1,1,.2-4.88Z"/><path class="cls-87" d="M886.6,612.41l6.48.36a2.44,2.44,0,1,1-.28,4.87l-6.46-.36a2.44,2.44,0,0,1,.25-4.87Z"/><path class="cls-87" d="M908.2,613.69l6.47.42a2.44,2.44,0,1,1-.32,4.86l-6.47-.42a2.43,2.43,0,1,1,.31-4.86Z"/><path class="cls-87" d="M929.78,615.18l6.47.48a2.43,2.43,0,1,1-.37,4.85l-6.46-.48a2.43,2.43,0,0,1,.35-4.85Z"/><path class="cls-87" d="M951.34,616.86l6.47.54a2.43,2.43,0,1,1-.41,4.84l-6.46-.54a2.43,2.43,0,0,1,.39-4.84Z"/><path class="cls-87" d="M972.89,618.71l6.46.59a2.43,2.43,0,1,1-.44,4.83l-6.45-.59a2.42,2.42,0,1,1,.42-4.83Z"/><path class="cls-87" d="M994.42,620.71l6.46.63a2.42,2.42,0,1,1-.47,4.82l-6.45-.62a2.43,2.43,0,0,1,.46-4.83Z"/><path class="cls-87" d="M1015.94,622.85l6.45.67a2.42,2.42,0,0,1-.5,4.81l-6.44-.66a2.42,2.42,0,0,1,.49-4.82Z"/><path class="cls-87" d="M1037.44,625.11l6.44.69a2.41,2.41,0,1,1-.52,4.8l-6.44-.69a2.41,2.41,0,0,1,.51-4.8Z"/><path class="cls-87" d="M1058.92,627.45l6.45.73a2.41,2.41,0,0,1-.54,4.79l-6.44-.72a2.41,2.41,0,1,1,.53-4.8Z"/><path class="cls-87" d="M1080.41,629.88l6.44.74a2.41,2.41,0,1,1-.55,4.79l-6.44-.74a2.41,2.41,0,0,1,.54-4.79Z"/><path class="cls-87" d="M1101.88,632.37l6.45.75a2.41,2.41,0,1,1-.56,4.78l-6.45-.75a2.41,2.41,0,1,1,.56-4.78Z"/><path class="cls-87" d="M1123.35,634.9l6.45.76a2.4,2.4,0,0,1-.57,4.77l-6.44-.76a2.4,2.4,0,1,1,.56-4.77Z"/><path class="cls-87" d="M1144.82,637.45l6.44.77a2.4,2.4,0,1,1-.57,4.76l-6.43-.77a2.4,2.4,0,0,1,.56-4.76Z"/><path class="cls-87" d="M1166.28,640l6.44.77a2.39,2.39,0,1,1-.57,4.75l-6.43-.76a2.4,2.4,0,1,1,.56-4.76Z"/><path class="cls-87" d="M1187.74,642.54l6.44.76a2.39,2.39,0,0,1-.56,4.75l-6.44-.76a2.39,2.39,0,1,1,.56-4.75Z"/><path class="cls-87" d="M1209.2,645.05l6.44.75a2.39,2.39,0,1,1-.55,4.74l-6.44-.74a2.39,2.39,0,1,1,.55-4.75Z"/><path class="cls-87" d="M1230.66,647.51l6.44.73a2.38,2.38,0,0,1-.53,4.74l-6.44-.73a2.38,2.38,0,1,1,.53-4.74Z"/><path class="cls-87" d="M1252.13,649.9l6.44.71a2.38,2.38,0,0,1-.51,4.73l-6.45-.7a2.38,2.38,0,0,1,.52-4.74Z"/><path class="cls-87" d="M1273.61,652.21l6.44.67a2.38,2.38,0,0,1-.49,4.73l-6.45-.67a2.38,2.38,0,1,1,.49-4.73Z"/><path class="cls-87" d="M1295.09,654.41l6.45.64a2.37,2.37,0,0,1-.46,4.72l-6.46-.64a2.37,2.37,0,1,1,.47-4.72Z"/><path class="cls-87" d="M1316.59,656.49l6.45.59a2.37,2.37,0,0,1-.43,4.72l-6.46-.59a2.37,2.37,0,0,1,.43-4.73Z"/><path class="cls-87" d="M1338.09,658.42l6.47.55a2.37,2.37,0,0,1-.4,4.72l-6.47-.55a2.37,2.37,0,0,1,.4-4.72Z"/><path class="cls-87" d="M1359.62,660.2l6.47.49a2.36,2.36,0,1,1-.36,4.71l-6.48-.49a2.37,2.37,0,0,1,.36-4.72Z"/><path class="cls-87" d="M1381.16,661.79l6.47.44a2.36,2.36,0,1,1-.32,4.71l-6.48-.44a2.36,2.36,0,0,1,.32-4.71Z"/><path class="cls-87" d="M1402.71,663.19l6.47.38a2.35,2.35,0,1,1-.27,4.7l-6.48-.38a2.35,2.35,0,1,1,.27-4.7Z"/><path class="cls-87" d="M1424.27,664.37l6.47.31a2.35,2.35,0,1,1-.21,4.7l-6.49-.31a2.35,2.35,0,1,1,.22-4.7Z"/><path class="cls-87" d="M1445.84,665.31l6.47.24a2.35,2.35,0,1,1-.16,4.69l-6.49-.23a2.35,2.35,0,0,1,.17-4.7Z"/><path class="cls-87" d="M1467.41,666l6.48.16a2.35,2.35,0,0,1-.1,4.69l-6.5-.16a2.35,2.35,0,0,1,.12-4.69Z"/><path class="cls-87" d="M1489,666.42l6.47.07a2.34,2.34,0,1,1,0,4.68l-6.49-.07a2.34,2.34,0,1,1,0-4.68Z"/><path class="cls-87" d="M1510.57,666.54l6.47,0h0a2.34,2.34,0,1,1,0,4.67l-6.49,0a2.34,2.34,0,0,1,0-4.68h0Z"/><path class="cls-87" d="M1532.13,666.29l6.46-.16h0a2.33,2.33,0,0,1,.12,4.66l-6.5.17a2.34,2.34,0,0,1-.12-4.67h0Z"/><path class="cls-87" d="M1553.67,665.57l6.46-.32h0a2.33,2.33,0,0,1,.23,4.66l-6.5.32a2.33,2.33,0,0,1-.23-4.66h0Z"/><path class="cls-87" d="M1575.18,664.3l6.44-.51h0a2.33,2.33,0,0,1,.37,4.64l-6.49.51a2.33,2.33,0,0,1-.37-4.64h0Z"/><path class="cls-87" d="M1596.62,662.37l6.42-.72h0a2.32,2.32,0,0,1,.52,4.61l-6.47.73a2.32,2.32,0,0,1-.52-4.62h0Z"/><path class="cls-87" d="M1618,659.68l6.38-1h0a2.32,2.32,0,1,1,.69,4.59l-6.43,1a2.32,2.32,0,1,1-.7-4.59h0Z"/><path class="cls-87" d="M1639.19,656.15l6.33-1.25h0a2.31,2.31,0,1,1,.89,4.54l-6.39,1.26a2.32,2.32,0,0,1-.9-4.55h0Z"/><path class="cls-87" d="M1660.21,651.65l6.25-1.54h0a2.31,2.31,0,1,1,1.11,4.49l-6.32,1.56a2.31,2.31,0,0,1-1.11-4.49h0Z"/><path class="cls-87" d="M1681,646.12l6.15-1.88h0a2.31,2.31,0,0,1,1.35,4.42l-6.23,1.9a2.31,2.31,0,1,1-1.35-4.42h0Z"/><path class="cls-87" d="M1701.37,639.45l6-2.23h0a2.3,2.3,0,1,1,1.6,4.32l-6.12,2.27a2.31,2.31,0,1,1-1.6-4.33h0Z"/><path class="cls-87" d="M1721.32,631.56l5.87-2.62,0,0a2.3,2.3,0,1,1,1.88,4.2l-6,2.67a2.31,2.31,0,0,1-1.89-4.21h0Z"/><path class="cls-87" d="M1740.69,622.34l5.68-3,0,0a2.3,2.3,0,1,1,2.16,4.05l-5.77,3.07a2.3,2.3,0,1,1-2.16-4h0Z"/><path class="cls-87" d="M1759.36,611.8l5.45-3.42,0,0a2.29,2.29,0,1,1,2.44,3.88l-5.53,3.48a2.3,2.3,0,1,1-2.44-3.89h0Z"/><path class="cls-87" d="M1777.22,600l5.18-3.82,0,0a2.29,2.29,0,1,1,2.72,3.69l-5.26,3.88a2.29,2.29,0,1,1-2.72-3.69h0Z"/><path class="cls-87" d="M1794.13,586.78l4.86-4.21,0,0a2.29,2.29,0,1,1,3,3.46l-4.94,4.28a2.29,2.29,0,0,1-3-3.46h0Z"/><path class="cls-87" d="M1809.91,572.3l4.49-4.6,0,0a2.28,2.28,0,0,1,3.27,3.19l-4.57,4.68a2.28,2.28,0,1,1-3.27-3.19h0Z"/><path class="cls-87" d="M1824.38,556.53l4-5,0,0a2.28,2.28,0,1,1,3.54,2.88l-4.13,5.08a2.28,2.28,0,1,1-3.54-2.88h0Z"/><path class="cls-87" d="M1837.32,539.51l3.56-5.35,0,0a2.28,2.28,0,1,1,3.8,2.52l-3.63,5.45a2.28,2.28,0,1,1-3.8-2.52h0Z"/><path class="cls-87" d="M1848.52,521.3l3-5.67,0-.07a2.27,2.27,0,0,1,4,2.12l-3,5.8a2.27,2.27,0,1,1-4-2.11h0Z"/><path class="cls-87" d="M1857.75,502c.81-2,1.61-4,2.36-6a2.27,2.27,0,1,1,4.25,1.59c-.77,2.05-1.59,4.08-2.41,6.11a2.27,2.27,0,0,1-4.21-1.71h0Z"/><path class="cls-87" d="M1864.78,481.87l1.63-6.18,0-.08a2.27,2.27,0,0,1,4.39,1.16l-1.68,6.34a2.27,2.27,0,0,1-4.39-1.16h0Z"/><path class="cls-87" d="M1869.41,461l.94-6.34v-.07a2.26,2.26,0,0,1,4.48.66l-1,6.48a2.26,2.26,0,1,1-4.48-.65h0Z"/><path class="cls-87" d="M1871.71,439.81l.24-6.4v-.07a2.26,2.26,0,1,1,4.52.17l-.24,6.54a2.26,2.26,0,0,1-4.52-.17h0Z"/><path class="cls-87" d="M1871.72,418.46l-.43-6.4V412a2.26,2.26,0,0,1,4.5-.31l.44,6.54a2.26,2.26,0,1,1-4.5.31h0Z"/><path class="cls-87" d="M1869.51,397.19l-1.08-6.33,0-.07a2.25,2.25,0,1,1,4.44-.76l1.12,6.46a2.25,2.25,0,1,1-4.44.77h0Z"/><path class="cls-87" d="M1865.15,376.25l-1.72-6.18,0-.06a2.25,2.25,0,1,1,4.33-1.21l1.76,6.31a2.25,2.25,0,0,1-4.33,1.21h0Z"/><path class="cls-87" d="M1858.69,355.88l-2.34-6,0-.07a2.25,2.25,0,0,1,4.18-1.64l2.4,6.1a2.25,2.25,0,0,1-4.19,1.64h0Z"/><path class="cls-87" d="M1850.18,336.27l-2.94-5.7,0-.06a2.24,2.24,0,0,1,4-2.06l3,5.82a2.25,2.25,0,1,1-4,2.06h0Z"/><path class="cls-87" d="M1839.68,317.66l-3.53-5.35,0-.06a2.24,2.24,0,1,1,3.74-2.46l3.61,5.46a2.24,2.24,0,1,1-3.74,2.47h0Z"/><path class="cls-87" d="M1827.25,300.3l-4.09-4.92-.05-.06a2.24,2.24,0,0,1,3.44-2.86l4.18,5a2.23,2.23,0,1,1-3.43,2.86h0Z"/><path class="cls-87" d="M1813,284.45l-4.63-4.42,0,0a2.23,2.23,0,1,1,3.08-3.23l4.74,4.52a2.23,2.23,0,1,1-3.08,3.23h0Z"/><path class="cls-87" d="M1796.94,270.37l-5.13-3.84-.07,0a2.23,2.23,0,1,1,2.68-3.56l5.25,3.93a2.23,2.23,0,1,1-2.67,3.57h0Z"/><path class="cls-87" d="M1779.35,258.27l-5.53-3.22-.06,0a2.22,2.22,0,1,1,2.24-3.84l5.65,3.29a2.23,2.23,0,1,1-2.24,3.85h0Z"/><path class="cls-87" d="M1760.5,248.25l-5.85-2.6-.07,0a2.22,2.22,0,1,1,1.8-4.06l6,2.65a2.23,2.23,0,0,1-1.8,4.07h0Z"/><path class="cls-87" d="M1740.67,240.33l-6.11-2-.06,0a2.22,2.22,0,1,1,1.35-4.22l6.24,2a2.22,2.22,0,1,1-1.36,4.22h0Z"/><path class="cls-87" d="M1720.09,234.55l-6.28-1.32-.07,0a2.21,2.21,0,0,1,.91-4.33l6.42,1.35a2.21,2.21,0,1,1-.91,4.33h-.07Z"/><path class="cls-87" d="M1699,230.9l-6.38-.67h-.07a2.21,2.21,0,1,1,.47-4.39l6.51.68a2.21,2.21,0,0,1-.46,4.4H1699Z"/><path class="cls-87" d="M1677.69,229.41l-6.41,0h-.07a2.21,2.21,0,1,1,0-4.41l6.55,0a2.21,2.21,0,1,1,0,4.41h-.07Z"/><path class="cls-87" d="M1656.33,230.1l-6.4.63h-.06a2.21,2.21,0,0,1-.44-4.39l6.53-.65a2.21,2.21,0,0,1,.43,4.39h-.06Z"/><path class="cls-87" d="M1635.13,233l-6.28,1.3h-.07a2.2,2.2,0,1,1-.89-4.31l6.42-1.32a2.2,2.2,0,1,1,.89,4.3h-.07Z"/><path class="cls-87" d="M1614.39,238.08l-6.09,2-.07,0a2.2,2.2,0,1,1-1.35-4.18l6.23-2a2.2,2.2,0,1,1,1.35,4.18h0Z"/><path class="cls-87" d="M1594.34,245.42l-5.83,2.63-.07,0a2.19,2.19,0,1,1-1.81-4l6-2.7a2.2,2.2,0,0,1,1.81,4h0Z"/><path class="cls-87" d="M1575.28,255c-1.84,1.1-3.69,2.17-5.49,3.31a2.19,2.19,0,1,1-2.33-3.71c1.85-1.17,3.75-2.27,5.63-3.39a2.19,2.19,0,1,1,2.24,3.76Z"/><path class="cls-87" d="M1557.55,266.8l-5,4-.08.06a2.18,2.18,0,0,1-2.74-3.4l5.12-4.14a2.18,2.18,0,1,1,2.74,3.4h0Z"/><path class="cls-87" d="M1541.83,281.07l-4.17,4.79-.09.1a2.18,2.18,0,1,1-3.29-2.87l4.35-5a2.18,2.18,0,1,1,3.29,2.86h0Z"/><path class="cls-87" d="M1529.21,298l-3,5.58-.08.15a2.18,2.18,0,1,1-3.85-2l3.11-5.88a2.18,2.18,0,0,1,3.85,2h0Z"/><path class="cls-87" d="M1521.27,317.33l-.67,3.07c-.25,1-.36,2.05-.55,3.07l0,.15a2.18,2.18,0,0,1-2.53,1.76,2.16,2.16,0,0,1-1.75-2.52c.19-1.1.32-2.23.58-3.31l.71-3.27a2.18,2.18,0,1,1,4.25.93Z"/><path class="cls-87" d="M1520,338l1.1,6.16,0,.22a2.16,2.16,0,1,1-4.26.77l-1.19-6.61a2.17,2.17,0,1,1,4.27-.77h0Z"/><path class="cls-87" d="M1526.12,357.82l3.15,5.4.12.2a2.17,2.17,0,0,1-3.74,2.19l-3.39-5.81a2.16,2.16,0,1,1,3.74-2.18h0Z"/><path class="cls-87" d="M1538.83,374.05a42.09,42.09,0,0,0,5,3.62,2.16,2.16,0,0,1-2.28,3.68,46.92,46.92,0,0,1-5.5-4,2.17,2.17,0,0,1,2.78-3.32Z"/><path class="cls-87" d="M1557.1,382.84l2.94.41.17,0a2.16,2.16,0,0,1-.61,4.27l-3.27-.46a2.16,2.16,0,0,1,.6-4.28h0Z"/><path class="cls-88" d="M1738.32,994.6a3.49,3.49,0,0,0-.1-1c-4.78-19-24.33-28.68-24.33-28.68l-9.41.74c-5.41,16.71-8.89,24.87-8,29.43,0,.13.06.25.09.38A223.85,223.85,0,0,0,1738.32,994.6Z"/><path class="cls-89" d="M1696.55,995.51a4.08,4.08,0,0,0,3,3c11,2.32,28.58.46,35.94-.51a3.42,3.42,0,0,0,2.84-3.41A223.85,223.85,0,0,1,1696.55,995.51Z"/><path class="cls-90" d="M1721.63,950.33l-4.12,19.82a3.24,3.24,0,0,1-2.77,2.67,27.66,27.66,0,0,1-6.38-.1,4.07,4.07,0,0,1-3.22-4.79l2.86-17.6Z"/><path class="cls-91" d="M1616.63,995.34c10-.28,15.25-1.46,17.93-2.56,0,1,0,2,0,3.07a2,2,0,0,1-1.89,2l-55.16-.36a2.51,2.51,0,0,1-2-3.67C1582.69,994.44,1601.11,995.78,1616.63,995.34Z"/><path class="cls-92" d="M1575.46,993.84a2.27,2.27,0,0,1,.21-.41c4.87-6.81,17.28-20.36,41.8-26.24l11.76-.37s5.23,9.1,5.33,26c-2.68,1.1-7.88,2.28-17.93,2.56C1601.11,995.78,1582.69,994.44,1575.46,993.84Z"/><path class="cls-93" d="M1631.41,949c-.13.87-1.75,14.2-2.37,19.36a2.56,2.56,0,0,1-2.16,2.31,26.94,26.94,0,0,1-8.08-.12,3.47,3.47,0,0,1-2.63-3.49V946.14Z"/><path class="cls-94" d="M1713.77,690s18.82,167.28,8.37,271.83c0,0-12.55,0-18.82-2.09,0,0-19.56-163.56-25.88-210.36a1.58,1.58,0,0,0-3.11-.1c-7.8,39.38-38.46,193.78-42.1,208.37,0,0-10.46,4.18-18.82,0,0,0,16.72-223.74,29.27-263.47Z"/><path class="cls-95" d="M1751.41,495.54S1672,483,1609.22,499.72l4.19,64.82s16.72,89.91,29.27,129.64c0,0,48.09,8.37,71.09-4.18,0,0,18.82-112.91,29.28-129.64C1743.05,560.36,1753.5,516.45,1751.41,495.54Z"/><path class="cls-96" d="M1696.21,438.4l7.92,53.53s-22.12,10.16-37.6-.43l3.33-37.78Z"/><path class="cls-97" d="M1662.13,403.55c-.25.45-5,27.44-8,44.15A11.72,11.72,0,0,0,1665,461.43l6.41.38a22.84,22.84,0,0,0,23.93-19.34L1700,412.2S1668.18,392.57,1662.13,403.55Z"/><path class="cls-98" d="M1707.4,417.92a4.07,4.07,0,0,1-.49-5.64c2.45-3.06,4.6-8-.64-13.19s-11.3-3.95-15.11-2.19a4.22,4.22,0,0,1-5-1,2.69,2.69,0,0,0-2.5-.93,3.94,3.94,0,0,1-4.46-3.43c-.45-3.79-2.47-8.26-9.18-9.56-12.31-2.38-18.45,9.94-18.23,18.6s13.71,10.48,21.37,9c5.62-1.06,10.48,3.89,12.66,6.58a4.08,4.08,0,0,1,.81,3.49l-2,8.37a38.42,38.42,0,0,0,4.57,7.47,8.19,8.19,0,0,0,4.44,2.85c2.29-4.27,8.71-5,11.7-5.09a4.08,4.08,0,0,0,2.95-1.4C1710.62,429.33,1714.15,423.57,1707.4,417.92Z"/><path class="cls-99" d="M1691.5,447.36s.26-15.11,6.38-16.52,12.71,3,7.48,12C1698.85,454.13,1691.5,447.36,1691.5,447.36Z"/><path class="cls-100" d="M1715.65,567.74s179.54-48.87,90.39-174.55l-6,8.54s26.85,85.12-62.12,93.21C1737.89,494.94,1714.85,554.37,1715.65,567.74Z"/><path class="cls-101" d="M1806.64,393.83s2-24.26-10.11-26.28-16.18,10.11-18.2,16.17,18.2,18.2,22.25,18.2S1806.64,393.83,1806.64,393.83Z"/><path class="cls-102" d="M1650.88,573.81s-179.54-48.87-90.39-174.56l6,8.54s-26.86,85.13,62.11,93.22C1628.63,501,1651.68,560.44,1650.88,573.81Z"/><path class="cls-103" d="M1559.88,399.9s-2-24.27,10.11-26.29,16.18,10.11,18.2,16.18S1570,408,1566,408,1559.88,399.9,1559.88,399.9Z"/><path class="cls-4" d="M1661.37,407.21a.41.41,0,0,1-.19,0,7.36,7.36,0,0,1-4.92-4.94c-1.71-6.29,5.2-15,5.5-15.35a.54.54,0,1,1,.84.68c-.07.08-6.86,8.63-5.3,14.39a6.34,6.34,0,0,0,4.26,4.21.54.54,0,0,1,.31.7A.53.53,0,0,1,1661.37,407.21Z"/><path class="cls-104" d="M1164.51,474.93a15.36,15.36,0,0,1,20-7.3c62.48,27.45,312.06,162.74,183.9,529.7a15.37,15.37,0,0,1-18,9.91l-60.22-14s-56.27-443.51-152.35-471.16Z"/><path class="cls-105" d="M1176,483.46a5.23,5.23,0,0,1,7.87-1.54l1,.81a5.23,5.23,0,0,1,1.28,6.6l-25.23,45.57-10.15-5.73Z"/><path class="cls-106" d="M1206.38,498.31a5.22,5.22,0,0,1,8-.83l.93.9a5.24,5.24,0,0,1,.7,6.68l-29.17,43.16-9.6-6.62Z"/><path class="cls-107" d="M1233.69,516.72a6,6,0,0,1,4.51-2.22,6.15,6.15,0,0,1,4.68,2l1,1.08a5.72,5.72,0,0,1,.29,7.49l-36.64,45.58L1197,562.46Z"/><path class="cls-108" d="M1262.21,543.16a6,6,0,0,1,4.83-1.38,6.11,6.11,0,0,1,4.26,2.75l.79,1.24a5.7,5.7,0,0,1-1,7.42l-44.14,38.37-8.88-9.89Z"/><path class="cls-109" d="M1287.86,568.08a6,6,0,0,1,4.83-1.38,6.11,6.11,0,0,1,4.25,2.75l.79,1.24a5.72,5.72,0,0,1-1,7.43l-44.14,38.36-8.87-9.89Z"/><path class="cls-110" d="M1314.89,606.26a6,6,0,0,1,5-.27,6.14,6.14,0,0,1,3.54,3.64l.49,1.38a5.72,5.72,0,0,1-2.67,7l-51.58,27.55L1263.24,634Z"/><path class="cls-111" d="M1339,645.67a6.61,6.61,0,0,1,5.46-.15,7.1,7.1,0,0,1,4,4L1349,651a5.78,5.78,0,0,1-2.72,7.38l-55.51,27.89-7.35-12.54Z"/><path class="cls-112" d="M1356.72,690.35a6.64,6.64,0,0,1,5.44.63,7.13,7.13,0,0,1,3.35,4.48l.36,1.56a5.77,5.77,0,0,1-3.74,6.92l-58.9,19.73-5.5-13.46Z"/><path class="cls-113" d="M1369.43,747.52a6.61,6.61,0,0,1,5.29,1.38,7.11,7.11,0,0,1,2.7,4.9l.14,1.59a5.78,5.78,0,0,1-4.67,6.34l-61.07,11.33-3.58-14.1Z"/><path class="cls-114" d="M1377.22,805.59a6.66,6.66,0,0,1,4.91,2.41,7.09,7.09,0,0,1,1.66,5.35l-.18,1.59a5.78,5.78,0,0,1-5.84,5.27l-62.11-1.14-.68-14.52Z"/><path class="cls-115" d="M1371.52,853.85a6.65,6.65,0,0,1,4.59,3,7.14,7.14,0,0,1,1,5.51l-.37,1.55a5.78,5.78,0,0,1-6.43,4.53l-61.52-8.6,1.07-14.5Z"/><path class="cls-116" d="M1363.88,899.15a6.64,6.64,0,0,1,4.58,3,7.11,7.11,0,0,1,1,5.51l-.37,1.55a5.76,5.76,0,0,1-6.43,4.53l-61.52-8.59,1.07-14.51Z"/><path class="cls-117" d="M1353.41,944.75a6.63,6.63,0,0,1,4.23,3.47,7.13,7.13,0,0,1,.4,5.59l-.54,1.5a5.77,5.77,0,0,1-6.89,3.8l-60.21-15.25,2.64-14.29Z"/><path class="cls-118" d="M843.5,718.56l125-114.43c5.54-5,8.06-12.17,8.06-19.65v-6.71c0-10.28,6.56-19.64,15.86-24l72.5-34.07L1076,431.6a5.61,5.61,0,0,1,5.53-4.94h3.85c1.88,0,.87,1,1.85,2.65l39.93,69.14c299.88,184.14,163,494.8,163,494.8-37,21.59-32.24,133.5-30.45,161.36a6.51,6.51,0,0,1-1.6,4.67,6.11,6.11,0,0,1-4.31,2.12H891.05a6.12,6.12,0,0,1-5.82-5.19c-26.89-163.09,134.92-287,188.66-323.17a6,6,0,0,0-3.3-10.92H991.92a39.93,39.93,0,0,0-29.47,13L945.9,852.49c-6.62,7.22-16,10.69-25.77,10.69H895.91c-12.6,0-24.23-6.15-30.44-17.13l-33.11-58.31A56,56,0,0,1,843.5,718.56Z"/><path class="cls-119" d="M992,639.16a18.24,18.24,0,1,0,18.23-18.23A18.24,18.24,0,0,0,992,639.16Z"/><rect class="cls-120" x="866.38" y="1146.28" width="421.4" height="45.38" rx="21.18"/><rect class="cls-121" x="808.04" y="1189.5" width="535.93" height="69.15" rx="31.76"/><path class="cls-122" d="M1509.32,1290.39h163c18.85,0,34.54-13,36.08-30l21-230.51c1.73-19-14.93-35.32-36.09-35.32h-184c-20,0-36.21,14.62-36.21,32.65v230.5C1473.11,1275.77,1489.32,1290.39,1509.32,1290.39Z"/><path class="cls-3" d="M1358.24,1290.39h163c18.84,0,34.54-13,36.08-30l21-230.51c1.73-19-14.92-35.32-36.08-35.32h-184c-20,0-36.21,14.62-36.21,32.65v230.5C1322,1275.77,1338.24,1290.39,1358.24,1290.39Z"/><path class="cls-123" d="M1366,1271.34h142c16.42,0,30.1-11.37,31.44-26.12l18.28-200.81c1.51-16.58-13-30.78-31.44-30.78H1366c-17.42,0-31.54,12.74-31.54,28.45v200.81C1334.43,1258.6,1348.55,1271.34,1366,1271.34Z"/><path class="cls-124" d="M1594.77,1269.08l79.49,3.75c9.2.43,17.39-10.56,18.84-25.27l19.69-200.1c1.62-16.51-5.83-31.08-16.15-31.57l-89.73-4.23c-9.76-.46-18.27,11.89-19,27.58l-9.45,200.59C1577.71,1255.52,1585,1268.62,1594.77,1269.08Z"/><circle class="cls-125" cx="1369.69" cy="1232.93" r="25.67" transform="translate(-144.95 2282.7) rotate(-76.72)"/><circle class="cls-126" cx="1369.69" cy="1049.19" r="25.67" transform="translate(33.87 2141.18) rotate(-76.72)"/><circle class="cls-127" cx="1517.39" cy="1049.19" r="25.67" transform="translate(-257.03 544.49) rotate(-18.78)"/><circle class="cls-128" cx="1438.14" cy="1135.66" r="25.67" transform="translate(-381.81 1349.54) rotate(-45)"/><circle class="cls-129" cx="1501.18" cy="1232.93" r="25.67" transform="translate(-432.13 1422.61) rotate(-45)"/><ellipse class="cls-130" cx="1646.86" cy="1134.91" rx="19.33" ry="21.02"/><ellipse class="cls-131" cx="1666.74" cy="1242.99" rx="19.33" ry="21.02"/><ellipse class="cls-132" cx="1613.73" cy="1044.84" rx="19.33" ry="21.02"/><path class="cls-133" d="M1852.92,1290.39h163c18.85,0,34.54-13,36.09-30l21-230.51c1.73-19-14.92-35.32-36.09-35.32H1852.92c-20,0-36.21,14.62-36.21,32.65v230.5C1816.71,1275.77,1832.92,1290.39,1852.92,1290.39Z"/><path class="cls-3" d="M1701.84,1290.39h163c18.85,0,34.54-13,36.08-30l21-230.51c1.74-19-14.92-35.32-36.08-35.32h-184c-20,0-36.21,14.62-36.21,32.65v230.5C1665.63,1275.77,1681.84,1290.39,1701.84,1290.39Z"/><path class="cls-123" d="M1709.58,1271.34h142c16.42,0,30.1-11.37,31.44-26.12l18.28-200.81c1.51-16.58-13-30.78-31.44-30.78H1709.58c-17.42,0-31.55,12.74-31.55,28.45v200.81C1678,1258.6,1692.16,1271.34,1709.58,1271.34Z"/><path class="cls-124" d="M1938.37,1269.08l79.5,3.75c9.19.43,17.38-10.56,18.83-25.27l19.69-200.1c1.63-16.51-5.83-31.08-16.15-31.57l-89.73-4.23c-9.76-.46-18.26,11.89-19,27.58l-9.46,200.59C1921.31,1255.52,1928.62,1268.62,1938.37,1269.08Z"/><circle class="cls-134" cx="1713.29" cy="1232.93" r="25.67" transform="translate(117.9 2615.04) rotate(-76.64)"/><circle class="cls-135" cx="1713.29" cy="1049.19" r="25.67" transform="translate(296.67 2473.75) rotate(-76.64)"/><circle class="cls-136" cx="1861" cy="1049.19" r="25.67" transform="translate(-259.01 785.21) rotate(-22.32)"/><circle class="cls-137" cx="1710.42" cy="1135.66" r="25.67" transform="translate(-302.06 1542.08) rotate(-45)"/><circle class="cls-138" cx="1844.41" cy="1135.66" r="25.67" transform="translate(-262.82 1636.82) rotate(-45)"/><circle class="cls-139" cx="1844.78" cy="1232.93" r="25.67" transform="translate(-276.84 583.28) rotate(-16.73)"/><ellipse class="cls-140" cx="2031.52" cy="1048.47" rx="19.33" ry="21.02"/><ellipse class="cls-141" cx="2010.34" cy="1242.99" rx="19.33" ry="21.02"/><ellipse class="cls-142" cx="1954.16" cy="1236.5" rx="19.33" ry="21.02"/><ellipse class="cls-143" cx="1957.33" cy="1044.84" rx="19.33" ry="21.02"/><path class="cls-144" d="M375.08,1057.61s-7-10.41-14.71-20c-3-3.77-8.26-4.56-11.54-1.77-11.15,9.47-34.91,29.82-42.73,37.88a2.75,2.75,0,0,0,1,4.23h0a5.92,5.92,0,0,0,4.32.51l55.88-15.79Z"/><path class="cls-145" d="M381.11,1062l-11.41-9.65s-10.62,3.46-12.06,12.06l14.35,9.23Z"/><path class="cls-146" d="M634,804.19c17.8-40,34.61-99.65,15-159.33l-11.34-11.34s0,93.46-23.26,139.88Q624.17,788.82,634,804.19Z"/><path class="cls-147" d="M635,615.66l-4.29,6.42a6.89,6.89,0,0,0-.81,6c1.73,5.27,5.66,15.62,11.2,21.16,7.62,7.62,15.25-10.68,16.78-16.78s-9.16-21.36-12.21-24.41S630.38,606.51,635,615.66Z"/><path class="cls-148" d="M576.52,1244.46s-2.19,12.41-3.27,24.69a8.46,8.46,0,0,0,8.1,9.17c16.35.68,51.34,2,63.9,1.44a2.75,2.75,0,0,0,2.42-3.77h0a6.17,6.17,0,0,0-3.15-3.32l-57.8-26.56Z"/><path class="cls-149" d="M574.72,1237.17l1.76,14.84s10.13,4.71,17-.59l-4.19-16.54Z"/><path class="cls-150" d="M576.05,958.14c-.77,3.87-4.09,193.41,16.17,278.35a2.88,2.88,0,0,1-1.69,3.35,50.3,50.3,0,0,1-16.5,3.36,5,5,0,0,1-4.92-3.57c-5.8-19.7-45.59-133.74-49.21-228.06-4-105.39,14.42-53.44,14.42-53.44Z"/><path class="cls-151" d="M488.5,961.53c-17,42.85-22.55,49.54-30.13,98.46-9.09,58.66-53.47,18.15-77.17-.89-3-2.41-11.89,6.21-12.76,18.33-1.13,15.81,94.61,90.83,120.51,37.79,16.55-33.88,21.13-72,32.11-93.09a12.82,12.82,0,0,1,6.34-5.88l33.8-14.47,9.53-33.17Z"/><path class="cls-152" d="M470,809.35c-17.81-40-34.61-99.66-15-159.33l11.34-11.34s0,93.46,23.26,139.87Q479.83,794,470,809.35Z"/><path class="cls-153" d="M576.07,795.05H520.16a21.86,21.86,0,0,1-15.08-6c-5.21-5-11.91-13.37-16.66-26.6a4,4,0,0,0-4.92-2.5c-7.2,2.13-22.94,8.24-31.2,22.45a4.08,4.08,0,0,0,.08,4.27l34.87,54-3.43,133.15s87.64,13.75,99.67,0l12-122s43-25.78,55-67l-36.08-20.62s-4.2.17-7.79,9.84A32.56,32.56,0,0,1,576.07,795.05Z"/><path class="cls-154" d="M528.2,754.38l-1.29,43.15a6.25,6.25,0,0,0,4.27,6.13,50.4,50.4,0,0,0,26,1.63,6.23,6.23,0,0,0,4.74-7.18l-5.91-34Z"/><path class="cls-155" d="M557.77,714.86c.39.49,13.44,36,19.18,51.63a7.38,7.38,0,0,1-4.73,9.58l-12.62,2.3a18.23,18.23,0,0,1-20-10.74l-15.19-17.7a19.63,19.63,0,0,1,5.88-30.27C541.38,714,553.58,709.61,557.77,714.86Z"/><path class="cls-156" d="M532.66,753.9l3.62-1.81s-14.45-23.47,1.8-25.28,30.7-5.42,30.7-14.44,0-25.28-19.86-18.06S530.86,714.17,520,716s-19.86,3.61-16.25,14.44,10.84,18.06,7.22,21.67S523.63,773.76,532.66,753.9Z"/><path class="cls-157" d="M536.52,760.93s-3-15.88-9.7-16.27-12.86,5.46-5.72,14.05C530,769.39,536.52,760.93,536.52,760.93Z"/><path class="cls-158" d="M469,620.81l4.28,6.43a6.85,6.85,0,0,1,.82,6c-1.74,5.26-5.67,15.62-11.2,21.15-7.63,7.63-15.25-10.68-16.78-16.78s9.15-21.35,12.2-24.4S473.62,611.66,469,620.81Z"/><path class="cls-87" d="M559.52,715.42A.53.53,0,0,1,559,715a.55.55,0,0,1,.42-.64,5.07,5.07,0,0,0,3.19-2.62c1.31-2.51.93-6.39-1.1-11.22a.53.53,0,0,1,.29-.71.55.55,0,0,1,.71.29c2.19,5.22,2.54,9.32,1,12.16a6.16,6.16,0,0,1-3.91,3.16Z"/></g></g></svg>