<svg xmlns="http://www.w3.org/2000/svg" xmlns:xlink="http://www.w3.org/1999/xlink" viewBox="0 0 461.84 339.96"><defs><style>.cls-1{isolation:isolate;}.cls-2{fill:#d4ebf8;}.cls-3{fill:url(#linear-gradient);}.cls-4{fill:url(#New_Gradient_Swatch_3);}.cls-5{fill:#5148ff;}.cls-6{fill:url(#New_Gradient_Swatch_3-2);}.cls-7{fill:url(#New_Gradient_Swatch_3-3);}.cls-8{fill:url(#New_Gradient_Swatch_3-4);}.cls-9{fill:url(#New_Gradient_Swatch_3-5);}.cls-10{fill:url(#New_Gradient_Swatch_3-6);}.cls-11{fill:url(#New_Gradient_Swatch_3-7);}.cls-12{fill:url(#New_Gradient_Swatch_3-8);}.cls-13{fill:url(#linear-gradient-2);}.cls-14{fill:url(#linear-gradient-3);}.cls-15{fill:url(#linear-gradient-4);}.cls-16{fill:url(#linear-gradient-5);}.cls-17{fill:url(#linear-gradient-6);}.cls-18{fill:url(#linear-gradient-7);}.cls-19{fill:url(#linear-gradient-8);}.cls-20{fill:url(#linear-gradient-9);}.cls-21{fill:url(#New_Gradient_Swatch_3-9);}.cls-22{fill:url(#New_Gradient_Swatch_3-10);}.cls-23{fill:url(#New_Gradient_Swatch_3-11);}.cls-24{fill:url(#New_Gradient_Swatch_3-12);}.cls-25{fill:url(#linear-gradient-10);}.cls-26{fill:url(#linear-gradient-11);}.cls-27{fill:#e6e7e8;mix-blend-mode:multiply;}.cls-28{fill:#f9fbfc;}.cls-29{fill:url(#linear-gradient-12);}.cls-30{fill:#e1e4f9;}.cls-31{fill:#3d348b;}.cls-32{fill:url(#New_Gradient_Swatch_4);}.cls-33{fill:url(#New_Gradient_Swatch_4-2);}.cls-34{fill:url(#New_Gradient_Swatch_4-3);}.cls-35{fill:url(#New_Gradient_Swatch_4-4);}.cls-36{fill:url(#New_Gradient_Swatch_4-5);}.cls-37{fill:url(#New_Gradient_Swatch_4-6);}.cls-38{fill:#112b46;}.cls-39{fill:url(#New_Gradient_Swatch_3-13);}.cls-40{fill:url(#New_Gradient_Swatch_3-14);}.cls-41{fill:url(#New_Gradient_Swatch_4-7);}.cls-42{fill:url(#linear-gradient-13);}.cls-43{fill:#878cf0;}.cls-44{fill:#7678ed;}.cls-45{fill:url(#New_Gradient_Swatch_4-8);}.cls-46{fill:#ffc8af;}.cls-47{fill:#f4b69d;}.cls-48{fill:url(#New_Gradient_Swatch_4-9);}.cls-49{fill:url(#New_Gradient_Swatch_4-10);}.cls-50{fill:#737ee5;}.cls-51{fill:#929cf7;}.cls-52{fill:#fc637c;}.cls-53{fill:url(#linear-gradient-14);}.cls-54{fill:url(#linear-gradient-15);}.cls-55{fill:url(#linear-gradient-16);}.cls-56{fill:url(#radial-gradient);}.cls-57{fill:#f79663;}.cls-58{fill:url(#linear-gradient-17);}.cls-59{fill:url(#New_Gradient_Swatch_3-15);}.cls-60{fill:#56548c;}.cls-61{fill:#fbd15b;}.cls-62{fill:url(#linear-gradient-18);}.cls-63{fill:#b1b2f3;}</style><linearGradient id="linear-gradient" x1="229.75" y1="207.98" x2="229.75" y2="326.72" gradientUnits="userSpaceOnUse"><stop offset="0" stop-color="#fbd15b"/><stop offset="0.37" stop-color="#ff8578"/><stop offset="1" stop-color="#4333f1"/></linearGradient><linearGradient id="New_Gradient_Swatch_3" x1="930.15" y1="272.72" x2="930.15" y2="312.33" gradientTransform="translate(-546.9)" gradientUnits="userSpaceOnUse"><stop offset="0" stop-color="#435df1"/><stop offset="0.33" stop-color="#4333f1"/><stop offset="1" stop-color="#4c008c"/></linearGradient><linearGradient id="New_Gradient_Swatch_3-2" x1="2613.61" y1="281.14" x2="2613.61" y2="312.33" gradientTransform="matrix(-1, 0, 0, 1, 3040.29, 0)" xlink:href="#New_Gradient_Swatch_3"/><linearGradient id="New_Gradient_Swatch_3-3" x1="2640.5" y1="242.01" x2="2640.5" y2="312.33" gradientTransform="matrix(-1, 0, 0, 1, 3040.29, 0)" xlink:href="#New_Gradient_Swatch_3"/><linearGradient id="New_Gradient_Swatch_3-4" x1="2644.2" y1="287.4" x2="2644.2" y2="312.33" gradientTransform="matrix(-1, 0, 0, 1, 3040.29, 0)" xlink:href="#New_Gradient_Swatch_3"/><linearGradient id="New_Gradient_Swatch_3-5" x1="563.6" y1="271.74" x2="563.6" y2="315.8" xlink:href="#New_Gradient_Swatch_3"/><linearGradient id="New_Gradient_Swatch_3-6" x1="2975.28" y1="281.1" x2="2975.28" y2="315.8" gradientTransform="matrix(-1, 0, 0, 1, 3040.29, 0)" xlink:href="#New_Gradient_Swatch_3"/><linearGradient id="New_Gradient_Swatch_3-7" x1="3005.19" y1="237.57" x2="3005.19" y2="315.8" gradientTransform="matrix(-1, 0, 0, 1, 3040.29, 0)" xlink:href="#New_Gradient_Swatch_3"/><linearGradient id="New_Gradient_Swatch_3-8" x1="3009.31" y1="288.07" x2="3009.31" y2="315.8" gradientTransform="matrix(-1, 0, 0, 1, 3040.29, 0)" xlink:href="#New_Gradient_Swatch_3"/><linearGradient id="linear-gradient-2" x1="14.37" y1="352.16" x2="14.37" y2="455.88" gradientTransform="matrix(0.99, 0.1, -0.1, 0.99, 70.77, -159.78)" gradientUnits="userSpaceOnUse"><stop offset="0" stop-color="#26e6ff"/><stop offset="0.49" stop-color="#4189ff"/><stop offset="0.83" stop-color="#534cff"/><stop offset="1" stop-color="#5a35ff"/></linearGradient><linearGradient id="linear-gradient-3" x1="-20.59" y1="411.21" x2="64.15" y2="411.21" gradientTransform="matrix(0.99, 0.1, -0.1, 0.99, 70.77, -159.78)" gradientUnits="userSpaceOnUse"><stop offset="0" stop-color="#5277ff"/><stop offset="1" stop-color="#30009f"/></linearGradient><linearGradient id="linear-gradient-4" x1="1525.68" y1="206.71" x2="1525.68" y2="310.42" gradientTransform="matrix(-0.99, 0.1, 0.1, 0.99, 1723.25, -159.78)" xlink:href="#linear-gradient-2"/><linearGradient id="linear-gradient-5" x1="1490.72" y1="265.76" x2="1575.45" y2="265.76" gradientTransform="matrix(-0.99, 0.1, 0.1, 0.99, 1723.25, -159.78)" xlink:href="#linear-gradient-3"/><linearGradient id="linear-gradient-6" x1="1209.29" y1="65.43" x2="1209.29" y2="133.23" gradientTransform="matrix(-0.9, 0.43, 0.43, 0.9, 1476.53, -341.21)" xlink:href="#linear-gradient-2"/><linearGradient id="linear-gradient-7" x1="1186.43" y1="104.03" x2="1241.83" y2="104.03" gradientTransform="matrix(-0.9, 0.43, 0.43, 0.9, 1476.53, -341.21)" xlink:href="#linear-gradient-3"/><linearGradient id="linear-gradient-8" x1="1368.43" y1="467.11" x2="1368.43" y2="514.67" gradientTransform="matrix(-0.99, -0.17, -0.17, 0.99, 1874.76, 37.23)" xlink:href="#linear-gradient-2"/><linearGradient id="linear-gradient-9" x1="1352.4" y1="494.19" x2="1391.25" y2="494.19" gradientTransform="matrix(-0.99, -0.17, -0.17, 0.99, 1874.76, 37.23)" xlink:href="#linear-gradient-3"/><linearGradient id="New_Gradient_Swatch_3-9" x1="845.91" y1="248.66" x2="845.91" y2="288.27" xlink:href="#New_Gradient_Swatch_3"/><linearGradient id="New_Gradient_Swatch_3-10" x1="2697.85" y1="257.08" x2="2697.85" y2="288.27" gradientTransform="matrix(-1, 0, 0, 1, 3040.29, 0)" xlink:href="#New_Gradient_Swatch_3"/><linearGradient id="New_Gradient_Swatch_3-11" x1="2724.74" y1="217.95" x2="2724.74" y2="288.27" gradientTransform="matrix(-1, 0, 0, 1, 3040.29, 0)" xlink:href="#New_Gradient_Swatch_3"/><linearGradient id="New_Gradient_Swatch_3-12" x1="2728.44" y1="263.34" x2="2728.44" y2="288.27" gradientTransform="matrix(-1, 0, 0, 1, 3040.29, 0)" xlink:href="#New_Gradient_Swatch_3"/><linearGradient id="linear-gradient-10" x1="148.85" y1="324.83" x2="148.85" y2="253.11" gradientUnits="userSpaceOnUse"><stop offset="0" stop-color="#f9fbfc"/><stop offset="1" stop-color="#bee1f4"/></linearGradient><linearGradient id="linear-gradient-11" x1="312.64" y1="328.81" x2="312.64" y2="257.09" xlink:href="#linear-gradient-10"/><linearGradient id="linear-gradient-12" x1="107.27" y1="102.12" x2="159.95" y2="193.36" gradientUnits="userSpaceOnUse"><stop offset="0" stop-color="#3478ff"/><stop offset="1" stop-color="#482ebd"/></linearGradient><linearGradient id="New_Gradient_Swatch_4" x1="192.04" y1="136.08" x2="198.86" y2="136.08" gradientUnits="userSpaceOnUse"><stop offset="0" stop-color="#ff697d"/><stop offset="1" stop-color="#de2276"/></linearGradient><linearGradient id="New_Gradient_Swatch_4-2" x1="68.36" y1="136.08" x2="75.17" y2="136.08" xlink:href="#New_Gradient_Swatch_4"/><linearGradient id="New_Gradient_Swatch_4-3" x1="99.28" y1="136.08" x2="106.09" y2="136.08" xlink:href="#New_Gradient_Swatch_4"/><linearGradient id="New_Gradient_Swatch_4-4" x1="130.2" y1="136.08" x2="137.01" y2="136.08" xlink:href="#New_Gradient_Swatch_4"/><linearGradient id="New_Gradient_Swatch_4-5" x1="161.12" y1="136.08" x2="167.94" y2="136.08" xlink:href="#New_Gradient_Swatch_4"/><linearGradient id="New_Gradient_Swatch_4-6" x1="78.56" y1="283.62" x2="104.71" y2="283.62" xlink:href="#New_Gradient_Swatch_4"/><linearGradient id="New_Gradient_Swatch_3-13" x1="390.93" y1="348.85" x2="390.93" y2="266.15" gradientTransform="matrix(1, 0, 0, 1, 0, 0)" xlink:href="#New_Gradient_Swatch_3"/><linearGradient id="New_Gradient_Swatch_3-14" x1="322.21" y1="272.06" x2="401.86" y2="272.06" gradientTransform="matrix(1, 0, 0, 1, 0, 0)" xlink:href="#New_Gradient_Swatch_3"/><linearGradient id="New_Gradient_Swatch_4-7" x1="348.18" y1="139.64" x2="354.8" y2="156.96" xlink:href="#New_Gradient_Swatch_4"/><linearGradient id="linear-gradient-13" x1="255.02" y1="63.32" x2="255.02" y2="252.82" xlink:href="#linear-gradient-12"/><linearGradient id="New_Gradient_Swatch_4-8" x1="362.31" y1="132.69" x2="362.31" y2="227.7" xlink:href="#New_Gradient_Swatch_4"/><linearGradient id="New_Gradient_Swatch_4-9" x1="323.34" y1="177.73" x2="323.34" y2="191.73" xlink:href="#New_Gradient_Swatch_4"/><linearGradient id="New_Gradient_Swatch_4-10" x1="373.65" y1="130.41" x2="373.65" y2="137.35" xlink:href="#New_Gradient_Swatch_4"/><linearGradient id="linear-gradient-14" x1="70.05" y1="9.31" x2="103.16" y2="66.66" gradientUnits="userSpaceOnUse"><stop offset="0" stop-color="#fbd15b"/><stop offset="1" stop-color="#fe9373"/></linearGradient><linearGradient id="linear-gradient-15" x1="213.2" y1="251.43" x2="246.3" y2="308.78" gradientUnits="userSpaceOnUse"><stop offset="0" stop-color="#878cf0"/><stop offset="1" stop-color="#685ed7"/></linearGradient><linearGradient id="linear-gradient-16" x1="343.09" y1="83.59" x2="359.19" y2="83.59" xlink:href="#linear-gradient-12"/><radialGradient id="radial-gradient" cx="340.68" cy="24.42" r="42.69" xlink:href="#linear-gradient-14"/><linearGradient id="linear-gradient-17" x1="336.66" y1="70.93" x2="365.61" y2="70.93" xlink:href="#linear-gradient-12"/><linearGradient id="New_Gradient_Swatch_3-15" x1="336.1" y1="70.28" x2="366.18" y2="70.28" gradientTransform="matrix(1, 0, 0, 1, 0, 0)" xlink:href="#New_Gradient_Swatch_3"/><linearGradient id="linear-gradient-18" x1="145.09" y1="253.21" x2="189.5" y2="330.12" gradientTransform="translate(122.18 -41.53) rotate(22.13)" xlink:href="#linear-gradient-14"/></defs><g class="cls-1"><g id="Layer_2" data-name="Layer 2"><g id="OBJECTS"><path class="cls-2" d="M346.19,2.9c-1.11,0-2.23.08-3.34.18a29.38,29.38,0,0,0-13.83,53A20.09,20.09,0,0,1,335.07,63h-3.36v2.4h-.57v2.51h.57v1.86h-.57v2.5h.57v1.86h-.57v2.5h.57v1.86h-.57V81h.61a4.18,4.18,0,0,0,4.13,3.71h2.25v1.14A2.88,2.88,0,0,0,341,88.71h10.33a2.89,2.89,0,0,0,2.89-2.88V84.69h2.24A4.16,4.16,0,0,0,360.61,81h.61V78.47h-.56V76.61h.56v-2.5h-.56V72.25h.56v-2.5h-.56V67.89h.56V65.38h-.56V63h-3.34a22.56,22.56,0,0,1,6.29-7.07,29.37,29.37,0,0,0-17.42-53Z"/><rect class="cls-2" x="54.31" y="20.25" width="57.83" height="43.07"/><rect class="cls-2" x="119.8" y="57.62" width="57.83" height="32.38"/><circle class="cls-2" cx="330.87" cy="122.87" r="26.17" transform="translate(-21.91 133.67) rotate(-22.13)"/><path class="cls-2" d="M289.88,67.79a28.86,28.86,0,0,0-3.61-12.34l3.58-2a33.2,33.2,0,0,0-6.92-8.62L280.2,47.9a28.72,28.72,0,0,0-11.27-6.2l1.12-3.93H270a33,33,0,0,0-9-1.25c-.65,0-1.3,0-1.94.05l.24,4.09A28.86,28.86,0,0,0,247,44.26l-2-3.58a33.13,33.13,0,0,0-8.62,6.9l3.06,2.73a28.79,28.79,0,0,0-6.2,11.27l-3.93-1.12,0,.07a33,33,0,0,0-1.25,9c0,.64,0,1.27.05,1.91l4.09-.24a28.94,28.94,0,0,0,3.6,12.35l-3.59,2a33,33,0,0,0,6.91,8.63l2.73-3.06a28.83,28.83,0,0,0,11.26,6.21l-1.13,3.93.11,0a32.91,32.91,0,0,0,9,1.26c.66,0,1.33,0,2-.06l-.25-4.09a28.89,28.89,0,0,0,12.34-3.63l2,3.58a33,33,0,0,0,8.61-6.92l-3.07-2.72a28.81,28.81,0,0,0,6.19-11.28l3.93,1.12v0a33.39,33.39,0,0,0,1.25-9c0-.66,0-1.31-.06-2Zm-36,27.07h0l.21-.71Zm24-20.57A17.49,17.49,0,0,1,261,87a17.22,17.22,0,0,1-4.77-.67A17.5,17.5,0,0,1,261,52a18,18,0,0,1,4.78.67,17.51,17.51,0,0,1,12.73,16.82A17.23,17.23,0,0,1,277.84,74.29Z"/><circle class="cls-2" cx="296.55" cy="17.71" r="7.72" transform="translate(211.4 302.32) rotate(-76.76)"/><path class="cls-2" d="M441.74,322.13H20.62c-23-38.49-13.85-86.19,17.23-109.58,24.1-18.14,58.69-19.64,87.66-3.91a26.15,26.15,0,0,1,43.84-22.7c1.77-4,13-28.28,39.92-36.79,24.44-7.71,52.13.58,70.44,21.13a45.69,45.69,0,0,1,72,34.44c28-11.76,59.47-8.38,80.62,9.4C460.94,238.15,467.08,285.46,441.74,322.13Z"/><circle class="cls-2" cx="88.41" cy="185.98" r="69.39" transform="translate(-112.91 229.29) rotate(-76.72)"/><circle class="cls-2" cx="210.8" cy="136.08" r="69.39"/><circle class="cls-2" cx="133.61" cy="130.44" r="22.2" transform="translate(-50.8 159.77) rotate(-53.35)"/><path class="cls-3" d="M439.32,254.66a25.68,25.68,0,0,0-25.41-29.32,25.49,25.49,0,0,0-9.87,2A25.22,25.22,0,0,0,357,219.6c-19.9-9.39-44.67-8.46-66,3.1a22.9,22.9,0,0,0-38.4-19.89c-1.56-3.52-11.35-24.77-35-32.23-21.41-6.75-45.67.51-61.72,18.52A40,40,0,0,0,97.46,203a41.71,41.71,0,0,0-79.13,18.44,42.13,42.13,0,0,0,.92,8.76C-3.24,251.92-7.33,291.31,14,322.13H451a49.35,49.35,0,0,0-11.7-67.47Z"/><path class="cls-4" d="M396.07,312.33H384.65c0-6.12-4-12.15-7-17.3l-.29-.49c-2.59-4.48-6-8.65-7-13.87a7,7,0,0,1,.36-4.53,6,6,0,0,1,3.89-2.81C393.62,268.46,397.6,293.85,396.07,312.33Z"/><path class="cls-5" d="M391.16,312.33h-.49a54.07,54.07,0,0,0-.73-7.73,57.58,57.58,0,0,0-2.27-9.07,51.57,51.57,0,0,0-9-16.31c-.33-.42,0-.64.31-.27a43.93,43.93,0,0,1,9.66,16.25,48.57,48.57,0,0,1,2.13,9.28A46.87,46.87,0,0,1,391.16,312.33Z"/><path class="cls-6" d="M416.42,312.33H428c0-14.9,16.85-29.53,4.15-31.11-4.52-.56-7.75,1.76-10.05,5.36C416.42,295.51,416.42,312.33,416.42,312.33Z"/><path class="cls-7" d="M403.7,312.33H418c2.32-21.45,1.68-75.24-29.38-70C364.75,246.42,403.1,277.41,403.7,312.33Z"/><path class="cls-5" d="M395.91,254.22a38.21,38.21,0,0,1,4.8,7,52.63,52.63,0,0,1,3.5,7.68,75.76,75.76,0,0,1,2.52,8.09c.7,2.73,1.3,5.5,1.78,8.29a156.1,156.1,0,0,1,1.95,16.87c.22,3.41.36,6.82.39,10.23h1c.13-3.43.12-6.86,0-10.3a126.12,126.12,0,0,0-1.76-17.09c-.49-2.82-1.12-5.63-1.88-8.4a68.19,68.19,0,0,0-2.75-8.17c-.52-1.34-1.14-2.64-1.76-3.94s-1.32-2.56-2.09-3.77a37.5,37.5,0,0,0-5.24-6.84C395.73,253.17,395.33,253.53,395.91,254.22Z"/><path class="cls-8" d="M392.5,312.33h11.83s3.12-24.94-10.27-24.93C381.86,287.41,390,302.83,392.5,312.33Z"/><path class="cls-5" d="M396,293.56A76,76,0,0,1,399,310.9c0,.48.05,1,.07,1.43h1c0-.51,0-1-.07-1.5a59.56,59.56,0,0,0-3.6-17.41C396.2,293,395.88,293.12,396,293.56Z"/><path class="cls-5" d="M420.87,312.33h.74c.27-2.26.62-4.52,1-6.76a71.19,71.19,0,0,1,2.51-9.21c.28-.75.6-1.48.89-2.21.15-.37.28-.75.46-1.11L427,292l.53-1.07a8.91,8.91,0,0,1,.57-1l1.25-2c.26-.41.05-.59-.24-.16l-1.36,2a9.2,9.2,0,0,0-.62,1l-.58,1.07-.58,1.06c-.18.36-.33.73-.5,1.1-.32.74-.66,1.47-1,2.22a59.11,59.11,0,0,0-2.67,9.3C421.44,307.71,421.1,310,420.87,312.33Z"/><path class="cls-9" d="M31,315.8H18.25c0-6.81-4.48-13.52-7.83-19.24l-.33-.55c-2.88-5-6.64-9.62-7.75-15.42a7.82,7.82,0,0,1,.41-5,6.63,6.63,0,0,1,4.33-3.13C28.23,267,32.65,295.25,31,315.8Z"/><path class="cls-5" d="M25.49,315.8H25a58.78,58.78,0,0,0-.82-8.59,63.72,63.72,0,0,0-2.51-10.1,57.72,57.72,0,0,0-10-18.15c-.36-.46,0-.7.34-.29a48.87,48.87,0,0,1,10.76,18.07,54.05,54.05,0,0,1,2.36,10.33A51,51,0,0,1,25.49,315.8Z"/><path class="cls-10" d="M53.6,315.8H66.52c0-16.57,18.75-32.84,4.62-34.6-5-.63-8.62,1.95-11.18,5.95C53.6,297.09,53.6,315.8,53.6,315.8Z"/><path class="cls-11" d="M39.45,315.8H55.32c2.58-23.86,1.87-83.7-32.69-77.82C-3.88,242.48,38.77,277,39.45,315.8Z"/><path class="cls-5" d="M30.78,251.16a42.38,42.38,0,0,1,5.34,7.73,58.88,58.88,0,0,1,3.9,8.55,87.44,87.44,0,0,1,2.8,9c.78,3.05,1.44,6.12,2,9.23A173.2,173.2,0,0,1,47,304.42c.24,3.8.39,7.59.43,11.38h1.08c.14-3.81.13-7.63,0-11.45a139.52,139.52,0,0,0-2-19c-.54-3.15-1.25-6.27-2.09-9.35a77.66,77.66,0,0,0-3.06-9.09c-.58-1.49-1.27-2.94-1.95-4.38s-1.47-2.85-2.33-4.2a41.53,41.53,0,0,0-5.83-7.61C30.58,250,30.13,250.4,30.78,251.16Z"/><path class="cls-12" d="M27,315.8H40.15s3.47-27.75-11.43-27.73C15.15,288.08,24.21,305.23,27,315.8Z"/><path class="cls-5" d="M30.91,294.92a84.07,84.07,0,0,1,3.25,19.29c0,.53.05,1.07.08,1.59h1.15c0-.56,0-1.11-.09-1.67a66.07,66.07,0,0,0-4-19.36C31.1,294.29,30.74,294.44,30.91,294.92Z"/><path class="cls-5" d="M58.54,315.8h.83c.3-2.51.68-5,1.16-7.51A78.35,78.35,0,0,1,63.32,298c.31-.84.66-1.65,1-2.47.17-.41.31-.82.51-1.23l.59-1.18L66,292a9.34,9.34,0,0,1,.63-1.16L68,288.53c.29-.47.06-.66-.27-.18l-1.51,2.22a8.9,8.9,0,0,0-.68,1.15l-.65,1.18-.65,1.19c-.2.4-.36.81-.55,1.22-.36.83-.74,1.64-1.07,2.47a65.58,65.58,0,0,0-3,10.34Q58.94,311.95,58.54,315.8Z"/><path class="cls-13" d="M76.44,250.07c-5.63-3-13.49,9.14-13.49,9.14,2.7-8.27,11.81-29.5,3.89-34.75-6.43-4.27-13.46,3.94-15.82,10.31,1.89-7.34,9.75-30.2,2.19-33.25-6.6-2.66-11.43,8.18-12.35,14.46-.78-6.52-1.77-28.59-13.93-25.74-11.72,3-5,23.33-1.93,30.74-3.51-4.4-12.31-13.41-16.89-6.43C.7,225.87,28.62,244.28,28.62,244.28S11.89,238.85,12,249.1c.18,14.51,17,21.93,29.44,22.71-17.73-1.55-16,14.8-3.41,21.2a33.78,33.78,0,0,0,33.47-2C78.19,283.91,85,254.61,76.44,250.07Z"/><path class="cls-14" d="M69.63,269.32c-.72,2.24-1.54,4.44-2.44,6.58a47.23,47.23,0,0,1-2.35,4.79,191.22,191.22,0,0,1-14.93-22.47,72.26,72.26,0,0,0,4-6.21c1.31-2.34,2.54-4.83,3.64-7.32s2.07-5.05,2.94-7.62a71.94,71.94,0,0,0,2.22-7.8A69.45,69.45,0,0,1,60.17,237c-1,2.52-2,5-3.19,7.42s-2.49,4.81-3.87,7A65.26,65.26,0,0,1,49.22,257,174.7,174.7,0,0,1,40,238a75.69,75.69,0,0,0,3.48-7.33c.58-1.28,1-2.65,1.55-4s.94-2.69,1.36-4c.82-2.68,1.62-5.43,2.28-8.18s1.24-5.49,1.65-8.27c-.5,2.76-1.18,5.47-1.93,8.17s-1.63,5.4-2.54,8c-.46,1.31-1,2.61-1.48,3.93s-1.05,2.59-1.67,3.82a67.35,67.35,0,0,1-3.32,6.37A233.59,233.59,0,0,1,27.9,197a234.87,234.87,0,0,0,10.44,40,39.61,39.61,0,0,1-6.59-2.28,54,54,0,0,1-7.39-4,68.84,68.84,0,0,1-7-5.3,66.56,66.56,0,0,1-6.54-6.48,67.7,67.7,0,0,0,6.4,6.77,68.5,68.5,0,0,0,7,5.63,55.54,55.54,0,0,0,7.39,4.4,43.56,43.56,0,0,0,7.38,2.79c2.75,6.68,5.65,13.07,8.88,19.54a25,25,0,0,1-6.54.7,36.16,36.16,0,0,1-7.93-1.15,50.33,50.33,0,0,1-8-2.83,54.34,54.34,0,0,1-7.8-4.27A55.28,55.28,0,0,0,25.3,255a51.16,51.16,0,0,0,8,3.17,37.26,37.26,0,0,0,8.08,1.5,26,26,0,0,0,7-.52,192.19,192.19,0,0,0,14.44,23.05,42.08,42.08,0,0,1-6,1.21,55,55,0,0,1-7.85.44,66.18,66.18,0,0,1-8.11-.63,63.57,63.57,0,0,1-8.26-1.72A63.71,63.71,0,0,0,41,283.6a68.56,68.56,0,0,0,8.2,1,54.6,54.6,0,0,0,8-.14,44.12,44.12,0,0,0,6.52-1.08,192.09,192.09,0,0,0,21.06,24l2.3-2.5a189,189,0,0,1-21.38-23.07,49.78,49.78,0,0,0,2.35-5.4c.81-2.23,1.54-4.51,2.16-6.8s1.2-4.6,1.7-6.9,1-4.62,1.35-6.93c-.47,2.29-1,4.56-1.63,6.83S70.34,267.09,69.63,269.32Z"/><path class="cls-15" d="M199.27,261.35c5.63-3,13.49,9.14,13.49,9.14-2.7-8.26-11.81-29.5-3.89-34.75,6.43-4.27,13.46,3.94,15.83,10.31-1.9-7.34-9.76-30.19-2.2-33.25,6.6-2.66,11.43,8.18,12.35,14.46.78-6.51,1.77-28.59,13.93-25.74,11.72,3,5,23.33,1.93,30.74,3.51-4.4,12.31-13.41,16.89-6.43,7.41,11.33-20.51,29.73-20.51,29.73s16.73-5.43,16.6,4.83c-.18,14.51-17,21.92-29.44,22.7,17.73-1.54,16,14.8,3.41,21.2a33.76,33.76,0,0,1-33.46-2C197.52,295.19,190.72,265.89,199.27,261.35Z"/><path class="cls-16" d="M206.08,280.6c.72,2.24,1.54,4.44,2.44,6.58a47.23,47.23,0,0,0,2.35,4.79A191.22,191.22,0,0,0,225.8,269.5a70.74,70.74,0,0,1-4-6.21c-1.31-2.34-2.54-4.83-3.64-7.32s-2.07-5.05-2.94-7.62a71.3,71.3,0,0,1-2.22-7.8,69.45,69.45,0,0,0,2.49,7.68c1,2.52,2,5,3.2,7.42s2.48,4.81,3.86,7a67.6,67.6,0,0,0,3.89,5.57,172.94,172.94,0,0,0,9.25-19,75.69,75.69,0,0,1-3.48-7.33c-.58-1.28-1-2.65-1.55-3.95s-.94-2.7-1.36-4c-.82-2.68-1.62-5.43-2.28-8.17s-1.24-5.5-1.65-8.28c.5,2.76,1.18,5.48,1.93,8.17s1.64,5.4,2.54,8c.46,1.31,1,2.62,1.48,3.93s1,2.59,1.67,3.83a70.92,70.92,0,0,0,3.32,6.36,233.59,233.59,0,0,0,11.45-39.53,234.87,234.87,0,0,1-10.44,40A40,40,0,0,0,244,246a52.41,52.41,0,0,0,7.38-4,67.22,67.22,0,0,0,13.57-11.77,67.52,67.52,0,0,1-6.4,6.76,68.5,68.5,0,0,1-6.95,5.63,55.54,55.54,0,0,1-7.39,4.4,43.24,43.24,0,0,1-7.38,2.79c-2.75,6.68-5.65,13.07-8.88,19.54a25.43,25.43,0,0,0,6.54.71,36.79,36.79,0,0,0,7.93-1.16,51.28,51.28,0,0,0,8-2.82,54.86,54.86,0,0,0,7.8-4.28,55.28,55.28,0,0,1-7.75,4.61,51.22,51.22,0,0,1-8,3.18,37.85,37.85,0,0,1-8.08,1.49,26,26,0,0,1-7.05-.52,192.19,192.19,0,0,1-14.44,23.05,42.08,42.08,0,0,0,6,1.21,55,55,0,0,0,7.85.44,66.18,66.18,0,0,0,8.11-.63,63.57,63.57,0,0,0,8.26-1.72,63.31,63.31,0,0,1-8.3,2.07,66.57,66.57,0,0,1-8.2,1,56,56,0,0,1-8-.13,43.79,43.79,0,0,1-6.51-1.09,193,193,0,0,1-21.07,24l-2.3-2.5A189,189,0,0,0,210,293.05a49.78,49.78,0,0,1-2.35-5.4c-.81-2.23-1.54-4.5-2.16-6.8s-1.2-4.6-1.7-6.9-1-4.62-1.35-6.93c.47,2.29,1,4.56,1.63,6.83S205.37,278.37,206.08,280.6Z"/><path class="cls-17" d="M407.11,277.33c2.82-3.06,10.3,2.7,10.3,2.7-3.46-4.5-13.69-15.61-10-20.58,3-4,9.16-.49,12,2.93-2.76-4.12-12.58-16.5-8.58-20,3.49-3.08,8.83,2.56,10.76,6.23-.94-4.18-5.13-18,3-18.89,7.88-.68,8.16,13.29,7.87,18.53,1.21-3.48,4.68-10.95,9-7.63,7,5.36-6.19,22.78-6.19,22.78s9.14-7,11.29-.63c3,9-5.74,17.22-13.22,20.4,10.6-4.81,13.09,5.64,6.71,12.32a22.06,22.06,0,0,1-21.06,6.05C413.39,298.58,402.83,282,407.11,277.33Z"/><path class="cls-18" d="M415.5,287.72c.92,1.22,1.91,2.4,2.93,3.53a28.65,28.65,0,0,0,2.49,2.44,125.9,125.9,0,0,0,4.32-17.1,47.15,47.15,0,0,1-3.79-3c-1.31-1.16-2.61-2.43-3.83-3.72s-2.38-2.66-3.47-4.06a47.68,47.68,0,0,1-3.07-4.32,47.93,47.93,0,0,0,3.21,4.19c1.13,1.34,2.33,2.65,3.58,3.88s2.58,2.42,3.92,3.5a41.65,41.65,0,0,0,3.61,2.59A114.93,114.93,0,0,0,427,262c-1.29-1.21-2.57-2.42-3.74-3.76-.64-.67-1.21-1.41-1.82-2.11s-1.17-1.45-1.71-2.19c-1.09-1.48-2.18-3-3.19-4.54s-2-3.12-2.81-4.75c.91,1.59,1.92,3.12,3,4.62s2.18,3,3.31,4.39c.57.71,1.18,1.39,1.77,2.1s1.21,1.36,1.86,2a41.26,41.26,0,0,0,3.43,3.2,152.59,152.59,0,0,0-1.54-26.85A153.58,153.58,0,0,1,427.75,261a27.2,27.2,0,0,0,3.57-2.85A34.54,34.54,0,0,0,435,254a43.4,43.4,0,0,0,3.18-4.8,41.69,41.69,0,0,0,2.63-5.41,45.78,45.78,0,0,1-5.54,10.55,36.05,36.05,0,0,1-3.6,4.31,27.37,27.37,0,0,1-3.94,3.33c-.24,4.72-.64,9.29-1.23,14a16.7,16.7,0,0,0,4.19-1,23.66,23.66,0,0,0,4.63-2.44,31.57,31.57,0,0,0,4.3-3.47,35.25,35.25,0,0,0,3.88-4.33,36.38,36.38,0,0,1-3.77,4.53,33.23,33.23,0,0,1-4.25,3.69,23.91,23.91,0,0,1-4.65,2.68,17.06,17.06,0,0,1-4.46,1.21,126.83,126.83,0,0,1-3.89,17.35,26.67,26.67,0,0,0,3.94-.55,35.93,35.93,0,0,0,4.94-1.43,44.17,44.17,0,0,0,4.86-2.15,41.6,41.6,0,0,0,4.72-2.87,41.42,41.42,0,0,1-4.67,3.09,44.22,44.22,0,0,1-4.84,2.38,38.64,38.64,0,0,1-5,1.66,29.78,29.78,0,0,1-4.25.74,126.12,126.12,0,0,1-7.77,19.37l-2-1a123.54,123.54,0,0,0,8.16-18.87,33.37,33.37,0,0,1-2.62-2.82c-1-1.2-1.93-2.44-2.81-3.72s-1.73-2.58-2.55-3.89-1.6-2.63-2.33-4c.78,1.31,1.62,2.59,2.48,3.86S414.57,286.5,415.5,287.72Z"/><path class="cls-19" d="M427.11,285.65c2.85-.62,4.81,5.71,4.81,5.71-.16-4-1.54-14.48,2.61-15.82,3.37-1.08,5.45,3.42,5.7,6.53.08-3.48-.54-14.54,3.17-14.95,3.25-.35,4,5,3.65,7.92,1.16-2.78,4.34-12.4,9.36-9.62,4.79,2.79-.7,10.92-3,13.8,2.1-1.5,7.1-4.38,8.25-.73,1.86,5.92-12.75,10.56-12.75,10.56s8.06-.31,6.72,4.2c-1.88,6.38-10.25,7.55-15.82,6.35,8,1.53,5.23,8.53-1.14,9.78a15.45,15.45,0,0,1-14.51-5.05C422.12,300.37,422.77,286.59,427.11,285.65Z"/><path class="cls-20" d="M427.71,295c0,1.07.13,2.14.26,3.2a21.32,21.32,0,0,0,.44,2.41,88.9,88.9,0,0,0,9.39-8.06,30.71,30.71,0,0,1-1-3.23c-.29-1.2-.52-2.45-.7-3.68s-.28-2.49-.35-3.73a35.52,35.52,0,0,1,0-3.72,32.7,32.7,0,0,0,.15,3.7c.1,1.23.26,2.46.48,3.67s.5,2.43.83,3.59a30.21,30.21,0,0,0,1,3,82,82,0,0,0,6.46-7.24,35.17,35.17,0,0,1-.63-3.67c-.09-.64-.12-1.3-.19-1.94s-.08-1.31-.09-1.95c0-1.29,0-2.6,0-3.89s.13-2.58.3-3.86c-.12,1.28-.16,2.56-.17,3.85s.05,2.58.13,3.85c0,.63.11,1.27.16,1.91s.14,1.28.26,1.9a31.15,31.15,0,0,0,.67,3.22,107.11,107.11,0,0,0,10-16,107.87,107.87,0,0,1-9.59,16.34,18.32,18.32,0,0,0,3.2-.19,24.8,24.8,0,0,0,3.76-.86,30.11,30.11,0,0,0,3.76-1.47,29.32,29.32,0,0,0,3.7-2,33.18,33.18,0,0,1-3.67,2.19,32.42,32.42,0,0,1-3.77,1.62,25.6,25.6,0,0,1-3.81,1,20.13,20.13,0,0,1-3.6.31c-2.05,2.61-4.13,5.06-6.36,7.52a11.79,11.79,0,0,0,2.8,1.12,16.64,16.64,0,0,0,3.64.48,23.21,23.21,0,0,0,3.87-.25,25.63,25.63,0,0,0,4-.92,25,25,0,0,1-4,1.07,22.09,22.09,0,0,1-3.92.4,17.11,17.11,0,0,1-3.75-.34,12,12,0,0,1-3.05-1.11,87.35,87.35,0,0,1-9.25,8.37,20.15,20.15,0,0,0,2.49,1.28A25.35,25.35,0,0,0,435,304a30.39,30.39,0,0,0,3.66.74,28.65,28.65,0,0,0,3.86.26,28.21,28.21,0,0,1-3.92-.11,32.05,32.05,0,0,1-3.74-.6,25.18,25.18,0,0,1-3.52-1.06,20.18,20.18,0,0,1-2.74-1.29,87.39,87.39,0,0,1-12.28,8l-.7-1.38A86.83,86.83,0,0,0,427.9,301a21.84,21.84,0,0,1-.36-2.68c-.08-1.08-.12-2.18-.11-3.26s.05-2.18.11-3.26.15-2.16.27-3.23c-.08,1.07-.11,2.14-.13,3.22S427.68,293.92,427.71,295Z"/><path class="cls-21" d="M311.82,288.27H300.41c0-6.12-4-12.15-7.05-17.3l-.29-.49c-2.59-4.48-6-8.65-7-13.87a7,7,0,0,1,.36-4.53,6,6,0,0,1,3.89-2.81C309.38,244.4,313.35,269.79,311.82,288.27Z"/><path class="cls-5" d="M306.92,288.27h-.49a54.07,54.07,0,0,0-.73-7.73,57.58,57.58,0,0,0-2.27-9.07,51.72,51.72,0,0,0-9-16.32c-.33-.41,0-.63.3-.26a43.82,43.82,0,0,1,9.67,16.25,48.57,48.57,0,0,1,2.13,9.28A46.87,46.87,0,0,1,306.92,288.27Z"/><path class="cls-22" d="M332.18,288.27H343.8c0-14.9,16.85-29.53,4.15-31.11-4.52-.56-7.75,1.76-10.05,5.36C332.18,271.45,332.18,288.27,332.18,288.27Z"/><path class="cls-23" d="M319.46,288.27h14.27c2.32-21.46,1.68-75.24-29.38-70C280.51,222.36,318.85,253.35,319.46,288.27Z"/><path class="cls-5" d="M311.67,230.16a38.21,38.21,0,0,1,4.8,7,52.63,52.63,0,0,1,3.5,7.68,75.76,75.76,0,0,1,2.52,8.09c.7,2.73,1.3,5.5,1.77,8.29a153.65,153.65,0,0,1,2,16.87c.22,3.41.36,6.82.39,10.23h1c.13-3.43.12-6.86,0-10.3a126.12,126.12,0,0,0-1.76-17.09c-.49-2.82-1.12-5.63-1.88-8.4a68.19,68.19,0,0,0-2.75-8.17c-.52-1.34-1.14-2.64-1.76-3.94s-1.32-2.56-2.09-3.77a37.5,37.5,0,0,0-5.24-6.84C311.49,229.11,311.09,229.47,311.67,230.16Z"/><path class="cls-24" d="M308.26,288.27h11.83s3.12-24.94-10.27-24.93C297.62,263.35,305.77,278.77,308.26,288.27Z"/><path class="cls-5" d="M311.78,269.5a76,76,0,0,1,2.93,17.34c0,.48.05,1,.07,1.43h1c0-.51,0-1-.07-1.5a59.56,59.56,0,0,0-3.6-17.41C312,268.93,311.64,269.06,311.78,269.5Z"/><path class="cls-5" d="M336.63,288.27h.74c.27-2.26.62-4.52,1-6.76a71.19,71.19,0,0,1,2.51-9.21c.28-.75.6-1.48.89-2.22.15-.36.28-.74.46-1.1l.53-1.07.53-1.07a7.11,7.11,0,0,1,.57-1l1.25-2c.26-.42.05-.59-.24-.16l-1.36,2a9.2,9.2,0,0,0-.62,1l-.58,1.06-.58,1.07c-.18.36-.33.73-.5,1.1-.32.74-.66,1.47-1,2.22a59.11,59.11,0,0,0-2.67,9.3C337.2,283.65,336.86,286,336.63,288.27Z"/><path class="cls-25" d="M21.63,306.33c11.66-2.22,20.08,6.54,20.64,7.09.51-1.79,5.59-18.33,22.09-24.18a35,35,0,0,1,22.77,0,16.27,16.27,0,0,1,20-21.36,32.17,32.17,0,0,1,58.36,9.95,16.18,16.18,0,0,1,29.23,4.27A29.82,29.82,0,0,1,245,294.71a30.37,30.37,0,0,1,27.84-5.37c14.49,4.56,23.61,19.93,20.45,35.49H3.81C5.56,315.39,12.74,308,21.63,306.33Z"/><path class="cls-26" d="M185.42,310.31c11.67-2.22,20.08,6.54,20.64,7.1.51-1.8,5.6-18.34,22.09-24.19a35.05,35.05,0,0,1,22.78,0,16.26,16.26,0,0,1,19.95-21.36,32.17,32.17,0,0,1,58.37,9.95,16.19,16.19,0,0,1,29.23,4.27,29.81,29.81,0,0,1,50.28,12.61,30.38,30.38,0,0,1,27.84-5.37c14.49,4.56,23.62,19.93,20.46,35.49H167.6C169.36,319.37,176.53,312,185.42,310.31Z"/><rect class="cls-27" x="46.96" y="139.67" width="160.39" height="189.44"/><rect class="cls-28" x="53.42" y="162.27" width="160.39" height="160.39"/><rect class="cls-29" x="53.42" y="133.22" width="160.39" height="29.05"/><rect class="cls-30" x="72.54" y="181.39" width="38.18" height="38.18" rx="3.8"/><path class="cls-30" d="M148.9,220.07H118.32a4.31,4.31,0,0,1-4.3-4.3V185.2a4.31,4.31,0,0,1,4.3-4.31H148.9a4.31,4.31,0,0,1,4.3,4.31v30.57A4.31,4.31,0,0,1,148.9,220.07Zm-30.58-38.18a3.31,3.31,0,0,0-3.3,3.31v30.57a3.3,3.3,0,0,0,3.3,3.3H148.9a3.3,3.3,0,0,0,3.3-3.3V185.2a3.31,3.31,0,0,0-3.3-3.31Z"/><rect class="cls-30" x="156.5" y="181.39" width="38.18" height="38.18" rx="3.8"/><path class="cls-30" d="M106.92,262.05H76.34a4.31,4.31,0,0,1-4.3-4.3V227.17a4.31,4.31,0,0,1,4.3-4.3h30.58a4.31,4.31,0,0,1,4.3,4.3v30.58A4.31,4.31,0,0,1,106.92,262.05ZM76.34,223.87a3.3,3.3,0,0,0-3.3,3.3v30.58a3.3,3.3,0,0,0,3.3,3.3h30.58a3.3,3.3,0,0,0,3.3-3.3V227.17a3.3,3.3,0,0,0-3.3-3.3Z"/><rect class="cls-30" x="114.52" y="223.37" width="38.18" height="38.18" rx="3.8"/><path class="cls-30" d="M190.87,262.05H160.3a4.31,4.31,0,0,1-4.3-4.3V227.17a4.31,4.31,0,0,1,4.3-4.3h30.57a4.31,4.31,0,0,1,4.3,4.3v30.58A4.31,4.31,0,0,1,190.87,262.05ZM160.3,223.87a3.3,3.3,0,0,0-3.3,3.3v30.58a3.3,3.3,0,0,0,3.3,3.3h30.57a3.3,3.3,0,0,0,3.3-3.3V227.17a3.3,3.3,0,0,0-3.3-3.3Z"/><path class="cls-30" d="M106.92,268.35a.8.8,0,0,1,.8.8v30.57a.8.8,0,0,1-.8.81H76.34a.8.8,0,0,1-.8-.81V269.15a.8.8,0,0,1,.8-.8h30.58m0-3H76.34a3.8,3.8,0,0,0-3.8,3.8v30.57a3.81,3.81,0,0,0,3.8,3.81h30.58a3.81,3.81,0,0,0,3.8-3.81V269.15a3.8,3.8,0,0,0-3.8-3.8Z"/><path class="cls-30" d="M148.9,304H118.32a4.31,4.31,0,0,1-4.3-4.31V269.15a4.31,4.31,0,0,1,4.3-4.3H148.9a4.31,4.31,0,0,1,4.3,4.3v30.57A4.31,4.31,0,0,1,148.9,304Zm-30.58-38.18a3.3,3.3,0,0,0-3.3,3.3v30.57a3.31,3.31,0,0,0,3.3,3.31H148.9a3.31,3.31,0,0,0,3.3-3.31V269.15a3.3,3.3,0,0,0-3.3-3.3Z"/><rect class="cls-30" x="156.5" y="265.35" width="38.18" height="38.18" rx="3.8"/><circle class="cls-31" cx="195.45" cy="147.74" r="6.63"/><path class="cls-32" d="M195.45,121a3.41,3.41,0,0,0-3.41,3.41v23.32a3.41,3.41,0,0,0,6.82,0V124.42A3.41,3.41,0,0,0,195.45,121Z"/><circle class="cls-31" cx="71.77" cy="147.74" r="6.63"/><path class="cls-33" d="M71.77,121a3.41,3.41,0,0,0-3.41,3.41v23.32a3.41,3.41,0,1,0,6.81,0V124.42A3.41,3.41,0,0,0,71.77,121Z"/><circle class="cls-31" cx="102.69" cy="147.74" r="6.63"/><path class="cls-34" d="M102.69,121a3.41,3.41,0,0,0-3.41,3.41v23.32a3.41,3.41,0,1,0,6.81,0V124.42A3.41,3.41,0,0,0,102.69,121Z"/><circle class="cls-31" cx="133.61" cy="147.74" r="6.63"/><path class="cls-35" d="M133.61,121a3.41,3.41,0,0,0-3.41,3.41v23.32a3.41,3.41,0,1,0,6.81,0V124.42A3.41,3.41,0,0,0,133.61,121Z"/><circle class="cls-31" cx="164.53" cy="147.74" r="6.63"/><path class="cls-36" d="M164.53,121a3.41,3.41,0,0,0-3.41,3.41v23.32a3.41,3.41,0,0,0,6.82,0V124.42A3.41,3.41,0,0,0,164.53,121Z"/><path class="cls-37" d="M104.33,275.64l-2.06-2.07a1.28,1.28,0,0,0-1.81,0L87.22,286.82l-4.42-4.44a1.27,1.27,0,0,0-1.8,0l-2.07,2.07a1.27,1.27,0,0,0,0,1.8l7.38,7.42a1.26,1.26,0,0,0,.9.37,1.3,1.3,0,0,0,.91-.37l16.21-16.22a1.26,1.26,0,0,0,0-1.8Z"/><path class="cls-2" d="M434.34,336.08h-148a3.65,3.65,0,0,1-3.63-3.64h0a3.65,3.65,0,0,1,3.63-3.63h148a3.64,3.64,0,0,1,3.63,3.63h0A3.64,3.64,0,0,1,434.34,336.08Z"/><path class="cls-2" d="M203.71,340H130.88a3.64,3.64,0,0,1-3.63-3.63h0a3.64,3.64,0,0,1,3.63-3.63h72.83a3.64,3.64,0,0,1,3.64,3.63h0A3.64,3.64,0,0,1,203.71,340Z"/><circle class="cls-27" cx="245.02" cy="168.07" r="94.75" transform="matrix(0.16, -0.99, 0.99, 0.16, 40.08, 383.2)"/><path class="cls-38" d="M413.34,315.15a65.57,65.57,0,0,1,3.92,10.22s-24.37,5.66-27.11,3.06,12-10.41,12-10.41S408.52,318.13,413.34,315.15Z"/><path class="cls-38" d="M335.32,322.65c1.63,6.9.59,11.25.59,11.25s-26,1.05-28.29-2.34,15.09-8.39,15.09-8.39S329.51,324.74,335.32,322.65Z"/><path class="cls-39" d="M401.86,220.66c.91-.16,1.83-.33,2.75-.52-3.19,18.12-10.33,35.29-12.28,43.51-2.79,11.74,5.13,28,13.49,39a70.79,70.79,0,0,1,7.52,12.49c-4.82,3-11.22,2.87-11.22,2.87a133.51,133.51,0,0,1-23.27-24.21c-8-10.72-9.88-22.61-10.33-28.12,3.59-4.32,7.51-8.61,11.75-12.81C394.38,238.9,399.82,226.94,401.86,220.66Z"/><path class="cls-40" d="M401.86,220.66c-2,6.28-7.48,18.24-21.59,32.22-4.24,4.2-8.16,8.49-11.75,12.81-19,22.71-28.06,46.32-32.82,58.8a87.24,87.24,0,0,1-13.49-1.36c6.44-46.44,34.93-90.89,43.6-103.51A97.22,97.22,0,0,0,401.86,220.66Z"/><path class="cls-41" d="M363.72,140.2c-2.17,2.62-4.85,6.94-7.28,14-1.13,3.24-2.28,6.32-3.45,9.15H341.9V148.51C350.78,147.43,359.21,143,363.72,140.2Z"/><path class="cls-42" d="M349.76,158.07A94.75,94.75,0,1,1,255,63.32,94.65,94.65,0,0,1,349.76,158.07Z"/><circle class="cls-43" cx="255.02" cy="158.07" r="85.95" transform="translate(-37.08 226.62) rotate(-45)"/><circle class="cls-28" cx="255.02" cy="158.07" r="82.31"/><path class="cls-31" d="M260.45,158.07a5.43,5.43,0,1,1-5.43-5.43A5.43,5.43,0,0,1,260.45,158.07Z"/><path class="cls-31" d="M255.94,160.57a2.5,2.5,0,0,1-2.5-2.5V99.59a2.5,2.5,0,1,1,5,0v58.48A2.5,2.5,0,0,1,255.94,160.57Z"/><path class="cls-31" d="M255.94,160.57H210.8a2.5,2.5,0,0,1,0-5h45.14a2.5,2.5,0,0,1,0,5Z"/><path class="cls-44" d="M255.94,88.62a1,1,0,0,1-1-1V81.14a1,1,0,1,1,2,0v6.48A1,1,0,0,1,255.94,88.62Z"/><path class="cls-44" d="M220.59,97.6a1,1,0,0,1-.86-.5l-3.24-5.61a1,1,0,1,1,1.73-1l3.24,5.61a1,1,0,0,1-.87,1.5Z"/><path class="cls-44" d="M194.47,123.05a1,1,0,0,1-.5-.14l-5.61-3.23a1,1,0,0,1,1-1.74l5.61,3.24a1,1,0,0,1-.5,1.87Z"/><path class="cls-44" d="M184.57,158.15H178.1a1,1,0,0,1,0-2h6.47a1,1,0,0,1,0,2Z"/><path class="cls-44" d="M187.94,196.73a1,1,0,0,1-.86-.5,1,1,0,0,1,.36-1.36l5.61-3.24a1,1,0,1,1,1,1.73l-5.61,3.24A1,1,0,0,1,187.94,196.73Z"/><path class="cls-44" d="M215.76,225.23a1,1,0,0,1-.5-.14,1,1,0,0,1-.36-1.36l3.23-5.61a1,1,0,0,1,1.74,1l-3.24,5.61A1,1,0,0,1,215.76,225.23Z"/><path class="cls-44" d="M254.1,236a1,1,0,0,1-1-1v-6.47a1,1,0,0,1,2,0V235A1,1,0,0,1,254.1,236Z"/><path class="cls-44" d="M292.69,226.15a1,1,0,0,1-.87-.5L288.58,220a1,1,0,1,1,1.74-1l3.23,5.61a1,1,0,0,1-.36,1.36A1,1,0,0,1,292.69,226.15Z"/><path class="cls-44" d="M321.18,198.33a1,1,0,0,1-.5-.14L315.07,195a1,1,0,0,1,1-1.74l5.61,3.24a1,1,0,0,1-.5,1.87Z"/><path class="cls-44" d="M332,160h-6.48a1,1,0,0,1,0-2H332a1,1,0,0,1,0,2Z"/><path class="cls-44" d="M316.49,124.64a1,1,0,0,1-.5-1.87l5.61-3.23a1,1,0,0,1,1.37.36,1,1,0,0,1-.37,1.37L317,124.51A1,1,0,0,1,316.49,124.64Z"/><path class="cls-44" d="M291,98.52a1,1,0,0,1-.5-.14,1,1,0,0,1-.36-1.36l3.23-5.61a1,1,0,0,1,1.74,1L291.91,98A1,1,0,0,1,291,98.52Z"/><path class="cls-27" d="M346.18,183.92a95.52,95.52,0,0,1-5,13.59c-5.28-.33-12.33-.32-18.82-6.68-8.22-8-7.88-11.82-13.51-19s-8.54-8.63-7.17-18l3.7,1.86,18,24.44Z"/><path class="cls-45" d="M405.45,225.29c-.93.19-3.52,1-4.44,1.18a97.23,97.23,0,0,1-36.05-1c-2.41-.53-3.76-1-3.76-1,2.35-10.19,3.54-25.33,3.16-32.67a90.67,90.67,0,0,0-1.41-12.1,86.7,86.7,0,0,1-6.49,8.87,20,20,0,0,1-14.43,7,24.73,24.73,0,0,1-9.06-1.25,25.11,25.11,0,0,1-8.48-4.8,51.36,51.36,0,0,1-6.31-6.7c1.39-2.11,4.49-6.36,8.54-8.84a38.59,38.59,0,0,0,8.09,4.39,35,35,0,0,0,3.45,1.16l1,.27c3.22.77,6.38-2.21,9.45-7.52A75.51,75.51,0,0,0,353,163.3c1.18-2.83,2.32-5.91,3.45-9.15,2.43-7,5.11-11.33,7.29-14,2.63-3.16,4.56-3.88,4.56-3.88l4.5-1.33,1.06-.31,6.66-2h0c3.38,3.71,9.29,6.43,14.58,13.23,8.2,10.56,8.05,26.25,10.7,51.17C406.6,204.54,406.8,217.56,405.45,225.29Z"/><path class="cls-27" d="M364.36,191.81a90.67,90.67,0,0,0-1.41-12.1c5.19-8.9,11.11-19.24,11.11-19.24S379.58,182.55,364.36,191.81Z"/><path class="cls-46" d="M380.5,132.7l-12.22,3.62L367,133.59l-1-2.07a11.14,11.14,0,0,1-4.68,1.34c-6-5.49-6.51-13.5-6.41-17.06,0-.06.06-.12.17-.18a22.13,22.13,0,0,1,3.79-.88,25.27,25.27,0,0,1,5.76-.53,11,11,0,0,1,4.68.75c1.2.58,1.79,1.91,2.47,3,1.62,2.59,3.06,5.22,4.56,7.88a39.92,39.92,0,0,1,2.11,3.42C378.58,129.66,379.94,132.7,380.5,132.7Z"/><path class="cls-46" d="M326.72,174c-4.05,2.48-7.15,6.73-8.53,8.84A90,90,0,0,1,309.27,169a39.85,39.85,0,0,1-6.41-7.12c-2.21-3.49-1.63-11.77,1.22-12.18s9,7.87,9,7.87-.3-5.2.29-5.36,2.56,1.39,3.9,4.25-.87,6.9-.87,6.9A40.72,40.72,0,0,0,326.72,174Z"/><path class="cls-38" d="M366.69,118.6a1.31,1.31,0,0,0-1.39,1.23c-.07.62.69,2.37-.56,2.19-.92-.13-1.28-1.9-1.78-2.51a3.44,3.44,0,0,0-3.25-1.19c-.82.05-1,0-1.48-.65-.37-.52-.63-1.45-1.15-1.81s-1.72-.07-2.45,0a7.25,7.25,0,0,1-3.67-1c-3.18-1.7-4.49-7-1.09-9.24a4.85,4.85,0,0,1,5.4.21,3,3,0,0,0,3.22.35,25.14,25.14,0,0,1,2.21-1.25,2.63,2.63,0,0,1,2.74.37c1.06.73,1.82,1.48,3.18,1,2-.64,3.89-1.42,5.26.58a5.65,5.65,0,0,0,1.69,1.94c.66.38,1.48.4,2.18.75a5.41,5.41,0,0,1,2.25,2.22c.85,1.71.52,4.25.36,6.11-.19,2.31-.41,4.62-.55,6.93a11.44,11.44,0,0,0,.32,3.57c-2.14-.11-7.1-3.15-8.77-6.09-.65-1.14-.58-3.09-2.08-3.59A2.15,2.15,0,0,0,366.69,118.6Z"/><path class="cls-47" d="M366.31,121.84c.46-.39.45-.59,0-1s-.54-.89.05-1.2,1.33.54,1.51,1.09c.28.81.15,1.41-.7,1.69C366.78,122.55,366.09,122.38,366.31,121.84Z"/><path class="cls-47" d="M368.88,121c.22,1.2-.1,2.37-1.18,2.6s1,1.56,2.19,1a8.67,8.67,0,0,1-.6-1.59C369.1,122.21,368.88,121,368.88,121Z"/><polygon class="cls-48" points="325.47 172.29 330.21 175.38 320.35 186.3 316.48 181.58 325.47 172.29"/><path class="cls-47" d="M367,133.59l-1-2.07a11.14,11.14,0,0,1-4.68,1.34s5.17-2.38,6.12-3.23,1.32-1.72,1.63-1.83S368.76,132.1,367,133.59Z"/><polygon class="cls-27" points="329.75 175.89 330.67 176.4 322.25 187.39 320.77 185.83 329.75 175.89"/><polygon class="cls-49" points="365.86 137.35 366.6 134.3 379.5 130.41 381.43 133.59 365.86 137.35"/><rect class="cls-43" x="123.51" y="48.69" width="58.38" height="33.22"/><polygon class="cls-50" points="123.51 81.92 152.7 59.34 181.89 81.92 123.51 81.92"/><polygon class="cls-51" points="181.89 48.7 152.7 71.42 123.51 48.7 181.89 48.7"/><path class="cls-2" d="M93.45,112H72.24a1.5,1.5,0,0,1-1.5-1.5V68.19a1.5,1.5,0,0,1,1.5-1.5h32.33a1.5,1.5,0,0,1,1.5,1.5V96.42a1.5,1.5,0,0,1-.32.93l-11.12,14A1.51,1.51,0,0,1,93.45,112Zm-19.71-3h19L103.07,95.9V69.69H73.74Z"/><path class="cls-2" d="M93.45,112a1.41,1.41,0,0,1-.49-.09,1.48,1.48,0,0,1-1-1.41v-14a1.5,1.5,0,0,1,1.5-1.5h11.12a1.5,1.5,0,0,1,1.35.84,1.52,1.52,0,0,1-.17,1.59l-11.12,14A1.5,1.5,0,0,1,93.45,112Zm1.5-14v8.23l6.52-8.23Z"/><rect class="cls-2" x="78.15" y="74.24" width="20.86" height="3"/><rect class="cls-2" x="78.15" y="79.96" width="20.86" height="3"/><rect class="cls-2" x="78.15" y="85.68" width="16.53" height="3"/><path class="cls-2" d="M431.23,170.13a10.31,10.31,0,0,0-1.32-4.49l1.31-.73a12.1,12.1,0,0,0-2.52-3.14l-1,1.12a10.58,10.58,0,0,0-4.11-2.26l.41-1.43h0a12,12,0,0,0-3.28-.46c-.24,0-.47,0-.71,0l.09,1.49a10.48,10.48,0,0,0-4.5,1.31l-.73-1.31a12.48,12.48,0,0,0-3.14,2.52l1.12,1a10.47,10.47,0,0,0-2.26,4.1l-1.43-.41v0a12,12,0,0,0-.46,3.28c0,.23,0,.47,0,.7l1.49-.09a10.62,10.62,0,0,0,1.31,4.5l-1.3.72a11.94,11.94,0,0,0,2.51,3.15l1-1.12a10.36,10.36,0,0,0,4.1,2.27l-.41,1.43h0a12,12,0,0,0,3.28.46l.72,0-.09-1.49a10.36,10.36,0,0,0,4.5-1.32l.73,1.31a12.31,12.31,0,0,0,3.14-2.53l-1.12-1a10.36,10.36,0,0,0,2.25-4.11l1.43.41h0a12,12,0,0,0,.45-3.28c0-.24,0-.48,0-.72ZM418.1,180h0l.07-.26Zm8.75-7.5a6.39,6.39,0,0,1-6.13,4.64,6.52,6.52,0,0,1-1.74-.24,6.37,6.37,0,0,1-4.64-6.13,6.19,6.19,0,0,1,.24-1.74,6.37,6.37,0,0,1,6.13-4.64,6.57,6.57,0,0,1,1.74.24,6.38,6.38,0,0,1,4.64,6.13A6.52,6.52,0,0,1,426.85,172.5Z"/><path class="cls-2" d="M449.54,165.59l-1,.2a7.28,7.28,0,0,0-.8-2.19l.88-.49a8.45,8.45,0,0,0-2.66-2.92l-.56.83a7.63,7.63,0,0,0-2.12-1l.28-1h0a8.18,8.18,0,0,0-3.91-.17l.19,1a7.36,7.36,0,0,0-2.19.79l-.48-.88a8.45,8.45,0,0,0-2.93,2.65l.83.57a7.3,7.3,0,0,0-1,2.11l-1-.28v.06a8.43,8.43,0,0,0-.33,2.31,8.12,8.12,0,0,0,.15,1.57l1-.18a7.36,7.36,0,0,0,.79,2.19l-.89.49h0a8.73,8.73,0,0,0,2.65,2.93l.57-.83a7.59,7.59,0,0,0,2.11,1l-.29,1h0l.09,0a8.43,8.43,0,0,0,2.31.33,8.85,8.85,0,0,0,1.64-.16l-.2-1a7.28,7.28,0,0,0,2.19-.8l.49.88a8.36,8.36,0,0,0,2.91-2.67l-.83-.56a8,8,0,0,0,1-2.11l1,.27v0a8.43,8.43,0,0,0,.33-2.31A8.72,8.72,0,0,0,449.54,165.59Zm-8.32,6.67a5.05,5.05,0,1,1,4.85-3.68A5,5,0,0,1,441.22,172.26Z"/><path class="cls-2" d="M251,34.45a16.75,16.75,0,1,1,16.75-16.74A16.76,16.76,0,0,1,251,34.45ZM251,4a13.75,13.75,0,1,0,13.75,13.75A13.76,13.76,0,0,0,251,4Z"/><path class="cls-2" d="M246.59,25.07a1.5,1.5,0,0,1-1.09-2.53l4.65-4.92V7.12a1.5,1.5,0,1,1,3,0v11.1a1.48,1.48,0,0,1-.41,1l-5.06,5.35A1.49,1.49,0,0,1,246.59,25.07Z"/><path class="cls-52" d="M204.62,22.15a10.36,10.36,0,0,0-10.35,10.36c0,10.27,10.35,22.8,10.35,22.8S215,42.78,215,32.51A10.36,10.36,0,0,0,204.62,22.15Zm0,15.83a5.47,5.47,0,1,1,5.48-5.47A5.47,5.47,0,0,1,204.62,38Z"/><path class="cls-2" d="M424.29,129l-11.13-16.69V89.86a1.12,1.12,0,1,0,0-2.24h-9a1.12,1.12,0,0,0,0,2.24v22.42L393.07,129a2.24,2.24,0,0,0,1.87,3.48h27.49A2.24,2.24,0,0,0,424.29,129Z"/><path class="cls-28" d="M400.92,121.24l-5.3,7.94a.66.66,0,0,0,.55,1h25a.66.66,0,0,0,.55-1l-5.29-7.94Z"/><rect class="cls-53" x="57.69" y="16.45" width="57.83" height="43.07"/><polyline class="cls-28" points="76.31 28.01 109.3 28.01 109.3 25.01 76.31 25.01"/><polyline class="cls-28" points="76.31 34.57 109.3 34.57 109.3 31.57 76.31 31.57"/><polygon class="cls-28" points="61.44 29.67 65.4 33.99 71.93 26.2 69.64 24.27 65.3 29.44 63.66 27.64 61.44 29.67 61.44 29.67"/><polyline class="cls-28" points="76.31 41.13 109.3 41.13 109.3 38.13 76.31 38.13"/><polyline class="cls-28" points="76.31 47.69 95.95 47.69 95.95 44.69 76.31 44.69"/><rect class="cls-27" x="196.58" y="262.82" width="57.83" height="43.07"/><rect class="cls-54" x="200.84" y="258.57" width="57.83" height="43.07"/><polyline class="cls-28" points="219.46 270.13 252.44 270.13 252.44 267.13 219.46 267.13"/><polyline class="cls-28" points="219.46 276.69 252.44 276.69 252.44 273.69 219.46 273.69"/><polygon class="cls-28" points="204.59 271.79 208.55 276.11 215.08 268.32 212.79 266.39 208.45 271.56 206.81 269.76 204.59 271.79 204.59 271.79"/><polyline class="cls-28" points="219.46 283.25 252.44 283.25 252.44 280.25 219.46 280.25"/><polyline class="cls-28" points="219.46 289.81 239.1 289.81 239.1 286.81 219.46 286.81"/><circle class="cls-2" cx="156.44" cy="16.55" r="7.72" transform="translate(104.39 165) rotate(-76.72)"/><circle class="cls-2" cx="441.22" cy="199.91" r="7.72" transform="translate(144.99 583.16) rotate(-76.67)"/><path class="cls-2" d="M38.8,112.41a4.17,4.17,0,1,1-4.17-4.16A4.16,4.16,0,0,1,38.8,112.41Z"/><path class="cls-2" d="M396.86,39.63a4.17,4.17,0,1,1-4.17-4.17A4.17,4.17,0,0,1,396.86,39.63Z"/><path class="cls-55" d="M346,85.81H356.3a2.89,2.89,0,0,0,2.89-2.89V81.36h-16.1v1.56A2.89,2.89,0,0,0,346,85.81Z"/><path class="cls-56" d="M362.28,60.08A22.68,22.68,0,0,1,368.56,53,29.36,29.36,0,0,0,351.15,0c-1.12,0-2.23.07-3.34.18A29.37,29.37,0,0,0,334,53.2a20,20,0,0,1,6,6.88"/><path class="cls-57" d="M353.27,60.39l6-20.46A1.57,1.57,0,0,0,357,38.15l-5.83,3.5-5.86-3.5a1.56,1.56,0,0,0-2.3,1.78l6,20.46a1.1,1.1,0,0,0,1.38.75,1.12,1.12,0,0,0,.76-1.38L345.6,40.93l5.55,3.32,5.52-3.32-5.53,18.83a1.11,1.11,0,1,0,2.13.63Z"/><path class="cls-58" d="M361.44,81.79h-20.6a4.19,4.19,0,0,1-4.18-4.18V60.07h28.95V77.61A4.18,4.18,0,0,1,361.44,81.79Z"/><path class="cls-59" d="M336.1,73.71h30.08v-2.5H336.1Zm0,4.36h30.08v-2.5H336.1Zm0-8.72h30.08V66.84H336.1Zm0-6.87V65h30.08v-2.5Z"/><rect class="cls-60" x="164.84" y="242.25" width="4.91" height="7.81"/><rect class="cls-60" x="157.17" y="237.55" width="20.25" height="6.21" rx="2.86"/><rect class="cls-61" x="163.39" y="245.34" width="7.81" height="7.81"/><circle class="cls-62" cx="167.3" cy="291.67" r="44.4" transform="translate(-97.54 84.49) rotate(-22.13)"/><circle class="cls-63" cx="167.3" cy="291.67" r="37.31"/><circle class="cls-28" cx="167.3" cy="291.67" r="35.54"/><path class="cls-60" d="M172.67,291.67a5.37,5.37,0,1,1-5.37-5.37A5.37,5.37,0,0,1,172.67,291.67Z"/><rect class="cls-60" x="165.43" y="264.83" width="3.74" height="30.25" rx="1.73"/><circle class="cls-63" cx="167.3" cy="260.2" r="1.99"/><circle class="cls-63" cx="167.3" cy="323.13" r="1.99"/><path class="cls-63" d="M135.83,289.67a2,2,0,1,1-2,2A2,2,0,0,1,135.83,289.67Z"/><circle class="cls-63" cx="198.76" cy="291.67" r="1.99"/></g></g></g></svg>