<svg xmlns="http://www.w3.org/2000/svg" viewBox="0 0 369.59 342.62"><defs><style>.cls-1{fill:#f0f8ff;}.cls-2{fill:#cae2f7;}.cls-3{fill:#162a45;}.cls-4{fill:#a73027;}.cls-5{fill:#a36454;}.cls-6{fill:#3a739a;}.cls-7{fill:#6199c8;}.cls-8{fill:#e95c4c;}.cls-9{fill:#8a4636;}.cls-10{fill:#31184c;}.cls-11{fill:#fff;}.cls-12{fill:#8ab6e3;}.cls-13{fill:#245472;}.cls-14{fill:#efad9c;}.cls-15{fill:#b56757;}.cls-16{fill:#ad6253;}.cls-17{fill:none;stroke:#162a45;stroke-linecap:round;stroke-linejoin:round;stroke-width:0.65px;}.cls-18{fill:#cc7d6d;}</style></defs><g id="Layer_2" data-name="Layer 2"><g id="OBJECTS"><path class="cls-1" d="M19.87,59.88A127.72,127.72,0,0,0,4.34,161.12c13.39,49.42,57.87,82.78,104.24,99.27A378.61,378.61,0,0,0,238,281.51c30-.47,61.51-6.08,87.13-22.43,27.25-17.38,43.8-48.94,44.48-81.07.68-31.72-14.35-62-38.38-82.28C294.43,64.66,243,74.59,203.67,50.35c-14.91-9.2-26.55-22.78-40.38-33.53C146.14,3.48,123.35-3.52,102,1.78A140.4,140.4,0,0,0,43.39,32.31,126.36,126.36,0,0,0,19.87,59.88Z"/><path class="cls-2" d="M163.37,283.05H43.57V17.59h119.8Zm-116.8-3h113.8V20.59H46.57Z"/><rect class="cls-2" x="102.97" y="19.09" width="1" height="260.54"/><rect class="cls-2" x="45.07" y="100.32" width="116.8" height="1"/><rect class="cls-2" x="45.07" y="198.02" width="116.8" height="1"/><rect class="cls-2" x="102.97" y="19.09" width="1" height="262.46"/><rect class="cls-2" x="38.27" y="284.75" width="130.4" height="2.81"/><path class="cls-2" d="M326,283.05H206.21V17.59H326Zm-116.8-3H323V20.59H209.21Z"/><rect class="cls-2" x="265.61" y="19.09" width="1" height="260.54"/><rect class="cls-2" x="207.71" y="100.32" width="116.8" height="1"/><rect class="cls-2" x="207.71" y="198.02" width="116.8" height="1"/><rect class="cls-2" x="265.61" y="19.09" width="1" height="262.46"/><rect class="cls-2" x="200.91" y="284.75" width="130.4" height="2.81"/><polygon class="cls-3" points="111.21 342.25 126.15 217.01 131.24 217.01 114.42 342.25 111.21 342.25"/><polygon class="cls-3" points="240.81 342.25 225.87 217.01 220.78 217.01 237.6 342.25 240.81 342.25"/><path class="cls-3" d="M72.6,341.29H68.33V253.62a3.27,3.27,0,0,0-3.26-3.26H19.63a3.26,3.26,0,0,0-3.25,3.26v87.67H12.11V253.62a7.53,7.53,0,0,1,7.52-7.53H65.07a7.53,7.53,0,0,1,7.53,7.53Z"/><path class="cls-4" d="M72.67,236.53H12a7,7,0,0,0,0,14H72.67a7,7,0,1,0,0-14Z"/><path class="cls-5" d="M65.22,204.2l62.22,33.48.63.34a9.12,9.12,0,0,1,4.77,7.53l4.47,85.35a6.62,6.62,0,0,1-13.17,1.18l-10.67-84.81,5.4,7.87L54.33,226.38A12.36,12.36,0,1,1,64.4,203.8C64.67,203.92,65,204.06,65.22,204.2Z"/><path class="cls-5" d="M106.62,246.84l-.53-.36L31.26,206.91c-.21-.13-.45-.29-.66-.41a12,12,0,1,0-12.11,20.76L89.69,259,57.48,327.57A6.91,6.91,0,0,0,70.56,332l39.51-74.35A9.14,9.14,0,0,0,106.62,246.84Z"/><path class="cls-6" d="M120.57,342.1l45.63,0a9.21,9.21,0,0,0-.3-2.7c-.69-2.7-2.9-6.49-9.86-6.79a52.34,52.34,0,0,1-18.17-3.86c-6.74,1.06-15.22,0-15.22,0A20.89,20.89,0,0,0,120.57,342.1Z"/><path class="cls-7" d="M147.93,334.42a8.2,8.2,0,0,1,1.7-3,1.22,1.22,0,0,1,.68-.42,1.47,1.47,0,0,1,.88.09c.48.25.78.83.41,1.25a8.47,8.47,0,0,0-1,1.46,7,7,0,0,0-.43,1.07,1.22,1.22,0,0,1-1.41.63C148.12,335.38,147.77,334.91,147.93,334.42Z"/><path class="cls-7" d="M143.92,333.75a8.2,8.2,0,0,1,1.7-3,1.26,1.26,0,0,1,.68-.42,1.47,1.47,0,0,1,.88.09c.48.25.78.83.41,1.25a8.47,8.47,0,0,0-1,1.46,7,7,0,0,0-.43,1.07,1.22,1.22,0,0,1-1.41.63C144.12,334.71,143.76,334.24,143.92,333.75Z"/><path class="cls-7" d="M139.91,333.08a8.2,8.2,0,0,1,1.7-3,1.26,1.26,0,0,1,.68-.42,1.46,1.46,0,0,1,.88.09c.48.25.78.83.41,1.25a7.9,7.9,0,0,0-1,1.46,6.18,6.18,0,0,0-.44,1.07,1.22,1.22,0,0,1-1.41.63C140.11,334.05,139.75,333.58,139.91,333.08Z"/><path class="cls-7" d="M166.2,342.15l-45.63,0a16.91,16.91,0,0,1-.3-2.7l45.63.05A9.21,9.21,0,0,1,166.2,342.15Z"/><path class="cls-6" d="M54.43,342.21l45.63,0a9,9,0,0,0-.31-2.7c-.68-2.69-2.89-6.48-9.85-6.79a52.21,52.21,0,0,1-18.17-3.85c-6.74,1.06-15.22,0-15.22,0A20.82,20.82,0,0,0,54.43,342.21Z"/><path class="cls-7" d="M81.79,334.53a8,8,0,0,1,1.7-3,1.17,1.17,0,0,1,.68-.42,1.47,1.47,0,0,1,.88.09c.48.25.77.83.41,1.24a8.54,8.54,0,0,0-1,1.47A8.79,8.79,0,0,0,84,335a1.2,1.2,0,0,1-1.4.64C82,335.49,81.63,335,81.79,334.53Z"/><path class="cls-7" d="M77.78,333.86a8,8,0,0,1,1.7-3,1.17,1.17,0,0,1,.68-.42,1.47,1.47,0,0,1,.88.09c.48.25.78.83.41,1.25a8.1,8.1,0,0,0-1,1.46,7.36,7.36,0,0,0-.43,1.06,1.22,1.22,0,0,1-1.41.64C78,334.82,77.62,334.35,77.78,333.86Z"/><path class="cls-7" d="M73.77,333.19a8,8,0,0,1,1.7-3,1.22,1.22,0,0,1,.68-.42,1.47,1.47,0,0,1,.88.09c.48.25.78.83.41,1.25a8.47,8.47,0,0,0-1,1.46,7.36,7.36,0,0,0-.43,1.06,1.22,1.22,0,0,1-1.41.64C74,334.15,73.61,333.68,73.77,333.19Z"/><path class="cls-7" d="M100.06,342.25l-45.63,0a15.77,15.77,0,0,1-.3-2.7l45.62,0A9,9,0,0,1,100.06,342.25Z"/><path class="cls-8" d="M65.59,198.42,70.4,206l54.76,25.76a24.43,24.43,0,0,1,13.31,19.75l4.77,56.24a72.37,72.37,0,0,1-26.66.71l-5.79-51.85L41.34,229.45l-5.19-30.18Z"/><path class="cls-8" d="M7.49,199.7l-.21,14.17a27.23,27.23,0,0,0,12.18,23C42.29,252.07,81.63,260,81.63,260L62.48,302.5a38.8,38.8,0,0,0,24,11.36l26.91-52a16.8,16.8,0,0,0-6.13-22L41,199.2Z"/><path class="cls-4" d="M112.92,252.75h0a.18.18,0,0,1-.19-.17,15.86,15.86,0,0,0-8.32-13.24l-45.88-27a.17.17,0,0,1-.08-.22,3.1,3.1,0,0,0-.33-2.83.17.17,0,0,1,0-.25.17.17,0,0,1,.25.05,3.44,3.44,0,0,1,.42,3L104.55,239a16.17,16.17,0,0,1,8.51,13.53A.18.18,0,0,1,112.92,252.75Z"/><path class="cls-4" d="M46.54,219.23a.3.3,0,0,1-.16,0,.26.26,0,0,1,0-.35,9.67,9.67,0,0,1,8.56-3.51.25.25,0,0,1,.21.28.24.24,0,0,1-.27.22,9.18,9.18,0,0,0-8.11,3.32A.25.25,0,0,1,46.54,219.23Z"/><path class="cls-4" d="M38.2,214.34a.25.25,0,0,1-.11-.48A26,26,0,0,1,53,211.79a.24.24,0,0,1,.2.29.25.25,0,0,1-.28.2,25.55,25.55,0,0,0-14.65,2A.19.19,0,0,1,38.2,214.34Z"/><path class="cls-5" d="M95.09,171.72l44.46,28.12a5.05,5.05,0,0,1-4.93,8.8L87.43,185.38a7.84,7.84,0,0,1,6.94-14.07A6.37,6.37,0,0,1,95.09,171.72Z"/><path class="cls-5" d="M90.53,185.44a7.83,7.83,0,0,1-6.93-4.17L60,136.59a7.83,7.83,0,1,1,13.84-7.33l23.66,44.68a7.83,7.83,0,0,1-6.92,11.5Z"/><path class="cls-5" d="M135.63,199.67s13.2.38,15.69,1.29,14.66,6.93,14.5,7.86S155.74,206,155.74,206s9.9,4.88,9.65,6S155,208.68,155,208.68s8.56,4,8.21,5.13-8.77-2.41-8.77-2.41,6.78,3.43,6.48,4.38-10.13-3.19-10.13-3.19-10.06,2.55-16.42-3S135.63,199.67,135.63,199.67Z"/><path class="cls-9" d="M141.24,209.21H141a.17.17,0,0,1-.16-.19c0-.09.08-.15.19-.17,1.8.11,5.87-1.28,6.85-3.74a.16.16,0,0,1,.18-.11c3.07.37,8.13.71,8.65,0a.14.14,0,0,0,0-.15c-.54-1.21-7.16-2.86-9.66-3.39a.17.17,0,0,1-.14-.21.18.18,0,0,1,.22-.14c.93.2,9.19,2,9.9,3.6a.49.49,0,0,1,0,.5c-.78,1-7.56.3-8.85.14C147.08,207.84,143.23,209.21,141.24,209.21Z"/><path class="cls-7" d="M69.76,151c-3.94,17.37-4.92,27.15-2.14,49-8.51,6.73-39.81,7.75-61.06,5.25.16-25.09.72-41.53,10.34-68.68L30.51,115.9l20.26-2.71,16.75,8.43Z"/><path class="cls-5" d="M47.24,99.42l-5.9,15s8.28,5.84,15.31,4.1l2.87-10.25Z"/><path class="cls-9" d="M57.34,116.16c-7.74-3-9.25-8.19-9.25-8.19l10.44,3.91Z"/><path class="cls-5" d="M39.92,114.64l10.85-1.45,9,4.55C56.06,125.94,41.92,122.36,39.92,114.64Z"/><path class="cls-3" d="M44.6,103.78a6.18,6.18,0,0,1-8.11-5,2.62,2.62,0,0,1-3.13-3.31,5.52,5.52,0,0,1-3.57-4.14,8.48,8.48,0,0,1,.88-5.55,19,19,0,0,1,3.47-4.53,2.29,2.29,0,0,1-.85-3A3.74,3.74,0,0,1,36,76.4a11,11,0,0,1,3.44.1,13.29,13.29,0,0,1-.18-4.07A5.18,5.18,0,0,1,41.4,69a3.26,3.26,0,0,1,3.81.15,29.2,29.2,0,0,1,4-5,9.81,9.81,0,0,1,5.66-2.73A6,6,0,0,1,60.45,64a3.14,3.14,0,0,1,5.42,1.27,5.74,5.74,0,0,1,8.7,7.33,4.49,4.49,0,0,1,1.91,3.66A4.32,4.32,0,0,1,74.81,80a4.72,4.72,0,0,1,1.25,4,4.66,4.66,0,0,1-2.52,3.35,17.62,17.62,0,0,1-7.68,8,52.46,52.46,0,0,1-10.51,4.25C51.74,100.76,48.19,102.57,44.6,103.78Z"/><path class="cls-5" d="M62.94,74.8c-15.38-2.17-23.6,5.11-22.54,19.53.85,11.48,7.38,18.73,18.22,19,10,.2,11.74-7.92,12-16.47C71,84.63,72.08,76.09,62.94,74.8Z"/><path class="cls-3" d="M71,84a7.81,7.81,0,0,1-3.72-4.1,3.75,3.75,0,0,1-3.67-.09,5.91,5.91,0,0,1-8.6,0,4.16,4.16,0,0,1-6.29.55,6.67,6.67,0,0,1-4.46,7.82,6.34,6.34,0,0,1-4.66,8.23,44.09,44.09,0,0,1-1.65-7.15,15,15,0,0,1,.59-7.29A14.37,14.37,0,0,1,46.81,74a29.76,29.76,0,0,1,11.56-1.71c3.65,0,7.63.54,10.2,3.13C70.88,77.76,71,80.68,71,84Z"/><path class="cls-10" d="M70.35,90.92a23.23,23.23,0,0,0-6.23-.33C65.45,88.81,68.88,89.74,70.35,90.92Z"/><path class="cls-10" d="M51.67,90.61a23.56,23.56,0,0,1,6.24-.13C56.64,88.66,53.19,89.47,51.67,90.61Z"/><path class="cls-10" d="M65.23,96.52a1.15,1.15,0,1,0,1.14-1.37A1.27,1.27,0,0,0,65.23,96.52Z"/><path class="cls-11" d="M66.36,96a.42.42,0,0,0,.34.45.42.42,0,0,0,.37-.44.41.41,0,0,0-.35-.45A.4.4,0,0,0,66.36,96Z"/><path class="cls-10" d="M54.36,96.34A1.15,1.15,0,1,0,55.5,95,1.27,1.27,0,0,0,54.36,96.34Z"/><path class="cls-11" d="M55.49,95.85c0,.25.15.45.34.45s.36-.19.37-.44a.42.42,0,0,0-.35-.45A.41.41,0,0,0,55.49,95.85Z"/><path class="cls-9" d="M62,101.57a.36.36,0,0,1-.35-.3.35.35,0,0,1,.29-.41,1.27,1.27,0,0,0,.87-.43.59.59,0,0,0,0-.52,6.68,6.68,0,0,0-.51-1,8.16,8.16,0,0,1-.58-1.13.37.37,0,0,1,.22-.45.36.36,0,0,1,.46.22,7,7,0,0,0,.52,1,8.8,8.8,0,0,1,.56,1.09,1.27,1.27,0,0,1-.06,1.12,1.85,1.85,0,0,1-1.36.77Z"/><path class="cls-11" d="M64.69,103.4A38.49,38.49,0,0,1,57,103C58.3,106.09,63.8,105.64,64.69,103.4Z"/><path class="cls-5" d="M42.93,96.51c.88,2.28.18,4.44-1.46,5.08s-3.7-.7-4.57-3-.25-4.63,1.39-5.27S42.05,94.24,42.93,96.51Z"/><path class="cls-9" d="M41.31,99.4a.27.27,0,0,1-.12,0A1.83,1.83,0,0,1,40,97.8a2.12,2.12,0,0,1,.19-.84,1.55,1.55,0,0,0,.14-.47,1,1,0,0,0-.28-.78,1.06,1.06,0,0,0-.88-.39,1,1,0,0,0-.72,1,.35.35,0,0,1-.37.35.36.36,0,0,1-.35-.36A1.7,1.7,0,0,1,39,94.61a1.79,1.79,0,0,1,1.5.61A1.75,1.75,0,0,1,41,96.55a2.19,2.19,0,0,1-.19.67,1.49,1.49,0,0,0-.14.55,1.15,1.15,0,0,0,.78.94.36.36,0,0,1-.13.69Z"/><path class="cls-12" d="M97.83,172.37l-9.09-17.1-17.49,8.66,6.6,12.81a25.17,25.17,0,0,0,11.22,11l30.3,15s6.72-8.72,7.36-12.9Z"/><path class="cls-7" d="M67.52,121.62l1.09.64A22.14,22.14,0,0,1,77,131.13l12.59,24.14S83.06,161.1,71,165.45l-8.38-13.21Z"/><path class="cls-13" d="M67.19,163.36h0a.17.17,0,0,1-.14-.21c2.1-10.53,3.86-20.7,2.39-29.26a.18.18,0,0,1,.36-.06c1.48,8.62-.3,18.82-2.4,29.39A.19.19,0,0,1,67.19,163.36Z"/><path class="cls-13" d="M69.26,151.7a.17.17,0,0,1-.1,0,.18.18,0,0,1,0-.25,44.56,44.56,0,0,0,5-9.27.19.19,0,0,1,.23-.11.18.18,0,0,1,.11.23,45,45,0,0,1-5,9.36A.16.16,0,0,1,69.26,151.7Z"/><path class="cls-5" d="M52.47,171.55l52.66,5.89a5.05,5.05,0,0,1-.6,10.07l-53-.32a7.84,7.84,0,1,1,.09-15.68C51.92,171.51,52.2,171.53,52.47,171.55Z"/><path class="cls-5" d="M50,186.61a7.84,7.84,0,0,1-6.49-4.56L21.66,134.17a7.83,7.83,0,1,1,14.24-6.51l21.87,47.89A7.84,7.84,0,0,1,50,186.61Z"/><path class="cls-5" d="M102.33,177.91s12.48-4.35,15.12-4.38,16.17,1.25,16.35,2.17-10.43.91-10.43.91,11,1,11.15,2.18-10.86.63-10.86.63,9.41.65,9.5,1.87-9.06.87-9.06.87,7.56.79,7.61,1.79-10.59.62-10.59.62-8.5,6-16.42,3S102.33,177.91,102.33,177.91Z"/><path class="cls-12" d="M85.21,173.53,57,169.47l-13.2-27L24.93,148.9,40,180.47a14,14,0,0,0,12.61,7.95H83.06Z"/><path class="cls-7" d="M30.51,115.9c-8.73,1.46-24.4,41.7-6.84,38.38,9.19-1.27,23-10.08,23-10.08Z"/><path class="cls-13" d="M46.8,144.31a.15.15,0,0,1-.14-.1l-9.5-23a.18.18,0,0,1,.33-.14l9.49,23a.17.17,0,0,1-.09.23A.14.14,0,0,1,46.8,144.31Z"/><path class="cls-13" d="M42.46,133.59a.17.17,0,0,1-.16-.18,53.6,53.6,0,0,0-.86-12.13.18.18,0,0,1,.14-.21.17.17,0,0,1,.21.14,53.76,53.76,0,0,1,.86,12.21.17.17,0,0,1-.18.17Z"/><path class="cls-13" d="M24.09,154.82a.24.24,0,0,1-.22-.14,67.47,67.47,0,0,1-6.15-18.45.24.24,0,0,1,.2-.29.25.25,0,0,1,.29.2,66.76,66.76,0,0,0,6.11,18.32.25.25,0,0,1-.11.33A.27.27,0,0,1,24.09,154.82Z"/><path class="cls-3" d="M338.63,341.46h-4.27V253.79a3.27,3.27,0,0,0-3.26-3.26H285.66a3.27,3.27,0,0,0-3.26,3.26v87.67h-4.27V253.79a7.54,7.54,0,0,1,7.53-7.53H331.1a7.54,7.54,0,0,1,7.53,7.53Z"/><path class="cls-4" d="M338.7,236.7H278.06a7,7,0,0,0,0,14H338.7a7,7,0,0,0,0-14Z"/><path class="cls-14" d="M299.44,216.67a12.35,12.35,0,0,0-16.72-5.09l-68.64,29-.64.34a9.14,9.14,0,0,0-4.82,8.53l4.23,82a6.62,6.62,0,0,0,13.22-.18l1.84-75.59,65.65-22,.79-.39A12.36,12.36,0,0,0,299.44,216.67Z"/><path class="cls-14" d="M325.08,227.66l-68.43,33.17,3.16-14.27,43,60.72a6.91,6.91,0,0,1-11,8.38l-47.2-57.5a9.27,9.27,0,0,1,1.28-13,8.75,8.75,0,0,1,1.27-.88l.61-.34,66.16-37.51a12,12,0,0,1,11.85,20.91Z"/><path class="cls-7" d="M229.62,342.05l-45.63,0a9.21,9.21,0,0,1,.3-2.7c.68-2.69,2.9-6.49,9.86-6.79a52.39,52.39,0,0,0,18.16-3.85c6.75,1.05,15.23,0,15.23,0A20.92,20.92,0,0,1,229.62,342.05Z"/><path class="cls-12" d="M202.26,334.36a8.2,8.2,0,0,0-1.7-3,1.26,1.26,0,0,0-.68-.42,1.39,1.39,0,0,0-.88.1c-.48.24-.78.83-.41,1.24a7.65,7.65,0,0,1,1,1.47,6.08,6.08,0,0,1,.44,1.06,1.22,1.22,0,0,0,1.41.63C202.06,335.33,202.42,334.86,202.26,334.36Z"/><path class="cls-12" d="M206.27,333.69a8.2,8.2,0,0,0-1.7-3,1.26,1.26,0,0,0-.68-.42,1.39,1.39,0,0,0-.88.1c-.48.25-.78.83-.41,1.24a7.65,7.65,0,0,1,1,1.47,6.08,6.08,0,0,1,.44,1.06,1.22,1.22,0,0,0,1.41.63C206.07,334.66,206.43,334.19,206.27,333.69Z"/><path class="cls-12" d="M210.28,333a8.35,8.35,0,0,0-1.7-3,1.26,1.26,0,0,0-.68-.42,1.46,1.46,0,0,0-.88.1c-.49.25-.78.83-.41,1.24a7.65,7.65,0,0,1,1,1.47,6.08,6.08,0,0,1,.44,1.06,1.21,1.21,0,0,0,1.4.63C210.08,334,210.44,333.52,210.28,333Z"/><path class="cls-12" d="M184,342.09l45.63,0a17.13,17.13,0,0,0,.3-2.7l-45.63,0A9.21,9.21,0,0,0,184,342.09Z"/><path class="cls-7" d="M312.49,312.4l-34.18,30.22a9.17,9.17,0,0,1-1.57-2.22c-1.27-2.47-2.11-6.78,2.9-11.61a52.45,52.45,0,0,0,11.08-14.91c5.75-3.67,11.41-10.09,11.41-10.09A20.92,20.92,0,0,1,312.49,312.4Z"/><path class="cls-12" d="M286.89,324.74a8.09,8.09,0,0,0-3.23-1.09,1.18,1.18,0,0,0-.79.13,1.5,1.5,0,0,0-.6.65c-.19.51,0,1.14.52,1.21a7.83,7.83,0,0,1,1.75.41,8.21,8.21,0,0,1,1,.51,1.21,1.21,0,0,0,1.47-.45A.93.93,0,0,0,286.89,324.74Z"/><path class="cls-12" d="M289.46,321.59a8.36,8.36,0,0,0-3.24-1.1,1.25,1.25,0,0,0-.79.14,1.48,1.48,0,0,0-.59.65c-.2.51,0,1.14.51,1.2a8.28,8.28,0,0,1,1.75.42,7.53,7.53,0,0,1,1,.5,1.2,1.2,0,0,0,1.47-.45A.92.92,0,0,0,289.46,321.59Z"/><path class="cls-12" d="M292,318.43a8.19,8.19,0,0,0-3.24-1.09,1.22,1.22,0,0,0-.78.14,1.35,1.35,0,0,0-.6.65.82.82,0,0,0,.52,1.2,6.45,6.45,0,0,1,2.77.92,1.21,1.21,0,0,0,1.47-.45A.92.92,0,0,0,292,318.43Z"/><path class="cls-12" d="M278.31,342.62l34.18-30.22a16.54,16.54,0,0,0-1.56-2.22L276.74,340.4A9.17,9.17,0,0,0,278.31,342.62Z"/><polygon class="cls-6" points="210.04 316.64 210.32 323.36 227.45 323.36 227.99 316.64 210.04 316.64"/><path class="cls-13" d="M283.2,200.71l.17,7.06s-52.3,14.49-70.15,26.12c-4.93,3.21-8.56,8-8.2,13.91l4.21,69.76h19.9l4.61-61.31L310.2,225.5l1.54-26.72Z"/><polygon class="cls-6" points="281.05 303.79 285.42 309.65 299.65 298.63 294.62 291.6 281.05 303.79"/><path class="cls-13" d="M335.89,200.9l.29,13a26.89,26.89,0,0,1-17.69,25.87L273.5,257s9.33,9.82,24.85,35.26L279.9,305.84l-34.48-40.66A18.81,18.81,0,0,1,250,237l51.16-26.83.21-10.19Z"/><path class="cls-3" d="M293,214.39c-2.15-2.64-1.58-4.21-1.57-4.22a.14.14,0,0,0-.07-.17.13.13,0,0,0-.16.07c0,.07-.59,1.59,1.35,4.15a6.31,6.31,0,0,1-3.59-3.4.11.11,0,0,0-.16-.07.14.14,0,0,0-.07.16,6.55,6.55,0,0,0,3.85,3.59l-42,22c-4.33,2.27-10,6.41-9.67,16.11a.12.12,0,0,0,.13.12h0a.12.12,0,0,0,.12-.13c-.36-9.56,5.27-13.64,9.53-15.88l42.3-22.18a.11.11,0,0,0,.06-.09A.12.12,0,0,0,293,214.39Z"/><path class="cls-14" d="M245.69,178.65,200,152.5a5.05,5.05,0,0,1,4.55-9l48.15,21.17A7.84,7.84,0,1,1,246.43,179C246.18,178.91,245.93,178.78,245.69,178.65Z"/><path class="cls-14" d="M250.09,178.67a7.83,7.83,0,0,1-6.28-12.51L274,125.63A7.83,7.83,0,1,1,286.59,135l-30.22,40.53A7.83,7.83,0,0,1,250.09,178.67Z"/><path class="cls-14" d="M208.27,148.66s-2.52-13-3.83-15.27-9.23-13.34-10.12-13,4.47,9.47,4.47,9.47-6.42-9-7.5-8.53,4.93,9.7,4.93,9.7-5.3-7.8-6.4-7.26,3.81,8.26,3.81,8.26-4.49-6.14-5.38-5.68,4.8,9.47,4.8,9.47-.88,10.35,5.65,15.71S208.27,148.66,208.27,148.66Z"/><path class="cls-15" d="M198.09,145a.17.17,0,0,1-.1-.12c-.42-1.87.27-6.15,2.63-7.69-.36-1.24-2.21-7.81-1.3-8.74a.46.46,0,0,1,.49-.13c1.69.43,4.81,8.29,5.16,9.19a.18.18,0,0,1-.1.23.17.17,0,0,1-.23-.1c-.94-2.38-3.65-8.63-4.92-9a.14.14,0,0,0-.15,0c-.6.63.56,5.57,1.43,8.53a.19.19,0,0,1-.08.21c-2.28,1.36-3,5.6-2.58,7.37a.18.18,0,0,1-.14.21A.2.2,0,0,1,198.09,145Z"/><path class="cls-8" d="M277.86,147.33c2,17.69,6.25,34.6,3.76,57.5,7.74,7.61,36.51,7,55.6,4,.11-31.25,0-61-3-77.44l-11.43-13.91-23.85-4.93-17.57,6.55Z"/><path class="cls-14" d="M303,99.2l4.56,15.47s-8.76,5.1-15.6,2.76L290,107Z"/><path class="cls-16" d="M291.47,115c8-2.34,9.93-7.35,9.93-7.35l-10.74,3Z"/><path class="cls-14" d="M309,114.59l-10.72-2-9.41,3.75C291.89,124.85,306.32,122.1,309,114.59Z"/><path class="cls-3" d="M310,75.76c-1.12-2.86-3.52-5-6-6.77a34.9,34.9,0,0,0-13-5.71,10,10,0,0,0-6,.26c-1.87.84-3.28,3-2.66,4.95a5.2,5.2,0,0,0-3.65,9.19,14.15,14.15,0,0,0,2.28,11.87c6,7.7,16.52,10.91,26.26,11.19.29.38.68.84,1,1.22a23.63,23.63,0,0,0,6.57-11.23A1.7,1.7,0,0,0,316,89.62a10,10,0,0,0,.27-8.22A10.52,10.52,0,0,0,310,75.76Z"/><path class="cls-14" d="M289.48,73.31c15.52-.83,23.07,7.14,20.76,21.41-1.84,11.37-9,18-19.8,17.29-10-.67-11-8.91-10.54-17.45C280.56,82.39,280.27,73.8,289.48,73.31Z"/><path class="cls-3" d="M311,96.77a40.32,40.32,0,0,0-.24-11.71,15.7,15.7,0,0,0-2.86-7.39C306,75.3,303,74,300.13,73.08c-3.13-1-9.32-2.11-12.53-1.51-4.91.92-6.11,5.27-7.83,10a19.21,19.21,0,0,0,11.5-1.5,1.27,1.27,0,0,0,.61,1.31,3.42,3.42,0,0,0,1.48.42,21.86,21.86,0,0,0,7.93-.6,6.16,6.16,0,0,0,.2,4.64,6.1,6.1,0,0,0,3.4,3.16,7.24,7.24,0,0,0,5.81,8"/><path class="cls-10" d="M280.7,88.72a23.5,23.5,0,0,1,6.24.21C285.77,87,282.27,87.67,280.7,88.72Z"/><path class="cls-10" d="M299.34,90a23.68,23.68,0,0,0-6.21-.67C294.55,87.66,297.93,88.77,299.34,90Z"/><path class="cls-10" d="M285.32,94.74A1.28,1.28,0,0,1,284.1,96a1.26,1.26,0,0,1-1-1.46,1.15,1.15,0,1,1,2.24.16Z"/><path class="cls-11" d="M284.23,94.16a.4.4,0,0,1-.38.42.4.4,0,0,1-.32-.47.42.42,0,0,1,.38-.42A.4.4,0,0,1,284.23,94.16Z"/><path class="cls-10" d="M296.16,95.51a1.15,1.15,0,1,1-2.24-.16,1.15,1.15,0,1,1,2.24.16Z"/><path class="cls-11" d="M295.08,94.92c0,.25-.19.44-.39.42s-.33-.22-.32-.47a.42.42,0,0,1,.39-.42A.42.42,0,0,1,295.08,94.92Z"/><path class="cls-16" d="M288.1,100.05H288a1.87,1.87,0,0,1-1.29-.89,1.29,1.29,0,0,1,0-1.12,8.93,8.93,0,0,1,.66-1A8.41,8.41,0,0,0,288,96a.36.36,0,0,1,.65.29A7.62,7.62,0,0,1,288,97.4a7.87,7.87,0,0,0-.59.92.58.58,0,0,0,0,.52,1.21,1.21,0,0,0,.82.51.36.36,0,0,1,.26.43A.36.36,0,0,1,288.1,100.05Z"/><path class="cls-11" d="M285.25,101.64a39.33,39.33,0,0,0,7.73.27C291.39,104.88,285.94,104,285.25,101.64Z"/><path class="cls-14" d="M307.53,96.67c-1.07,2.19-.57,4.41,1,5.19s3.74-.37,4.81-2.56.65-4.59-.94-5.37S308.6,94.48,307.53,96.67Z"/><path class="cls-16" d="M308.92,99.69a.36.36,0,0,1-.09-.7,1.13,1.13,0,0,0,.85-.87,1.41,1.41,0,0,0-.09-.55,2.12,2.12,0,0,1-.13-.69,1.85,1.85,0,0,1,2.13-1.76,1.67,1.67,0,0,1,1.18,1.82.36.36,0,0,1-.38.33.37.37,0,0,1-.33-.38,1,1,0,0,0-.63-1.07,1.1,1.1,0,0,0-.91.31,1,1,0,0,0-.35.75,1.79,1.79,0,0,0,.1.48,2.09,2.09,0,0,1,.12.85A1.85,1.85,0,0,1,309,99.68Z"/><path class="cls-8" d="M281.41,119l-1.18.46a22.29,22.29,0,0,0-9.7,7.48L254.4,148.9s5.54,11.34,16.19,12.42l11-11.27Z"/><path class="cls-4" d="M280,160.65a.17.17,0,0,1-.17-.15c-1.92-10.61-3.51-20.84-1.87-29.43a.18.18,0,1,1,.35.06c-1.63,8.54,0,18.73,1.87,29.31a.17.17,0,0,1-.15.2Z"/><path class="cls-4" d="M278.14,149a.21.21,0,0,1-.15-.08,45,45,0,0,1-4.88-9.45.18.18,0,0,1,.12-.23.17.17,0,0,1,.22.12,43.84,43.84,0,0,0,4.84,9.36.19.19,0,0,1-.05.25A.17.17,0,0,1,278.14,149Z"/><path class="cls-14" d="M313,195.1a7.73,7.73,0,0,1-1.71-.19,7.84,7.84,0,0,1-5.94-9.35l11.48-51.38a7.83,7.83,0,0,1,15.28,3.42L320.63,189A7.84,7.84,0,0,1,313,195.1Z"/><path class="cls-14" d="M308.35,194.1,263.42,166a5.05,5.05,0,0,1,4.89-8.83l47.63,23.22a7.84,7.84,0,0,1-6.87,14.1A7.06,7.06,0,0,1,308.35,194.1Z"/><path class="cls-14" d="M270.41,159.08s-8.2-10.36-10.42-11.8-14.33-7.59-15-6.92,8.33,6.36,8.33,6.36-9.83-5-10.59-4.13,8.84,6.35,8.84,6.35-8.3-4.49-9-3.51,7.18,5.59,7.18,5.59-6.81-3.39-7.39-2.57,8.62,6.2,8.62,6.2,4,9.59,12.24,11.36S270.41,159.08,270.41,159.08Z"/><path class="cls-15" d="M263.75,166.2h0a20.11,20.11,0,0,1-12.32-10.37.13.13,0,0,1,.06-.17.13.13,0,0,1,.17.06A19.83,19.83,0,0,0,263.79,166a.12.12,0,0,1,.08.15A.11.11,0,0,1,263.75,166.2Z"/><path class="cls-8" d="M322.77,117.45c15.32,3.77,11.72,20.11,9.52,32.11a122.54,122.54,0,0,1-4.41,18c-8.09-.51-20.85-6.95-20.85-6.95l5-34.5Z"/><path class="cls-4" d="M309.13,159.8h-.05a.17.17,0,0,1-.14-.2l4.66-26.11a.17.17,0,0,1,.2-.15.19.19,0,0,1,.15.21l-4.66,26.11A.18.18,0,0,1,309.13,159.8Z"/><path class="cls-4" d="M328.07,168.3H328a.18.18,0,0,1-.13-.21l5.66-25.91a.17.17,0,0,1,.21-.14.18.18,0,0,1,.14.21l-5.66,25.91A.18.18,0,0,1,328.07,168.3Z"/><polygon class="cls-3" points="83.45 342.25 98.38 217.01 103.47 217.01 86.66 342.25 83.45 342.25"/><polygon class="cls-3" points="268.57 342.25 253.64 217.01 248.55 217.01 265.36 342.25 268.57 342.25"/><polygon class="cls-6" points="270.29 214.75 81.73 214.75 112.35 203.76 239.67 203.76 270.29 214.75"/><rect class="cls-13" x="81.73" y="214.75" width="188.55" height="4.51"/><rect class="cls-3" x="163.32" y="184.78" width="25.38" height="3.38" transform="translate(16.4 -14.22) rotate(4.85)"/><rect class="cls-4" x="159.57" y="186.47" width="32.87" height="16.18" rx="2.05"/><circle class="cls-11" cx="184.02" cy="194.78" r="5.91"/><polyline class="cls-17" points="184.01 190.01 184.01 194.78 186.4 191.87"/><path class="cls-11" d="M173.91,194.33a5.91,5.91,0,1,1-5.91-5.91A5.9,5.9,0,0,1,173.91,194.33Z"/><polyline class="cls-17" points="171.15 190.69 168 194.33 164.96 191.96"/><path class="cls-3" d="M240.23,200.54h.33V200h-1a1.66,1.66,0,0,0,1.06-1.55,1.68,1.68,0,1,0-3.35,0,1.66,1.66,0,0,0,1.06,1.55h-1v.51h.33a12.87,12.87,0,0,1-1.22,5.23H236V207h6v-1.26h-.48A12.87,12.87,0,0,1,240.23,200.54Z"/><path class="cls-3" d="M235.66,207.18h.26v-.41h-.78a1.32,1.32,0,1,0-1,0h-.78v.41h.26a9.94,9.94,0,0,1-1,4.13h-.37v1H237v-1h-.37A9.94,9.94,0,0,1,235.66,207.18Z"/><path class="cls-3" d="M224.86,196.78h.91v-3.24h-.6v.91h-.72v-.91h-.83v.91h-.72v-.91h-.83v.91h-.73v-.91h-.6v3.24h.91a37.66,37.66,0,0,1-1,6h-.51v1.32h6.24v-1.32h-.52A37.66,37.66,0,0,1,224.86,196.78Z"/><path class="cls-3" d="M230.51,204.55l.78-1.11-1.63-4h2.13v-1.3l-3.2-.86v-.83s-3.76,3.19-2.21,6.66l.74,1.57a2.78,2.78,0,0,0-1.15,2.12h-.78v1.31h7.42v-1.31h-.79A2.76,2.76,0,0,0,230.51,204.55Z"/><path class="cls-3" d="M244,208.58c1.29-2-1-3.77-1-5.13h.88v-.6H243a2,2,0,0,0-.5-2.39,1,1,0,0,0,.52-.85,1,1,0,1,0-1.45.85,2,2,0,0,0-.5,2.39h-.9v.6h.87c0,1.36-2.28,3.16-1,5.13,0,0-.46.33-.48,1.42h-.84v1.17h6.61V210h-.84C244.5,208.91,244,208.58,244,208.58Z"/><path class="cls-3" d="M235.11,202.73c1.3-2-1-3.78-1-5.14H235V197h-.9a2,2,0,0,0-.5-2.4,1,1,0,0,0,.52-.85,1,1,0,1,0-2,0,1,1,0,0,0,.52.85,2,2,0,0,0-.5,2.4h-.91v.59h.87c0,1.36-2.27,3.17-1,5.14,0,0-.46.32-.48,1.42h-.85v1.17h6.62v-1.17h-.84C235.57,203.05,235.11,202.73,235.11,202.73Z"/><path class="cls-18" d="M116.16,202.43h.26V202h-.79a1.33,1.33,0,1,0-1,0h-.78v.4h.26a10.11,10.11,0,0,1-1,4.13h-.38v1h4.71v-1h-.38A10.16,10.16,0,0,1,116.16,202.43Z"/><path class="cls-18" d="M112.37,203.13l.77-1.12-1.62-4h2.13v-1.3l-3.2-.85V195s-3.77,3.19-2.21,6.66l.74,1.58a2.76,2.76,0,0,0-1.15,2.11h-.78v1.32h7.42v-1.32h-.79A2.76,2.76,0,0,0,112.37,203.13Z"/><path class="cls-18" d="M126.77,205.34c1.29-2-1-3.78-1-5.14h.88v-.6h-.91a2,2,0,0,0-.5-2.39,1,1,0,0,0,.52-.85,1,1,0,1,0-1.45.85,2,2,0,0,0-.5,2.39h-.9v.6h.87c0,1.36-2.28,3.17-1,5.14,0,0-.46.32-.49,1.41h-.84v1.18h6.61v-1.18h-.84C127.23,205.66,126.77,205.34,126.77,205.34Z"/><path class="cls-14" d="M113.14,206.07h.26v-.4h-.78a1.29,1.29,0,0,0,.83-1.21,1.31,1.31,0,1,0-1.79,1.21h-.77v.4h.25a10.05,10.05,0,0,1-1,4.09h-.38v1h4.66v-1h-.38A10.05,10.05,0,0,1,113.14,206.07Z"/><path class="cls-14" d="M107.28,202.67h.91v-3.24h-.6v.91h-.72v-.91H106v.91h-.72v-.91h-.83v.91h-.72v-.91h-.61v3.24h.91a37.66,37.66,0,0,1-1,6h-.51V210h6.24v-1.32h-.51A36.54,36.54,0,0,1,107.28,202.67Z"/><path class="cls-14" d="M122.58,208.46c1.29-2-1-3.78-1-5.14h.87v-.59h-.91a2,2,0,0,0-.5-2.4,1,1,0,0,0,.52-.85,1,1,0,1,0-1.44.85,2,2,0,0,0-.51,2.4h-.9v.59h.87c0,1.36-2.27,3.17-1,5.14,0,0-.46.32-.49,1.41h-.84v1.18h6.62v-1.18h-.84C123,208.78,122.58,208.46,122.58,208.46Z"/><polygon class="cls-1" points="148.54 201.01 139.03 201.03 140.78 200.47 149.93 200.45 148.54 201.01"/><polygon class="cls-13" points="158.12 200.98 148.54 201.01 149.93 200.45 159.15 200.43 158.12 200.98"/><polygon class="cls-1" points="167.78 200.96 158.12 200.98 159.15 200.43 168.43 200.4 167.78 200.96"/><polygon class="cls-13" points="177.51 200.94 167.78 200.96 168.43 200.4 177.79 200.38 177.51 200.94"/><polygon class="cls-1" points="187.33 200.92 177.51 200.94 177.79 200.38 187.22 200.36 187.33 200.92"/><polygon class="cls-13" points="197.22 200.89 187.33 200.92 187.22 200.36 196.72 200.33 197.22 200.89"/><polygon class="cls-1" points="207.19 200.87 197.22 200.89 196.72 200.33 206.29 200.31 207.19 200.87"/><polygon class="cls-13" points="217.24 200.85 207.19 200.87 206.29 200.31 215.94 200.28 217.24 200.85"/><polygon class="cls-1" points="208.16 201.48 218.64 201.46 217.24 200.85 207.19 200.87 208.16 201.48"/><polygon class="cls-13" points="197.76 201.5 208.16 201.48 207.19 200.87 197.22 200.89 197.76 201.5"/><polygon class="cls-1" points="187.44 201.53 197.76 201.5 197.22 200.89 187.33 200.92 187.44 201.53"/><polygon class="cls-13" points="177.22 201.55 187.44 201.53 187.33 200.92 177.51 200.94 177.22 201.55"/><polygon class="cls-1" points="167.07 201.57 177.22 201.55 177.51 200.94 167.78 200.96 167.07 201.57"/><polygon class="cls-13" points="157.01 201.59 167.07 201.57 167.78 200.96 158.12 200.98 157.01 201.59"/><polygon class="cls-1" points="147.03 201.61 157.01 201.59 158.12 200.98 148.54 201.01 147.03 201.61"/><polygon class="cls-13" points="137.13 201.63 147.03 201.61 148.54 201.01 139.03 201.03 137.13 201.63"/><polygon class="cls-1" points="145.39 202.26 135.07 202.28 137.13 201.63 147.03 201.61 145.39 202.26"/><polygon class="cls-13" points="155.8 202.25 145.39 202.26 147.03 201.61 157.01 201.59 155.8 202.25"/><polygon class="cls-1" points="166.3 202.23 155.8 202.25 157.01 201.59 167.07 201.57 166.3 202.23"/><polygon class="cls-13" points="176.89 202.21 166.3 202.23 167.07 201.57 177.22 201.55 176.89 202.21"/><polygon class="cls-1" points="187.57 202.19 176.89 202.21 177.22 201.55 187.44 201.53 187.57 202.19"/><polygon class="cls-13" points="198.34 202.17 187.57 202.19 187.44 201.53 197.76 201.5 198.34 202.17"/><polygon class="cls-1" points="209.21 202.15 198.34 202.17 197.76 201.5 208.16 201.48 209.21 202.15"/><polygon class="cls-13" points="220.18 202.13 209.21 202.15 208.16 201.48 218.64 201.46 220.18 202.13"/><polygon class="cls-1" points="210.37 202.88 221.85 202.86 220.18 202.13 209.21 202.15 210.37 202.88"/><polygon class="cls-13" points="198.99 202.9 210.37 202.88 209.21 202.15 198.34 202.17 198.99 202.9"/><polygon class="cls-1" points="187.71 202.91 198.99 202.9 198.34 202.17 187.57 202.19 187.71 202.91"/><polygon class="cls-13" points="176.53 202.93 187.71 202.91 187.57 202.19 176.89 202.21 176.53 202.93"/><polygon class="cls-1" points="165.46 202.95 176.53 202.93 176.89 202.21 166.3 202.23 165.46 202.95"/><polygon class="cls-13" points="154.48 202.96 165.46 202.95 166.3 202.23 155.8 202.25 154.48 202.96"/><polygon class="cls-1" points="143.6 202.98 154.48 202.96 155.8 202.25 145.39 202.26 143.6 202.98"/><polygon class="cls-13" points="132.82 203 143.6 202.98 145.39 202.26 135.07 202.28 132.82 203"/><polygon class="cls-1" points="141.64 203.76 130.36 203.78 132.82 203 143.6 202.98 141.64 203.76"/><polygon class="cls-13" points="153.04 203.75 141.64 203.76 143.6 202.98 154.48 202.96 153.04 203.75"/><polygon class="cls-1" points="164.53 203.73 153.04 203.75 154.48 202.96 165.46 202.95 164.53 203.73"/><polygon class="cls-13" points="176.14 203.72 164.53 203.73 165.46 202.95 176.53 202.93 176.14 203.72"/><polygon class="cls-1" points="187.86 203.71 176.14 203.72 176.53 202.93 187.71 202.91 187.86 203.71"/><polygon class="cls-13" points="199.69 203.69 187.86 203.71 187.71 202.91 198.99 202.9 199.69 203.69"/><polygon class="cls-1" points="211.64 203.68 199.69 203.69 198.99 202.9 210.37 202.88 211.64 203.68"/><polygon class="cls-13" points="223.7 203.66 211.64 203.68 210.37 202.88 221.85 202.86 223.7 203.66"/><polygon class="cls-1" points="213.04 204.56 225.73 204.55 223.7 203.66 211.64 203.68 213.04 204.56"/><polygon class="cls-13" points="200.47 204.57 213.04 204.56 211.64 203.68 199.69 203.69 200.47 204.57"/><polygon class="cls-1" points="188.03 204.58 200.47 204.57 199.69 203.69 187.86 203.71 188.03 204.58"/><polygon class="cls-13" points="175.71 204.59 188.03 204.58 187.86 203.71 176.14 203.72 175.71 204.59"/><polygon class="cls-1" points="163.52 204.6 175.71 204.59 176.14 203.72 164.53 203.73 163.52 204.6"/><polygon class="cls-13" points="151.44 204.61 163.52 204.6 164.53 203.73 153.04 203.75 151.44 204.61"/><polygon class="cls-1" points="139.49 204.62 151.44 204.61 153.04 203.75 141.64 203.76 139.49 204.62"/><polygon class="cls-13" points="127.64 204.63 139.49 204.62 141.64 203.76 130.36 203.78 127.64 204.63"/><polygon class="cls-1" points="137.1 205.58 124.65 205.58 127.64 204.63 139.49 204.62 137.1 205.58"/><polygon class="cls-13" points="149.68 205.57 137.1 205.58 139.49 204.62 151.44 204.61 149.68 205.57"/><polygon class="cls-1" points="162.39 205.56 149.68 205.57 151.44 204.61 163.52 204.6 162.39 205.56"/><polygon class="cls-13" points="175.24 205.56 162.39 205.56 163.52 204.6 175.71 204.59 175.24 205.56"/><polygon class="cls-1" points="188.22 205.55 175.24 205.56 175.71 204.59 188.03 204.58 188.22 205.55"/><polygon class="cls-13" points="201.34 205.55 188.22 205.55 188.03 204.58 200.47 204.57 201.34 205.55"/><polygon class="cls-1" points="214.59 205.54 201.34 205.55 200.47 204.57 213.04 204.56 214.59 205.54"/><polygon class="cls-13" points="227.99 205.54 214.59 205.54 213.04 204.56 225.73 204.55 227.99 205.54"/><polygon class="cls-1" points="216.33 206.64 230.51 206.64 227.99 205.54 214.59 205.54 216.33 206.64"/><polygon class="cls-13" points="202.3 206.64 216.33 206.64 214.59 205.54 201.34 205.55 202.3 206.64"/><polygon class="cls-1" points="188.43 206.64 202.3 206.64 201.34 205.55 188.22 205.55 188.43 206.64"/><polygon class="cls-13" points="174.71 206.64 188.43 206.64 188.22 205.55 175.24 205.56 174.71 206.64"/><polygon class="cls-1" points="161.14 206.64 174.71 206.64 175.24 205.56 162.39 205.56 161.14 206.64"/><polygon class="cls-13" points="147.72 206.64 161.14 206.64 162.39 205.56 149.68 205.57 147.72 206.64"/><polygon class="cls-1" points="134.45 206.64 147.72 206.64 149.68 205.57 137.1 205.58 134.45 206.64"/><polygon class="cls-13" points="121.32 206.64 134.45 206.64 137.1 205.58 124.65 205.58 121.32 206.64"/><rect class="cls-3" x="121.32" y="206.64" width="109.2" height="4.47"/><path class="cls-3" d="M144.94,199.5h.35V199h-1a1.76,1.76,0,1,0-1.29,0h-1v.53h.35A13.27,13.27,0,0,1,141,205h-.5v1.32h6.24V205h-.5A13.32,13.32,0,0,1,144.94,199.5Z"/><path class="cls-3" d="M147.49,198.48h.33V198h-1a1.71,1.71,0,1,0-1.26,0h-1v.52h.34a13,13,0,0,1-1.25,5.34h-.49v1.28h6.08v-1.28h-.49A13.09,13.09,0,0,1,147.49,198.48Z"/><path class="cls-3" d="M157.85,199h.31v-.48h-.94a1.6,1.6,0,1,0-1.18,0h-.94V199h.31a12,12,0,0,1-1.17,5h-.45v1.2h5.68V204H159A12.26,12.26,0,0,1,157.85,199Z"/><path class="cls-3" d="M153.05,196.7h.28v-.43h-.84a1.41,1.41,0,1,0-1,0h-.84v.43h.28a10.75,10.75,0,0,1-1,4.41h-.4v1.06h5v-1.06h-.4A10.75,10.75,0,0,1,153.05,196.7Z"/><path class="cls-3" d="M164.76,195.8H165v-.39h-.77a1.33,1.33,0,0,0,.83-1.22,1.31,1.31,0,1,0-1.79,1.22h-.78v.39h.26a10,10,0,0,1-1,4.09h-.37v1h4.65v-1h-.37A10,10,0,0,1,164.76,195.8Z"/><path class="cls-3" d="M171.13,196.45h.31V196h-.94a1.61,1.61,0,1,0-1.17,0h-1v.49h.31a12.24,12.24,0,0,1-1.16,5h-.46v1.2h5.68v-1.2h-.45A12,12,0,0,1,171.13,196.45Z"/><path class="cls-3" d="M132.29,199h.91v-3.24h-.6v.92h-.73v-.92H131v.92h-.72v-.92h-.83v.92h-.72v-.92h-.6V199h.91a37.79,37.79,0,0,1-1,6h-.52v1.31h6.24V205h-.51A37.79,37.79,0,0,1,132.29,199Z"/><path class="cls-3" d="M167.91,202.92l.78-1.12-1.63-4h2.13v-1.3l-3.2-.85v-.84s-3.76,3.19-2.21,6.66l.75,1.58a2.71,2.71,0,0,0-1.15,2.11h-.79v1.32H170v-1.32h-.78A2.76,2.76,0,0,0,167.91,202.92Z"/><path class="cls-3" d="M140.15,200.81a29.55,29.55,0,0,1-1.27-9.06H140v-.44l-1.83,0,.8-2.16H137.7v-.6h.84v-.63h-.84v-.76h-.63v.76h-.84v.63h.84v.6h-1.29l.81,2.16-1.83,0v.44h1.13a29.55,29.55,0,0,1-1.27,9.06l.87,2.06h-1.38V204h6.56v-1.17h-1.39Z"/><path class="cls-3" d="M161.9,200.58l.95-2.31a17.82,17.82,0,0,1-1.54-6.29h1v-.4h-1c0-.74,1.29-1.27,1.29-1.27v-.37h-4.32v.37s1.34.53,1.29,1.27h-1v.4h1a17.73,17.73,0,0,1-1.55,6.29l.95,2.31h-1.22v1h5.47v-1Z"/><path class="cls-18" d="M205.36,198.12H205v-.52h1a1.71,1.71,0,1,1,1.26,0h1v.52H208a13.09,13.09,0,0,0,1.24,5.34h.49v1.28h-6.08v-1.28h.49A13,13,0,0,0,205.36,198.12Z"/><path class="cls-18" d="M199.8,196.34h-.28v-.43h.84a1.42,1.42,0,1,1,1,0h.84v.43H202a10.75,10.75,0,0,0,1,4.41h.41v1.06h-5v-1.06h.4A10.7,10.7,0,0,0,199.8,196.34Z"/><path class="cls-18" d="M188.08,195.44h-.26V195h.78a1.3,1.3,0,0,1,.48-2.52,1.3,1.3,0,0,1,.48,2.52h.77v.4h-.25a10,10,0,0,0,.95,4.09h.38v1h-4.66v-1h.37A10,10,0,0,0,188.08,195.44Z"/><path class="cls-18" d="M181.71,196.08h-.31v-.48h.95a1.6,1.6,0,1,1,1.17,0h.94v.48h-.31a12.26,12.26,0,0,0,1.16,5h.46v1.2h-5.68v-1.2h.46A12.26,12.26,0,0,0,181.71,196.08Z"/><path class="cls-14" d="M220.56,198.62h-.91v-3.24h.6v.92H221v-.92h.83v.92h.72v-.92h.83v.92h.72v-.92h.6v3.24h-.91a37.44,37.44,0,0,0,1,6h.51V206H219v-1.32h.51A37.44,37.44,0,0,0,220.56,198.62Z"/><path class="cls-14" d="M184.93,202.55l-.78-1.11,1.63-4h-2.13v-1.3l3.2-.85v-.84s3.76,3.19,2.21,6.66l-.74,1.58a2.74,2.74,0,0,1,1.15,2.11h.78v1.32h-7.42v-1.32h.79A2.76,2.76,0,0,1,184.93,202.55Z"/><path class="cls-18" d="M212.69,200.45a29.55,29.55,0,0,0,1.27-9.06h-1.13V191l1.83,0-.81-2.16h1.29v-.6h-.84v-.63h.84v-.76h.63v.76h.84v.63h-.84v.6h1.29l-.8,2.16,1.83,0v.44H217a29.55,29.55,0,0,0,1.27,9.06l-.87,2.06h1.39v1.16h-6.56v-1.16h1.38Z"/><path class="cls-18" d="M190.94,200.22l-.95-2.31a17.73,17.73,0,0,0,1.55-6.29h-1v-.4h1c0-.74-1.29-1.27-1.29-1.27v-.37h4.32V190s-1.34.53-1.29,1.27h1v.4h-1a17.73,17.73,0,0,0,1.55,6.29l-.95,2.31h1.23v1h-5.48v-1Z"/><path class="cls-14" d="M207.9,199.14h-.34v-.53h1a1.76,1.76,0,1,1,1.28,0h1v.53h-.34a13.37,13.37,0,0,0,1.28,5.48h.5v1.32h-6.24v-1.32h.5A13.37,13.37,0,0,0,207.9,199.14Z"/><path class="cls-14" d="M195,198.66h-.31v-.48h.95a1.6,1.6,0,1,1,1.17,0h.95v.48h-.32a12,12,0,0,0,1.17,5h.45v1.2h-5.68v-1.2h.46A12.26,12.26,0,0,0,195,198.66Z"/></g></g></svg>