<svg xmlns="http://www.w3.org/2000/svg" viewBox="0 0 1764.04 1732.88"><defs><style>.cls-1{fill:#d4e8ff;}.cls-2{fill:#dce6ff;}.cls-3{fill:#eef7ff;}.cls-4{fill:#cfddf9;}.cls-5{fill:#8a9edd;}.cls-6{fill:#eb5648;}.cls-7{fill:#fcb4b4;}.cls-8{fill:#3a72aa;}.cls-9{fill:#9358e0;}.cls-10{fill:#f99370;}.cls-11{fill:#1d3f70;}.cls-12{fill:#8e4a35;}.cls-13{fill:#c16256;}.cls-14{fill:#e57d61;}.cls-15{fill:#e8c0a6;}.cls-16{fill:#163356;}.cls-17{fill:#103663;}.cls-18{fill:#0f2e54;}.cls-19{fill:#23659b;}.cls-20{fill:#f4d4be;}</style></defs><g id="Layer_2" data-name="Layer 2"><g id="Ñëîé_1" data-name="Ñëîé 1"><g id="_3" data-name="3"><path class="cls-1" d="M311.32,1521.14S103.64,823.85,253.1,668.58c99.89-103.78,205.78,125,332.16,4,112.52-107.75-44.35-379.19,143.39-450.2,197.33-74.64,359,529.8,524.56,446.23C1454.13,567.17,1654,773,1481.27,1522.47Z"/><path class="cls-2" d="M148.82,1461.36c-3.48-13.86-6.93-28.22-10.25-42.69l8.18-3.15c3.29,14.37,6.72,28.64,10.18,42.41Zm1462.24-17.9-8.47-1.35c1.41-14.76,2.74-29.62,4-44.17l8.48,1.2C1613.81,1413.75,1612.47,1428.66,1611.06,1443.46Zm-1481.9-67.78c-3-14.3-5.88-28.86-8.61-43.28l8.29-2.63c2.7,14.33,5.58,28.81,8.55,43Zm1489.37-20.93-8.49-1c1.08-14.81,2.08-29.71,3-44.29l8.5.88C1620.61,1324.93,1619.61,1339.88,1618.53,1354.75ZM112.76,1288.87c-2.46-14.56-4.8-29.29-7-43.77l8.37-2.1c2.14,14.39,4.47,29,6.92,43.5ZM1624,1265.78l-8.51-.7c.72-14.8,1.35-29.74,1.88-44.38l8.51.51C1625.32,1235.92,1624.68,1250.91,1624,1265.78ZM99.69,1201.11c-1.9-14.74-3.66-29.6-5.22-44.18l8.44-1.53c1.56,14.48,3.3,29.25,5.19,43.89Zm1527.46-24.5-8.53-.32c.34-14.87.56-29.82.68-44.43l8.53.11C1627.71,1146.66,1627.48,1161.67,1627.15,1176.61Zm-1537-64c-1.27-14.89-2.38-29.87-3.29-44.51l8.5-.89c.9,14.53,2,29.4,3.26,44.18Zm1529.15-25.15c-.1-14.88-.32-29.82-.65-44.41l8.53-.33c.33,14.67.55,29.69.65,44.65Zm-1534.68-64c-.56-15-.94-30-1.11-44.7l8.53-.17c.17,14.56.54,29.47,1.1,44.33Zm1532.66-24.8c-.58-14.86-1.3-29.77-2.14-44.32l8.51-.82c.83,14.63,1.56,29.63,2.15,44.58ZM92.16,934.22,83.63,934c.24-15,.7-30.06,1.36-44.7l8.52.65C92.85,904.45,92.39,919.34,92.16,934.22Zm1520.06-24.14c-1.13-14.86-2.43-29.7-3.83-44.11l8.46-1.38c1.41,14.5,2.71,29.44,3.86,44.4Zm-1516-64.31-8.49-1.1c1.16-15,2.57-29.92,4.2-44.45l8.44,1.59C98.75,816.18,97.35,831,96.21,845.77ZM1603.62,822c-1.78-14.76-3.73-29.47-5.79-43.71l8.38-2.05c2.08,14.36,4,29.18,5.83,44.06ZM595.1,820.47c-11.84-2.42-20.42-9.42-32.29-21.5l5.39-8.58c10.4,10.56,17.91,16.9,27.81,19.08Zm29.59-26.32-7.59-5c3.9-9.92,7.35-23.68,10.25-40.9l8.33,2.36C632.58,769,629,783.24,624.69,794.15Zm-86.9-26.91c-6.8-9.82-14.06-21.11-22.2-34.54l6.7-6.84c8,13.23,15.17,24.35,21.84,34Zm-431.73-9.08-8.38-2.1c2.21-14.77,4.71-29.5,7.43-43.77l8.28,2.66C110.71,729,108.24,743.58,106.06,758.16Zm1484.88-23.27c-2.53-14.61-5.25-29.1-8.1-43.06l8.24-2.83c2.88,14.09,5.63,28.72,8.18,43.47ZM641.42,706.05,633,704.64c1.31-13.21,2.49-27.67,3.59-44.21l8.5,1C643.93,678.08,642.75,692.69,641.42,706.05Zm-146.71-9c-6.93-12.14-14.12-25-20.32-36.06l6.9-6.5c6.19,11.06,13.36,23.87,20.27,36Zm624.3-.91c-6.64,0-13.15-2.57-19.36-7.65l4.54-9.36c9.33,7.64,18.51,7.66,28.42,1.56l3.67,10C1130.42,694.31,1124.61,696.15,1119,696.15ZM122.46,672.31l-8.15-3.23c3.39-14.38,7.1-28.67,11-42.5l8,3.84C129.47,644.05,125.8,658.14,122.46,672.31Zm1041.7-10.54-6.27-7.51A370.38,370.38,0,0,0,1179.08,620l6.91,6.49A381.9,381.9,0,0,1,1164.16,661.77Zm-88.76-7.61a381.91,381.91,0,0,1-16.72-39.77l7.71-4.73a370.76,370.76,0,0,0,16.17,38.48Zm498-4.9c-3.44-14.33-7.1-28.45-10.9-41.94l8-3.79c3.85,13.66,7.56,27.94,11,42.45ZM454.18,624.93c-7.8-13.83-14.3-25.19-20.46-35.74l6.8-6.68c6.19,10.6,12.71,22,20.54,35.89Zm193.43-8.22L639.1,616c.65-13,1.31-27.53,2-44.54l8.52.6C648.92,589.1,648.26,603.7,647.61,616.71ZM146.14,589.47,138.33,585q7-20.62,15-40.47l7.57,5.12Q153,569.14,146.14,589.47Zm1059.39,0-7.13-6.08c6.06-11.95,12.32-24.62,18.66-37.41l7.17,6C1217.88,564.79,1211.61,577.46,1205.53,589.47ZM1045,573.11c-3.87-12.57-7.86-26.29-12.21-41.93l8-3.75c4.31,15.52,8.27,29.13,12.1,41.58Zm505-6.9c-4.59-13.86-9.44-27.32-14.42-40l7.6-5c5.07,12.9,10,26.58,14.65,40.65ZM412.67,554.13c-7.74-12.46-14.94-23.55-22-33.9l6.38-7.34c7.17,10.48,14.45,21.7,22.28,34.3ZM651.4,527.42l-8.51-.56c.57-14.78,1.14-29.56,1.75-44.61l8.52.58C652.55,497.87,652,512.65,651.4,527.42Zm591.53-12.82-7.12-6.11c7.13-14,13.5-26.08,19.48-37l7,6.42C1256.31,488.72,1250,500.72,1242.93,514.6ZM177.78,511.47l-7.19-6A352.49,352.49,0,0,1,191.13,469l6.51,7.14A343,343,0,0,0,177.78,511.47ZM1021.37,489c-3.91-14.86-7.75-29.74-11-42.33l8.09-3.5c3.24,12.57,7.07,27.42,11,42.26Zm-654.17-.77a333.72,333.72,0,0,0-25.47-28.91l5.2-8.76a343.59,343.59,0,0,1,26.22,29.74ZM1519,487.72c-6.11-12.94-12.52-25.17-19-36.37l6.8-6.67c6.69,11.48,13.25,24,19.51,37.26ZM221.56,446l-5.17-8.8c10.18-10.08,20.78-17.34,31.5-21.6l2.49,10.58C240.63,430.06,230.93,436.73,221.56,446Zm1061.25-3.39-6.63-7c8-12.8,15.58-23.82,23.17-33.68l6,7.82C1298,419.39,1290.62,430.12,1282.81,442.62Zm-627.74-4.35-8.52-.65c.74-16.08,1.48-30.69,2.25-44.65l8.5.79C656.53,407.68,655.8,422.24,655.07,438.27ZM313.54,436c-10.64-6.87-21.11-11.26-31.11-13l1.16-11c10.92,2,22.27,6.69,33.75,14.09ZM1478,418.07a228.38,228.38,0,0,0-25.26-28.62l5-8.95a237.5,237.5,0,0,1,26.34,29.85ZM999.51,404.29c-4.25-16.46-7.74-29.88-11-42.23l8.07-3.59c3.27,12.38,6.77,25.83,11,42.32Zm331.39-22.73-4.89-9.07c10.49-9.51,21.08-16.56,31.49-20.95l2.63,10.52C1350.53,366.11,1340.7,372.67,1330.9,381.56ZM1424,368a88.77,88.77,0,0,0-31.78-10.64l.79-11a95.52,95.52,0,0,1,34.3,11.45ZM660,349.34l-8.5-1c1.07-15.52,2.22-30.51,3.44-44.55l8.48,1.23C662.24,319,661.09,333.91,660,349.34ZM977.16,320c-4.12-14.93-8-28.57-11.87-41.7l8-3.95c3.89,13.21,7.8,26.92,11.94,41.91ZM667.79,260.93l-8.44-1.58C661.07,243.86,663,229,665,215.07l8.38,2.05C671.37,230.85,669.49,245.59,667.79,260.93Zm284.83-24c-4.58-14.3-9.2-28-13.73-40.66l7.74-4.65c4.57,12.81,9.24,26.63,13.86,41.06Zm-272-63.15-8.27-2.68c3-15.45,6.25-30,9.75-43.25l8.06,3.58C686.73,144.43,683.52,158.68,680.6,173.82ZM923.75,156.6c-5.61-13.7-11.34-26.57-17-38.24l7.2-5.91c5.81,11.9,11.65,25,17.36,39ZM703,90.94,695.3,86a238,238,0,0,1,18.46-38.68l6.7,6.84A226.85,226.85,0,0,0,703,90.94Zm184.22-8.46a257.5,257.5,0,0,0-22.85-31.91l5.72-8.2a268,268,0,0,1,23.8,33.21ZM744.25,25.53l-4.6-9.32A74.37,74.37,0,0,1,772.73,0L774,10.93A67,67,0,0,0,744.25,25.53Zm93.16,0A88.63,88.63,0,0,0,806.66,11.4L808.15.51a96.15,96.15,0,0,1,33.31,15.27Z"/><path class="cls-3" d="M1665.1,1293.08c-70.76-13.61-59.22,109.34-160.09,109.34-92.22,0-121.72-468.2-188.82-334.36-344,686.13-144.25-291.79-417.82-304.22-123.7-5.62-206.13,165.52-236.53,468.51-44.06,273.92-146.25-208.92-251.41-164-66.83,28.53-59.18,334.1-151.4,334.1-100.87,0-89.32-123-160.09-109.34C22.76,1307.73,0,1525.34,0,1525.34H1764S1741.29,1307.73,1665.1,1293.08Z"/><path class="cls-2" d="M1602.43,1426.16c-65.1-5.81-54.47,46.69-147.27,46.69-84.84,0-82.51-117.66-139.29-142.66-104.55-46-190.75,187-231.29,70-77-310.36-301.53-466-405.12,0-40.54,117-135.33-91.74-231.29-70-59.07,13.36-54.44,142.66-139.29,142.66-92.79,0-82.17-52.5-147.27-46.69-70.09,6.26-91,99.18-91,99.18H1693.46S1672.52,1432.42,1602.43,1426.16Z"/><path class="cls-4" d="M1.31,1525.34s-12.37,48.16,38.9,60.22c70.13,16.49,481.78,59.82,381.78,92.75-56.46,18.59,28.82,43.82,303.78,53.12s746.8-27.12,588.13-81,487.79-13,448.41-125.09Z"/></g><g id="_2" data-name="2"><path class="cls-5" d="M1529.17,794.18l-5.78-.06a145.84,145.84,0,0,0-1.51-18.75l5.72-.78A150.14,150.14,0,0,1,1529.17,794.18Z"/><path class="cls-5" d="M1513.19,737.65a205.79,205.79,0,0,0-15.37-35.5l5.06-2.79a212.47,212.47,0,0,1,15.8,36.5Zm-37.3-67.29a188.37,188.37,0,0,0-28-26.61l3.53-4.57a194.43,194.43,0,0,1,28.81,27.43Zm-60.67-47.16a237.6,237.6,0,0,0-35.93-14.46l1.72-5.51A243.78,243.78,0,0,1,1417.82,618Zm-73.7-23.44a361.83,361.83,0,0,0-38.67-4.39l.35-5.76a370.63,370.63,0,0,1,39.29,4.45Z"/><path class="cls-5" d="M1244.57,595.61l-.36-5.77c6.51-.41,13-.7,19.34-.86l.15,5.77C1257.45,594.91,1251,595.2,1244.57,595.61Z"/><path class="cls-5" d="M213.23,825.52A145.65,145.65,0,0,1,196,816l3.24-4.78a142.17,142.17,0,0,0,16.47,9.07Z"/><path class="cls-5" d="M286.43,845.48a203.54,203.54,0,0,1-37.51-6.65l1.52-5.57a199.19,199.19,0,0,0,36.46,6.47Zm38.13-.77-.71-5.73a178.79,178.79,0,0,0,36-8.3l1.87,5.46A184.7,184.7,0,0,1,324.56,844.71Zm71.84-24.37-2.88-5A225.53,225.53,0,0,0,424,794.18l3.66,4.47A232.16,232.16,0,0,1,396.4,820.34Z"/><path class="cls-5" d="M455.31,772.53l-4.23-3.93c4.23-4.55,8.46-9.38,12.57-14.35l4.45,3.68C463.92,763,459.62,767.9,455.31,772.53Z"/><path class="cls-5" d="M200.34,430.66l-5.4-2c.1-.28,2.65-7,8-17.82l5.18,2.57C202.9,423.9,200.37,430.59,200.34,430.66Z"/><path class="cls-5" d="M557,503.11l-5.75-.43c.62-8.45.94-17.23.94-26.09,0-3.38-.05-6.8-.14-10.18l5.77-.16c.09,3.43.14,6.91.14,10.34C558,485.6,557.68,494.52,557,503.11Zm-7.64-72.93a350.89,350.89,0,0,0-6.24-35.76l5.63-1.29a356.47,356.47,0,0,1,6.34,36.35ZM226,381.85l-4.86-3.12a332.21,332.21,0,0,1,21.61-29.92l4.48,3.65A323,323,0,0,0,226,381.85Zm306.92-22.16A215.49,215.49,0,0,0,517.8,327l5-2.88a221,221,0,0,1,15.54,33.63ZM271.75,325.82l-4-4.18a257.68,257.68,0,0,1,28.47-23.58l3.35,4.7A251.52,251.52,0,0,0,271.75,325.82Zm224.88-27.75a113.26,113.26,0,0,0-28-21.84l2.77-5.07a119.13,119.13,0,0,1,29.4,22.94ZM330.57,284.28,328,279.09a214.63,214.63,0,0,1,34.54-13.35l1.6,5.55A207.46,207.46,0,0,0,330.57,284.28Zm104.6-19.45a124.62,124.62,0,0,0-30-1c-1.9.15-3.81.33-5.69.54l-.63-5.74c1.94-.21,3.9-.4,5.85-.56a130.47,130.47,0,0,1,31.35,1.08Z"/><path class="cls-5" d="M546.86,558.74l-5.46-1.86a160.87,160.87,0,0,0,4.94-18.24l5.65,1.21A165.4,165.4,0,0,1,546.86,558.74Z"/><path class="cls-5" d="M547.51,1051.16a190.49,190.49,0,0,1-18.69-5.78l2.09-5.39a184.24,184.24,0,0,0,18.07,5.58Z"/><path class="cls-5" d="M618.34,1060.41a273.08,273.08,0,0,1-30.55-1.75l.64-5.74a261.84,261.84,0,0,0,40.09,1.5l.23,5.77C625.31,1060.33,621.81,1060.41,618.34,1060.41Zm51.13-5.45-1.26-5.63a199.09,199.09,0,0,0,37.93-12.5l2.36,5.26A203.38,203.38,0,0,1,669.47,1055ZM744,1021.41l-3.41-4.65A200.36,200.36,0,0,0,770.24,990l4.27,3.89A206,206,0,0,1,744,1021.41Z"/><path class="cls-5" d="M799.36,961.14l-4.88-3.1c3.34-5.24,6.58-10.77,9.64-16.42l5.08,2.75C806.07,950.14,802.76,955.78,799.36,961.14Z"/><path class="cls-5" d="M1008.18,873.94l-1.18-5.65a155,155,0,0,1,19.49-2.37l.4,5.76A155.9,155.9,0,0,0,1008.18,873.94Z"/><path class="cls-5" d="M1217.19,954.78a228.87,228.87,0,0,0-24.36-26.54l3.93-4.23a234.59,234.59,0,0,1,25,27.21Zm-52.72-48.69a208.62,208.62,0,0,0-31.75-17l2.27-5.31a214.8,214.8,0,0,1,32.63,17.42Zm-65.93-28.3a234.09,234.09,0,0,0-35.6-5.79l.49-5.75a239.44,239.44,0,0,1,36.48,5.93Z"/><path class="cls-5" d="M1246.44,1001.54c-2.86-5.76-5.9-11.41-9-16.79l5-2.9c3.19,5.49,6.28,11.25,9.2,17.12Z"/><path class="cls-5" d="M1449.94,409.74c0-.07-1.53-7.09-5.2-18.2l5.49-1.81c3.77,11.44,5.3,18.51,5.36,18.8Z"/><path class="cls-5" d="M1428.58,352.21A282.58,282.58,0,0,0,1407,315.59l4.73-3.31a289.93,289.93,0,0,1,22,37.36ZM1379.81,283a211.4,211.4,0,0,0-32.72-26.83l3.19-4.82a216.57,216.57,0,0,1,33.61,27.57Zm-70.24-46.24a206.94,206.94,0,0,0-40.8-11.09l1-5.7a213.2,213.2,0,0,1,41.93,11.41Z"/><path class="cls-5" d="M1207.41,223.48l-.47-5.75c6.54-.53,13.08-.85,19.42-.93l.08,5.78C1220.22,222.66,1213.82,223,1207.41,223.48Z"/><path class="cls-5" d="M1180.26,250.71l-3.66-4.47a179.32,179.32,0,0,1,15.7-11.71l3.1,4.88A170.26,170.26,0,0,0,1180.26,250.71Z"/><path class="cls-5" d="M1128.6,530.14A298.63,298.63,0,0,1,1110.54,495l5.3-2.28a294,294,0,0,0,17.72,34.5Zm-30.74-72.72a202.35,202.35,0,0,1-5.69-39.28l5.77-.25a196.31,196.31,0,0,0,5.53,38.16Zm2.53-77.94-5.69-1a190.09,190.09,0,0,1,10.93-38.19l5.35,2.16A184.54,184.54,0,0,0,1100.39,379.48Zm28.37-71.28-4.86-3.12A244.78,244.78,0,0,1,1148,273.61l4.29,3.86A239.86,239.86,0,0,0,1128.76,308.2Z"/><path class="cls-5" d="M1162.62,578.17c-4.14-5.06-8.17-10.19-11.95-15.24l4.62-3.46c3.74,5,7.71,10,11.8,15Z"/><path class="cls-5" d="M859.54,297.2a182.52,182.52,0,0,0-16.35-9.47l2.51-5.2a183.86,183.86,0,0,1,16.95,9.8Z"/><path class="cls-5" d="M984.66,734.82,979.18,733c4.37-13.19,8.28-26.39,11.61-39.23l5.59,1.45C993,708.2,989.07,721.52,984.66,734.82Zm20.62-79.94-5.69-1c2.46-13.64,4.33-27.25,5.55-40.47l5.75.53C1009.65,627.3,1007.76,641.08,1005.28,654.88Zm1.66-82.26a374.6,374.6,0,0,0-2.42-40.69l5.74-.66a381,381,0,0,1,2.45,41.31Zm-9.46-80.81a324,324,0,0,0-11.9-38.93l5.41-2a328.87,328.87,0,0,1,12.11,39.62Zm-28.68-76a316.23,316.23,0,0,0-21.44-34.6l4.7-3.35a321.35,321.35,0,0,1,21.83,35.24Zm-47.12-66.21a330.41,330.41,0,0,0-29.43-28.18L896,317a336.31,336.31,0,0,1,29.94,28.67Z"/><path class="cls-5" d="M963.15,791.53l-5.31-2.27c2.52-5.92,5-11.88,7.3-17.74l5.36,2.13C968.16,779.55,965.69,785.56,963.15,791.53Z"/><path class="cls-5" d="M539.78,623.36a112.71,112.71,0,0,1-3.31-19.5l5.77-.28-2.89.14,2.89-.14a108.65,108.65,0,0,0,3.15,18.4Z"/><path class="cls-5" d="M689.92,787.09a373,373,0,0,1-33.59-18l3-4.94a365.37,365.37,0,0,0,33.07,17.72Zm-65-39.63A278.62,278.62,0,0,1,596.47,722l4.15-4a273.92,273.92,0,0,0,27.84,25Zm-52.85-54.94a222.68,222.68,0,0,1-19.32-33.06L558,657a217.53,217.53,0,0,0,18.82,32.2Z"/><path class="cls-5" d="M743.38,808.18c-6.2-2-12.35-4.16-18.29-6.35l2-5.42c5.87,2.17,11.95,4.28,18.08,6.28Z"/><path class="cls-6" d="M822,431.2c-2.59,31.26-49.13,28.21-47.61-3.11C777,396.83,823.5,399.88,822,431.2Z"/><path class="cls-6" d="M744.67,218.14c-5.61-58.93,49.24-102.66,105.74-85.81,74,23.58,67.88,124.42,13.46,166-25.55,17.45-52.59,51.21-56.94,78.55-3.14,16.07-16,12.15-18-3.13-3.52-69.69,36.75-79.91,62.87-128.85,29.16-81.77-66.47-87.38-95.43-24.68C753.55,225.49,745.08,224.41,744.67,218.14Z"/><path class="cls-7" d="M484.25,758.93c-4.14,24.09-40.07,18.53-36.75-5.68C451.64,729.16,487.57,734.72,484.25,758.93Z"/><path class="cls-7" d="M438.81,588.22c-.33-46.13,45.25-76.33,88-59.38,55.85,23.37,44.18,101.24-.91,129.79-21,11.79-44.33,36.15-49.58,57.08C472.74,728,463,724,462.55,712.05c2-54.34,34-59.52,57.63-95.73,28.24-61.49-45.63-72.39-72.4-25.69C445.2,594.54,438.7,593.12,438.81,588.22Z"/><path class="cls-8" d="M468.83,1214.75c-4.81,27.93-46.45,21.49-42.6-6.58C431,1180.25,472.68,1186.69,468.83,1214.75Z"/><path class="cls-8" d="M416.15,1016.88c-.37-53.48,52.46-88.48,102-68.83,64.73,27.09,51.21,117.35-1.06,150.44-24.37,13.67-51.39,41.91-57.47,66.16-4.11,14.22-15.4,9.67-15.92-4.24,2.37-63,39.41-69,66.8-111,32.74-71.28-52.88-83.91-83.92-29.79C423.56,1024.2,416,1022.55,416.15,1016.88Z"/><path class="cls-6" d="M1272.74,1250c.39,27.66-40.74,28.93-42.07,1.3C1230.28,1223.64,1271.41,1222.37,1272.74,1250Z"/><path class="cls-6" d="M1186.76,1069.5c-9.94-51.25,34.51-94.31,85.54-84.31,67,14.41,70.16,103.46,25.92,144.58-21,17.49-41.82,49.43-43.32,73.79-1.39,14.38-13,12-16-1.21-9-60.89,25.48-73.28,44.26-118.47,18.65-74.27-65.78-71.07-85.88-13.56C1195.18,1075.21,1187.65,1075,1186.76,1069.5Z"/><path class="cls-6" d="M1193.68,301.66c-3.23,18.78-31.25,14.45-28.66-4.43C1168.26,278.45,1196.27,282.78,1193.68,301.66Z"/><path class="cls-6" d="M1158.25,168.56c-.26-36,35.28-59.51,68.58-46.3,43.54,18.23,34.45,78.94-.71,101.19-16.39,9.2-34.57,28.19-38.66,44.51-2.76,9.56-10.35,6.5-10.7-2.85,1.59-42.37,26.51-46.41,44.93-74.64,22-47.94-35.57-56.44-56.45-20C1163.23,173.49,1158.16,172.38,1158.25,168.56Z"/><path class="cls-8" d="M157.09,578.56c-3.23,18.78-31.24,14.45-28.65-4.43C131.67,555.35,159.68,559.68,157.09,578.56Z"/><path class="cls-8" d="M121.66,445.46c-.25-36,35.29-59.51,68.59-46.3,43.54,18.23,34.44,78.94-.71,101.2-16.4,9.19-34.57,28.19-38.66,44.5-2.76,9.56-10.36,6.5-10.71-2.85,1.6-42.37,26.51-46.41,44.94-74.64,22-47.94-35.58-56.44-56.45-20C126.64,450.39,121.58,449.28,121.66,445.46Z"/><path class="cls-6" d="M210.16,926.32c6.38,16.53-18,26.44-25,10.14C178.8,919.93,203.22,910,210.16,926.32Z"/><path class="cls-6" d="M118.39,837c-17.37-28.57-.24-64.31,32.63-69.66,43.43-6.23,65.14,46.54,47.71,81.08-8.69,15.16-14.13,39-9.61,53.95,2.36,8.94-5.16,10.12-9.9,2.83-18.95-34.56-1-49.67.24-81-5.31-48.75-55.31-28.06-54.6,11C124.71,838.59,120.14,840.12,118.39,837Z"/><path class="cls-7" d="M1532.94,552.74c6.38,16.53-18,26.44-25,10.14C1501.58,546.35,1526,536.44,1532.94,552.74Z"/><path class="cls-7" d="M1441.17,463.45c-17.37-28.57-.25-64.31,32.63-69.66,43.43-6.23,65.14,46.55,47.71,81.08-8.69,15.16-14.13,39-9.61,54,2.36,8.95-5.16,10.13-9.9,2.83-19-34.56-1-49.67.24-81-5.31-48.75-55.31-28.05-54.6,10.95C1447.49,465,1442.92,466.54,1441.17,463.45Z"/><path class="cls-9" d="M439.45,308.5c6.38,16.52-18,26.43-25,10.13C408.09,302.11,432.51,292.2,439.45,308.5Z"/><path class="cls-9" d="M347.68,219.21c-17.36-28.58-.24-64.32,32.63-69.66,43.44-6.24,65.15,46.54,47.72,81.07-8.7,15.16-14.14,39-9.62,53.95,2.36,8.95-5.15,10.13-9.9,2.84-18.94-34.57-1-49.68.24-81-5.3-48.76-55.31-28.06-54.59,11C354,220.76,349.44,222.29,347.68,219.21Z"/><path class="cls-9" d="M1236.84,776.79c3.4,24.2-32.51,29.87-36.73,5.8C1196.71,758.38,1232.62,752.72,1236.84,776.79Z"/><path class="cls-9" d="M1141.51,628.07c-14.37-43.84,19.83-86.49,65.67-83.38,60.31,5.23,73,82.95,38.71,123.89-16.43,17.64-31.2,47.95-29.82,69.48.37,12.75-10.1,12-14.19.7-14.62-52.38,14.23-67.06,25.69-108.74,8.15-67.17-65.52-55-76.78-2.4C1149.52,632.14,1142.9,632.77,1141.51,628.07Z"/><path class="cls-8" d="M1480.11,961c-4.19,19.6-33.45,13.87-29.92-5.86C1454.37,935.53,1483.63,941.26,1480.11,961Z"/><path class="cls-8" d="M1448.5,819.62c1.26-37.81,39.6-61.06,74-45.76,45,21,32.87,84.41-5,106.32-17.62,9-37.53,28.16-42.52,45.13-3.3,9.94-11.15,6.4-11.13-3.45,3.47-44.46,29.83-47.65,50.38-76.54,25.17-49.45-35-60.81-58.47-23.44C1453.53,825,1448.25,823.63,1448.5,819.62Z"/></g><g id="_1" data-name="1"><path class="cls-10" d="M865,723.39c-.41-3.07-.66-6.39-.79-9.85-.8-20,2.32-44.85,3.94-54.14.45-2.51.77-3.88.89-3.71q.22-.88.51-1.74a18.85,18.85,0,0,1,12-12.62h0a22.72,22.72,0,0,1,23,5.51c.12.12.23.25.34.37a18.75,18.75,0,0,1,4.7,16c0,.3-.08.61-.14.92s-.16.83-.25,1.23c-1-.63-3.66,25.47-3.68,44.41,0,6.24.28,11.71,1,15.19C945.34,736.59,828.47,774.91,865,723.39Z"/><path class="cls-10" d="M824.59,743.17c-27.83,36.25-40.61,78.29-68.94,112.57-2,1.72,15.19-85,23.15-134.44,5.87-15.57-10.14-20.44-10.14-20.44-54.6,39-132.82,191-27.21,223.54,77.62,17.52,113.18-84.32,149.92-133.23C921.15,747.64,856.31,701.13,824.59,743.17Z"/><path class="cls-11" d="M679.1,875.89c.69,24.18,17.36,59.93,63.83,59.93h.16c26.59-.07,46.24-19,61-45.88,27.91-50.66,38.53-129.6,45.73-163.66-31.16,3.42-73.63,50-86.8,88.31,3.63-16.47,8.8-41.22,10.85-58.94A115,115,0,0,0,774.8,743c-3.24.17-21.72.88-34.6-15.54-.52.63-3.18,3.64-7.12,8.7C716.89,756.92,679.07,812,679.1,875.89Z"/><path class="cls-12" d="M835.44,629.82s-2.08-21.52,2.93-37.1l13,4.62Z"/><path class="cls-10" d="M842.26,692.7c21.26,16.49,63.36,14.62,76.08-2.82,47.44-65.07-45.7-178.8-76.48-75.74C830.72,643.83,807.24,660.74,842.26,692.7Z"/><path class="cls-13" d="M865.38,633.37a2.76,2.76,0,1,1,3.83.78A2.77,2.77,0,0,1,865.38,633.37Z"/><path class="cls-13" d="M841.84,632.15a2.76,2.76,0,1,1,3.83.78A2.77,2.77,0,0,1,841.84,632.15Z"/><path class="cls-13" d="M851.72,655.11a11.3,11.3,0,0,0,4.6-.87,1,1,0,1,0-.86-1.9c-3.36,1.5-8.49.33-9.35-1.17-.3-.53.38-1.16,1-1.6,5.53-3.87,8.2-15.47,8.31-16a1,1,0,0,0-.79-1.25,1.08,1.08,0,0,0-1.25.79c0,.11-2.61,11.31-7.47,14.71-2.65,1.86-2,3.67-1.63,4.36C845.32,654,848.52,655.1,851.72,655.11Z"/><path class="cls-14" d="M844.45,606.42c14.27-9.63,41.46-4.91,54.9-6.57,0,0-.23,23,24.51,36.57,4.31,20.65,8.78,29.37-9.74,57.28h0a42.3,42.3,0,0,0,4.21-3.82h0C976.93,615.87,880.29,514.21,844.45,606.42Z"/><path class="cls-12" d="M827.84,563c6.63-17.84,30.95-29.91,55.22-11.56,18.69,14.14,36.88,11.93,38.44,28.89,35.57,11.5,23,50.7,23,50.7L927.35,631c-21.15-13.47-23.19-36.59-23.19-36.59h0a45,45,0,0,1-13,.48c-12.84-1.77-31.48-1.2-45,5.59S820.44,583,827.84,563Z"/><path class="cls-12" d="M823.73,668.15a45.17,45.17,0,0,0,.77,6.85c3.26,17.73,16.65,40,39.69,39.08a36.08,36.08,0,0,0,5.42-.63c10.16-.91,23.78-3.28,35.91-8.62,17.3-7.62,31.57-21.29,28.47-45.4h0v-.06L931.55,649h0l0-.09-.27-1.15h0L927.35,631l-12.46-11.3h0c.11,2.24,1.59,7,2.79,12.81,2.39,11.69,3.68,27.85-9.32,37.47l-.32.21c-11.14,7.15-25.27-1-40.44-7.62-14.13-6.13-29.15-10.87-43.5-.54q-.11.59-.18,1.2h0A31.46,31.46,0,0,0,823.73,668.15Zm54.56,13.69a114.56,114.56,0,0,1-13.14,1.54c-12.62.66-26-1.32-31.76-11.19,2.14-17.52,20.61-11.64,33.25-2.76C872.59,673.61,877.24,678.46,878.29,681.84Z"/><path class="cls-10" d="M948.51,644.44c-.84,8.92-7.34,15.6-14.52,14.93s-12.32-8.46-11.48-17.38,7.34-15.6,14.52-14.93S949.35,635.52,948.51,644.44Z"/><path class="cls-13" d="M930.33,634.8c.26-.14,6.4-3.34,10.39-.42a6.6,6.6,0,0,1,2.27,3.2s0,0,0,0c1,2.59,1,6.26.14,11a1.06,1.06,0,0,1-1,.86l-.18,0a1,1,0,0,1-.84-1.22,23.07,23.07,0,0,0,.28-8.8c-5.89,1.74-8.09,8.88-8.12,9a1,1,0,0,1-1,.75,1,1,0,0,1-.3,0,1,1,0,0,1-.7-1.29c.1-.36,2.51-8.23,9.4-10.34a4.33,4.33,0,0,0-1.15-1.37c-2.92-2.16-8.13.55-8.18.58a1,1,0,1,1-1-1.85Z"/><path class="cls-15" d="M977.4,929.57h6.8c-.18-1.25-.28-1.89-.28-1.89l-.84.25q-2.46.74-5,1.43Z"/><path class="cls-13" d="M851.75,671.29a1,1,0,0,0,.37-.08.93.93,0,0,0,.49-1.22c-.1-.24-2.59-5.85-10.39-6.56a.94.94,0,0,0-1,.85.93.93,0,0,0,.84,1c6.65.6,8.76,5.24,8.85,5.44A.92.92,0,0,0,851.75,671.29Z"/><path class="cls-10" d="M741.57,727.45l33.23,14.1c.25-.13-.44-14.14,9.18-16.82,10.58-3,21-15.52,20.77-16.06,3.31,8.49,19.45-7.67,14-10.69,3.69-3.4,1.21-7.26-3.4-9.5,3.08-3-.21-6.53-4.65-8a82.86,82.86,0,0,1,15.7-6.09c8.18-2.53,2.77-7.23-2.07-6.38C784.76,675,768.88,690.77,741.57,727.45Z"/><path class="cls-13" d="M841.38,622.4l.21,0a18.34,18.34,0,0,0,12.63-9.77.94.94,0,0,0-.49-1.23.93.93,0,0,0-1.22.49,16.82,16.82,0,0,1-11.34,8.7.93.93,0,0,0,.21,1.84Z"/><path class="cls-13" d="M876.32,625.35a.94.94,0,0,0,.79-1.44,20,20,0,0,0-14-8,.93.93,0,0,0-.23,1.85,18.39,18.39,0,0,1,12.67,7.15A.93.93,0,0,0,876.32,625.35Z"/><path class="cls-16" d="M743.09,935.82c26.59-.07,46.24-19,61-45.88l-4.41-83.53S774,859.19,759.37,906.35A77.68,77.68,0,0,1,743.09,935.82Z"/><path class="cls-10" d="M942,1610.83l1.67-.87c0,1.17,1.44,5.23,2.61,5.23l49.33,1c1.17,0,1.89-2.2,1.89-3.36l4.2-1.21c0-7.38-.6-10.06-3.87-15.78-12-15.85,2.33-87.27,1.91-105.85,3-5.09-51.94-1.1-52.71-2.3a2.12,2.12,0,0,0-2.11,2.28l6.46,81.46C953.74,1590.56,942.07,1595.81,942,1610.83Z"/><path class="cls-10" d="M728.19,1617.93h98.25c8.58-.34,8.52-9.09,6.93-15.87-5.41-24.45,4.16-80.61,5.93-105.75a7.81,7.81,0,0,0-7.77-8.61H788.16a7.81,7.81,0,0,0-7.75,8.78l7.89,62.89c3,29.1-27.07,31.54-46.88,35.55-7.77,1.95-15.9,5-19.69,10.78A7.82,7.82,0,0,0,728.19,1617.93Z"/><path class="cls-17" d="M837.12,1607.74c-.27,4.82-2.66,10.31-8.24,10.19H727c-25.42-7.79,11.78-43.37,57.68-40.68,3.63.87,20.59,3.77,40.92,1C837,1577,837.54,1597.79,837.12,1607.74Z"/><path class="cls-17" d="M993.91,1617.93H950.35c-21.05-2.39-6.3-40.41,21.77-40.68C1000.35,1577,1014.93,1615.59,993.91,1617.93Z"/><path class="cls-15" d="M751.26,1604.14a2.16,2.16,0,0,1-2-1.35c-4-9.77-11.2-12.71-11.27-12.74-2.63-1-1-5.1,1.59-4,.36.14,9,3.67,13.69,15.14A2.18,2.18,0,0,1,751.26,1604.14Z"/><path class="cls-15" d="M768.09,1602.11a2.17,2.17,0,0,1-2.07-1.53,30,30,0,0,0-13.31-16.41c-2.51-1.26-.48-5.18,2-3.84a34.1,34.1,0,0,1,15.45,19A2.18,2.18,0,0,1,768.09,1602.11Z"/><path class="cls-15" d="M787.24,1599.75a2.17,2.17,0,0,1-2-1.45,39,39,0,0,0-13.47-18c-2.36-1.52.07-5.2,2.39-3.61a42.75,42.75,0,0,1,15.17,20.2A2.17,2.17,0,0,1,787.24,1599.75Z"/><path class="cls-15" d="M987.75,1590.2c-16.6-9.35-31.27,2.92-33.6-1.27-1.95-4.39,19.7-11,34.69-2.77A2.18,2.18,0,0,1,987.75,1590.2Z"/><path class="cls-18" d="M719.83,1607.74H837.12a26.85,26.85,0,0,1-3.22,10.19H727A7.57,7.57,0,0,1,719.83,1607.74Z"/><path class="cls-18" d="M993.91,1617.93H950.35a9.64,9.64,0,0,1-9.66-10.19h62.88A9.65,9.65,0,0,1,993.91,1617.93Z"/><path class="cls-8" d="M1006.64,1562.35s-46.46,11.28-70.4-.85c-12.46-78.12-47-295.66-59.09-444.72-.46,8.69-25.76,359.24-30.58,444.72-16.53,5.53-49.75,12.2-68.35-1.19-8.35-90-35.17-386.26,5.23-628.23,0,0,110.72,12.32,197.18-13.81C1004.43,995,1010.74,1470.24,1006.64,1562.35Z"/><path class="cls-19" d="M796.09,1552.84c-22.47-260,4.11-481.24,10.77-483.71C811.73,1070.25,784,1295.2,796.09,1552.84Z"/><path class="cls-19" d="M970.08,1552.84c-15.5-266.44-54.61-514.86-50-518.42C926,1034.07,965.71,1288.13,970.08,1552.84Z"/><path class="cls-11" d="M996.75,1022.74q-5.94,7.21-12.64,14.47s-21.76,4.09-38.79-18.57c69.43-150.14-64.44-158.35-37.85-292C997.09,737.26,1121.75,871,996.75,1022.74Z"/><path class="cls-16" d="M996.75,1022.74q-5.94,7.21-12.64,14.47s-21.76,4.09-38.79-18.57c2-7.23,5.06-11.5,7.19-17.54C952.51,1001.1,965.48,1016.31,996.75,1022.74Z"/><path class="cls-19" d="M985.67,1040.12c-37.41,2.27-55.9-37.22-40.78-28,.38,1,9.55,23.72,44,22.22C994.36,1035.45,992.12,1041.31,985.67,1040.12Z"/><path class="cls-20" d="M767.35,1036.1s6.76,29,60.88,43.32c15.5,4.1,24.46,2.07,26.73-8.67,1.14-5.4,4.09-14.79,9.51-18.27,0,0,12.11,5.23,16.68,12.64,10,16.27,25.11,1.49,32.45-15.53,9.09-21.06,32.12-38.9,37.15-56.56Z"/><path class="cls-11" d="M987.88,1000.24c-1.76,3.12-2.81,2.62-4.61.81-48.64-36.3-66,43-118.41,44.45-53.33,5.28-83,8.29-97.52-9.4-25.35-39.31,15-215,47.6-257.55,14.29-22.12,36.37-43.68,50-55.16-.28,1.15-5.27,31.47,41.52,1.55,2.35,1,18.18,17.21,17.25,24.95C926.1,785.46,1010.5,960.28,987.88,1000.24Z"/><path class="cls-16" d="M959.74,1011.41l-10.66-2.21c42.62-95.94-7.5-136.5-34-190.55C976.55,889.8,985.84,928.8,959.74,1011.41Z"/><path class="cls-20" d="M921.86,729.25c.26,17.85-45.53,33.61-48.13,33.63l-5.49-16.24c-7,1.74-13.25,11.6-13.25,11.6-19-18.54-9.88-29.68-5.12-32,5.5-2.63,15.1-2.91,15.09-2.89-.28,1.15-1,28.66,41.52,1.55C912,722.4,921.86,729.25,921.86,729.25Z"/><path class="cls-19" d="M846.57,1561.5a108.81,108.81,0,0,1-14.34,3.82s23.34-347.88,26.82-394.31,18.1-54.23,18.1-54.23S846.18,1554,846.57,1561.5Z"/><path class="cls-19" d="M847.49,1544.64c-.62,10-1,16-.92,16.86-16.53,5.53-49.75,12.2-68.35-1.19,0,0-.59-5.51-1.56-15.67C776.66,1544.64,809.24,1559.62,847.49,1544.64Z"/><path class="cls-19" d="M1006.64,1562.35s-46.46,11.28-70.4-.85c0,0-1-6-2.72-16.86,0,0,32.73,9.17,73.68,0C1007.38,1555.18,1006.49,1561.47,1006.64,1562.35Z"/><path class="cls-16" d="M733.08,736.15l.58.77c15.29,19.65,40.25,18.73,40.25,18.73A115,115,0,0,0,774.8,743c-3.24.17-21.72.88-34.6-15.54C739.68,728.08,737,731.09,733.08,736.15Z"/></g></g></g></svg>